<svg width="91" height="17" viewBox="0 0 91 17" fill="none" xmlns="http://www.w3.org/2000/svg">
<path d="M4.512 4.552V11.448C4.512 11.9173 4.59733 12.2373 4.768 12.408C4.94933 12.5787 5.248 12.664 5.664 12.664V13C5.45067 12.9893 5.136 12.9787 4.72 12.968C4.31467 12.9467 3.89333 12.936 3.456 12.936C2.912 12.936 2.384 12.9467 1.872 12.968C1.37067 12.9787 0.981333 12.9893 0.704 13V12.664C1.184 12.664 1.552 12.5787 1.808 12.408C2.07467 12.2267 2.208 11.8747 2.208 11.352V7.448C2.208 6.936 2.16533 6.55733 2.08 6.312C1.99467 6.06667 1.83467 5.90667 1.6 5.832C1.36533 5.75733 1.04533 5.72 0.64 5.72V5.368C1.55733 5.34667 2.31467 5.27733 2.912 5.16C3.52 5.04267 4.05333 4.84 4.512 4.552ZM13.261 1.432L13.325 1.752C12.845 1.90133 12.365 2.10933 11.885 2.376C11.4157 2.632 10.9837 3.01067 10.589 3.512C10.205 4.00267 9.89033 4.66933 9.645 5.512C9.41033 6.35467 9.293 7.43733 9.293 8.76C9.293 9.816 9.36767 10.648 9.517 11.256C9.677 11.8533 9.87433 12.28 10.109 12.536C10.3437 12.7813 10.573 12.904 10.797 12.904C11.1597 12.904 11.485 12.648 11.773 12.136C12.061 11.624 12.205 10.7653 12.205 9.56C12.205 8.408 12.0717 7.59733 11.805 7.128C11.5383 6.65867 11.2183 6.424 10.845 6.424C10.6637 6.424 10.461 6.47733 10.237 6.584C10.013 6.69067 9.805 6.86133 9.613 7.096C9.421 7.33067 9.28233 7.66133 9.197 8.088L9.053 8.024C9.117 7.512 9.27167 7.10667 9.517 6.808C9.773 6.49867 10.077 6.28 10.429 6.152C10.781 6.024 11.133 5.96 11.485 5.96C12.061 5.96 12.5837 6.09867 13.053 6.376C13.5223 6.65333 13.901 7.048 14.189 7.56C14.477 8.072 14.621 8.69067 14.621 9.416C14.621 10.2373 14.4397 10.9307 14.077 11.496C13.7143 12.0613 13.229 12.4933 12.621 12.792C12.013 13.08 11.3517 13.224 10.637 13.224C9.46367 13.224 8.541 12.8293 7.869 12.04C7.20767 11.24 6.877 10.1147 6.877 8.664C6.877 7.704 7.01567 6.85067 7.293 6.104C7.57033 5.35733 7.93833 4.712 8.397 4.168C8.85567 3.61333 9.36233 3.14933 9.917 2.776C10.4823 2.40267 11.053 2.10933 11.629 1.896C12.2157 1.672 12.7597 1.51733 13.261 1.432ZM21.2538 4.12C21.2538 4.824 21.2591 5.37333 21.2698 5.768C21.2804 6.152 21.2964 6.49867 21.3178 6.808C21.1791 6.776 20.8858 6.75467 20.4378 6.744C19.9898 6.73333 19.5418 6.728 19.0938 6.728H16.6298L16.3738 9.464C16.6298 9.28267 16.9551 9.13333 17.3498 9.016C17.7551 8.888 18.2351 8.824 18.7898 8.824C19.8671 8.824 20.6564 9.06933 21.1578 9.56C21.6591 10.0507 21.9098 10.648 21.9098 11.352C21.9098 11.9707 21.7231 12.5253 21.3498 13.016C20.9871 13.5067 20.4964 13.928 19.8778 14.28C19.2591 14.632 18.5764 14.8987 17.8298 15.08C17.0831 15.272 16.3311 15.368 15.5738 15.368V15.08C16.2351 15.0693 16.8644 14.9253 17.4618 14.648C18.0591 14.3707 18.5498 13.96 18.9338 13.416C19.3284 12.8827 19.5258 12.2267 19.5258 11.448C19.5258 10.7867 19.3711 10.2747 19.0618 9.912C18.7524 9.54933 18.2938 9.368 17.6858 9.368C17.3764 9.368 17.1098 9.41067 16.8858 9.496C16.6724 9.57067 16.4591 9.68267 16.2458 9.832L16.0218 9.688L16.5338 4.68C16.6511 4.70133 16.7844 4.71733 16.9338 4.728C17.0938 4.73867 17.2484 4.744 17.3978 4.744H20.0378C20.3471 4.744 20.5604 4.696 20.6778 4.6C20.8058 4.504 20.8858 4.344 20.9178 4.12H21.2538ZM31.1699 4.504C32.0232 4.504 32.7752 4.68 33.4259 5.032C34.0765 5.37333 34.5885 5.864 34.9619 6.504C35.3352 7.13333 35.5219 7.87467 35.5219 8.728C35.5219 9.58133 35.3299 10.3493 34.9459 11.032C34.5725 11.704 34.0445 12.2373 33.3619 12.632C32.6899 13.0267 31.9005 13.224 30.9939 13.224C30.1619 13.224 29.4152 13.048 28.7539 12.696C28.1032 12.344 27.5859 11.8533 27.2019 11.224C26.8285 10.584 26.6419 9.83733 26.6419 8.984C26.6419 8.14133 26.8285 7.384 27.2019 6.712C27.5752 6.02933 28.1032 5.49067 28.7859 5.096C29.4685 4.70133 30.2632 4.504 31.1699 4.504ZM31.0259 4.792C30.4499 4.792 29.9752 5.16 29.6019 5.896C29.2392 6.62133 29.0579 7.63467 29.0579 8.936C29.0579 9.896 29.1539 10.6693 29.3459 11.256C29.5379 11.8427 29.7885 12.2693 30.0979 12.536C30.4179 12.8027 30.7645 12.936 31.1379 12.936C31.7139 12.936 32.1832 12.568 32.5459 11.832C32.9192 11.096 33.1059 10.0773 33.1059 8.776C33.1059 7.816 33.0099 7.04267 32.8179 6.456C32.6259 5.86933 32.3699 5.448 32.0499 5.192C31.7405 4.92533 31.3992 4.792 31.0259 4.792ZM41.4824 4.504C42.3357 4.504 43.0877 4.68 43.7384 5.032C44.389 5.37333 44.901 5.864 45.2744 6.504C45.6477 7.13333 45.8344 7.87467 45.8344 8.728C45.8344 9.58133 45.6424 10.3493 45.2584 11.032C44.885 11.704 44.357 12.2373 43.6744 12.632C43.0024 13.0267 42.213 13.224 41.3064 13.224C40.4744 13.224 39.7277 13.048 39.0664 12.696C38.4157 12.344 37.8984 11.8533 37.5144 11.224C37.141 10.584 36.9544 9.83733 36.9544 8.984C36.9544 8.14133 37.141 7.384 37.5144 6.712C37.8877 6.02933 38.4157 5.49067 39.0984 5.096C39.781 4.70133 40.5757 4.504 41.4824 4.504ZM41.3384 4.792C40.7624 4.792 40.2877 5.16 39.9144 5.896C39.5517 6.62133 39.3704 7.63467 39.3704 8.936C39.3704 9.896 39.4664 10.6693 39.6584 11.256C39.8504 11.8427 40.101 12.2693 40.4104 12.536C40.7304 12.8027 41.077 12.936 41.4504 12.936C42.0264 12.936 42.4957 12.568 42.8584 11.832C43.2317 11.096 43.4184 10.0773 43.4184 8.776C43.4184 7.816 43.3224 7.04267 43.1304 6.456C42.9384 5.86933 42.6824 5.448 42.3624 5.192C42.053 4.92533 41.7117 4.792 41.3384 4.792ZM51.7949 4.504C52.6482 4.504 53.4002 4.68 54.0509 5.032C54.7015 5.37333 55.2135 5.864 55.5869 6.504C55.9602 7.13333 56.1469 7.87467 56.1469 8.728C56.1469 9.58133 55.9549 10.3493 55.5709 11.032C55.1975 11.704 54.6695 12.2373 53.9869 12.632C53.3149 13.0267 52.5255 13.224 51.6189 13.224C50.7869 13.224 50.0402 13.048 49.3789 12.696C48.7282 12.344 48.2109 11.8533 47.8269 11.224C47.4535 10.584 47.2669 9.83733 47.2669 8.984C47.2669 8.14133 47.4535 7.384 47.8269 6.712C48.2002 6.02933 48.7282 5.49067 49.4109 5.096C50.0935 4.70133 50.8882 4.504 51.7949 4.504ZM51.6509 4.792C51.0749 4.792 50.6002 5.16 50.2269 5.896C49.8642 6.62133 49.6829 7.63467 49.6829 8.936C49.6829 9.896 49.7789 10.6693 49.9709 11.256C50.1629 11.8427 50.4135 12.2693 50.7229 12.536C51.0429 12.8027 51.3895 12.936 51.7629 12.936C52.3389 12.936 52.8082 12.568 53.1709 11.832C53.5442 11.096 53.7309 10.0773 53.7309 8.776C53.7309 7.816 53.6349 7.04267 53.4429 6.456C53.2509 5.86933 52.9949 5.448 52.6749 5.192C52.3655 4.92533 52.0242 4.792 51.6509 4.792ZM64.2418 4.552V14.312C64.2418 14.8133 64.3698 15.144 64.6258 15.304C64.8818 15.4747 65.2338 15.56 65.6818 15.56V15.896C65.4044 15.8853 65.0204 15.8693 64.5298 15.848C64.0498 15.8373 63.5378 15.832 62.9938 15.832C62.5991 15.832 62.2098 15.8373 61.8258 15.848C61.4524 15.8693 61.1698 15.8853 60.9778 15.896V15.56C61.3298 15.56 61.5751 15.4853 61.7138 15.336C61.8631 15.1867 61.9378 14.8987 61.9378 14.472V6.472C61.9378 5.992 61.8631 5.64 61.7138 5.416C61.5644 5.18133 61.2978 5.064 60.9138 5.064V4.728C61.2551 4.76 61.5858 4.776 61.9058 4.776C62.3431 4.776 62.7591 4.76 63.1538 4.728C63.5484 4.68533 63.9111 4.62667 64.2418 4.552ZM66.7218 4.504C67.5324 4.504 68.2098 4.83467 68.7538 5.496C69.3084 6.15733 69.5858 7.15467 69.5858 8.488C69.5858 9.52267 69.4311 10.392 69.1218 11.096C68.8124 11.8 68.3804 12.3333 67.8258 12.696C67.2818 13.048 66.6311 13.224 65.8738 13.224C65.4578 13.224 65.0791 13.1493 64.7378 13C64.3964 12.8613 64.1351 12.6587 63.9538 12.392L64.1138 12.184C64.2204 12.376 64.3698 12.5253 64.5618 12.632C64.7644 12.7387 64.9938 12.792 65.2498 12.792C65.7298 12.792 66.1084 12.632 66.3858 12.312C66.6631 11.9813 66.8604 11.5227 66.9778 10.936C67.1058 10.3387 67.1698 9.62933 67.1698 8.808C67.1698 7.89067 67.1111 7.17067 66.9938 6.648C66.8764 6.12533 66.7164 5.752 66.5138 5.528C66.3111 5.304 66.0658 5.192 65.7778 5.192C65.3938 5.192 65.0418 5.34133 64.7218 5.64C64.4124 5.93867 64.2364 6.36533 64.1938 6.92L64.1138 6.36C64.3058 5.752 64.6311 5.29333 65.0898 4.984C65.5591 4.664 66.1031 4.504 66.7218 4.504ZM78.1611 4.728V5.048C77.9585 5.10133 77.7665 5.22933 77.5851 5.432C77.4038 5.624 77.2278 5.95467 77.0571 6.424L74.8011 12.76L74.2091 13.88L70.7211 5.96C70.5398 5.544 70.3585 5.29333 70.1771 5.208C70.0065 5.112 69.8571 5.064 69.7291 5.064V4.728C70.0811 4.76 70.4438 4.78667 70.8171 4.808C71.2011 4.81867 71.5691 4.824 71.9211 4.824C72.3585 4.824 72.7585 4.81333 73.1211 4.792C73.4838 4.77067 73.8251 4.74933 74.1451 4.728V5.064C73.9318 5.064 73.7291 5.08 73.5371 5.112C73.3558 5.13333 73.2278 5.208 73.1531 5.336C73.0891 5.45333 73.1211 5.66133 73.2491 5.96L75.2651 10.824L75.1211 10.92L76.3051 7.608C76.6038 6.744 76.6518 6.11467 76.4491 5.72C76.2465 5.31467 75.8891 5.09067 75.3771 5.048V4.728C75.6225 4.73867 75.8891 4.74933 76.1771 4.76C76.4651 4.77067 76.7158 4.776 76.9291 4.776C77.1425 4.776 77.3665 4.77067 77.6011 4.76C77.8358 4.74933 78.0225 4.73867 78.1611 4.728ZM74.8011 12.76L74.1931 14.472C73.9905 15.016 73.7558 15.3947 73.4891 15.608C73.3398 15.736 73.1478 15.832 72.9131 15.896C72.6785 15.9707 72.4065 16.008 72.0971 16.008C71.8411 16.008 71.5745 15.9653 71.2971 15.88C71.0305 15.7947 70.8065 15.656 70.6251 15.464C70.4438 15.272 70.3531 15.0267 70.3531 14.728C70.3531 14.3973 70.4705 14.1307 70.7051 13.928C70.9398 13.736 71.2491 13.64 71.6331 13.64C71.9851 13.64 72.2731 13.7253 72.4971 13.896C72.7211 14.0667 72.8331 14.3173 72.8331 14.648C72.8331 14.8613 72.7638 15.064 72.6251 15.256C72.4971 15.448 72.2998 15.592 72.0331 15.688C72.0865 15.6987 72.1505 15.704 72.2251 15.704C72.2998 15.704 72.3585 15.704 72.4011 15.704C72.7211 15.704 73.0038 15.6027 73.2491 15.4C73.4945 15.1973 73.6971 14.8773 73.8571 14.44L74.4171 12.792L74.8011 12.76ZM86.7479 0.44L86.9879 0.487999C86.8812 1.05333 86.7319 1.52267 86.5399 1.896C86.3585 2.25867 86.1505 2.53067 85.9159 2.712C85.7025 2.89333 85.4412 3.032 85.1319 3.128C84.8225 3.21333 84.4652 3.26667 84.0599 3.288C83.8999 3.29867 83.6812 3.31467 83.4039 3.336C83.1372 3.34667 82.8065 3.37333 82.4119 3.416C81.8679 3.48 81.4199 3.58667 81.0679 3.736C80.7159 3.87467 80.4279 4.088 80.2039 4.376C79.9905 4.664 79.8145 5.05867 79.6759 5.56C79.5479 6.06133 79.4359 6.70133 79.3399 7.48L80.5559 7.768L79.1639 8.424C79.2279 7.58133 79.4412 6.904 79.8039 6.392C80.1772 5.88 80.6519 5.50667 81.2279 5.272C81.8039 5.03733 82.4332 4.92 83.1159 4.92C83.8945 4.92 84.5559 5.06933 85.0999 5.368C85.6545 5.66667 86.0812 6.11467 86.3799 6.712C86.6785 7.29867 86.8279 8.04533 86.8279 8.952C86.8279 9.912 86.6572 10.712 86.3159 11.352C85.9745 11.9813 85.4999 12.4507 84.8919 12.76C84.2945 13.0693 83.5905 13.224 82.7799 13.224C81.8412 13.224 81.0945 13.032 80.5399 12.648C79.9959 12.2533 79.6012 11.6773 79.3559 10.92C79.1212 10.152 79.0039 9.21333 79.0039 8.104C79.0039 7.74133 79.0199 7.304 79.0519 6.792C79.0945 6.26933 79.1639 5.73067 79.2599 5.176C79.3665 4.61067 79.5212 4.08267 79.7239 3.592C79.9372 3.09067 80.2145 2.68 80.5559 2.36C80.8012 2.12533 81.0892 1.944 81.4199 1.816C81.7505 1.688 82.1239 1.59733 82.5399 1.544C82.9985 1.49067 83.4199 1.45867 83.8039 1.448C84.1985 1.42667 84.5292 1.41067 84.7959 1.4C85.3399 1.37867 85.7505 1.29333 86.0279 1.144C86.3159 0.994666 86.5559 0.759999 86.7479 0.44ZM82.9559 5.24C82.6785 5.24 82.4225 5.35733 82.1879 5.592C81.9532 5.82667 81.7612 6.216 81.6119 6.76C81.4732 7.304 81.4039 8.03467 81.4039 8.952C81.4039 9.86933 81.4732 10.6213 81.6119 11.208C81.7612 11.7947 81.9532 12.2267 82.1879 12.504C82.4225 12.7707 82.6732 12.904 82.9399 12.904C83.2065 12.904 83.4305 12.8027 83.6119 12.6C83.8039 12.3973 83.9532 12.1147 84.0599 11.752C84.1772 11.3787 84.2625 10.952 84.3159 10.472C84.3799 9.98133 84.4119 9.45333 84.4119 8.888C84.4119 7.56533 84.2732 6.62667 83.9959 6.072C83.7185 5.51733 83.3719 5.24 82.9559 5.24ZM89.5819 10.76C89.9979 10.76 90.3285 10.872 90.5739 11.096C90.8192 11.3093 90.9419 11.608 90.9419 11.992C90.9419 12.376 90.8192 12.68 90.5739 12.904C90.3285 13.1173 89.9979 13.224 89.5819 13.224C89.1659 13.224 88.8352 13.1173 88.5899 12.904C88.3445 12.68 88.2219 12.376 88.2219 11.992C88.2219 11.608 88.3445 11.3093 88.5899 11.096C88.8352 10.872 89.1659 10.76 89.5819 10.76Z" fill="#D0D0D0"/>
</svg>
