<svg width="263" height="27" viewBox="0 0 263 27" fill="none" xmlns="http://www.w3.org/2000/svg">
<path d="M13.0166 0.00799775C14.6006 0.00799775 15.8966 0.247998 16.9046 0.727999C17.9366 1.184 18.8486 1.724 19.6406 2.348C20.1206 2.708 20.4806 2.756 20.7206 2.492C20.9846 2.204 21.1646 1.544 21.2606 0.512H22.0886C22.0406 1.448 22.0046 2.588 21.9806 3.932C21.9566 5.252 21.9446 7.016 21.9446 9.224H21.1166C20.9966 8.12 20.8406 7.184 20.6486 6.416C20.4566 5.624 20.1926 4.928 19.8566 4.328C19.5206 3.728 19.0406 3.188 18.4166 2.708C17.8166 2.108 17.1206 1.664 16.3286 1.376C15.5366 1.088 14.7086 0.943999 13.8446 0.943999C12.5486 0.943999 11.4446 1.292 10.5326 1.988C9.62061 2.66 8.87661 3.584 8.30061 4.76C7.74861 5.936 7.34061 7.268 7.07661 8.756C6.81261 10.22 6.68061 11.744 6.68061 13.328C6.68061 14.936 6.81261 16.484 7.07661 17.972C7.36461 19.436 7.79661 20.744 8.37261 21.896C8.97261 23.048 9.74061 23.96 10.6766 24.632C11.6126 25.304 12.7166 25.64 13.9886 25.64C14.7806 25.64 15.5726 25.496 16.3646 25.208C17.1806 24.896 17.8766 24.452 18.4526 23.876C19.3886 23.156 20.0246 22.268 20.3606 21.212C20.6966 20.132 20.9486 18.704 21.1166 16.928H21.9446C21.9446 19.208 21.9566 21.056 21.9806 22.472C22.0046 23.864 22.0406 25.04 22.0886 26H21.2606C21.1646 24.968 20.9966 24.32 20.7566 24.056C20.5406 23.792 20.1686 23.828 19.6406 24.164C18.7526 24.788 17.8046 25.34 16.7966 25.82C15.8126 26.276 14.5406 26.504 12.9806 26.504C10.4366 26.504 8.20461 25.988 6.28461 24.956C4.38861 23.924 2.91261 22.436 1.85661 20.492C0.800609 18.548 0.272609 16.208 0.272609 13.472C0.272609 10.784 0.812609 8.432 1.89261 6.416C2.99661 4.4 4.49661 2.828 6.39261 1.7C8.31261 0.571998 10.5206 0.00799775 13.0166 0.00799775ZM44.5914 0.512C44.4954 1.568 44.4234 2.588 44.3754 3.572C44.3514 4.556 44.3394 5.312 44.3394 5.84C44.3394 6.32 44.3514 6.776 44.3754 7.208C44.3994 7.64 44.4234 8 44.4474 8.288H43.6194C43.3794 6.536 43.0074 5.156 42.5034 4.148C41.9994 3.116 41.3394 2.396 40.5234 1.988C39.7314 1.556 38.7954 1.34 37.7154 1.34H36.2394C35.5194 1.34 34.9794 1.4 34.6194 1.52C34.2834 1.64 34.0554 1.88 33.9354 2.24C33.8154 2.576 33.7554 3.128 33.7554 3.896V22.616C33.7554 23.36 33.8154 23.912 33.9354 24.272C34.0554 24.632 34.2834 24.872 34.6194 24.992C34.9794 25.112 35.5194 25.172 36.2394 25.172H38.0034C39.0834 25.172 40.0314 24.944 40.8474 24.488C41.6874 24.008 42.3954 23.204 42.9714 22.076C43.5714 20.948 44.0274 19.424 44.3394 17.504H45.1674C45.0954 18.272 45.0594 19.28 45.0594 20.528C45.0594 21.08 45.0714 21.86 45.0954 22.868C45.1194 23.876 45.1914 24.92 45.3114 26C44.0874 25.952 42.7074 25.928 41.1714 25.928C39.6354 25.904 38.2674 25.892 37.0674 25.892C36.2514 25.892 35.1714 25.892 33.8274 25.892C32.4834 25.892 31.0554 25.904 29.5434 25.928C28.0314 25.928 26.6274 25.952 25.3314 26V25.28C26.0994 25.232 26.6754 25.136 27.0594 24.992C27.4434 24.848 27.6954 24.56 27.8154 24.128C27.9594 23.696 28.0314 23.048 28.0314 22.184V4.328C28.0314 3.44 27.9594 2.792 27.8154 2.384C27.6954 1.952 27.4314 1.664 27.0234 1.52C26.6394 1.352 26.0754 1.256 25.3314 1.232V0.512C26.6274 0.536 28.0314 0.559999 29.5434 0.583999C31.0554 0.607999 32.4834 0.619998 33.8274 0.619998C35.1714 0.619998 36.2514 0.619998 37.0674 0.619998C38.1714 0.619998 39.4194 0.619998 40.8114 0.619998C42.2274 0.595999 43.4874 0.559999 44.5914 0.512ZM38.9754 12.824C38.9754 12.824 38.9754 12.944 38.9754 13.184C38.9754 13.424 38.9754 13.544 38.9754 13.544H32.6754C32.6754 13.544 32.6754 13.424 32.6754 13.184C32.6754 12.944 32.6754 12.824 32.6754 12.824H38.9754ZM40.0194 8.072C39.9234 9.44 39.8754 10.484 39.8754 11.204C39.8994 11.924 39.9114 12.584 39.9114 13.184C39.9114 13.784 39.9234 14.444 39.9474 15.164C39.9714 15.884 40.0314 16.928 40.1274 18.296H39.2994C39.1794 17.456 38.9514 16.676 38.6154 15.956C38.3034 15.236 37.8474 14.66 37.2474 14.228C36.6474 13.772 35.8674 13.544 34.9074 13.544V12.824C35.8674 12.824 36.6354 12.56 37.2114 12.032C37.7874 11.504 38.2314 10.88 38.5434 10.16C38.8554 9.416 39.0714 8.72 39.1914 8.072H40.0194ZM58.1868 0.00799775C60.6108 0.00799775 62.5788 0.487998 64.0908 1.448C65.6268 2.408 66.3948 3.74 66.3948 5.444C66.3948 6.452 66.1308 7.352 65.6028 8.144C65.0748 8.912 64.3908 9.596 63.5508 10.196C62.7108 10.772 61.7988 11.252 60.8148 11.636C59.8548 12.02 58.9188 12.308 58.0068 12.5C59.1588 12.524 60.3108 12.668 61.4628 12.932C62.6148 13.196 63.6588 13.604 64.5948 14.156C65.5548 14.708 66.3228 15.404 66.8988 16.244C67.4748 17.06 67.7628 18.032 67.7628 19.16C67.7628 20.336 67.4388 21.392 66.7908 22.328C66.1668 23.24 65.3148 24.008 64.2348 24.632C63.1788 25.232 61.9788 25.688 60.6348 26C59.2908 26.336 57.9108 26.504 56.4948 26.504C55.2708 26.504 54.0828 26.372 52.9308 26.108C51.8028 25.844 50.8308 25.412 50.0148 24.812C49.4868 24.428 49.0188 23.96 48.6108 23.408C48.2268 22.832 48.0348 22.196 48.0348 21.5C48.0348 20.588 48.3348 19.868 48.9348 19.34C49.5348 18.812 50.2548 18.548 51.0948 18.548C51.9348 18.548 52.6188 18.788 53.1468 19.268C53.6748 19.748 53.9388 20.468 53.9388 21.428C53.9388 22.172 53.6868 22.808 53.1828 23.336C52.7028 23.864 52.0308 24.236 51.1668 24.452C51.6228 24.812 52.2588 25.112 53.0748 25.352C53.8908 25.592 54.8388 25.712 55.9188 25.712C57.9108 25.712 59.4588 25.16 60.5628 24.056C61.6908 22.928 62.2548 21.32 62.2548 19.232C62.2548 18.128 62.0868 17.096 61.7508 16.136C61.4148 15.176 60.8868 14.396 60.1668 13.796C59.4468 13.196 58.5348 12.872 57.4308 12.824C57.1908 12.944 56.9388 13.052 56.6748 13.148C56.4348 13.244 56.1708 13.292 55.8828 13.292C55.6908 13.292 55.5108 13.244 55.3428 13.148C55.1988 13.052 55.1268 12.896 55.1268 12.68C55.1268 12.296 55.4028 12.104 55.9548 12.104C56.1948 12.104 56.4468 12.128 56.7108 12.176C56.9748 12.224 57.2268 12.272 57.4668 12.32C58.3548 11.96 59.0388 11.468 59.5188 10.844C60.0228 10.196 60.3708 9.464 60.5628 8.648C60.7548 7.832 60.8508 6.98 60.8508 6.092C60.8508 4.316 60.5028 3.032 59.8068 2.24C59.1348 1.448 58.1508 1.052 56.8548 1.052C55.4868 1.052 54.3588 1.412 53.4708 2.132C52.5828 2.828 51.8988 3.764 51.4188 4.94C50.9628 6.092 50.6868 7.364 50.5908 8.756H49.7628C49.7628 7.244 49.7508 5.972 49.7268 4.94C49.7268 3.908 49.7148 3.032 49.6908 2.312C49.6908 1.592 49.6668 0.955999 49.6188 0.403999H50.4468C50.5188 1.052 50.6148 1.544 50.7348 1.88C50.8548 2.192 51.0588 2.348 51.3468 2.348C51.5388 2.348 51.8268 2.216 52.2108 1.952C52.7148 1.616 53.2188 1.304 53.7228 1.016C54.2268 0.704 54.8268 0.463999 55.5228 0.295998C56.2428 0.103998 57.1308 0.00799775 58.1868 0.00799775ZM83.083 0.00799775C85.627 0.00799775 87.847 0.523998 89.743 1.556C91.663 2.588 93.151 4.076 94.207 6.02C95.263 7.94 95.791 10.28 95.791 13.04C95.791 15.728 95.251 18.08 94.171 20.096C93.091 22.112 91.579 23.684 89.635 24.812C87.715 25.94 85.519 26.504 83.047 26.504C80.503 26.504 78.271 25.988 76.351 24.956C74.455 23.924 72.979 22.436 71.923 20.492C70.867 18.548 70.339 16.208 70.339 13.472C70.339 10.784 70.879 8.432 71.959 6.416C73.063 4.4 74.563 2.828 76.459 1.7C78.379 0.571998 80.587 0.00799775 83.083 0.00799775ZM82.939 0.655998C81.595 0.655998 80.419 1.196 79.411 2.276C78.427 3.356 77.659 4.844 77.107 6.74C76.579 8.636 76.315 10.832 76.315 13.328C76.315 15.872 76.615 18.092 77.215 19.988C77.839 21.86 78.667 23.312 79.699 24.344C80.755 25.352 81.919 25.856 83.191 25.856C84.535 25.856 85.699 25.316 86.683 24.236C87.691 23.156 88.459 21.668 88.987 19.772C89.539 17.852 89.815 15.656 89.815 13.184C89.815 10.616 89.503 8.396 88.879 6.524C88.279 4.652 87.451 3.212 86.395 2.204C85.363 1.172 84.211 0.655998 82.939 0.655998ZM113.545 26V25.28C114.313 25.232 114.889 25.136 115.273 24.992C115.657 24.848 115.909 24.56 116.029 24.128C116.173 23.696 116.245 23.048 116.245 22.184V4.328C116.245 3.44 116.173 2.792 116.029 2.384C115.909 1.952 115.645 1.664 115.237 1.52C114.853 1.352 114.289 1.256 113.545 1.232V0.512C114.193 0.536 115.033 0.559999 116.065 0.583999C117.121 0.607999 118.165 0.619998 119.197 0.619998C120.301 0.619998 121.333 0.607999 122.293 0.583999C123.277 0.559999 124.069 0.536 124.669 0.512V1.232C123.901 1.256 123.313 1.352 122.905 1.52C122.521 1.664 122.269 1.952 122.149 2.384C122.029 2.792 121.969 3.44 121.969 4.328V22.184C121.969 23.048 122.029 23.696 122.149 24.128C122.293 24.56 122.557 24.848 122.941 24.992C123.325 25.136 123.901 25.232 124.669 25.28V26C124.069 25.952 123.277 25.928 122.293 25.928C121.333 25.904 120.301 25.892 119.197 25.892C118.165 25.892 117.121 25.904 116.065 25.928C115.033 25.928 114.193 25.952 113.545 26ZM98.2806 26V25.28C99.0486 25.232 99.6246 25.136 100.009 24.992C100.393 24.848 100.645 24.56 100.765 24.128C100.909 23.696 100.981 23.048 100.981 22.184V4.328C100.981 3.44 100.909 2.792 100.765 2.384C100.645 1.952 100.381 1.664 99.9726 1.52C99.5886 1.352 99.0246 1.256 98.2806 1.232V0.512C98.9046 0.536 99.7086 0.559999 100.693 0.583999C101.701 0.607999 102.793 0.619998 103.969 0.619998C104.977 0.619998 105.973 0.607999 106.957 0.583999C107.941 0.559999 108.757 0.536 109.405 0.512V1.232C108.637 1.256 108.049 1.352 107.641 1.52C107.257 1.664 107.005 1.952 106.885 2.384C106.765 2.792 106.705 3.44 106.705 4.328V22.184C106.705 23.048 106.765 23.696 106.885 24.128C107.029 24.56 107.293 24.848 107.677 24.992C108.061 25.136 108.637 25.232 109.405 25.28V26C108.757 25.952 107.941 25.928 106.957 25.928C105.973 25.904 104.977 25.892 103.969 25.892C102.793 25.892 101.701 25.904 100.693 25.928C99.7086 25.928 98.9046 25.952 98.2806 26ZM104.365 13.544V12.824H118.585V13.544H104.365ZM143.871 6.884C145.719 6.884 147.183 7.28 148.263 8.072C149.343 8.864 149.883 9.992 149.883 11.456C149.883 12.608 149.523 13.652 148.803 14.588C148.083 15.524 147.195 16.388 146.139 17.18C145.083 17.972 144.015 18.74 142.935 19.484C141.855 20.204 140.955 20.948 140.235 21.716H148.011C148.995 21.716 149.619 21.596 149.883 21.356C150.147 21.116 150.327 20.696 150.423 20.096H151.179C151.179 21.704 151.191 22.952 151.215 23.84C151.239 24.728 151.275 25.508 151.323 26.18C151.011 26.108 150.303 26.06 149.199 26.036C148.119 26.012 147.039 26 145.959 26H135.483V25.316C136.155 24.596 136.983 23.804 137.967 22.94C138.951 22.076 139.911 21.116 140.847 20.06C141.807 19.004 142.611 17.864 143.259 16.64C143.907 15.392 144.231 14.06 144.231 12.644C144.231 11.348 143.943 10.412 143.367 9.836C142.791 9.26 141.963 8.972 140.883 8.972C139.851 8.972 138.939 9.212 138.147 9.692C137.379 10.148 136.683 10.832 136.059 11.744L135.447 11.384C136.167 10.16 137.175 9.104 138.471 8.216C139.791 7.328 141.591 6.884 143.871 6.884ZM164.622 6.884C166.542 6.884 168.234 7.28 169.698 8.072C171.162 8.84 172.314 9.944 173.154 11.384C173.994 12.8 174.414 14.468 174.414 16.388C174.414 18.308 173.982 20.036 173.118 21.572C172.278 23.084 171.09 24.284 169.554 25.172C168.042 26.06 166.266 26.504 164.226 26.504C162.354 26.504 160.674 26.108 159.186 25.316C157.722 24.524 156.558 23.42 155.694 22.004C154.854 20.564 154.434 18.884 154.434 16.964C154.434 15.068 154.854 13.364 155.694 11.852C156.534 10.316 157.722 9.104 159.258 8.216C160.794 7.328 162.582 6.884 164.622 6.884ZM164.298 7.532C163.002 7.532 161.934 8.36 161.094 10.016C160.278 11.648 159.87 13.928 159.87 16.856C159.87 19.016 160.086 20.756 160.518 22.076C160.95 23.396 161.514 24.356 162.21 24.956C162.93 25.556 163.71 25.856 164.55 25.856C165.846 25.856 166.902 25.028 167.718 23.372C168.558 21.716 168.978 19.424 168.978 16.496C168.978 14.336 168.762 12.596 168.33 11.276C167.898 9.956 167.322 9.008 166.602 8.432C165.906 7.832 165.138 7.532 164.298 7.532ZM185.918 6.884C187.766 6.884 189.23 7.28 190.31 8.072C191.39 8.864 191.93 9.992 191.93 11.456C191.93 12.608 191.57 13.652 190.85 14.588C190.13 15.524 189.242 16.388 188.186 17.18C187.13 17.972 186.062 18.74 184.982 19.484C183.902 20.204 183.002 20.948 182.282 21.716H190.058C191.042 21.716 191.666 21.596 191.93 21.356C192.194 21.116 192.374 20.696 192.47 20.096H193.226C193.226 21.704 193.238 22.952 193.262 23.84C193.286 24.728 193.322 25.508 193.37 26.18C193.058 26.108 192.35 26.06 191.246 26.036C190.166 26.012 189.086 26 188.006 26H177.53V25.316C178.202 24.596 179.03 23.804 180.014 22.94C180.998 22.076 181.958 21.116 182.894 20.06C183.854 19.004 184.658 17.864 185.306 16.64C185.954 15.392 186.278 14.06 186.278 12.644C186.278 11.348 185.99 10.412 185.414 9.836C184.838 9.26 184.01 8.972 182.93 8.972C181.898 8.972 180.986 9.212 180.194 9.692C179.426 10.148 178.73 10.832 178.106 11.744L177.494 11.384C178.214 10.16 179.222 9.104 180.518 8.216C181.838 7.328 183.638 6.884 185.918 6.884ZM206.669 6.884C208.589 6.884 210.281 7.28 211.745 8.072C213.209 8.84 214.361 9.944 215.201 11.384C216.041 12.8 216.461 14.468 216.461 16.388C216.461 18.308 216.029 20.036 215.165 21.572C214.325 23.084 213.137 24.284 211.601 25.172C210.089 26.06 208.313 26.504 206.273 26.504C204.401 26.504 202.721 26.108 201.233 25.316C199.769 24.524 198.605 23.42 197.741 22.004C196.901 20.564 196.481 18.884 196.481 16.964C196.481 15.068 196.901 13.364 197.741 11.852C198.581 10.316 199.769 9.104 201.305 8.216C202.841 7.328 204.629 6.884 206.669 6.884ZM206.345 7.532C205.049 7.532 203.981 8.36 203.141 10.016C202.325 11.648 201.917 13.928 201.917 16.856C201.917 19.016 202.133 20.756 202.565 22.076C202.997 23.396 203.561 24.356 204.257 24.956C204.977 25.556 205.757 25.856 206.597 25.856C207.893 25.856 208.949 25.028 209.765 23.372C210.605 21.716 211.025 19.424 211.025 16.496C211.025 14.336 210.809 12.596 210.377 11.276C209.945 9.956 209.369 9.008 208.649 8.432C207.953 7.832 207.185 7.532 206.345 7.532ZM230.196 0.00799775L220.404 26.504H219.216L229.008 0.00799775H230.196ZM240.55 6.884C242.398 6.884 243.862 7.28 244.942 8.072C246.022 8.864 246.562 9.992 246.562 11.456C246.562 12.608 246.202 13.652 245.482 14.588C244.762 15.524 243.874 16.388 242.818 17.18C241.762 17.972 240.694 18.74 239.614 19.484C238.534 20.204 237.634 20.948 236.914 21.716H244.69C245.674 21.716 246.298 21.596 246.562 21.356C246.826 21.116 247.006 20.696 247.102 20.096H247.858C247.858 21.704 247.87 22.952 247.894 23.84C247.918 24.728 247.954 25.508 248.002 26.18C247.69 26.108 246.982 26.06 245.878 26.036C244.798 26.012 243.718 26 242.638 26H232.162V25.316C232.834 24.596 233.662 23.804 234.646 22.94C235.63 22.076 236.59 21.116 237.526 20.06C238.486 19.004 239.29 17.864 239.938 16.64C240.586 15.392 240.91 14.06 240.91 12.644C240.91 11.348 240.622 10.412 240.046 9.836C239.47 9.26 238.642 8.972 237.562 8.972C236.53 8.972 235.618 9.212 234.826 9.692C234.058 10.148 233.362 10.832 232.738 11.744L232.126 11.384C232.846 10.16 233.854 9.104 235.15 8.216C236.47 7.328 238.27 6.884 240.55 6.884ZM259.646 6.992V22.508C259.646 23.564 259.838 24.284 260.222 24.668C260.63 25.052 261.302 25.244 262.238 25.244V26C261.758 25.976 261.05 25.952 260.114 25.928C259.202 25.88 258.254 25.856 257.27 25.856C256.046 25.856 254.858 25.88 253.706 25.928C252.578 25.952 251.702 25.976 251.078 26V25.244C252.158 25.244 252.986 25.052 253.562 24.668C254.162 24.26 254.462 23.468 254.462 22.292V13.508C254.462 12.356 254.366 11.504 254.174 10.952C253.982 10.4 253.622 10.04 253.094 9.872C252.566 9.704 251.846 9.62 250.934 9.62V8.828C252.998 8.78 254.702 8.624 256.046 8.36C257.414 8.096 258.614 7.64 259.646 6.992Z" fill="white"/>
</svg>
