<svg width="139" height="15" viewBox="0 0 139 15" fill="none" xmlns="http://www.w3.org/2000/svg">
<path d="M5.346 1.256V1.616C4.938 1.628 4.626 1.676 4.41 1.76C4.206 1.832 4.068 1.976 3.996 2.192C3.924 2.396 3.888 2.72 3.888 3.164V12.092C3.888 12.524 3.924 12.848 3.996 13.064C4.068 13.28 4.206 13.424 4.41 13.496C4.626 13.556 4.938 13.586 5.346 13.586H6.66C7.416 13.586 7.986 13.478 8.37 13.262C8.766 13.046 9.048 12.692 9.216 12.2C9.396 11.708 9.528 11.048 9.612 10.22H10.026C9.99 10.592 9.972 11.084 9.972 11.696C9.972 11.924 9.978 12.254 9.99 12.686C10.014 13.106 10.05 13.544 10.098 14C9.486 13.976 8.796 13.964 8.028 13.964C7.26 13.952 6.576 13.946 5.976 13.946C5.616 13.946 5.136 13.946 4.536 13.946C3.948 13.946 3.318 13.952 2.646 13.964C1.974 13.964 1.344 13.976 0.756 14V13.64C1.164 13.616 1.47 13.568 1.674 13.496C1.89 13.424 2.034 13.28 2.106 13.064C2.178 12.848 2.214 12.524 2.214 12.092V3.164C2.214 2.72 2.178 2.396 2.106 2.192C2.034 1.976 1.89 1.832 1.674 1.76C1.47 1.676 1.164 1.628 0.756 1.616V1.256C1.008 1.268 1.338 1.28 1.746 1.292C2.154 1.304 2.592 1.31 3.06 1.31C3.48 1.31 3.894 1.304 4.302 1.292C4.722 1.28 5.07 1.268 5.346 1.256ZM15.514 4.478C16.282 4.478 16.972 4.646 17.584 4.982C18.196 5.318 18.682 5.846 19.042 6.566C19.414 7.286 19.6 8.222 19.6 9.374C19.6 10.526 19.414 11.462 19.042 12.182C18.682 12.89 18.196 13.412 17.584 13.748C16.972 14.084 16.282 14.252 15.514 14.252C14.758 14.252 14.068 14.084 13.444 13.748C12.832 13.412 12.34 12.89 11.968 12.182C11.608 11.462 11.428 10.526 11.428 9.374C11.428 8.222 11.608 7.286 11.968 6.566C12.34 5.846 12.832 5.318 13.444 4.982C14.068 4.646 14.758 4.478 15.514 4.478ZM15.514 4.838C14.83 4.838 14.266 5.192 13.822 5.9C13.39 6.608 13.174 7.766 13.174 9.374C13.174 10.982 13.39 12.14 13.822 12.848C14.266 13.544 14.83 13.892 15.514 13.892C16.198 13.892 16.756 13.544 17.188 12.848C17.632 12.14 17.854 10.982 17.854 9.374C17.854 7.766 17.632 6.608 17.188 5.9C16.756 5.192 16.198 4.838 15.514 4.838ZM29.1374 4.532V12.056C29.1374 12.596 29.2334 12.998 29.4254 13.262C29.6294 13.514 29.9894 13.64 30.5054 13.64V14.018C30.1334 13.982 29.7614 13.964 29.3894 13.964C29.0414 13.964 28.7054 13.982 28.3814 14.018C28.0694 14.054 27.7814 14.12 27.5174 14.216V12.092C27.2174 12.872 26.7914 13.43 26.2394 13.766C25.6994 14.09 25.1414 14.252 24.5654 14.252C24.1454 14.252 23.7794 14.192 23.4674 14.072C23.1554 13.952 22.8974 13.784 22.6934 13.568C22.4654 13.328 22.3094 13.016 22.2254 12.632C22.1414 12.248 22.0994 11.774 22.0994 11.21V6.692C22.0994 6.152 22.0034 5.756 21.8114 5.504C21.6194 5.24 21.2594 5.108 20.7314 5.108V4.73C21.1154 4.766 21.4874 4.784 21.8474 4.784C22.1954 4.784 22.5254 4.766 22.8374 4.73C23.1614 4.682 23.4554 4.616 23.7194 4.532V11.606C23.7194 11.978 23.7434 12.32 23.7914 12.632C23.8394 12.944 23.9594 13.196 24.1514 13.388C24.3434 13.58 24.6554 13.676 25.0874 13.676C25.7954 13.676 26.3774 13.364 26.8334 12.74C27.2894 12.104 27.5174 11.33 27.5174 10.418V6.692C27.5174 6.152 27.4214 5.756 27.2294 5.504C27.0374 5.24 26.6774 5.108 26.1494 5.108V4.73C26.5334 4.766 26.9054 4.784 27.2654 4.784C27.6134 4.784 27.9434 4.766 28.2554 4.73C28.5794 4.682 28.8734 4.616 29.1374 4.532ZM33.4763 0.229999C33.7883 0.229999 34.0583 0.343999 34.2863 0.571999C34.5143 0.799999 34.6283 1.07 34.6283 1.382C34.6283 1.694 34.5143 1.964 34.2863 2.192C34.0583 2.42 33.7883 2.534 33.4763 2.534C33.1643 2.534 32.8943 2.42 32.6663 2.192C32.4383 1.964 32.3243 1.694 32.3243 1.382C32.3243 1.07 32.4383 0.799999 32.6663 0.571999C32.8943 0.343999 33.1643 0.229999 33.4763 0.229999ZM34.4123 4.532V12.326C34.4123 12.83 34.5143 13.172 34.7183 13.352C34.9343 13.532 35.2883 13.622 35.7803 13.622V14C35.5763 13.988 35.2643 13.976 34.8443 13.964C34.4363 13.94 34.0223 13.928 33.6023 13.928C33.1943 13.928 32.7803 13.94 32.3603 13.964C31.9403 13.976 31.6283 13.988 31.4243 14V13.622C31.9163 13.622 32.2643 13.532 32.4683 13.352C32.6843 13.172 32.7923 12.83 32.7923 12.326V6.692C32.7923 6.152 32.6963 5.756 32.5043 5.504C32.3123 5.24 31.9523 5.108 31.4243 5.108V4.73C31.8083 4.766 32.1803 4.784 32.5403 4.784C32.8883 4.784 33.2183 4.766 33.5303 4.73C33.8543 4.682 34.1483 4.616 34.4123 4.532ZM39.9198 4.478C40.3998 4.478 40.8078 4.556 41.1438 4.712C41.4798 4.868 41.7258 5.012 41.8818 5.144C42.2778 5.468 42.5178 5.252 42.6018 4.496H43.0158C42.9918 4.832 42.9738 5.234 42.9618 5.702C42.9498 6.158 42.9438 6.776 42.9438 7.556H42.5298C42.4578 7.112 42.3318 6.68 42.1518 6.26C41.9838 5.84 41.7318 5.498 41.3958 5.234C41.0598 4.958 40.6218 4.82 40.0818 4.82C39.6618 4.82 39.3078 4.94 39.0198 5.18C38.7438 5.408 38.6058 5.75 38.6058 6.206C38.6058 6.566 38.7138 6.878 38.9298 7.142C39.1458 7.394 39.4278 7.634 39.7758 7.862C40.1238 8.078 40.5018 8.318 40.9098 8.582C41.5938 9.026 42.1758 9.476 42.6558 9.932C43.1358 10.388 43.3758 10.988 43.3758 11.732C43.3758 12.284 43.2318 12.746 42.9438 13.118C42.6558 13.49 42.2778 13.772 41.8098 13.964C41.3538 14.156 40.8498 14.252 40.2978 14.252C40.0338 14.252 39.7818 14.228 39.5418 14.18C39.3138 14.144 39.0918 14.084 38.8758 14C38.7558 13.94 38.6298 13.868 38.4978 13.784C38.3778 13.7 38.2578 13.61 38.1378 13.514C38.0178 13.418 37.9098 13.424 37.8138 13.532C37.7178 13.628 37.6458 13.826 37.5978 14.126H37.1838C37.2078 13.742 37.2258 13.274 37.2378 12.722C37.2498 12.17 37.2558 11.438 37.2558 10.526H37.6698C37.7538 11.198 37.8738 11.786 38.0298 12.29C38.1858 12.794 38.4318 13.19 38.7678 13.478C39.1038 13.754 39.5718 13.892 40.1718 13.892C40.5318 13.892 40.8858 13.766 41.2338 13.514C41.5938 13.262 41.7738 12.818 41.7738 12.182C41.7738 11.654 41.5818 11.222 41.1978 10.886C40.8138 10.55 40.3278 10.196 39.7398 9.824C39.3078 9.548 38.8998 9.272 38.5158 8.996C38.1438 8.72 37.8378 8.408 37.5978 8.06C37.3698 7.712 37.2558 7.292 37.2558 6.8C37.2558 6.26 37.3758 5.822 37.6158 5.486C37.8678 5.138 38.1978 4.886 38.6058 4.73C39.0138 4.562 39.4518 4.478 39.9198 4.478ZM52.8549 1.256V1.634C52.2549 1.634 51.8889 1.7 51.7569 1.832C51.6249 1.952 51.6429 2.15 51.8109 2.426L58.5429 12.722C58.7709 13.07 58.9629 13.304 59.1189 13.424C59.2749 13.532 59.4849 13.598 59.7489 13.622V14C59.5929 13.988 59.3709 13.976 59.0829 13.964C58.8069 13.94 58.5129 13.928 58.2009 13.928C57.7209 13.928 57.2349 13.94 56.7429 13.964C56.2629 13.976 55.9029 13.988 55.6629 14V13.622C56.2629 13.622 56.6469 13.586 56.8149 13.514C56.9829 13.442 56.9829 13.274 56.8149 13.01L49.9749 2.534C49.7469 2.186 49.5549 1.952 49.3989 1.832C49.2549 1.712 49.0449 1.646 48.7689 1.634V1.256C48.9249 1.268 49.1469 1.286 49.4349 1.31C49.7229 1.322 50.0169 1.328 50.3169 1.328C50.8089 1.328 51.2709 1.322 51.7029 1.31C52.1349 1.286 52.5189 1.268 52.8549 1.256ZM53.8449 7.43C53.8449 7.43 53.8689 7.508 53.9169 7.664C53.9769 7.82 54.0069 7.898 54.0069 7.898L51.7929 11.192C51.3609 11.84 51.1329 12.338 51.1089 12.686C51.0969 13.034 51.2349 13.28 51.5229 13.424C51.8109 13.556 52.2069 13.628 52.7109 13.64V14C52.4829 13.988 52.2189 13.982 51.9189 13.982C51.6189 13.97 51.3249 13.964 51.0369 13.964C50.7489 13.952 50.4969 13.946 50.2809 13.946C49.6209 13.946 49.1109 13.964 48.7509 14V13.64C49.1229 13.58 49.4709 13.412 49.7949 13.136C50.1189 12.86 50.4489 12.476 50.7849 11.984L53.8449 7.43ZM59.3709 1.256V1.616C58.9989 1.664 58.6509 1.832 58.3269 2.12C58.0029 2.396 57.6729 2.78 57.3369 3.272L54.4389 7.592C54.4389 7.592 54.4209 7.514 54.3849 7.358C54.3489 7.202 54.3309 7.124 54.3309 7.124L56.3829 4.064C57.0309 3.092 57.2769 2.444 57.1209 2.12C56.9769 1.796 56.5269 1.628 55.7709 1.616V1.256C56.1189 1.268 56.4729 1.28 56.8329 1.292C57.1929 1.304 57.5289 1.31 57.8409 1.31C58.5009 1.31 59.0109 1.292 59.3709 1.256ZM71.3371 1.256V1.616C71.1091 1.664 70.8631 1.802 70.5991 2.03C70.3471 2.258 70.1191 2.642 69.9151 3.182L65.6851 14.09C65.6611 14.09 65.6371 14.09 65.6131 14.09C65.5891 14.09 65.5651 14.09 65.5411 14.09C65.5171 14.09 65.4931 14.09 65.4691 14.09C65.4451 14.09 65.4211 14.09 65.3971 14.09L61.0051 2.768C60.8251 2.312 60.6211 2.012 60.3931 1.868C60.1651 1.712 59.9551 1.628 59.7631 1.616V1.256C60.0031 1.268 60.2971 1.28 60.6451 1.292C61.0051 1.304 61.3531 1.31 61.6891 1.31C62.1571 1.31 62.5951 1.304 63.0031 1.292C63.4111 1.28 63.7411 1.268 63.9931 1.256V1.616C63.3811 1.64 62.9911 1.748 62.8231 1.94C62.6671 2.12 62.7031 2.516 62.9311 3.128L66.2791 12.002L65.9911 12.308L69.1231 4.172C69.3751 3.524 69.4951 3.02 69.4831 2.66C69.4711 2.288 69.3331 2.024 69.0691 1.868C68.8051 1.712 68.4211 1.628 67.9171 1.616V1.256C68.2651 1.268 68.6191 1.28 68.9791 1.292C69.3391 1.304 69.6751 1.31 69.9871 1.31C70.2991 1.31 70.5571 1.304 70.7611 1.292C70.9651 1.28 71.1571 1.268 71.3371 1.256ZM76.555 1.256V1.616C76.147 1.628 75.835 1.676 75.619 1.76C75.415 1.832 75.277 1.976 75.205 2.192C75.133 2.396 75.097 2.72 75.097 3.164V12.092C75.097 12.524 75.133 12.848 75.205 13.064C75.277 13.28 75.415 13.424 75.619 13.496C75.835 13.568 76.147 13.616 76.555 13.64V14C76.279 13.976 75.931 13.964 75.511 13.964C75.103 13.952 74.689 13.946 74.269 13.946C73.801 13.946 73.363 13.952 72.955 13.964C72.547 13.964 72.217 13.976 71.965 14V13.64C72.373 13.616 72.679 13.568 72.883 13.496C73.099 13.424 73.243 13.28 73.315 13.064C73.387 12.848 73.423 12.524 73.423 12.092V3.164C73.423 2.72 73.387 2.396 73.315 2.192C73.243 1.976 73.099 1.832 72.883 1.76C72.679 1.676 72.373 1.628 71.965 1.616V1.256C72.217 1.268 72.547 1.28 72.955 1.292C73.363 1.304 73.801 1.31 74.269 1.31C74.689 1.31 75.103 1.304 75.511 1.292C75.931 1.28 76.279 1.268 76.555 1.256ZM86.9898 1.166L91.3818 12.488C91.5618 12.944 91.7658 13.25 91.9938 13.406C92.2218 13.55 92.4318 13.628 92.6238 13.64V14C92.3838 13.976 92.0898 13.964 91.7418 13.964C91.3938 13.952 91.0458 13.946 90.6978 13.946C90.2298 13.946 89.7918 13.952 89.3838 13.964C88.9758 13.964 88.6458 13.976 88.3938 14V13.64C89.0058 13.616 89.3958 13.514 89.5638 13.334C89.7318 13.142 89.6958 12.74 89.4558 12.128L86.1078 3.182L86.3958 2.948L83.2638 11.084C83.0118 11.732 82.8918 12.242 82.9038 12.614C82.9158 12.974 83.0538 13.232 83.3178 13.388C83.5818 13.544 83.9658 13.628 84.4698 13.64V14C84.1338 13.976 83.7798 13.964 83.4078 13.964C83.0478 13.952 82.7118 13.946 82.3998 13.946C82.0998 13.946 81.8418 13.952 81.6258 13.964C81.4218 13.964 81.2298 13.976 81.0498 14V13.64C81.2898 13.58 81.5358 13.442 81.7878 13.226C82.0398 12.998 82.2678 12.614 82.4718 12.074L86.7018 1.166C86.7498 1.166 86.7978 1.166 86.8458 1.166C86.8938 1.166 86.9418 1.166 86.9898 1.166ZM89.1858 8.816V9.176H83.8218L84.0018 8.816H89.1858ZM102.273 1.256C102.225 1.712 102.189 2.156 102.165 2.588C102.153 3.008 102.147 3.332 102.147 3.56C102.147 3.848 102.153 4.118 102.165 4.37C102.177 4.622 102.189 4.844 102.201 5.036H101.787C101.703 4.196 101.589 3.536 101.445 3.056C101.301 2.564 101.049 2.21 100.689 1.994C100.329 1.778 99.7712 1.67 99.0152 1.67H98.0432V11.912C98.0432 12.392 98.0852 12.752 98.1692 12.992C98.2652 13.232 98.4452 13.394 98.7092 13.478C98.9732 13.562 99.3572 13.616 99.8612 13.64V14C99.5492 13.976 99.1532 13.964 98.6732 13.964C98.1932 13.952 97.7072 13.946 97.2152 13.946C96.6752 13.946 96.1652 13.952 95.6852 13.964C95.2172 13.964 94.8392 13.976 94.5512 14V13.64C95.0552 13.616 95.4392 13.562 95.7032 13.478C95.9672 13.394 96.1412 13.232 96.2252 12.992C96.3212 12.752 96.3692 12.392 96.3692 11.912V1.67H95.3972C94.6532 1.67 94.0952 1.778 93.7232 1.994C93.3632 2.21 93.1112 2.564 92.9672 3.056C92.8232 3.536 92.7092 4.196 92.6252 5.036H92.2112C92.2352 4.844 92.2472 4.622 92.2472 4.37C92.2592 4.118 92.2652 3.848 92.2652 3.56C92.2652 3.332 92.2532 3.008 92.2292 2.588C92.2172 2.156 92.1872 1.712 92.1392 1.256C92.6432 1.268 93.1892 1.28 93.7772 1.292C94.3772 1.304 94.9772 1.31 95.5772 1.31C96.1772 1.31 96.7232 1.31 97.2152 1.31C97.7072 1.31 98.2472 1.31 98.8352 1.31C99.4352 1.31 100.035 1.304 100.635 1.292C101.235 1.28 101.781 1.268 102.273 1.256ZM111.077 14V13.64C111.485 13.616 111.791 13.568 111.995 13.496C112.211 13.424 112.355 13.28 112.427 13.064C112.499 12.848 112.535 12.524 112.535 12.092V3.164C112.535 2.72 112.499 2.396 112.427 2.192C112.355 1.976 112.211 1.832 111.995 1.76C111.791 1.676 111.485 1.628 111.077 1.616V1.256C111.353 1.268 111.701 1.28 112.121 1.292C112.541 1.304 112.955 1.31 113.363 1.31C113.831 1.31 114.269 1.304 114.677 1.292C115.085 1.28 115.415 1.268 115.667 1.256V1.616C115.259 1.628 114.947 1.676 114.731 1.76C114.527 1.832 114.389 1.976 114.317 2.192C114.245 2.396 114.209 2.72 114.209 3.164V12.092C114.209 12.524 114.245 12.848 114.317 13.064C114.389 13.28 114.527 13.424 114.731 13.496C114.947 13.568 115.259 13.616 115.667 13.64V14C115.415 13.976 115.085 13.964 114.677 13.964C114.269 13.952 113.831 13.946 113.363 13.946C112.955 13.946 112.541 13.952 112.121 13.964C111.701 13.964 111.353 13.976 111.077 14ZM103.553 14V13.64C103.961 13.616 104.267 13.568 104.471 13.496C104.687 13.424 104.831 13.28 104.903 13.064C104.975 12.848 105.011 12.524 105.011 12.092V3.164C105.011 2.72 104.975 2.396 104.903 2.192C104.831 1.976 104.687 1.832 104.471 1.76C104.267 1.676 103.961 1.628 103.553 1.616V1.256C103.805 1.268 104.135 1.28 104.543 1.292C104.951 1.304 105.389 1.31 105.857 1.31C106.277 1.31 106.691 1.304 107.099 1.292C107.519 1.28 107.867 1.268 108.143 1.256V1.616C107.735 1.628 107.423 1.676 107.207 1.76C107.003 1.832 106.865 1.976 106.793 2.192C106.721 2.396 106.685 2.72 106.685 3.164V12.092C106.685 12.524 106.721 12.848 106.793 13.064C106.865 13.28 107.003 13.424 107.207 13.496C107.423 13.568 107.735 13.616 108.143 13.64V14C107.867 13.976 107.519 13.964 107.099 13.964C106.691 13.952 106.277 13.946 105.857 13.946C105.389 13.946 104.951 13.952 104.543 13.964C104.135 13.964 103.805 13.976 103.553 14ZM106.055 7.772V7.412H113.165V7.772H106.055ZM122.957 1.004C124.097 1.004 125.093 1.262 125.945 1.778C126.809 2.294 127.475 3.038 127.943 4.01C128.423 4.97 128.663 6.14 128.663 7.52C128.663 8.864 128.417 10.04 127.925 11.048C127.445 12.056 126.773 12.842 125.909 13.406C125.045 13.97 124.055 14.252 122.939 14.252C121.799 14.252 120.797 13.994 119.933 13.478C119.081 12.962 118.415 12.218 117.935 11.246C117.467 10.274 117.233 9.104 117.233 7.736C117.233 6.392 117.479 5.216 117.971 4.208C118.463 3.2 119.135 2.414 119.987 1.85C120.851 1.286 121.841 1.004 122.957 1.004ZM122.885 1.328C122.105 1.328 121.427 1.598 120.851 2.138C120.275 2.678 119.825 3.422 119.501 4.37C119.189 5.318 119.033 6.416 119.033 7.664C119.033 8.936 119.207 10.046 119.555 10.994C119.915 11.93 120.395 12.656 120.995 13.172C121.607 13.676 122.279 13.928 123.011 13.928C123.791 13.928 124.469 13.658 125.045 13.118C125.621 12.578 126.065 11.834 126.377 10.886C126.701 9.926 126.863 8.828 126.863 7.592C126.863 6.308 126.683 5.198 126.323 4.262C125.975 3.326 125.501 2.606 124.901 2.102C124.301 1.586 123.629 1.328 122.885 1.328ZM134.229 1.058C134.829 1.058 135.285 1.13 135.597 1.274C135.909 1.406 136.185 1.556 136.425 1.724C136.569 1.808 136.683 1.874 136.767 1.922C136.863 1.958 136.953 1.976 137.037 1.976C137.229 1.976 137.361 1.712 137.433 1.184H137.847C137.835 1.388 137.817 1.634 137.793 1.922C137.781 2.198 137.769 2.57 137.757 3.038C137.757 3.494 137.757 4.1 137.757 4.856H137.343C137.307 4.28 137.181 3.728 136.965 3.2C136.749 2.672 136.431 2.24 136.011 1.904C135.603 1.568 135.063 1.4 134.391 1.4C133.755 1.4 133.227 1.592 132.807 1.976C132.399 2.36 132.195 2.864 132.195 3.488C132.195 4.028 132.333 4.484 132.609 4.856C132.885 5.216 133.251 5.546 133.707 5.846C134.175 6.134 134.679 6.446 135.219 6.782C135.843 7.166 136.395 7.55 136.875 7.934C137.367 8.306 137.751 8.72 138.027 9.176C138.315 9.632 138.459 10.184 138.459 10.832C138.459 11.6 138.285 12.236 137.937 12.74C137.589 13.244 137.127 13.622 136.551 13.874C135.975 14.126 135.339 14.252 134.643 14.252C134.007 14.252 133.503 14.18 133.131 14.036C132.759 13.892 132.441 13.742 132.177 13.586C131.913 13.418 131.709 13.334 131.565 13.334C131.373 13.334 131.241 13.598 131.169 14.126H130.755C130.779 13.874 130.791 13.58 130.791 13.244C130.803 12.896 130.809 12.446 130.809 11.894C130.821 11.342 130.827 10.646 130.827 9.806H131.241C131.289 10.526 131.421 11.198 131.637 11.822C131.865 12.446 132.207 12.95 132.663 13.334C133.131 13.706 133.749 13.892 134.517 13.892C135.105 13.892 135.639 13.706 136.119 13.334C136.611 12.95 136.857 12.338 136.857 11.498C136.857 10.766 136.599 10.16 136.083 9.68C135.567 9.2 134.889 8.708 134.049 8.204C133.485 7.856 132.957 7.502 132.465 7.142C131.973 6.782 131.577 6.368 131.277 5.9C130.989 5.42 130.845 4.844 130.845 4.172C130.845 3.464 131.001 2.882 131.313 2.426C131.637 1.958 132.057 1.616 132.573 1.4C133.089 1.172 133.641 1.058 134.229 1.058Z" fill="white"/>
</svg>
