<svg width="140" height="19" viewBox="0 0 140 19" fill="none" xmlns="http://www.w3.org/2000/svg">
<path d="M6.128 1.008V1.488C5.584 1.504 5.168 1.568 4.88 1.68C4.608 1.776 4.424 1.968 4.328 2.256C4.232 2.528 4.184 2.96 4.184 3.552V15.456C4.184 16.032 4.232 16.464 4.328 16.752C4.424 17.04 4.608 17.232 4.88 17.328C5.168 17.424 5.584 17.488 6.128 17.52V18C5.76 17.968 5.296 17.952 4.736 17.952C4.192 17.936 3.64 17.928 3.08 17.928C2.456 17.928 1.872 17.936 1.328 17.952C0.784 17.952 0.344 17.968 0.00800008 18V17.52C0.552 17.488 0.96 17.424 1.232 17.328C1.52 17.232 1.712 17.04 1.808 16.752C1.904 16.464 1.952 16.032 1.952 15.456V3.552C1.952 2.96 1.904 2.528 1.808 2.256C1.712 1.968 1.52 1.776 1.232 1.68C0.96 1.568 0.552 1.504 0.00800008 1.488V1.008C0.344 1.024 0.784 1.04 1.328 1.056C1.872 1.072 2.456 1.08 3.08 1.08C3.64 1.08 4.192 1.072 4.736 1.056C5.296 1.04 5.76 1.024 6.128 1.008ZM5.864 8.976C6.712 8.976 7.504 9.064 8.24 9.24C8.992 9.416 9.632 9.752 10.16 10.248C10.688 10.744 11.064 11.48 11.288 12.456L11.984 15.48C12.16 16.216 12.32 16.736 12.464 17.04C12.608 17.328 12.856 17.464 13.208 17.448C13.48 17.432 13.704 17.344 13.88 17.184C14.072 17.024 14.272 16.808 14.48 16.536L14.84 16.8C14.536 17.248 14.2 17.616 13.832 17.904C13.464 18.192 12.944 18.336 12.272 18.336C11.712 18.336 11.2 18.176 10.736 17.856C10.288 17.52 9.944 16.816 9.704 15.744L9.032 12.768C8.888 12.096 8.72 11.512 8.528 11.016C8.336 10.52 8.032 10.136 7.616 9.864C7.2 9.576 6.584 9.432 5.768 9.432H3.728V8.976H5.864ZM4.184 9.432V8.976C4.856 8.96 5.416 8.824 5.864 8.568C6.328 8.296 6.712 7.968 7.016 7.584L9.32 4.656C9.848 3.984 10.208 3.416 10.4 2.952C10.592 2.488 10.584 2.136 10.376 1.896C10.168 1.64 9.728 1.504 9.056 1.488V1.008C9.52 1.024 9.992 1.04 10.472 1.056C10.952 1.072 11.4 1.08 11.816 1.08C12.696 1.08 13.376 1.056 13.856 1.008V1.488C13.36 1.552 12.88 1.72 12.416 1.992C11.952 2.248 11.488 2.664 11.024 3.24L6.152 9.432H4.184ZM23.0176 0.887999L28.8736 15.984C29.1136 16.592 29.3856 17 29.6896 17.208C29.9936 17.4 30.2736 17.504 30.5296 17.52V18C30.2096 17.968 29.8176 17.952 29.3536 17.952C28.8896 17.936 28.4256 17.928 27.9616 17.928C27.3376 17.928 26.7536 17.936 26.2096 17.952C25.6656 17.952 25.2256 17.968 24.8896 18V17.52C25.7056 17.488 26.2256 17.352 26.4496 17.112C26.6736 16.856 26.6256 16.32 26.3056 15.504L21.8416 3.576L22.2256 3.264L18.0496 14.112C17.7136 14.976 17.5536 15.656 17.5696 16.152C17.5856 16.632 17.7696 16.976 18.1216 17.184C18.4736 17.392 18.9856 17.504 19.6576 17.52V18C19.2096 17.968 18.7376 17.952 18.2416 17.952C17.7616 17.936 17.3136 17.928 16.8976 17.928C16.4976 17.928 16.1536 17.936 15.8656 17.952C15.5936 17.952 15.3376 17.968 15.0976 18V17.52C15.4176 17.44 15.7456 17.256 16.0816 16.968C16.4176 16.664 16.7216 16.152 16.9936 15.432L22.6336 0.887999C22.6976 0.887999 22.7616 0.887999 22.8256 0.887999C22.8896 0.887999 22.9536 0.887999 23.0176 0.887999ZM25.9456 11.088V11.568H18.7936L19.0336 11.088H25.9456ZM43.4658 1.008C43.4018 1.616 43.3538 2.208 43.3218 2.784C43.3058 3.344 43.2978 3.776 43.2978 4.08C43.2978 4.464 43.3058 4.824 43.3218 5.16C43.3378 5.496 43.3538 5.792 43.3698 6.048H42.8178C42.7058 4.928 42.5538 4.048 42.3618 3.408C42.1698 2.752 41.8338 2.28 41.3538 1.992C40.8738 1.704 40.1298 1.56 39.1218 1.56H37.8258V15.216C37.8258 15.856 37.8818 16.336 37.9938 16.656C38.1218 16.976 38.3618 17.192 38.7138 17.304C39.0658 17.416 39.5778 17.488 40.2498 17.52V18C39.8338 17.968 39.3058 17.952 38.6658 17.952C38.0258 17.936 37.3778 17.928 36.7218 17.928C36.0018 17.928 35.3218 17.936 34.6818 17.952C34.0578 17.952 33.5538 17.968 33.1698 18V17.52C33.8418 17.488 34.3538 17.416 34.7058 17.304C35.0578 17.192 35.2898 16.976 35.4018 16.656C35.5298 16.336 35.5938 15.856 35.5938 15.216V1.56H34.2978C33.3058 1.56 32.5618 1.704 32.0658 1.992C31.5858 2.28 31.2498 2.752 31.0578 3.408C30.8658 4.048 30.7138 4.928 30.6018 6.048H30.0498C30.0818 5.792 30.0978 5.496 30.0978 5.16C30.1138 4.824 30.1218 4.464 30.1218 4.08C30.1218 3.776 30.1058 3.344 30.0738 2.784C30.0578 2.208 30.0178 1.616 29.9538 1.008C30.6258 1.024 31.3538 1.04 32.1378 1.056C32.9378 1.072 33.7378 1.08 34.5378 1.08C35.3378 1.08 36.0658 1.08 36.7218 1.08C37.3778 1.08 38.0978 1.08 38.8818 1.08C39.6818 1.08 40.4818 1.072 41.2818 1.056C42.0818 1.04 42.8098 1.024 43.4658 1.008ZM57.1481 1.008C57.0841 1.568 57.0361 2.112 57.0041 2.64C56.9881 3.168 56.9801 3.568 56.9801 3.84C56.9801 4.128 56.9881 4.408 57.0041 4.68C57.0201 4.936 57.0361 5.152 57.0521 5.328H56.5001C56.4041 4.384 56.2681 3.64 56.0921 3.096C55.9161 2.536 55.6121 2.144 55.1801 1.92C54.7641 1.68 54.1321 1.56 53.2841 1.56H51.2921C50.7481 1.56 50.3321 1.608 50.0441 1.704C49.7721 1.784 49.5881 1.968 49.4921 2.256C49.3961 2.528 49.3481 2.96 49.3481 3.552V15.456C49.3481 16.032 49.3961 16.464 49.4921 16.752C49.5881 17.04 49.7721 17.232 50.0441 17.328C50.3321 17.408 50.7481 17.448 51.2921 17.448H53.0441C54.0521 17.448 54.8121 17.312 55.3241 17.04C55.8521 16.768 56.2281 16.328 56.4521 15.72C56.6921 15.096 56.8681 14.256 56.9801 13.2H57.5321C57.4841 13.632 57.4601 14.208 57.4601 14.928C57.4601 15.232 57.4681 15.672 57.4841 16.248C57.5161 16.808 57.5641 17.392 57.6281 18C56.8121 17.968 55.8921 17.952 54.8681 17.952C53.8441 17.936 52.9321 17.928 52.1321 17.928C51.6521 17.928 51.0121 17.928 50.2121 17.928C49.4281 17.928 48.5881 17.936 47.6921 17.952C46.7961 17.952 45.9561 17.968 45.1721 18V17.52C45.7161 17.488 46.1241 17.424 46.3961 17.328C46.6841 17.232 46.8761 17.04 46.9721 16.752C47.0681 16.464 47.1161 16.032 47.1161 15.456V3.552C47.1161 2.96 47.0681 2.528 46.9721 2.256C46.8761 1.968 46.6841 1.776 46.3961 1.68C46.1241 1.568 45.7161 1.504 45.1721 1.488V1.008C45.9561 1.024 46.7961 1.04 47.6921 1.056C48.5881 1.072 49.4281 1.08 50.2121 1.08C51.0121 1.08 51.6521 1.08 52.1321 1.08C52.8681 1.08 53.7001 1.08 54.6281 1.08C55.5721 1.064 56.4121 1.04 57.1481 1.008ZM53.0201 9.216C53.0201 9.216 53.0201 9.296 53.0201 9.456C53.0201 9.616 53.0201 9.696 53.0201 9.696H48.6281C48.6281 9.696 48.6281 9.616 48.6281 9.456C48.6281 9.296 48.6281 9.216 48.6281 9.216H53.0201ZM53.7161 6.048C53.6521 6.96 53.6201 7.656 53.6201 8.136C53.6361 8.616 53.6441 9.056 53.6441 9.456C53.6441 9.856 53.6521 10.296 53.6681 10.776C53.6841 11.256 53.7241 11.952 53.7881 12.864H53.2361C53.1721 12.352 53.0921 11.856 52.9961 11.376C52.9161 10.88 52.7241 10.48 52.4201 10.176C52.1321 9.856 51.6361 9.696 50.9321 9.696V9.216C51.6361 9.216 52.1241 9.032 52.3961 8.664C52.6841 8.296 52.8681 7.864 52.9481 7.368C53.0281 6.872 53.1001 6.432 53.1641 6.048H53.7161ZM70.8131 1.008C70.7491 1.616 70.7011 2.208 70.6691 2.784C70.6531 3.344 70.6451 3.776 70.6451 4.08C70.6451 4.464 70.6531 4.824 70.6691 5.16C70.6851 5.496 70.7011 5.792 70.7171 6.048H70.1651C70.0531 4.928 69.9011 4.048 69.7091 3.408C69.5171 2.752 69.1811 2.28 68.7011 1.992C68.2211 1.704 67.4771 1.56 66.4691 1.56H65.9171C65.3731 1.56 64.9571 1.608 64.6691 1.704C64.3971 1.784 64.2131 1.968 64.1171 2.256C64.0211 2.528 63.9731 2.96 63.9731 3.552V15.456C63.9731 16.032 64.0291 16.464 64.1411 16.752C64.2691 17.04 64.5091 17.232 64.8611 17.328C65.2131 17.424 65.7251 17.488 66.3971 17.52V18C65.9811 17.968 65.4531 17.952 64.8131 17.952C64.1731 17.936 63.5251 17.928 62.8691 17.928C62.2451 17.928 61.6611 17.936 61.1171 17.952C60.5731 17.952 60.1331 17.968 59.7971 18V17.52C60.3411 17.488 60.7491 17.424 61.0211 17.328C61.3091 17.232 61.5011 17.04 61.5971 16.752C61.6931 16.464 61.7411 16.032 61.7411 15.456V3.552C61.7411 2.96 61.6931 2.528 61.5971 2.256C61.5011 1.968 61.3091 1.776 61.0211 1.68C60.7491 1.568 60.3411 1.504 59.7971 1.488V1.008C60.5811 1.024 61.4211 1.04 62.3171 1.056C63.2131 1.072 64.0531 1.08 64.8371 1.08C65.6371 1.08 66.2771 1.08 66.7571 1.08C67.3491 1.08 68.0211 1.08 68.7731 1.08C69.5411 1.064 70.2211 1.04 70.8131 1.008ZM80.3728 0.671999C81.8928 0.671999 83.2208 1.016 84.3568 1.704C85.5088 2.392 86.3968 3.384 87.0208 4.68C87.6608 5.96 87.9808 7.52 87.9808 9.36C87.9808 11.152 87.6528 12.72 86.9968 14.064C86.3568 15.408 85.4608 16.456 84.3088 17.208C83.1568 17.96 81.8368 18.336 80.3488 18.336C78.8288 18.336 77.4928 17.992 76.3408 17.304C75.2048 16.616 74.3168 15.624 73.6768 14.328C73.0528 13.032 72.7408 11.472 72.7408 9.648C72.7408 7.856 73.0688 6.288 73.7248 4.944C74.3808 3.6 75.2768 2.552 76.4128 1.8C77.5648 1.048 78.8848 0.671999 80.3728 0.671999ZM80.2768 1.104C79.2368 1.104 78.3328 1.464 77.5648 2.184C76.7968 2.904 76.1968 3.896 75.7648 5.16C75.3488 6.424 75.1408 7.888 75.1408 9.552C75.1408 11.248 75.3728 12.728 75.8368 13.992C76.3168 15.24 76.9568 16.208 77.7568 16.896C78.5728 17.568 79.4688 17.904 80.4448 17.904C81.4848 17.904 82.3888 17.544 83.1568 16.824C83.9248 16.104 84.5168 15.112 84.9328 13.848C85.3648 12.568 85.5807 11.104 85.5807 9.456C85.5807 7.744 85.3408 6.264 84.8608 5.016C84.3968 3.768 83.7648 2.808 82.9648 2.136C82.1648 1.448 81.2688 1.104 80.2768 1.104ZM90.0783 1.008C90.4143 1.024 90.8543 1.04 91.3983 1.056C91.9423 1.072 92.4783 1.08 93.0063 1.08C93.7583 1.08 94.4783 1.072 95.1663 1.056C95.8543 1.04 96.3423 1.032 96.6303 1.032C98.5663 1.032 100.014 1.472 100.974 2.352C101.934 3.232 102.414 4.368 102.414 5.76C102.414 6.336 102.318 6.944 102.126 7.584C101.934 8.208 101.598 8.792 101.118 9.336C100.654 9.864 100.014 10.296 99.1983 10.632C98.3823 10.968 97.3503 11.136 96.1023 11.136H93.7983V10.656H95.8623C96.9983 10.656 97.8623 10.44 98.4543 10.008C99.0623 9.576 99.4703 9.008 99.6783 8.304C99.9023 7.6 100.014 6.84 100.014 6.024C100.014 4.504 99.7103 3.368 99.1023 2.616C98.5103 1.864 97.4863 1.488 96.0303 1.488C95.2943 1.488 94.8143 1.624 94.5903 1.896C94.3663 2.168 94.2543 2.72 94.2543 3.552V15.456C94.2543 16.032 94.3103 16.464 94.4223 16.752C94.5503 17.04 94.7903 17.232 95.1423 17.328C95.4943 17.424 96.0063 17.488 96.6783 17.52V18C96.2623 17.968 95.7343 17.952 95.0943 17.952C94.4543 17.936 93.8063 17.928 93.1503 17.928C92.5263 17.928 91.9423 17.936 91.3983 17.952C90.8543 17.952 90.4143 17.968 90.0783 18V17.52C90.6223 17.488 91.0303 17.424 91.3023 17.328C91.5903 17.232 91.7823 17.04 91.8783 16.752C91.9743 16.464 92.0223 16.032 92.0223 15.456V3.552C92.0223 2.96 91.9743 2.528 91.8783 2.256C91.7823 1.968 91.5903 1.776 91.3023 1.68C91.0303 1.568 90.6223 1.504 90.0783 1.488V1.008ZM110.237 1.008V1.488C109.693 1.504 109.277 1.568 108.989 1.68C108.717 1.776 108.533 1.968 108.437 2.256C108.341 2.528 108.293 2.96 108.293 3.552V15.456C108.293 16.032 108.341 16.464 108.437 16.752C108.533 17.04 108.717 17.232 108.989 17.328C109.277 17.424 109.693 17.488 110.237 17.52V18C109.869 17.968 109.405 17.952 108.845 17.952C108.301 17.936 107.749 17.928 107.189 17.928C106.565 17.928 105.981 17.936 105.437 17.952C104.893 17.952 104.453 17.968 104.117 18V17.52C104.661 17.488 105.069 17.424 105.341 17.328C105.629 17.232 105.821 17.04 105.917 16.752C106.013 16.464 106.061 16.032 106.061 15.456V3.552C106.061 2.96 106.013 2.528 105.917 2.256C105.821 1.968 105.629 1.776 105.341 1.68C105.069 1.568 104.661 1.504 104.117 1.488V1.008C104.453 1.024 104.893 1.04 105.437 1.056C105.981 1.072 106.565 1.08 107.189 1.08C107.749 1.08 108.301 1.072 108.845 1.056C109.405 1.04 109.869 1.024 110.237 1.008ZM116.981 2.592C116.981 2.592 116.973 2.68 116.957 2.856C116.941 3.016 116.925 3.184 116.909 3.36C116.909 3.536 116.909 3.624 116.909 3.624L107.309 17.232L107.381 16.2L116.981 2.592ZM120.749 1.008V1.488C120.205 1.504 119.789 1.568 119.501 1.68C119.229 1.776 119.045 1.968 118.949 2.256C118.853 2.528 118.805 2.96 118.805 3.552V15.456C118.805 16.032 118.853 16.464 118.949 16.752C119.045 17.04 119.229 17.232 119.501 17.328C119.789 17.424 120.205 17.488 120.749 17.52V18C120.413 17.968 119.973 17.952 119.429 17.952C118.885 17.936 118.301 17.928 117.677 17.928C117.133 17.928 116.581 17.936 116.021 17.952C115.461 17.952 114.997 17.968 114.629 18V17.52C115.173 17.488 115.581 17.424 115.853 17.328C116.141 17.232 116.333 17.04 116.429 16.752C116.525 16.464 116.573 16.032 116.573 15.456V3.552C116.573 2.96 116.525 2.528 116.429 2.256C116.333 1.968 116.141 1.776 115.853 1.68C115.581 1.568 115.173 1.504 114.629 1.488V1.008C114.997 1.024 115.461 1.04 116.021 1.056C116.581 1.072 117.133 1.08 117.677 1.08C118.301 1.08 118.885 1.072 119.429 1.056C119.973 1.04 120.413 1.024 120.749 1.008ZM128.894 1.008V1.488C128.35 1.504 127.934 1.568 127.646 1.68C127.374 1.776 127.19 1.968 127.094 2.256C126.998 2.528 126.95 2.96 126.95 3.552V15.456C126.95 16.032 126.998 16.464 127.094 16.752C127.19 17.04 127.374 17.232 127.646 17.328C127.934 17.424 128.35 17.488 128.894 17.52V18C128.526 17.968 128.062 17.952 127.502 17.952C126.958 17.936 126.406 17.928 125.846 17.928C125.222 17.928 124.638 17.936 124.094 17.952C123.55 17.952 123.11 17.968 122.774 18V17.52C123.318 17.488 123.726 17.424 123.998 17.328C124.286 17.232 124.478 17.04 124.574 16.752C124.67 16.464 124.718 16.032 124.718 15.456V3.552C124.718 2.96 124.67 2.528 124.574 2.256C124.478 1.968 124.286 1.776 123.998 1.68C123.726 1.568 123.318 1.504 122.774 1.488V1.008C123.11 1.024 123.55 1.04 124.094 1.056C124.638 1.072 125.222 1.08 125.846 1.08C126.406 1.08 126.958 1.072 127.502 1.056C128.062 1.04 128.526 1.024 128.894 1.008ZM135.638 2.592C135.638 2.592 135.63 2.68 135.614 2.856C135.598 3.016 135.582 3.184 135.566 3.36C135.566 3.536 135.566 3.624 135.566 3.624L125.966 17.232L126.038 16.2L135.638 2.592ZM139.406 1.008V1.488C138.862 1.504 138.446 1.568 138.158 1.68C137.886 1.776 137.702 1.968 137.606 2.256C137.51 2.528 137.462 2.96 137.462 3.552V15.456C137.462 16.032 137.51 16.464 137.606 16.752C137.702 17.04 137.886 17.232 138.158 17.328C138.446 17.424 138.862 17.488 139.406 17.52V18C139.07 17.968 138.63 17.952 138.086 17.952C137.542 17.936 136.958 17.928 136.334 17.928C135.79 17.928 135.238 17.936 134.678 17.952C134.118 17.952 133.654 17.968 133.286 18V17.52C133.83 17.488 134.238 17.424 134.51 17.328C134.798 17.232 134.99 17.04 135.086 16.752C135.182 16.464 135.23 16.032 135.23 15.456V3.552C135.23 2.96 135.182 2.528 135.086 2.256C134.99 1.968 134.798 1.776 134.51 1.68C134.238 1.568 133.83 1.504 133.286 1.488V1.008C133.654 1.024 134.118 1.04 134.678 1.056C135.238 1.072 135.79 1.08 136.334 1.08C136.958 1.08 137.542 1.072 138.086 1.056C138.63 1.04 139.07 1.024 139.406 1.008Z" fill="white"/>
</svg>
