<svg width="120" height="14" viewBox="0 0 120 14" fill="none" xmlns="http://www.w3.org/2000/svg">
<path d="M7.384 4.236H4.458C4.36467 6.10267 4.23867 7.65667 4.08 8.898C3.93067 10.13 3.702 11.0913 3.394 11.782C3.18867 12.23 2.946 12.5567 2.666 12.762C2.386 12.9673 2.08267 13.07 1.756 13.07C1.588 13.07 1.44333 13.056 1.322 13.028C1.20067 13.0093 1.084 12.9767 0.972 12.93L1.126 11.922C1.21933 11.95 1.31733 11.964 1.42 11.964C1.57867 11.964 1.73267 11.9127 1.882 11.81C2.04067 11.7073 2.19467 11.516 2.344 11.236C2.47467 10.984 2.596 10.648 2.708 10.228C2.82933 9.808 2.932 9.276 3.016 8.632C3.10933 7.988 3.184 7.22267 3.24 6.336C3.296 5.44 3.338 4.39467 3.366 3.2H8.546V13H7.384V4.236ZM16.9183 6.364L17.0023 5.244H16.9463L16.3443 6.392L11.6123 13H10.9263V3.2H12.0883V9.92L11.9903 11.026H12.0463L12.6623 9.878L17.3943 3.2H18.0803V13H16.9183V6.364ZM21.4776 3.2V6.448C21.4776 7.72667 22.0563 8.366 23.2136 8.366C23.6523 8.366 24.063 8.31 24.4456 8.198C24.8283 8.07667 25.141 7.918 25.3836 7.722V3.2H26.5456V13H25.3836V8.772C25.1316 8.912 24.8003 9.052 24.3896 9.192C23.979 9.332 23.5076 9.402 22.9756 9.402C22.5836 9.402 22.2243 9.36 21.8976 9.276C21.571 9.18267 21.291 9.03333 21.0576 8.828C20.8243 8.61333 20.6423 8.32867 20.5116 7.974C20.381 7.61933 20.3156 7.18067 20.3156 6.658V3.2H21.4776ZM34.7982 8.506H30.0942V13H28.9322V3.2H30.0942V7.47H34.7982V3.2H35.9602V13H34.7982V8.506ZM45.5624 3.2H46.7244V13H45.5624V3.2ZM38.3384 3.2H39.5004V7.008C39.5471 6.99867 39.6171 6.98933 39.7104 6.98C39.8038 6.96133 39.9064 6.94733 40.0184 6.938C40.1304 6.92867 40.2424 6.91933 40.3544 6.91C40.4758 6.90067 40.5924 6.896 40.7044 6.896C41.1431 6.896 41.5678 6.94267 41.9784 7.036C42.3984 7.12 42.7671 7.274 43.0844 7.498C43.4018 7.722 43.6538 8.02533 43.8404 8.408C44.0364 8.78133 44.1344 9.25733 44.1344 9.836C44.1344 10.396 44.0458 10.886 43.8684 11.306C43.6911 11.7167 43.4391 12.0573 43.1124 12.328C42.7951 12.5893 42.4124 12.7853 41.9644 12.916C41.5164 13.0467 41.0218 13.112 40.4804 13.112C40.3498 13.112 40.1958 13.1073 40.0184 13.098C39.8504 13.098 39.6684 13.0887 39.4724 13.07C39.2858 13.0607 39.0944 13.042 38.8984 13.014C38.7024 12.986 38.5158 12.9487 38.3384 12.902V3.2ZM40.5784 12.104C41.2504 12.104 41.8058 11.922 42.2444 11.558C42.6831 11.194 42.9024 10.648 42.9024 9.92C42.9024 9.528 42.8371 9.20133 42.7064 8.94C42.5758 8.67867 42.3984 8.47333 42.1744 8.324C41.9598 8.16533 41.7078 8.058 41.4184 8.002C41.1384 7.93667 40.8398 7.904 40.5224 7.904C40.3544 7.904 40.1678 7.918 39.9624 7.946C39.7571 7.974 39.6031 8.002 39.5004 8.03V12.02C39.7524 12.076 40.1118 12.104 40.5784 12.104ZM55.0902 6.364L55.1742 5.244H55.1182L54.5162 6.392L49.7842 13H49.0982V3.2H50.2602V9.92L50.1622 11.026H50.2182L50.8342 9.878L55.5662 3.2H56.2522V13H55.0902V6.364ZM51.5202 0.819999C51.5575 1.16533 51.6882 1.43133 51.9122 1.618C52.1362 1.80467 52.4349 1.898 52.8082 1.898C53.1815 1.898 53.4755 1.80467 53.6902 1.618C53.9142 1.43133 54.0495 1.17 54.0962 0.834L55.0902 1.072C54.9875 1.576 54.7495 1.97733 54.3762 2.276C54.0122 2.56533 53.4849 2.71 52.7942 2.71C52.1315 2.71 51.5855 2.584 51.1562 2.332C50.7362 2.07067 50.4889 1.66 50.4142 1.1L51.5202 0.819999ZM64.1799 8.464H63.5219V13H62.3599V3.2H63.5219V7.764L64.1519 7.568L67.4419 3.2H68.7859L65.5099 7.414L64.9219 7.876L65.6359 8.436L69.2199 13H67.7499L64.1799 8.464ZM75.5668 10.284H71.9548L70.9748 13H69.8268L73.5368 3.046H74.0688L77.7928 13H76.5748L75.5668 10.284ZM72.3328 9.276H75.2168L74.1248 6.294L73.7748 4.81H73.7608L73.4108 6.322L72.3328 9.276ZM79.0943 3.2H84.4143V4.236H80.2563V7.176C80.415 7.148 80.611 7.12 80.8443 7.092C81.0776 7.064 81.3016 7.05 81.5163 7.05C81.9923 7.05 82.445 7.09667 82.8743 7.19C83.3036 7.274 83.6816 7.42333 84.0083 7.638C84.335 7.85267 84.5916 8.14667 84.7783 8.52C84.9743 8.884 85.0723 9.346 85.0723 9.906C85.0723 10.466 84.9743 10.9513 84.7783 11.362C84.5823 11.7633 84.321 12.0947 83.9943 12.356C83.6676 12.608 83.285 12.7993 82.8463 12.93C82.417 13.0513 81.9643 13.112 81.4883 13.112C81.3296 13.112 81.1476 13.1073 80.9423 13.098C80.7463 13.098 80.5363 13.0887 80.3123 13.07C80.0976 13.0513 79.883 13.028 79.6683 13C79.463 12.9813 79.2716 12.9487 79.0943 12.902V3.2ZM81.6283 12.104C81.927 12.104 82.2116 12.062 82.4823 11.978C82.753 11.894 82.9863 11.7727 83.1823 11.614C83.3876 11.446 83.5463 11.236 83.6583 10.984C83.7796 10.732 83.8403 10.438 83.8403 10.102C83.8403 9.67267 83.7703 9.32733 83.6303 9.066C83.4996 8.79533 83.3223 8.58533 83.0983 8.436C82.8743 8.28667 82.613 8.18867 82.3143 8.142C82.025 8.086 81.7216 8.058 81.4043 8.058C81.3203 8.058 81.2223 8.06267 81.1103 8.072C80.9983 8.08133 80.8863 8.09067 80.7743 8.1C80.6623 8.10933 80.5596 8.12333 80.4663 8.142C80.373 8.15133 80.303 8.16067 80.2563 8.17V12.02C80.3216 12.0387 80.4056 12.0527 80.5083 12.062C80.6203 12.0713 80.737 12.0807 80.8583 12.09C80.989 12.0993 81.1196 12.104 81.2503 12.104C81.381 12.104 81.507 12.104 81.6283 12.104ZM92.7836 6.364L92.8676 5.244H92.8116L92.2096 6.392L87.4776 13H86.7916V3.2H87.9536V9.92L87.8556 11.026H87.9116L88.5276 9.878L93.2596 3.2H93.9456V13H92.7836V6.364ZM102.187 8.506H97.4829V13H96.3209V3.2H97.4829V7.47H102.187V3.2H103.349V13H102.187V8.506ZM105.727 3.2H111.061V4.236H106.889V7.442H110.711V8.478H106.889V11.964H111.131V13H105.727V3.2ZM119.561 4.236H116.509V13H115.347V4.236H112.295V3.2H119.561V4.236Z" fill="#969696"/>
</svg>
