<svg width="76" height="14" viewBox="0 0 76 14" fill="none" xmlns="http://www.w3.org/2000/svg">
<path d="M6.056 8.506H1.352V13H0.19V3.2H1.352V7.47H6.056V3.2H7.218V13H6.056V8.506ZM14.2583 10.284H10.6463L9.66625 13H8.51825L12.2283 3.046H12.7603L16.4843 13H15.2663L14.2583 10.284ZM11.0243 9.276H13.9083L12.8163 6.294L12.4663 4.81H12.4523L12.1022 6.322L11.0243 9.276ZM23.7022 12.594C23.4222 12.8087 23.0676 12.958 22.6382 13.042C22.2089 13.126 21.7516 13.168 21.2662 13.168C20.6782 13.168 20.1276 13.07 19.6142 12.874C19.1009 12.6687 18.6529 12.3607 18.2702 11.95C17.8876 11.5393 17.5842 11.0167 17.3602 10.382C17.1362 9.738 17.0242 8.97733 17.0242 8.1C17.0242 7.18533 17.1456 6.41067 17.3882 5.776C17.6402 5.132 17.9669 4.60933 18.3682 4.208C18.7789 3.79733 19.2362 3.49867 19.7402 3.312C20.2442 3.12533 20.7576 3.032 21.2802 3.032C21.8402 3.032 22.2976 3.06467 22.6522 3.13C23.0069 3.186 23.3102 3.26533 23.5622 3.368L23.2822 4.39C22.8342 4.17533 22.1949 4.068 21.3642 4.068C20.9816 4.068 20.6036 4.138 20.2302 4.278C19.8569 4.418 19.5209 4.64667 19.2222 4.964C18.9329 5.28133 18.6996 5.69667 18.5222 6.21C18.3449 6.72333 18.2562 7.35333 18.2562 8.1C18.2562 8.772 18.3402 9.36 18.5082 9.864C18.6762 10.368 18.9049 10.788 19.1942 11.124C19.4929 11.46 19.8382 11.712 20.2302 11.88C20.6316 12.048 21.0656 12.132 21.5322 12.132C21.9522 12.132 22.3162 12.09 22.6242 12.006C22.9416 11.922 23.2076 11.8147 23.4222 11.684L23.7022 12.594ZM31.5922 4.236H28.5402V13H27.3782V4.236H24.3262V3.2H31.5922V4.236ZM33.0298 3.298C33.3845 3.214 33.7672 3.158 34.1778 3.13C34.5885 3.102 34.9945 3.088 35.3958 3.088C35.8252 3.088 36.2592 3.13 36.6978 3.214C37.1458 3.298 37.5518 3.452 37.9158 3.676C38.2798 3.9 38.5738 4.208 38.7978 4.6C39.0312 4.992 39.1478 5.49133 39.1478 6.098C39.1478 6.69533 39.0405 7.19933 38.8258 7.61C38.6112 8.02067 38.3265 8.35667 37.9718 8.618C37.6172 8.87 37.2112 9.052 36.7538 9.164C36.2965 9.276 35.8252 9.332 35.3398 9.332C35.2932 9.332 35.2138 9.332 35.1018 9.332C34.9992 9.332 34.8872 9.332 34.7658 9.332C34.6538 9.32267 34.5418 9.31333 34.4298 9.304C34.3178 9.29467 34.2385 9.28533 34.1918 9.276V13H33.0298V3.298ZM35.4238 4.096C35.1812 4.096 34.9478 4.10067 34.7238 4.11C34.4998 4.11933 34.3225 4.14267 34.1918 4.18V8.24C34.2385 8.25867 34.3132 8.27267 34.4158 8.282C34.5185 8.282 34.6258 8.28667 34.7378 8.296C34.8498 8.296 34.9572 8.296 35.0598 8.296C35.1625 8.296 35.2372 8.296 35.2838 8.296C35.6012 8.296 35.9138 8.268 36.2218 8.212C36.5392 8.14667 36.8238 8.03467 37.0758 7.876C37.3278 7.71733 37.5285 7.49333 37.6778 7.204C37.8365 6.91467 37.9158 6.546 37.9158 6.098C37.9158 5.71533 37.8412 5.398 37.6918 5.146C37.5518 4.88467 37.3605 4.67933 37.1178 4.53C36.8845 4.37133 36.6185 4.25933 36.3198 4.194C36.0212 4.12867 35.7225 4.096 35.4238 4.096ZM40.2117 8.1C40.2117 6.46667 40.5571 5.216 41.2477 4.348C41.9384 3.47067 42.9231 3.032 44.2017 3.032C44.8924 3.032 45.4897 3.15333 45.9937 3.396C46.4977 3.63867 46.9131 3.984 47.2397 4.432C47.5757 4.87067 47.8231 5.40267 47.9817 6.028C48.1404 6.644 48.2197 7.33467 48.2197 8.1C48.2197 9.73333 47.8697 10.9887 47.1697 11.866C46.4791 12.734 45.4897 13.168 44.2017 13.168C43.5204 13.168 42.9277 13.0467 42.4237 12.804C41.9291 12.5613 41.5137 12.2207 41.1777 11.782C40.8511 11.334 40.6084 10.802 40.4497 10.186C40.2911 9.56067 40.2117 8.86533 40.2117 8.1ZM41.4437 8.1C41.4437 8.64133 41.4951 9.15467 41.5977 9.64C41.7097 10.1253 41.8777 10.5547 42.1017 10.928C42.3257 11.292 42.6104 11.586 42.9557 11.81C43.3104 12.0247 43.7257 12.132 44.2017 12.132C45.0697 12.132 45.7511 11.8053 46.2457 11.152C46.7404 10.4893 46.9877 9.472 46.9877 8.1C46.9877 7.568 46.9317 7.05933 46.8197 6.574C46.7171 6.07933 46.5491 5.65 46.3157 5.286C46.0917 4.91267 45.8024 4.61867 45.4477 4.404C45.1024 4.18 44.6871 4.068 44.2017 4.068C43.3431 4.068 42.6664 4.39933 42.1717 5.062C41.6864 5.71533 41.4437 6.728 41.4437 8.1ZM56.18 6.364L56.264 5.244H56.208L55.606 6.392L50.874 13H50.188V3.2H51.35V9.92L51.252 11.026H51.308L51.924 9.878L56.656 3.2H57.342V13H56.18V6.364ZM52.61 0.819999C52.6474 1.16533 52.778 1.43133 53.002 1.618C53.226 1.80467 53.5247 1.898 53.898 1.898C54.2714 1.898 54.5654 1.80467 54.78 1.618C55.004 1.43133 55.1394 1.17 55.186 0.834L56.18 1.072C56.0774 1.576 55.8394 1.97733 55.466 2.276C55.102 2.56533 54.5747 2.71 53.884 2.71C53.2214 2.71 52.6754 2.584 52.246 2.332C51.826 2.07067 51.5787 1.66 51.504 1.1L52.61 0.819999ZM61.5373 8.464H60.8793V13H59.7173V3.2H60.8793V7.764L61.5093 7.568L64.7993 3.2H66.1433L62.8673 7.414L62.2793 7.876L62.9933 8.436L66.5773 13H65.1073L61.5373 8.464ZM74.2543 6.364L74.3383 5.244H74.2823L73.6803 6.392L68.9483 13H68.2623V3.2H69.4243V9.92L69.3263 11.026H69.3823L69.9983 9.878L74.7303 3.2H75.4163V13H74.2543V6.364Z" fill="#969696"/>
</svg>
