<svg width="149" height="19" viewBox="0 0 149 19" fill="none" xmlns="http://www.w3.org/2000/svg">
<path d="M7.904 0.671999C9.424 0.671999 10.752 1.016 11.888 1.704C13.04 2.392 13.928 3.384 14.552 4.68C15.192 5.96 15.512 7.52 15.512 9.36C15.512 11.152 15.184 12.72 14.528 14.064C13.888 15.408 12.992 16.456 11.84 17.208C10.688 17.96 9.368 18.336 7.88 18.336C6.36 18.336 5.024 17.992 3.872 17.304C2.736 16.616 1.848 15.624 1.208 14.328C0.584 13.032 0.272 11.472 0.272 9.648C0.272 7.856 0.6 6.288 1.256 4.944C1.912 3.6 2.808 2.552 3.944 1.8C5.096 1.048 6.416 0.671999 7.904 0.671999ZM7.808 1.104C6.768 1.104 5.864 1.464 5.096 2.184C4.328 2.904 3.728 3.896 3.296 5.16C2.88 6.424 2.672 7.888 2.672 9.552C2.672 11.248 2.904 12.728 3.368 13.992C3.848 15.24 4.488 16.208 5.288 16.896C6.104 17.568 7 17.904 7.976 17.904C9.016 17.904 9.92 17.544 10.688 16.824C11.456 16.104 12.048 15.112 12.464 13.848C12.896 12.568 13.112 11.104 13.112 9.456C13.112 7.744 12.872 6.264 12.392 5.016C11.928 3.768 11.296 2.808 10.496 2.136C9.696 1.448 8.8 1.104 7.808 1.104ZM42.6616 1.008V1.488C42.1176 1.504 41.7016 1.568 41.4136 1.68C41.1416 1.776 40.9576 1.968 40.8616 2.256C40.7656 2.528 40.7176 2.96 40.7176 3.552V15.456C40.7176 16.032 40.7656 16.464 40.8616 16.752C40.9576 17.04 41.1416 17.232 41.4136 17.328C41.7016 17.424 42.1176 17.488 42.6616 17.52V18C42.2936 17.968 41.8296 17.952 41.2696 17.952C40.7256 17.936 40.1736 17.928 39.6136 17.928C38.9896 17.928 38.4056 17.936 37.8616 17.952C37.3176 17.952 36.8776 17.968 36.5416 18V17.52C37.0856 17.488 37.4936 17.424 37.7656 17.328C38.0536 17.232 38.2456 17.04 38.3416 16.752C38.4376 16.464 38.4856 16.032 38.4856 15.456V2.256L38.5816 2.328L32.7016 18.12H32.3176L26.2696 2.544V15.216C26.2696 15.792 26.3176 16.248 26.4136 16.584C26.5256 16.904 26.7336 17.136 27.0376 17.28C27.3576 17.408 27.8296 17.488 28.4536 17.52V18C28.1656 17.968 27.7896 17.952 27.3256 17.952C26.8616 17.936 26.4216 17.928 26.0056 17.928C25.6056 17.928 25.1976 17.936 24.7816 17.952C24.3816 17.952 24.0456 17.968 23.7736 18V17.52C24.3176 17.488 24.7256 17.408 24.9976 17.28C25.2856 17.136 25.4776 16.904 25.5736 16.584C25.6696 16.248 25.7176 15.792 25.7176 15.216V3.552C25.7176 2.96 25.6696 2.528 25.5736 2.256C25.4776 1.968 25.2856 1.776 24.9976 1.68C24.7256 1.568 24.3176 1.504 23.7736 1.488V1.008C24.0456 1.024 24.3816 1.04 24.7816 1.056C25.1976 1.072 25.6056 1.08 26.0056 1.08C26.3576 1.08 26.7176 1.072 27.0856 1.056C27.4696 1.04 27.7896 1.024 28.0456 1.008L33.4936 15.36L33.0856 15.552L38.4856 1.08C38.6776 1.08 38.8616 1.08 39.0376 1.08C39.2296 1.08 39.4216 1.08 39.6136 1.08C40.1736 1.08 40.7256 1.072 41.2696 1.056C41.8296 1.04 42.2936 1.024 42.6616 1.008ZM51.4239 0.887999L57.2799 15.984C57.5199 16.592 57.7919 17 58.0959 17.208C58.3999 17.4 58.6799 17.504 58.9359 17.52V18C58.6159 17.968 58.2239 17.952 57.7599 17.952C57.2959 17.936 56.8319 17.928 56.3679 17.928C55.7439 17.928 55.1599 17.936 54.6159 17.952C54.0719 17.952 53.6319 17.968 53.2959 18V17.52C54.1119 17.488 54.6319 17.352 54.8559 17.112C55.0799 16.856 55.0319 16.32 54.7119 15.504L50.2479 3.576L50.6319 3.264L46.4559 14.112C46.1199 14.976 45.9599 15.656 45.9759 16.152C45.9919 16.632 46.1759 16.976 46.5279 17.184C46.8799 17.392 47.3919 17.504 48.0639 17.52V18C47.6159 17.968 47.1439 17.952 46.6479 17.952C46.1679 17.936 45.7199 17.928 45.3039 17.928C44.9039 17.928 44.5599 17.936 44.2719 17.952C43.9999 17.952 43.7439 17.968 43.5039 18V17.52C43.8239 17.44 44.1519 17.256 44.4879 16.968C44.8239 16.664 45.1279 16.152 45.3999 15.432L51.0399 0.887999C51.1039 0.887999 51.1679 0.887999 51.2319 0.887999C51.2959 0.887999 51.3599 0.887999 51.4239 0.887999ZM54.3519 11.088V11.568H47.1999L47.4399 11.088H54.3519ZM70.8131 1.008C70.7491 1.616 70.7011 2.208 70.6691 2.784C70.6531 3.344 70.6451 3.776 70.6451 4.08C70.6451 4.464 70.6531 4.824 70.6691 5.16C70.6851 5.496 70.7011 5.792 70.7171 6.048H70.1651C70.0531 4.928 69.9011 4.048 69.7091 3.408C69.5171 2.752 69.1811 2.28 68.7011 1.992C68.2211 1.704 67.4771 1.56 66.4691 1.56H65.9171C65.3731 1.56 64.9571 1.608 64.6691 1.704C64.3971 1.784 64.2131 1.968 64.1171 2.256C64.0211 2.528 63.9731 2.96 63.9731 3.552V15.456C63.9731 16.032 64.0291 16.464 64.1411 16.752C64.2691 17.04 64.5091 17.232 64.8611 17.328C65.2131 17.424 65.7251 17.488 66.3971 17.52V18C65.9811 17.968 65.4531 17.952 64.8131 17.952C64.1731 17.936 63.5251 17.928 62.8691 17.928C62.2451 17.928 61.6611 17.936 61.1171 17.952C60.5731 17.952 60.1331 17.968 59.7971 18V17.52C60.3411 17.488 60.7491 17.424 61.0211 17.328C61.3091 17.232 61.5011 17.04 61.5971 16.752C61.6931 16.464 61.7411 16.032 61.7411 15.456V3.552C61.7411 2.96 61.6931 2.528 61.5971 2.256C61.5011 1.968 61.3091 1.776 61.0211 1.68C60.7491 1.568 60.3411 1.504 59.7971 1.488V1.008C60.5811 1.024 61.4211 1.04 62.3171 1.056C63.2131 1.072 64.0531 1.08 64.8371 1.08C65.6371 1.08 66.2771 1.08 66.7571 1.08C67.3491 1.08 68.0211 1.08 68.7731 1.08C69.5411 1.064 70.2211 1.04 70.8131 1.008ZM77.9317 0.887999L83.7877 15.984C84.0277 16.592 84.2997 17 84.6037 17.208C84.9077 17.4 85.1877 17.504 85.4437 17.52V18C85.1237 17.968 84.7317 17.952 84.2677 17.952C83.8037 17.936 83.3397 17.928 82.8757 17.928C82.2517 17.928 81.6677 17.936 81.1237 17.952C80.5797 17.952 80.1397 17.968 79.8037 18V17.52C80.6197 17.488 81.1397 17.352 81.3637 17.112C81.5877 16.856 81.5397 16.32 81.2197 15.504L76.7557 3.576L77.1397 3.264L72.9637 14.112C72.6277 14.976 72.4677 15.656 72.4837 16.152C72.4997 16.632 72.6837 16.976 73.0357 17.184C73.3877 17.392 73.8997 17.504 74.5717 17.52V18C74.1237 17.968 73.6517 17.952 73.1557 17.952C72.6757 17.936 72.2277 17.928 71.8117 17.928C71.4117 17.928 71.0677 17.936 70.7797 17.952C70.5077 17.952 70.2517 17.968 70.0117 18V17.52C70.3317 17.44 70.6597 17.256 70.9957 16.968C71.3317 16.664 71.6357 16.152 71.9077 15.432L77.5477 0.887999C77.6117 0.887999 77.6757 0.887999 77.7397 0.887999C77.8037 0.887999 77.8677 0.887999 77.9317 0.887999ZM80.8597 11.088V11.568H73.7077L73.9477 11.088H80.8597ZM91.7289 0.671999C93.1529 0.671999 94.3049 0.999999 95.1849 1.656C96.0809 2.296 96.5209 3.176 96.5049 4.296C96.5049 4.968 96.3529 5.568 96.0489 6.096C95.7449 6.624 95.3449 7.08 94.8489 7.464C94.3689 7.848 93.8409 8.168 93.2649 8.424C92.7049 8.68 92.1609 8.872 91.6329 9C92.3209 9.016 93.0089 9.12 93.6969 9.312C94.3849 9.488 95.0089 9.76 95.5689 10.128C96.1289 10.496 96.5769 10.952 96.9129 11.496C97.2489 12.04 97.4169 12.68 97.4169 13.416C97.4169 14.216 97.2329 14.92 96.8649 15.528C96.5129 16.136 96.0249 16.648 95.4009 17.064C94.7769 17.48 94.0729 17.792 93.2889 18C92.5049 18.224 91.6809 18.336 90.8169 18.336C89.9369 18.336 89.2089 18.24 88.6329 18.048C88.0569 17.872 87.6009 17.68 87.2649 17.472C86.9449 17.264 86.6729 17.016 86.4489 16.728C86.2409 16.44 86.1369 16.12 86.1369 15.768C86.1369 15.4 86.2569 15.096 86.4969 14.856C86.7369 14.616 87.0409 14.496 87.4089 14.496C87.7769 14.496 88.0889 14.608 88.3449 14.832C88.6009 15.056 88.7289 15.376 88.7289 15.792C88.7289 16.128 88.6329 16.4 88.4409 16.608C88.2649 16.816 88.0249 16.952 87.7209 17.016C87.8969 17.256 88.2969 17.472 88.9209 17.664C89.5449 17.84 90.2009 17.928 90.8889 17.928C92.3129 17.928 93.3609 17.52 94.0329 16.704C94.7049 15.888 95.0409 14.872 95.0409 13.656C95.0409 12.824 94.8969 12.08 94.6089 11.424C94.3209 10.752 93.8889 10.224 93.3129 9.84C92.7529 9.44 92.0649 9.232 91.2489 9.216C91.0889 9.296 90.9209 9.368 90.7449 9.432C90.5849 9.496 90.4089 9.528 90.2169 9.528C90.0889 9.528 89.9689 9.496 89.8569 9.432C89.7609 9.368 89.7129 9.264 89.7129 9.12C89.7129 8.864 89.8809 8.736 90.2169 8.736C90.4089 8.736 90.5929 8.752 90.7689 8.784C90.9449 8.816 91.1129 8.848 91.2729 8.88C92.0089 8.64 92.5769 8.328 92.9769 7.944C93.3929 7.544 93.6809 7.064 93.8409 6.504C94.0169 5.944 94.1049 5.288 94.1049 4.536C94.1049 3.448 93.9049 2.608 93.5049 2.016C93.1049 1.424 92.4169 1.128 91.4409 1.128C90.6249 1.128 89.9449 1.352 89.4009 1.8C88.8569 2.248 88.4329 2.824 88.1289 3.528C87.8409 4.232 87.6729 4.968 87.6249 5.736H87.0729C87.0729 4.728 87.0649 3.92 87.0489 3.312C87.0489 2.688 87.0409 2.192 87.0249 1.824C87.0089 1.44 86.9849 1.112 86.9529 0.839999H87.5049C87.5529 1.176 87.6089 1.44 87.6729 1.632C87.7529 1.808 87.8809 1.896 88.0569 1.896C88.2329 1.896 88.4969 1.784 88.8489 1.56C89.0569 1.432 89.2729 1.304 89.4969 1.176C89.7369 1.032 90.0329 0.911999 90.3849 0.816C90.7369 0.719999 91.1849 0.671999 91.7289 0.671999ZM105.597 1.008V1.488C105.053 1.504 104.637 1.568 104.349 1.68C104.077 1.776 103.893 1.968 103.797 2.256C103.701 2.528 103.653 2.96 103.653 3.552V15.456C103.653 16.032 103.701 16.464 103.797 16.752C103.893 17.04 104.077 17.232 104.349 17.328C104.637 17.424 105.053 17.488 105.597 17.52V18C105.229 17.968 104.765 17.952 104.205 17.952C103.661 17.936 103.109 17.928 102.549 17.928C101.925 17.928 101.341 17.936 100.797 17.952C100.253 17.952 99.8128 17.968 99.4768 18V17.52C100.021 17.488 100.429 17.424 100.701 17.328C100.989 17.232 101.181 17.04 101.277 16.752C101.373 16.464 101.421 16.032 101.421 15.456V3.552C101.421 2.96 101.373 2.528 101.277 2.256C101.181 1.968 100.989 1.776 100.701 1.68C100.429 1.568 100.021 1.504 99.4768 1.488V1.008C99.8128 1.024 100.253 1.04 100.797 1.056C101.341 1.072 101.925 1.08 102.549 1.08C103.109 1.08 103.661 1.072 104.205 1.056C104.765 1.04 105.229 1.024 105.597 1.008ZM112.341 2.592C112.341 2.592 112.333 2.68 112.317 2.856C112.301 3.016 112.285 3.184 112.269 3.36C112.269 3.536 112.269 3.624 112.269 3.624L102.669 17.232L102.741 16.2L112.341 2.592ZM116.109 1.008V1.488C115.565 1.504 115.149 1.568 114.861 1.68C114.589 1.776 114.405 1.968 114.309 2.256C114.213 2.528 114.165 2.96 114.165 3.552V15.456C114.165 16.032 114.213 16.464 114.309 16.752C114.405 17.04 114.589 17.232 114.861 17.328C115.149 17.424 115.565 17.488 116.109 17.52V18C115.773 17.968 115.333 17.952 114.789 17.952C114.245 17.936 113.661 17.928 113.037 17.928C112.493 17.928 111.941 17.936 111.381 17.952C110.821 17.952 110.357 17.968 109.989 18V17.52C110.533 17.488 110.941 17.424 111.213 17.328C111.501 17.232 111.693 17.04 111.789 16.752C111.885 16.464 111.933 16.032 111.933 15.456V3.552C111.933 2.96 111.885 2.528 111.789 2.256C111.693 1.968 111.501 1.776 111.213 1.68C110.941 1.568 110.533 1.504 109.989 1.488V1.008C110.357 1.024 110.821 1.04 111.381 1.056C111.941 1.072 112.493 1.08 113.037 1.08C113.661 1.08 114.245 1.072 114.789 1.056C115.333 1.04 115.773 1.024 116.109 1.008ZM128.165 18V17.52C128.709 17.488 129.117 17.424 129.389 17.328C129.677 17.232 129.869 17.04 129.965 16.752C130.061 16.464 130.109 16.032 130.109 15.456V3.552C130.109 2.96 130.061 2.528 129.965 2.256C129.869 1.968 129.677 1.776 129.389 1.68C129.117 1.568 128.709 1.504 128.165 1.488V1.008C128.533 1.024 128.997 1.04 129.557 1.056C130.117 1.072 130.669 1.08 131.213 1.08C131.837 1.08 132.421 1.072 132.965 1.056C133.509 1.04 133.949 1.024 134.285 1.008V1.488C133.741 1.504 133.325 1.568 133.037 1.68C132.765 1.776 132.581 1.968 132.485 2.256C132.389 2.528 132.341 2.96 132.341 3.552V15.456C132.341 16.032 132.389 16.464 132.485 16.752C132.581 17.04 132.765 17.232 133.037 17.328C133.325 17.424 133.741 17.488 134.285 17.52V18C133.949 17.968 133.509 17.952 132.965 17.952C132.421 17.936 131.837 17.928 131.213 17.928C130.669 17.928 130.117 17.936 129.557 17.952C128.997 17.952 128.533 17.968 128.165 18ZM118.133 18V17.52C118.677 17.488 119.085 17.424 119.357 17.328C119.645 17.232 119.837 17.04 119.933 16.752C120.029 16.464 120.077 16.032 120.077 15.456V3.552C120.077 2.96 120.029 2.528 119.933 2.256C119.837 1.968 119.645 1.776 119.357 1.68C119.085 1.568 118.677 1.504 118.133 1.488V1.008C118.469 1.024 118.909 1.04 119.453 1.056C119.997 1.072 120.581 1.08 121.205 1.08C121.765 1.08 122.317 1.072 122.861 1.056C123.421 1.04 123.885 1.024 124.253 1.008V1.488C123.709 1.504 123.293 1.568 123.005 1.68C122.733 1.776 122.549 1.968 122.453 2.256C122.357 2.528 122.309 2.96 122.309 3.552V15.456C122.309 16.032 122.357 16.464 122.453 16.752C122.549 17.04 122.733 17.232 123.005 17.328C123.293 17.424 123.709 17.488 124.253 17.52V18C123.885 17.968 123.421 17.952 122.861 17.952C122.317 17.936 121.765 17.928 121.205 17.928C120.581 17.928 119.997 17.936 119.453 17.952C118.909 17.952 118.469 17.968 118.133 18ZM121.469 9.696V9.216H130.949V9.696H121.469ZM148.273 1.008C148.209 1.568 148.161 2.112 148.129 2.64C148.113 3.168 148.105 3.568 148.105 3.84C148.105 4.128 148.113 4.408 148.129 4.68C148.145 4.936 148.161 5.152 148.177 5.328H147.625C147.529 4.384 147.393 3.64 147.217 3.096C147.041 2.536 146.737 2.144 146.305 1.92C145.889 1.68 145.257 1.56 144.409 1.56H142.417C141.873 1.56 141.457 1.608 141.169 1.704C140.897 1.784 140.713 1.968 140.617 2.256C140.521 2.528 140.473 2.96 140.473 3.552V15.456C140.473 16.032 140.521 16.464 140.617 16.752C140.713 17.04 140.897 17.232 141.169 17.328C141.457 17.408 141.873 17.448 142.417 17.448H144.169C145.177 17.448 145.937 17.312 146.449 17.04C146.977 16.768 147.353 16.328 147.577 15.72C147.817 15.096 147.993 14.256 148.105 13.2H148.657C148.609 13.632 148.585 14.208 148.585 14.928C148.585 15.232 148.593 15.672 148.609 16.248C148.641 16.808 148.689 17.392 148.753 18C147.937 17.968 147.017 17.952 145.993 17.952C144.969 17.936 144.057 17.928 143.257 17.928C142.777 17.928 142.137 17.928 141.337 17.928C140.553 17.928 139.713 17.936 138.817 17.952C137.921 17.952 137.081 17.968 136.297 18V17.52C136.841 17.488 137.249 17.424 137.521 17.328C137.809 17.232 138.001 17.04 138.097 16.752C138.193 16.464 138.241 16.032 138.241 15.456V3.552C138.241 2.96 138.193 2.528 138.097 2.256C138.001 1.968 137.809 1.776 137.521 1.68C137.249 1.568 136.841 1.504 136.297 1.488V1.008C137.081 1.024 137.921 1.04 138.817 1.056C139.713 1.072 140.553 1.08 141.337 1.08C142.137 1.08 142.777 1.08 143.257 1.08C143.993 1.08 144.825 1.08 145.753 1.08C146.697 1.064 147.537 1.04 148.273 1.008ZM144.145 9.216C144.145 9.216 144.145 9.296 144.145 9.456C144.145 9.616 144.145 9.696 144.145 9.696H139.753C139.753 9.696 139.753 9.616 139.753 9.456C139.753 9.296 139.753 9.216 139.753 9.216H144.145ZM144.841 6.048C144.777 6.96 144.745 7.656 144.745 8.136C144.761 8.616 144.769 9.056 144.769 9.456C144.769 9.856 144.777 10.296 144.793 10.776C144.809 11.256 144.849 11.952 144.913 12.864H144.361C144.297 12.352 144.217 11.856 144.121 11.376C144.041 10.88 143.849 10.48 143.545 10.176C143.257 9.856 142.761 9.696 142.057 9.696V9.216C142.761 9.216 143.249 9.032 143.521 8.664C143.809 8.296 143.993 7.864 144.073 7.368C144.153 6.872 144.225 6.432 144.289 6.048H144.841Z" fill="white"/>
</svg>
