<svg width="94" height="11" viewBox="0 0 94 11" fill="none" xmlns="http://www.w3.org/2000/svg">
<path d="M5.874 1.236H1.352V10H0.19V0.199999H7.036V10H5.874V1.236ZM9.01252 5.1C9.01252 3.46667 9.35785 2.216 10.0485 1.348C10.7392 0.470666 11.7238 0.0319998 13.0025 0.0319998C13.6932 0.0319998 14.2905 0.153333 14.7945 0.395999C15.2985 0.638666 15.7138 0.984 16.0405 1.432C16.3765 1.87067 16.6238 2.40267 16.7825 3.028C16.9412 3.644 17.0205 4.33467 17.0205 5.1C17.0205 6.73333 16.6705 7.98867 15.9705 8.866C15.2798 9.734 14.2905 10.168 13.0025 10.168C12.3212 10.168 11.7285 10.0467 11.2245 9.804C10.7298 9.56133 10.3145 9.22067 9.97852 8.782C9.65185 8.334 9.40918 7.802 9.25052 7.186C9.09185 6.56067 9.01252 5.86533 9.01252 5.1ZM10.2445 5.1C10.2445 5.64133 10.2958 6.15467 10.3985 6.64C10.5105 7.12533 10.6785 7.55467 10.9025 7.928C11.1265 8.292 11.4112 8.586 11.7565 8.81C12.1112 9.02467 12.5265 9.132 13.0025 9.132C13.8705 9.132 14.5518 8.80533 15.0465 8.152C15.5412 7.48933 15.7885 6.472 15.7885 5.1C15.7885 4.568 15.7325 4.05933 15.6205 3.574C15.5178 3.07933 15.3498 2.65 15.1165 2.286C14.8925 1.91267 14.6032 1.61867 14.2485 1.404C13.9032 1.18 13.4878 1.068 13.0025 1.068C12.1438 1.068 11.4672 1.39933 10.9725 2.062C10.4872 2.71533 10.2445 3.728 10.2445 5.1ZM24.8548 5.506H20.1508V10H18.9888V0.199999H20.1508V4.47H24.8548V0.199999H26.0168V10H24.8548V5.506ZM28.3951 0.298C28.7497 0.214 29.1324 0.158 29.5431 0.129999C29.9537 0.102 30.3597 0.0879999 30.7611 0.0879999C31.1904 0.0879999 31.6244 0.13 32.0631 0.213999C32.5111 0.297999 32.9171 0.451999 33.2811 0.676C33.6451 0.9 33.9391 1.208 34.1631 1.6C34.3964 1.992 34.5131 2.49133 34.5131 3.098C34.5131 3.69533 34.4057 4.19933 34.1911 4.61C33.9764 5.02067 33.6917 5.35667 33.3371 5.618C32.9824 5.87 32.5764 6.052 32.1191 6.164C31.6617 6.276 31.1904 6.332 30.7051 6.332C30.6584 6.332 30.5791 6.332 30.4671 6.332C30.3644 6.332 30.2524 6.332 30.1311 6.332C30.0191 6.32267 29.9071 6.31333 29.7951 6.304C29.6831 6.29467 29.6037 6.28533 29.5571 6.276V10H28.3951V0.298ZM30.7891 1.096C30.5464 1.096 30.3131 1.10067 30.0891 1.11C29.8651 1.11933 29.6877 1.14267 29.5571 1.18V5.24C29.6037 5.25867 29.6784 5.27267 29.7811 5.282C29.8837 5.282 29.9911 5.28667 30.1031 5.296C30.2151 5.296 30.3224 5.296 30.4251 5.296C30.5277 5.296 30.6024 5.296 30.6491 5.296C30.9664 5.296 31.2791 5.268 31.5871 5.212C31.9044 5.14667 32.1891 5.03467 32.4411 4.876C32.6931 4.71733 32.8937 4.49333 33.0431 4.204C33.2017 3.91467 33.2811 3.546 33.2811 3.098C33.2811 2.71533 33.2064 2.398 33.0571 2.146C32.9171 1.88467 32.7257 1.67933 32.4831 1.53C32.2497 1.37133 31.9837 1.25933 31.6851 1.194C31.3864 1.12867 31.0877 1.096 30.7891 1.096ZM39.9887 7.284H36.3767L35.3967 10H34.2487L37.9587 0.0459996H38.4907L42.2147 10H40.9967L39.9887 7.284ZM36.7547 6.276H39.6387L38.5467 3.294L38.1967 1.81H38.1827L37.8327 3.322L36.7547 6.276ZM49.4242 2.44C49.4242 2.67333 49.3868 2.91133 49.3122 3.154C49.2375 3.39667 49.1255 3.62533 48.9762 3.84C48.8268 4.04533 48.6355 4.22733 48.4022 4.386C48.1688 4.54467 47.8935 4.666 47.5762 4.75V4.806C47.8562 4.85267 48.1222 4.932 48.3742 5.044C48.6355 5.156 48.8642 5.31 49.0602 5.506C49.2562 5.702 49.4148 5.94 49.5362 6.22C49.6575 6.5 49.7182 6.83133 49.7182 7.214C49.7182 7.718 49.6108 8.15667 49.3962 8.53C49.1908 8.894 48.9155 9.19267 48.5702 9.426C48.2342 9.65933 47.8468 9.832 47.4082 9.944C46.9695 10.056 46.5215 10.112 46.0642 10.112C45.9055 10.112 45.7188 10.112 45.5042 10.112C45.2895 10.112 45.0655 10.1027 44.8322 10.084C44.5988 10.0747 44.3655 10.056 44.1322 10.028C43.8988 10.0093 43.6935 9.97667 43.5162 9.93V0.284C43.8615 0.228 44.2628 0.181333 44.7202 0.143999C45.1775 0.106666 45.6768 0.0879999 46.2182 0.0879999C46.5822 0.0879999 46.9508 0.120666 47.3242 0.186C47.7068 0.241999 48.0522 0.358666 48.3602 0.535999C48.6682 0.703999 48.9202 0.942 49.1162 1.25C49.3215 1.558 49.4242 1.95467 49.4242 2.44ZM46.1762 9.104C46.4748 9.104 46.7642 9.07133 47.0442 9.006C47.3242 8.93133 47.5715 8.81933 47.7862 8.67C48.0008 8.51133 48.1688 8.32 48.2902 8.096C48.4208 7.872 48.4862 7.606 48.4862 7.298C48.4862 6.91533 48.4068 6.60733 48.2482 6.374C48.0988 6.14067 47.8982 5.95867 47.6462 5.828C47.4035 5.69733 47.1282 5.60867 46.8202 5.562C46.5122 5.51533 46.2042 5.492 45.8962 5.492H44.6782V9.006C44.7435 9.02467 44.8368 9.03867 44.9582 9.048C45.0795 9.05733 45.2102 9.06667 45.3502 9.076C45.4902 9.08533 45.6348 9.09467 45.7842 9.104C45.9335 9.104 46.0642 9.104 46.1762 9.104ZM45.4062 4.512C45.5648 4.512 45.7562 4.50733 45.9802 4.498C46.2042 4.48867 46.3908 4.47467 46.5402 4.456C46.7642 4.38133 46.9742 4.29267 47.1702 4.19C47.3662 4.078 47.5388 3.952 47.6882 3.812C47.8468 3.66267 47.9682 3.49467 48.0522 3.308C48.1455 3.112 48.1922 2.902 48.1922 2.678C48.1922 2.37 48.1315 2.118 48.0102 1.922C47.8982 1.71667 47.7442 1.55333 47.5482 1.432C47.3522 1.31067 47.1282 1.22667 46.8762 1.18C46.6242 1.124 46.3675 1.096 46.1062 1.096C45.7982 1.096 45.5135 1.10533 45.2522 1.124C45.0002 1.13333 44.8088 1.152 44.6782 1.18V4.512H45.4062ZM57.684 3.364L57.768 2.244H57.712L57.11 3.392L52.378 10H51.692V0.199999H52.854V6.92L52.756 8.026H52.812L53.428 6.878L58.16 0.199999H58.846V10H57.684V3.364ZM66.4153 1.236H63.4893C63.3959 3.10267 63.2699 4.65667 63.1113 5.898C62.9619 7.13 62.7333 8.09133 62.4253 8.782C62.2199 9.23 61.9773 9.55667 61.6973 9.762C61.4173 9.96733 61.1139 10.07 60.7873 10.07C60.6193 10.07 60.4746 10.056 60.3533 10.028C60.2319 10.0093 60.1153 9.97667 60.0032 9.93L60.1573 8.922C60.2506 8.95 60.3486 8.964 60.4513 8.964C60.6099 8.964 60.7639 8.91267 60.9133 8.81C61.0719 8.70733 61.2259 8.516 61.3753 8.236C61.5059 7.984 61.6273 7.648 61.7393 7.228C61.8606 6.808 61.9633 6.276 62.0473 5.632C62.1406 4.988 62.2153 4.22267 62.2713 3.336C62.3273 2.44 62.3693 1.39467 62.3973 0.199999H67.5773V10H66.4153V1.236ZM69.5516 5.1C69.5516 3.46667 69.8969 2.216 70.5876 1.348C71.2782 0.470666 72.2629 0.0319998 73.5416 0.0319998C74.2322 0.0319998 74.8296 0.153333 75.3336 0.395999C75.8376 0.638666 76.2529 0.984 76.5796 1.432C76.9156 1.87067 77.1629 2.40267 77.3216 3.028C77.4802 3.644 77.5596 4.33467 77.5596 5.1C77.5596 6.73333 77.2096 7.98867 76.5096 8.866C75.8189 9.734 74.8296 10.168 73.5416 10.168C72.8602 10.168 72.2676 10.0467 71.7636 9.804C71.2689 9.56133 70.8536 9.22067 70.5176 8.782C70.1909 8.334 69.9482 7.802 69.7896 7.186C69.6309 6.56067 69.5516 5.86533 69.5516 5.1ZM70.7836 5.1C70.7836 5.64133 70.8349 6.15467 70.9376 6.64C71.0496 7.12533 71.2176 7.55467 71.4416 7.928C71.6656 8.292 71.9502 8.586 72.2956 8.81C72.6502 9.02467 73.0656 9.132 73.5416 9.132C74.4096 9.132 75.0909 8.80533 75.5856 8.152C76.0802 7.48933 76.3276 6.472 76.3276 5.1C76.3276 4.568 76.2716 4.05933 76.1596 3.574C76.0569 3.07933 75.8889 2.65 75.6556 2.286C75.4316 1.91267 75.1422 1.61867 74.7876 1.404C74.4422 1.18 74.0269 1.068 73.5416 1.068C72.6829 1.068 72.0062 1.39933 71.5116 2.062C71.0262 2.71533 70.7836 3.728 70.7836 5.1ZM85.7999 9.594C85.5199 9.80867 85.1652 9.958 84.7359 10.042C84.3066 10.126 83.8492 10.168 83.3639 10.168C82.7759 10.168 82.2252 10.07 81.7119 9.874C81.1986 9.66867 80.7506 9.36067 80.3679 8.95C79.9852 8.53933 79.6819 8.01667 79.4579 7.382C79.2339 6.738 79.1219 5.97733 79.1219 5.1C79.1219 4.18533 79.2432 3.41067 79.4859 2.776C79.7379 2.132 80.0646 1.60933 80.4659 1.208C80.8766 0.797333 81.3339 0.498666 81.8379 0.312C82.3419 0.125333 82.8552 0.0319998 83.3779 0.0319998C83.9379 0.0319998 84.3952 0.0646664 84.7499 0.129999C85.1046 0.185999 85.4079 0.265333 85.6599 0.368L85.3799 1.39C84.9319 1.17533 84.2926 1.068 83.4619 1.068C83.0792 1.068 82.7012 1.138 82.3279 1.278C81.9546 1.418 81.6186 1.64667 81.3199 1.964C81.0306 2.28133 80.7972 2.69667 80.6199 3.21C80.4426 3.72333 80.3539 4.35333 80.3539 5.1C80.3539 5.772 80.4379 6.36 80.6059 6.864C80.7739 7.368 81.0026 7.788 81.2919 8.124C81.5906 8.46 81.9359 8.712 82.3279 8.88C82.7292 9.048 83.1632 9.132 83.6299 9.132C84.0499 9.132 84.4139 9.09 84.7219 9.006C85.0392 8.922 85.3052 8.81467 85.5199 8.684L85.7999 9.594ZM87.5259 0.199999H88.6879V4.008C88.7346 3.99867 88.8139 3.98933 88.9259 3.98C89.0379 3.96133 89.1593 3.94733 89.2899 3.938C89.4206 3.92867 89.5559 3.91933 89.6959 3.91C89.8359 3.90067 89.9619 3.896 90.0739 3.896C90.5219 3.896 90.9559 3.94267 91.3759 4.036C91.8053 4.12 92.1833 4.274 92.5099 4.498C92.8459 4.722 93.1166 5.02533 93.3219 5.408C93.5273 5.78133 93.6299 6.25733 93.6299 6.836C93.6299 7.396 93.5319 7.88133 93.3359 8.292C93.1399 8.70267 92.8693 9.04333 92.5239 9.314C92.1786 9.58467 91.7726 9.78533 91.3059 9.916C90.8486 10.0467 90.3493 10.112 89.8079 10.112C89.6773 10.112 89.5186 10.1073 89.3319 10.098C89.1453 10.098 88.9446 10.0887 88.7299 10.07C88.5246 10.0607 88.3146 10.042 88.0999 10.014C87.8946 9.986 87.7033 9.94867 87.5259 9.902V0.199999ZM89.9619 9.104C90.2979 9.104 90.6106 9.062 90.8999 8.978C91.1986 8.88467 91.4599 8.74933 91.6839 8.572C91.9079 8.38533 92.0806 8.15667 92.2019 7.886C92.3326 7.606 92.3979 7.284 92.3979 6.92C92.3979 6.528 92.3279 6.20133 92.1879 5.94C92.0479 5.67867 91.8613 5.47333 91.6279 5.324C91.4039 5.16533 91.1426 5.058 90.8439 5.002C90.5453 4.93667 90.2373 4.904 89.9199 4.904C89.8359 4.904 89.7333 4.90867 89.6119 4.918C89.4906 4.92733 89.3693 4.93667 89.2479 4.946C89.1266 4.95533 89.0146 4.96933 88.9119 4.988C88.8093 5.00667 88.7346 5.02067 88.6879 5.03V9.02C88.8186 9.048 89.0053 9.07133 89.2479 9.09C89.4906 9.09933 89.7286 9.104 89.9619 9.104Z" fill="white"/>
</svg>
