<svg width="130" height="19" viewBox="0 0 130 19" fill="none" xmlns="http://www.w3.org/2000/svg">
<path d="M0.00800008 1.008C0.344 1.024 0.784 1.04 1.328 1.056C1.872 1.072 2.408 1.08 2.936 1.08C3.688 1.08 4.408 1.072 5.096 1.056C5.784 1.04 6.272 1.032 6.56 1.032C8.496 1.032 9.944 1.472 10.904 2.352C11.864 3.232 12.344 4.368 12.344 5.76C12.344 6.336 12.248 6.944 12.056 7.584C11.864 8.208 11.528 8.792 11.048 9.336C10.584 9.864 9.944 10.296 9.128 10.632C8.312 10.968 7.28 11.136 6.032 11.136H3.728V10.656H5.792C6.928 10.656 7.792 10.44 8.384 10.008C8.992 9.576 9.4 9.008 9.608 8.304C9.832 7.6 9.944 6.84 9.944 6.024C9.944 4.504 9.64 3.368 9.032 2.616C8.44 1.864 7.416 1.488 5.96 1.488C5.224 1.488 4.744 1.624 4.52 1.896C4.296 2.168 4.184 2.72 4.184 3.552V15.456C4.184 16.032 4.24 16.464 4.352 16.752C4.48 17.04 4.72 17.232 5.072 17.328C5.424 17.424 5.936 17.488 6.608 17.52V18C6.192 17.968 5.664 17.952 5.024 17.952C4.384 17.936 3.736 17.928 3.08 17.928C2.456 17.928 1.872 17.936 1.328 17.952C0.784 17.952 0.344 17.968 0.00800008 18V17.52C0.552 17.488 0.96 17.424 1.232 17.328C1.52 17.232 1.712 17.04 1.808 16.752C1.904 16.464 1.952 16.032 1.952 15.456V3.552C1.952 2.96 1.904 2.528 1.808 2.256C1.712 1.968 1.52 1.776 1.232 1.68C0.96 1.568 0.552 1.504 0.00800008 1.488V1.008ZM19.8067 0.887999L25.6627 15.984C25.9027 16.592 26.1747 17 26.4787 17.208C26.7827 17.4 27.0627 17.504 27.3187 17.52V18C26.9987 17.968 26.6067 17.952 26.1427 17.952C25.6787 17.936 25.2147 17.928 24.7507 17.928C24.1267 17.928 23.5427 17.936 22.9987 17.952C22.4547 17.952 22.0147 17.968 21.6787 18V17.52C22.4947 17.488 23.0147 17.352 23.2387 17.112C23.4627 16.856 23.4147 16.32 23.0947 15.504L18.6307 3.576L19.0147 3.264L14.8387 14.112C14.5027 14.976 14.3427 15.656 14.3587 16.152C14.3747 16.632 14.5587 16.976 14.9107 17.184C15.2627 17.392 15.7747 17.504 16.4467 17.52V18C15.9987 17.968 15.5267 17.952 15.0307 17.952C14.5507 17.936 14.1027 17.928 13.6867 17.928C13.2867 17.928 12.9427 17.936 12.6547 17.952C12.3827 17.952 12.1267 17.968 11.8867 18V17.52C12.2067 17.44 12.5347 17.256 12.8707 16.968C13.2067 16.664 13.5107 16.152 13.7827 15.432L19.4227 0.887999C19.4867 0.887999 19.5507 0.887999 19.6147 0.887999C19.6787 0.887999 19.7427 0.887999 19.8067 0.887999ZM22.7347 11.088V11.568H15.5827L15.8227 11.088H22.7347ZM35.7478 0.671999C36.8038 0.671999 37.6678 0.831999 38.3398 1.152C39.0278 1.456 39.6358 1.816 40.1638 2.232C40.4838 2.472 40.7238 2.504 40.8838 2.328C41.0598 2.136 41.1798 1.696 41.2438 1.008H41.7958C41.7638 1.6 41.7398 2.32 41.7238 3.168C41.7078 4.016 41.6998 5.136 41.6998 6.528H41.1478C41.0358 5.84 40.9318 5.296 40.8358 4.896C40.7398 4.48 40.6198 4.128 40.4758 3.84C40.3478 3.552 40.1718 3.264 39.9478 2.976C39.4518 2.32 38.8278 1.848 38.0758 1.56C37.3238 1.256 36.5318 1.104 35.6998 1.104C34.9158 1.104 34.2038 1.304 33.5638 1.704C32.9398 2.088 32.3958 2.648 31.9318 3.384C31.4838 4.12 31.1318 5.008 30.8758 6.048C30.6358 7.088 30.5158 8.256 30.5158 9.552C30.5158 10.896 30.6518 12.088 30.9238 13.128C31.1958 14.152 31.5718 15.016 32.0518 15.72C32.5478 16.424 33.1238 16.96 33.7798 17.328C34.4518 17.68 35.1718 17.856 35.9398 17.856C36.6598 17.856 37.4118 17.712 38.1958 17.424C38.9798 17.136 39.5958 16.672 40.0438 16.032C40.3958 15.568 40.6358 15.064 40.7638 14.52C40.9078 13.976 41.0358 13.216 41.1478 12.24H41.6998C41.6998 13.696 41.7078 14.872 41.7238 15.768C41.7398 16.648 41.7638 17.392 41.7958 18H41.2438C41.1798 17.312 41.0678 16.88 40.9078 16.704C40.7638 16.528 40.5158 16.552 40.1638 16.776C39.5718 17.192 38.9398 17.56 38.2678 17.88C37.6118 18.184 36.7638 18.336 35.7238 18.336C34.2038 18.336 32.8678 17.992 31.7158 17.304C30.5798 16.616 29.6918 15.624 29.0518 14.328C28.4278 13.032 28.1158 11.472 28.1158 9.648C28.1158 7.856 28.4438 6.288 29.0998 4.944C29.7558 3.6 30.6518 2.552 31.7878 1.8C32.9398 1.048 34.2598 0.671999 35.7478 0.671999ZM52.2712 0.671999C53.3272 0.671999 54.1912 0.831999 54.8632 1.152C55.5512 1.456 56.1592 1.816 56.6872 2.232C57.0072 2.472 57.2472 2.504 57.4072 2.328C57.5832 2.136 57.7032 1.696 57.7672 1.008H58.3192C58.2872 1.6 58.2632 2.32 58.2472 3.168C58.2312 4.016 58.2232 5.136 58.2232 6.528H57.6712C57.5592 5.84 57.4552 5.296 57.3592 4.896C57.2632 4.48 57.1432 4.128 56.9992 3.84C56.8712 3.552 56.6952 3.264 56.4712 2.976C55.9752 2.32 55.3512 1.848 54.5992 1.56C53.8472 1.256 53.0552 1.104 52.2232 1.104C51.4392 1.104 50.7272 1.304 50.0872 1.704C49.4632 2.088 48.9192 2.648 48.4552 3.384C48.0072 4.12 47.6552 5.008 47.3992 6.048C47.1592 7.088 47.0392 8.256 47.0392 9.552C47.0392 10.896 47.1752 12.088 47.4472 13.128C47.7192 14.152 48.0952 15.016 48.5752 15.72C49.0712 16.424 49.6472 16.96 50.3032 17.328C50.9752 17.68 51.6952 17.856 52.4632 17.856C53.1832 17.856 53.9352 17.712 54.7192 17.424C55.5032 17.136 56.1192 16.672 56.5672 16.032C56.9192 15.568 57.1592 15.064 57.2872 14.52C57.4312 13.976 57.5592 13.216 57.6712 12.24H58.2232C58.2232 13.696 58.2312 14.872 58.2472 15.768C58.2632 16.648 58.2872 17.392 58.3192 18H57.7672C57.7032 17.312 57.5912 16.88 57.4312 16.704C57.2872 16.528 57.0392 16.552 56.6872 16.776C56.0952 17.192 55.4632 17.56 54.7912 17.88C54.1352 18.184 53.2872 18.336 52.2472 18.336C50.7272 18.336 49.3912 17.992 48.2392 17.304C47.1032 16.616 46.2152 15.624 45.5752 14.328C44.9512 13.032 44.6392 11.472 44.6392 9.648C44.6392 7.856 44.9672 6.288 45.6232 4.944C46.2792 3.6 47.1752 2.552 48.3112 1.8C49.4632 1.048 50.7832 0.671999 52.2712 0.671999ZM67.4986 1.008V1.488C66.8266 1.504 66.3146 1.568 65.9626 1.68C65.6106 1.776 65.3706 1.968 65.2426 2.256C65.1306 2.528 65.0746 2.96 65.0746 3.552V15.456C65.0746 16.336 65.1706 16.904 65.3626 17.16C65.5546 17.4 66.0186 17.52 66.7546 17.52C67.8266 17.52 68.6426 17.312 69.2026 16.896C69.7626 16.464 70.1466 15.904 70.3546 15.216C70.5626 14.528 70.6666 13.776 70.6666 12.96C70.6666 11.952 70.5306 11.104 70.2586 10.416C70.0026 9.728 69.5866 9.216 69.0106 8.88C68.4346 8.528 67.6586 8.352 66.6826 8.352C66.1866 8.352 65.6346 8.36 65.0266 8.376C64.4186 8.392 63.9786 8.4 63.7066 8.4L63.6586 7.944C64.4106 7.944 65.1306 7.936 65.8186 7.92C66.5066 7.904 66.9946 7.896 67.2826 7.896C68.5786 7.896 69.6506 8.104 70.4986 8.52C71.3626 8.936 72.0026 9.504 72.4186 10.224C72.8506 10.944 73.0666 11.768 73.0666 12.696C73.0666 13.272 72.9706 13.872 72.7786 14.496C72.5866 15.12 72.2506 15.696 71.7706 16.224C71.3066 16.752 70.6666 17.184 69.8506 17.52C69.0346 17.84 68.0026 18 66.7546 18C66.3866 18 65.9706 17.992 65.5066 17.976C65.0426 17.944 64.5306 17.928 63.9706 17.928C63.3466 17.928 62.7626 17.936 62.2186 17.952C61.6746 17.952 61.2346 17.968 60.8986 18V17.52C61.4426 17.488 61.8506 17.424 62.1226 17.328C62.4106 17.232 62.6026 17.04 62.6986 16.752C62.7946 16.464 62.8426 16.032 62.8426 15.456V3.552C62.8426 2.96 62.7946 2.528 62.6986 2.256C62.6026 1.968 62.4106 1.776 62.1226 1.68C61.8506 1.568 61.4426 1.504 60.8986 1.488V1.008C61.2346 1.024 61.6746 1.04 62.2186 1.056C62.7626 1.072 63.3466 1.08 63.9706 1.08C64.6266 1.08 65.2746 1.072 65.9146 1.056C66.5546 1.04 67.0826 1.024 67.4986 1.008ZM80.2186 1.008V1.488C79.6746 1.504 79.2586 1.568 78.9706 1.68C78.6986 1.776 78.5146 1.968 78.4186 2.256C78.3226 2.528 78.2746 2.96 78.2746 3.552V15.456C78.2746 16.032 78.3226 16.464 78.4186 16.752C78.5146 17.04 78.6986 17.232 78.9706 17.328C79.2586 17.424 79.6746 17.488 80.2186 17.52V18C79.8506 17.968 79.3866 17.952 78.8266 17.952C78.2826 17.936 77.7306 17.928 77.1706 17.928C76.5466 17.928 75.9626 17.936 75.4186 17.952C74.8746 17.952 74.4346 17.968 74.0986 18V17.52C74.6426 17.488 75.0506 17.424 75.3226 17.328C75.6106 17.232 75.8026 17.04 75.8986 16.752C75.9946 16.464 76.0426 16.032 76.0426 15.456V3.552C76.0426 2.96 75.9946 2.528 75.8986 2.256C75.8026 1.968 75.6106 1.776 75.3226 1.68C75.0506 1.568 74.6426 1.504 74.0986 1.488V1.008C74.4346 1.024 74.8746 1.04 75.4186 1.056C75.9626 1.072 76.5466 1.08 77.1706 1.08C77.7306 1.08 78.2826 1.072 78.8266 1.056C79.3866 1.04 79.8506 1.024 80.2186 1.008ZM96.7228 1.008V1.488C96.1788 1.504 95.7628 1.568 95.4748 1.68C95.2028 1.776 95.0188 1.968 94.9228 2.256C94.8268 2.528 94.7787 2.96 94.7787 3.552V15.456C94.7787 16.032 94.8268 16.464 94.9228 16.752C95.0188 17.04 95.2028 17.232 95.4748 17.328C95.7628 17.424 96.1788 17.488 96.7228 17.52V18C96.3868 17.968 95.9468 17.952 95.4028 17.952C94.8588 17.936 94.2748 17.928 93.6508 17.928C93.0108 17.928 92.3628 17.936 91.7068 17.952C91.0668 17.952 90.5388 17.968 90.1228 18V17.52C90.7948 17.488 91.3068 17.424 91.6588 17.328C92.0108 17.232 92.2428 17.04 92.3548 16.752C92.4828 16.464 92.5468 16.032 92.5468 15.456V3.552C92.5468 2.672 92.4268 2.112 92.1868 1.872C91.9468 1.616 91.4188 1.488 90.6028 1.488H90.2908C89.7308 1.488 89.3148 1.544 89.0428 1.656C88.7868 1.752 88.6188 1.952 88.5388 2.256C88.4588 2.544 88.3948 2.976 88.3468 3.552C88.2508 4.672 88.1548 5.904 88.0588 7.248C87.9788 8.576 87.8588 9.896 87.6988 11.208C87.5388 12.504 87.2908 13.696 86.9548 14.784C86.6188 15.856 86.1628 16.72 85.5868 17.376C85.0108 18.016 84.2588 18.336 83.3308 18.336C82.8028 18.336 82.3068 18.216 81.8428 17.976C81.3788 17.72 81.1467 17.296 81.1467 16.704C81.1467 16.288 81.2828 15.96 81.5548 15.72C81.8268 15.464 82.1628 15.336 82.5628 15.336C82.9148 15.336 83.2028 15.432 83.4268 15.624C83.6668 15.816 83.7868 16.072 83.7868 16.392C83.7868 16.744 83.6988 17.032 83.5228 17.256C83.3468 17.464 83.0908 17.664 82.7548 17.856C82.8668 17.872 82.9708 17.88 83.0668 17.88C83.1788 17.88 83.2668 17.88 83.3308 17.88C84.0668 17.88 84.6828 17.6 85.1788 17.04C85.6748 16.48 86.0748 15.72 86.3788 14.76C86.6988 13.784 86.9468 12.68 87.1228 11.448C87.2988 10.216 87.4348 8.928 87.5308 7.584C87.6268 6.224 87.7148 4.88 87.7948 3.552C87.8588 2.704 87.7628 2.16 87.5068 1.92C87.2668 1.664 86.7148 1.52 85.8508 1.488V1.008C86.1868 1.024 86.5868 1.04 87.0508 1.056C87.5148 1.072 87.9388 1.08 88.3228 1.08C88.6908 1.08 89.0428 1.072 89.3788 1.056C89.7308 1.024 90.0828 1.008 90.4348 1.008C91.0428 1.008 91.5948 1.024 92.0908 1.056C92.5868 1.072 93.1788 1.08 93.8668 1.08C94.1868 1.08 94.5228 1.08 94.8748 1.08C95.2268 1.064 95.5628 1.056 95.8828 1.056C96.2188 1.04 96.4988 1.024 96.7228 1.008ZM104.87 1.008V1.488C104.326 1.504 103.91 1.568 103.622 1.68C103.35 1.776 103.166 1.968 103.07 2.256C102.974 2.528 102.926 2.96 102.926 3.552V15.456C102.926 16.032 102.974 16.464 103.07 16.752C103.166 17.04 103.35 17.232 103.622 17.328C103.91 17.424 104.326 17.488 104.87 17.52V18C104.502 17.968 104.038 17.952 103.478 17.952C102.934 17.936 102.382 17.928 101.822 17.928C101.198 17.928 100.614 17.936 100.07 17.952C99.5262 17.952 99.0862 17.968 98.7502 18V17.52C99.2942 17.488 99.7022 17.424 99.9742 17.328C100.262 17.232 100.454 17.04 100.55 16.752C100.646 16.464 100.694 16.032 100.694 15.456V3.552C100.694 2.96 100.646 2.528 100.55 2.256C100.454 1.968 100.262 1.776 99.9742 1.68C99.7022 1.568 99.2942 1.504 98.7502 1.488V1.008C99.0862 1.024 99.5262 1.04 100.07 1.056C100.614 1.072 101.198 1.08 101.822 1.08C102.382 1.08 102.934 1.072 103.478 1.056C104.038 1.04 104.502 1.024 104.87 1.008ZM104.606 8.976C105.454 8.976 106.246 9.064 106.982 9.24C107.734 9.416 108.374 9.752 108.902 10.248C109.43 10.744 109.806 11.48 110.03 12.456L110.726 15.48C110.902 16.216 111.062 16.736 111.206 17.04C111.35 17.328 111.598 17.464 111.95 17.448C112.222 17.432 112.446 17.344 112.622 17.184C112.814 17.024 113.014 16.808 113.222 16.536L113.582 16.8C113.278 17.248 112.942 17.616 112.574 17.904C112.206 18.192 111.686 18.336 111.014 18.336C110.454 18.336 109.942 18.176 109.478 17.856C109.03 17.52 108.686 16.816 108.446 15.744L107.774 12.768C107.63 12.096 107.462 11.512 107.27 11.016C107.078 10.52 106.774 10.136 106.358 9.864C105.942 9.576 105.326 9.432 104.51 9.432H102.47V8.976H104.606ZM102.926 9.432V8.976C103.598 8.96 104.158 8.824 104.606 8.568C105.07 8.296 105.454 7.968 105.758 7.584L108.062 4.656C108.59 3.984 108.95 3.416 109.142 2.952C109.334 2.488 109.326 2.136 109.118 1.896C108.91 1.64 108.47 1.504 107.798 1.488V1.008C108.262 1.024 108.734 1.04 109.214 1.056C109.694 1.072 110.142 1.08 110.558 1.08C111.438 1.08 112.118 1.056 112.598 1.008V1.488C112.102 1.552 111.622 1.72 111.158 1.992C110.694 2.248 110.23 2.664 109.766 3.24L104.894 9.432H102.926ZM121.76 0.887999L127.616 15.984C127.856 16.592 128.128 17 128.432 17.208C128.736 17.4 129.016 17.504 129.272 17.52V18C128.952 17.968 128.56 17.952 128.096 17.952C127.632 17.936 127.168 17.928 126.704 17.928C126.08 17.928 125.496 17.936 124.952 17.952C124.408 17.952 123.968 17.968 123.632 18V17.52C124.448 17.488 124.968 17.352 125.192 17.112C125.416 16.856 125.368 16.32 125.048 15.504L120.584 3.576L120.968 3.264L116.792 14.112C116.456 14.976 116.296 15.656 116.312 16.152C116.328 16.632 116.512 16.976 116.864 17.184C117.216 17.392 117.728 17.504 118.4 17.52V18C117.952 17.968 117.48 17.952 116.984 17.952C116.504 17.936 116.056 17.928 115.64 17.928C115.24 17.928 114.896 17.936 114.608 17.952C114.336 17.952 114.08 17.968 113.84 18V17.52C114.16 17.44 114.488 17.256 114.824 16.968C115.16 16.664 115.464 16.152 115.736 15.432L121.376 0.887999C121.44 0.887999 121.504 0.887999 121.568 0.887999C121.632 0.887999 121.696 0.887999 121.76 0.887999ZM124.688 11.088V11.568H117.536L117.776 11.088H124.688Z" fill="white"/>
</svg>
