<svg width="180" height="17" viewBox="0 0 180 17" fill="none" xmlns="http://www.w3.org/2000/svg">
<path d="M10.7494 15.362C10.3094 15.6993 9.7521 15.934 9.07744 16.066C8.40277 16.198 7.6841 16.264 6.92144 16.264C5.99744 16.264 5.1321 16.11 4.32544 15.802C3.51877 15.4793 2.81477 14.9953 2.21344 14.35C1.6121 13.7047 1.13544 12.8833 0.783438 11.886C0.431438 10.874 0.255438 9.67867 0.255438 8.3C0.255438 6.86267 0.446104 5.64533 0.827438 4.648C1.22344 3.636 1.73677 2.81467 2.36744 2.184C3.01277 1.53867 3.73144 1.06933 4.52344 0.775999C5.31544 0.482666 6.1221 0.336 6.94344 0.336C7.82344 0.336 8.5421 0.387333 9.09944 0.489999C9.65677 0.577999 10.1334 0.702666 10.5294 0.863999L10.0894 2.47C9.38544 2.13267 8.38077 1.964 7.07544 1.964C6.4741 1.964 5.8801 2.074 5.29344 2.294C4.70677 2.514 4.17877 2.87333 3.70944 3.372C3.25477 3.87067 2.8881 4.52333 2.60944 5.33C2.33077 6.13667 2.19144 7.12667 2.19144 8.3C2.19144 9.356 2.32344 10.28 2.58744 11.072C2.85144 11.864 3.21077 12.524 3.66544 13.052C4.13477 13.58 4.67744 13.976 5.29344 14.24C5.9241 14.504 6.6061 14.636 7.33944 14.636C7.99944 14.636 8.57144 14.57 9.05544 14.438C9.5541 14.306 9.9721 14.1373 10.3094 13.932L10.7494 15.362ZM20.1648 11.732H14.4888L12.9488 16H11.1448L16.9748 0.357999H17.8108L23.6628 16H21.7488L20.1648 11.732ZM15.0828 10.148H19.6148L17.8988 5.462L17.3488 3.13H17.3268L16.7767 5.506L15.0828 10.148ZM34.9259 8.938H27.5339V16H25.7079V0.599999H27.5339V7.31H34.9259V0.599999H36.7519V16H34.9259V8.938ZM43.3491 8.872H42.3151V16H40.4891V0.599999H42.3151V7.772L43.3051 7.464L48.4751 0.599999H50.5871L45.4391 7.222L44.5151 7.948L45.6371 8.828L51.2691 16H48.9591L43.3491 8.872ZM63.646 2.228H58.85V16H57.024V2.228H52.228V0.599999H63.646V2.228ZM63.4855 8.85H68.8095V10.478H63.4855V8.85ZM80.9172 2.228H73.8112V16H71.9852V0.599999H82.7432V16H80.9172V2.228ZM86.4872 0.599999H94.8692V2.228H88.3132V7.266H94.3192V8.894H88.3132V14.372H94.9792V16H86.4872V0.599999ZM108.226 2.228H103.43V16H101.604V2.228H96.8081V0.599999H108.226V2.228ZM110.485 0.599999H118.867V2.228H112.311V7.266H118.317V8.894H112.311V14.372H118.977V16H110.485V0.599999ZM122.28 0.754C122.837 0.622 123.439 0.533999 124.084 0.489999C124.729 0.446 125.367 0.424 125.998 0.424C126.673 0.424 127.355 0.489999 128.044 0.621999C128.748 0.753999 129.386 0.995999 129.958 1.348C130.53 1.7 130.992 2.184 131.344 2.8C131.711 3.416 131.894 4.20067 131.894 5.154C131.894 6.09267 131.725 6.88467 131.388 7.53C131.051 8.17533 130.603 8.70333 130.046 9.114C129.489 9.51 128.851 9.796 128.132 9.972C127.413 10.148 126.673 10.236 125.91 10.236C125.837 10.236 125.712 10.236 125.536 10.236C125.375 10.236 125.199 10.236 125.008 10.236C124.832 10.2213 124.656 10.2067 124.48 10.192C124.304 10.1773 124.179 10.1627 124.106 10.148V16H122.28V0.754ZM126.042 2.008C125.661 2.008 125.294 2.01533 124.942 2.03C124.59 2.04467 124.311 2.08133 124.106 2.14V8.52C124.179 8.54933 124.297 8.57133 124.458 8.586C124.619 8.586 124.788 8.59333 124.964 8.608C125.14 8.608 125.309 8.608 125.47 8.608C125.631 8.608 125.749 8.608 125.822 8.608C126.321 8.608 126.812 8.564 127.296 8.476C127.795 8.37333 128.242 8.19733 128.638 7.948C129.034 7.69867 129.349 7.34667 129.584 6.892C129.833 6.43733 129.958 5.858 129.958 5.154C129.958 4.55267 129.841 4.054 129.606 3.658C129.386 3.24733 129.085 2.92467 128.704 2.69C128.337 2.44067 127.919 2.26467 127.45 2.162C126.981 2.05933 126.511 2.008 126.042 2.008ZM134.569 0.599999H142.929V2.228H136.395V6.848C136.645 6.804 136.953 6.76 137.319 6.716C137.686 6.672 138.038 6.65 138.375 6.65C139.123 6.65 139.835 6.72333 140.509 6.87C141.184 7.002 141.778 7.23667 142.291 7.574C142.805 7.91133 143.208 8.37333 143.501 8.96C143.809 9.532 143.963 10.258 143.963 11.138C143.963 12.018 143.809 12.7807 143.501 13.426C143.193 14.0567 142.783 14.5773 142.269 14.988C141.756 15.384 141.155 15.6847 140.465 15.89C139.791 16.0807 139.079 16.176 138.331 16.176C138.082 16.176 137.796 16.1687 137.473 16.154C137.165 16.154 136.835 16.1393 136.483 16.11C136.146 16.0807 135.809 16.044 135.471 16C135.149 15.9707 134.848 15.9193 134.569 15.846V0.599999ZM138.551 14.592C139.021 14.592 139.468 14.526 139.893 14.394C140.319 14.262 140.685 14.0713 140.993 13.822C141.316 13.558 141.565 13.228 141.741 12.832C141.932 12.436 142.027 11.974 142.027 11.446C142.027 10.7713 141.917 10.2287 141.697 9.818C141.492 9.39267 141.213 9.06267 140.861 8.828C140.509 8.59333 140.099 8.43933 139.629 8.366C139.175 8.278 138.698 8.234 138.199 8.234C138.067 8.234 137.913 8.24133 137.737 8.256C137.561 8.27067 137.385 8.28533 137.209 8.3C137.033 8.31467 136.872 8.33667 136.725 8.366C136.579 8.38067 136.469 8.39533 136.395 8.41V14.46C136.498 14.4893 136.63 14.5113 136.791 14.526C136.967 14.5407 137.151 14.5553 137.341 14.57C137.547 14.5847 137.752 14.592 137.957 14.592C138.163 14.592 138.361 14.592 138.551 14.592ZM150.999 8.718L151.571 10.676H151.681L152.121 8.652L155.069 0.599999H156.939L153.045 10.61C152.649 11.6513 152.297 12.524 151.989 13.228C151.696 13.9173 151.395 14.482 151.087 14.922C150.779 15.3473 150.449 15.6553 150.097 15.846C149.745 16.022 149.312 16.11 148.799 16.11C148.315 16.11 147.926 16.0733 147.633 16C147.354 15.912 147.09 15.7873 146.841 15.626L147.391 14.108C147.684 14.2693 147.956 14.372 148.205 14.416C148.454 14.46 148.682 14.482 148.887 14.482C149.298 14.482 149.642 14.2767 149.921 13.866C150.2 13.4407 150.442 12.8173 150.647 11.996L144.949 0.599999H147.061L150.999 8.718ZM158.825 0.754C159.382 0.622 159.984 0.533999 160.629 0.489999C161.274 0.446 161.912 0.424 162.543 0.424C163.218 0.424 163.9 0.489999 164.589 0.621999C165.293 0.753999 165.931 0.995999 166.503 1.348C167.075 1.7 167.537 2.184 167.889 2.8C168.256 3.416 168.439 4.20067 168.439 5.154C168.439 6.09267 168.27 6.88467 167.933 7.53C167.596 8.17533 167.148 8.70333 166.591 9.114C166.034 9.51 165.396 9.796 164.677 9.972C163.958 10.148 163.218 10.236 162.455 10.236C162.382 10.236 162.257 10.236 162.081 10.236C161.92 10.236 161.744 10.236 161.553 10.236C161.377 10.2213 161.201 10.2067 161.025 10.192C160.849 10.1773 160.724 10.1627 160.651 10.148V16H158.825V0.754ZM162.587 2.008C162.206 2.008 161.839 2.01533 161.487 2.03C161.135 2.04467 160.856 2.08133 160.651 2.14V8.52C160.724 8.54933 160.842 8.57133 161.003 8.586C161.164 8.586 161.333 8.59333 161.509 8.608C161.685 8.608 161.854 8.608 162.015 8.608C162.176 8.608 162.294 8.608 162.367 8.608C162.866 8.608 163.357 8.564 163.841 8.476C164.34 8.37333 164.787 8.19733 165.183 7.948C165.579 7.69867 165.894 7.34667 166.129 6.892C166.378 6.43733 166.503 5.858 166.503 5.154C166.503 4.55267 166.386 4.054 166.151 3.658C165.931 3.24733 165.63 2.92467 165.249 2.69C164.882 2.44067 164.464 2.26467 163.995 2.162C163.526 2.05933 163.056 2.008 162.587 2.008ZM179.364 2.228H172.94V16H171.114V0.599999H179.364V2.228Z" fill="white"/>
</svg>
