<svg width="196" height="142" viewBox="0 0 196 142" fill="none" xmlns="http://www.w3.org/2000/svg">
<path fill-rule="evenodd" clip-rule="evenodd" d="M49.0718 75.5227L50.712 77.1628C50.785 77.2358 50.8001 77.3486 50.7489 77.4382L49.9999 78.7489C49.925 78.88 49.7461 78.9039 49.6394 78.7972L47.4374 76.5953C47.3308 76.4886 47.3547 76.3097 47.4857 76.2348L48.7965 75.4858C48.8861 75.4346 48.9989 75.4497 49.0718 75.5227ZM50.8738 77.001C51.0198 77.147 51.05 77.3725 50.9476 77.5517L50.1986 78.8625C50.0488 79.1245 49.6909 79.1724 49.4775 78.959L47.2756 76.7571C47.0622 76.5437 47.1102 76.1858 47.3722 76.0361L48.6829 75.2871C48.8621 75.1847 49.0877 75.2149 49.2337 75.3609L50.8738 77.001Z" fill="#606066"/>
<path fill-rule="evenodd" clip-rule="evenodd" d="M50.9303 77.0388L49.1958 75.3043C49.1345 75.243 49.1131 75.1523 49.1405 75.0701L49.2743 74.6688C49.3281 74.5074 49.5329 74.4591 49.6532 74.5794L51.6553 76.5814C51.7756 76.7017 51.7272 76.9065 51.5658 76.9603L51.1645 77.0941C51.0823 77.1215 50.9916 77.1001 50.9303 77.0388ZM49.034 75.4661C48.9114 75.3435 48.8686 75.1622 48.9234 74.9977L49.0572 74.5965C49.1648 74.2737 49.5744 74.177 49.815 74.4175L51.8171 76.4196C52.0577 76.6602 51.961 77.0698 51.6382 77.1774L51.2369 77.3112C51.0724 77.366 50.8911 77.3232 50.7685 77.2006L49.034 75.4661Z" fill="#606066"/>
<path fill-rule="evenodd" clip-rule="evenodd" d="M48.6611 75.1645L47.5652 75.6667C47.5227 75.6862 47.4728 75.68 47.4363 75.6506C47.3649 75.5931 47.3789 75.4804 47.4623 75.4422L48.5583 74.94C48.6417 74.9018 48.7361 74.9647 48.7331 75.0564C48.7315 75.1031 48.7037 75.145 48.6611 75.1645ZM47.6605 75.8748C47.5392 75.9304 47.3967 75.9126 47.2927 75.8288C47.0889 75.6646 47.129 75.3432 47.367 75.2342L48.4629 74.732C48.7009 74.6229 48.9705 74.8023 48.9618 75.064C48.9574 75.1974 48.8779 75.3169 48.7565 75.3725L47.6605 75.8748Z" fill="#606066"/>
<path fill-rule="evenodd" clip-rule="evenodd" d="M51.0574 77.5759L50.5864 78.5703C50.5573 78.6319 50.57 78.7051 50.6181 78.7533C50.6997 78.8349 50.838 78.807 50.8815 78.7002L51.2967 77.6812C51.3317 77.5952 51.2684 77.5012 51.1756 77.5012C51.1251 77.5012 51.0791 77.5303 51.0574 77.5759ZM50.3796 78.4723C50.309 78.6213 50.3397 78.7986 50.4563 78.9152C50.6536 79.1124 50.9882 79.0449 51.0934 78.7865L51.5086 77.7676C51.6049 77.5311 51.431 77.2723 51.1756 77.2723C51.0366 77.2723 50.9101 77.3524 50.8506 77.478L50.3796 78.4723Z" fill="#606066"/>
<path d="M49.0005 79.2871C48.9535 79.2052 48.9681 79.1019 49.036 79.0363L49.2698 78.8105C49.3289 78.7535 49.4175 78.7399 49.4909 78.7765C49.6049 78.8335 49.6337 78.9832 49.5491 79.0784L49.3331 79.3213C49.2396 79.4265 49.0706 79.4091 49.0005 79.2871Z" fill="#606066"/>
<path fill-rule="evenodd" clip-rule="evenodd" d="M49.036 79.0363C48.9681 79.1019 48.9535 79.2052 49.0005 79.2871C49.0706 79.4091 49.2396 79.4265 49.3331 79.3213L49.5491 79.0784C49.6337 78.9832 49.6049 78.8335 49.4909 78.7765C49.4175 78.7399 49.3289 78.7535 49.2698 78.8105L49.036 79.0363Z" fill="#606066"/>
<path d="M47.0151 77.3056C46.9681 77.2238 46.9828 77.1204 47.0507 77.0548L47.2845 76.829C47.3435 76.772 47.4321 76.7584 47.5055 76.7951C47.6195 76.8521 47.6484 77.0017 47.5637 77.097L47.3478 77.3399C47.2543 77.4451 47.0852 77.4276 47.0151 77.3056Z" fill="#606066"/>
<path fill-rule="evenodd" clip-rule="evenodd" d="M47.0507 77.0548C46.9828 77.1204 46.9681 77.2238 47.0151 77.3056C47.0852 77.4276 47.2543 77.4451 47.3478 77.3399L47.5637 77.097C47.6484 77.0017 47.6195 76.8521 47.5055 76.7951C47.4321 76.7584 47.3435 76.772 47.2845 76.829L47.0507 77.0548Z" fill="#606066"/>
<path fill-rule="evenodd" clip-rule="evenodd" d="M49.0699 85.0183L50.71 83.3782C50.783 83.3052 50.7981 83.1924 50.7469 83.1028L49.9979 81.7921C49.9231 81.6611 49.7441 81.6371 49.6374 81.7438L47.4355 83.9457C47.3288 84.0524 47.3528 84.2314 47.4838 84.3062L48.7945 85.0552C48.8841 85.1064 48.9969 85.0913 49.0699 85.0183ZM50.8719 83.54C51.0178 83.3941 51.048 83.1685 50.9456 82.9893L50.1966 81.6785C50.0469 81.4165 49.689 81.3686 49.4756 81.582L47.2737 83.7839C47.0603 83.9973 47.1082 84.3552 47.3702 84.5049L48.681 85.2539C48.8602 85.3563 49.0858 85.3261 49.2317 85.1802L50.8719 83.54Z" fill="#606066"/>
<path fill-rule="evenodd" clip-rule="evenodd" d="M50.9293 83.502L49.1948 85.2365C49.1335 85.2978 49.1121 85.3884 49.1396 85.4707L49.2733 85.872C49.3271 86.0333 49.5319 86.0817 49.6522 85.9614L51.6543 83.9594C51.7746 83.8391 51.7262 83.6342 51.5648 83.5804L51.1635 83.4467C51.0813 83.4193 50.9906 83.4407 50.9293 83.502ZM49.033 85.0746C48.9104 85.1972 48.8676 85.3786 48.9224 85.543L49.0562 85.9443C49.1638 86.2671 49.5735 86.3638 49.8141 86.1232L51.8161 84.1212C52.0567 83.8806 51.96 83.4709 51.6372 83.3633L51.2359 83.2296C51.0714 83.1747 50.8901 83.2175 50.7675 83.3401L49.033 85.0746Z" fill="#606066"/>
<path fill-rule="evenodd" clip-rule="evenodd" d="M48.6611 85.377L47.5652 84.8748C47.5227 84.8553 47.4728 84.8615 47.4363 84.8909C47.3649 84.9484 47.3789 85.0611 47.4623 85.0993L48.5583 85.6015C48.6417 85.6397 48.7361 85.5768 48.7331 85.4851C48.7315 85.4384 48.7037 85.3965 48.6611 85.377ZM47.6605 84.6667C47.5392 84.6111 47.3967 84.6289 47.2927 84.7127C47.0889 84.8769 47.129 85.1983 47.367 85.3073L48.4629 85.8095C48.7009 85.9186 48.9705 85.7392 48.9618 85.4775C48.9574 85.3441 48.8779 85.2246 48.7565 85.169L47.6605 84.6667Z" fill="#606066"/>
<path fill-rule="evenodd" clip-rule="evenodd" d="M51.0594 82.9658L50.5884 81.9715C50.5592 81.9099 50.5719 81.8366 50.6201 81.7884C50.7016 81.7069 50.8399 81.7348 50.8835 81.8416L51.2986 82.8605C51.3336 82.9465 51.2704 83.0406 51.1775 83.0406C51.127 83.0406 51.081 83.0115 51.0594 82.9658ZM50.3816 82.0694C50.311 81.9204 50.3417 81.7432 50.4583 81.6266C50.6555 81.4293 50.9901 81.4969 51.0954 81.7552L51.5105 82.7742C51.6069 83.0107 51.4329 83.2694 51.1775 83.2694C51.0386 83.2694 50.912 83.1894 50.8526 83.0638L50.3816 82.0694Z" fill="#606066"/>
<path d="M48.9995 81.2537C48.9525 81.3356 48.9671 81.4389 49.035 81.5045L49.2688 81.7303C49.3279 81.7873 49.4165 81.8009 49.4899 81.7642C49.6039 81.7073 49.6328 81.5576 49.5481 81.4624L49.3321 81.2194C49.2387 81.1142 49.0696 81.1317 48.9995 81.2537Z" fill="#606066"/>
<path fill-rule="evenodd" clip-rule="evenodd" d="M49.035 81.5045C48.9671 81.4389 48.9525 81.3356 48.9995 81.2537C49.0696 81.1317 49.2387 81.1142 49.3321 81.2194L49.5481 81.4624C49.6328 81.5576 49.6039 81.7073 49.4899 81.7642C49.4165 81.8009 49.3279 81.7873 49.2688 81.7303L49.035 81.5045Z" fill="#606066"/>
<path d="M47.0132 83.2359C46.9662 83.3178 46.9808 83.4211 47.0487 83.4867L47.2825 83.7125C47.3416 83.7695 47.4301 83.7831 47.5036 83.7464C47.6176 83.6894 47.6464 83.5398 47.5618 83.4445L47.3458 83.2016C47.2523 83.0964 47.0832 83.1139 47.0132 83.2359Z" fill="#606066"/>
<path fill-rule="evenodd" clip-rule="evenodd" d="M47.0487 83.4867C46.9808 83.4211 46.9662 83.3178 47.0132 83.2359C47.0832 83.1139 47.2523 83.0964 47.3458 83.2016L47.5618 83.4445C47.6464 83.5398 47.6176 83.6894 47.5036 83.7464C47.4301 83.7831 47.3416 83.7695 47.2825 83.7125L47.0487 83.4867Z" fill="#606066"/>
<path fill-rule="evenodd" clip-rule="evenodd" d="M41.9877 75.5222L40.3476 77.1623C40.2746 77.2353 40.2595 77.3481 40.3107 77.4377L41.0597 78.7485C41.1346 78.8795 41.3135 78.9034 41.4202 78.7967L43.6221 76.5948C43.7288 76.4881 43.7049 76.3092 43.5738 76.2343L42.2631 75.4853C42.1735 75.4341 42.0607 75.4492 41.9877 75.5222ZM40.1858 77.0005C40.0398 77.1465 40.0096 77.372 40.112 77.5512L40.861 78.862C41.0107 79.124 41.3686 79.172 41.582 78.9586L43.7839 76.7566C43.9973 76.5432 43.9494 76.1853 43.6874 76.0356L42.3766 75.2866C42.1974 75.1842 41.9719 75.2144 41.8259 75.3604L40.1858 77.0005Z" fill="#606066"/>
<path fill-rule="evenodd" clip-rule="evenodd" d="M40.1273 77.0386L41.8618 75.3041C41.9231 75.2428 41.9445 75.1521 41.9171 75.0699L41.7833 74.6686C41.7295 74.5072 41.5247 74.4588 41.4044 74.5791L39.4024 76.5812C39.2821 76.7015 39.3304 76.9063 39.4918 76.9601L39.8931 77.0939C39.9753 77.1213 40.066 77.0999 40.1273 77.0386ZM42.0236 75.4659C42.1462 75.3433 42.189 75.162 42.1342 74.9975L42.0004 74.5962C41.8928 74.2734 41.4832 74.1767 41.2426 74.4173L39.2405 76.4194C38.9999 76.6599 39.0967 77.0696 39.4194 77.1772L39.8207 77.311C39.9852 77.3658 40.1665 77.323 40.2891 77.2004L42.0236 75.4659Z" fill="#606066"/>
<path fill-rule="evenodd" clip-rule="evenodd" d="M42.3965 75.164L43.4924 75.6662C43.535 75.6857 43.5849 75.6795 43.6213 75.6501C43.6928 75.5926 43.6787 75.48 43.5953 75.4417L42.4994 74.9395C42.416 74.9013 42.3215 74.9642 42.3245 75.0559C42.3261 75.1026 42.3539 75.1445 42.3965 75.164ZM43.3971 75.8743C43.5185 75.9299 43.6609 75.9121 43.7649 75.8283C43.9687 75.6641 43.9286 75.3428 43.6906 75.2337L42.5947 74.7315C42.3567 74.6224 42.0871 74.8018 42.0958 75.0635C42.1002 75.1969 42.1798 75.3164 42.3011 75.3721L43.3971 75.8743Z" fill="#606066"/>
<path fill-rule="evenodd" clip-rule="evenodd" d="M39.9982 77.5752L40.4692 78.5695C40.4984 78.6311 40.4857 78.7044 40.4375 78.7526C40.356 78.8341 40.2177 78.8062 40.1742 78.6994L39.759 77.6805C39.724 77.5945 39.7872 77.5004 39.8801 77.5004C39.9306 77.5004 39.9766 77.5295 39.9982 77.5752ZM40.6761 78.4716C40.7466 78.6206 40.7159 78.7978 40.5993 78.9144C40.4021 79.1117 40.0675 79.0441 39.9622 78.7858L39.5471 77.7668C39.4507 77.5303 39.6247 77.2716 39.8801 77.2716C40.019 77.2716 40.1456 77.3516 40.2051 77.4772L40.6761 78.4716Z" fill="#606066"/>
<path d="M42.0562 79.2868C42.1032 79.205 42.0885 79.1016 42.0206 79.036L41.7868 78.8102C41.7278 78.7532 41.6392 78.7396 41.5658 78.7763C41.4517 78.8333 41.4229 78.9829 41.5076 79.0782L41.7235 79.3211C41.817 79.4263 41.9861 79.4088 42.0562 79.2868Z" fill="#606066"/>
<path fill-rule="evenodd" clip-rule="evenodd" d="M42.0206 79.036C42.0885 79.1016 42.1032 79.205 42.0562 79.2868C41.9861 79.4088 41.817 79.4263 41.7235 79.3211L41.5076 79.0782C41.4229 78.9829 41.4517 78.8333 41.5658 78.7763C41.6392 78.7396 41.7278 78.7532 41.7868 78.8102L42.0206 79.036Z" fill="#606066"/>
<path d="M44.0444 77.3051C44.0914 77.2233 44.0768 77.1199 44.0089 77.0544L43.7751 76.8286C43.7161 76.7715 43.6275 76.7579 43.554 76.7946C43.44 76.8516 43.4112 77.0012 43.4959 77.0965L43.7118 77.3394C43.8053 77.4446 43.9744 77.4272 44.0444 77.3051Z" fill="#606066"/>
<path fill-rule="evenodd" clip-rule="evenodd" d="M44.0089 77.0544C44.0768 77.1199 44.0914 77.2233 44.0444 77.3051C43.9744 77.4272 43.8053 77.4446 43.7118 77.3394L43.4959 77.0965C43.4112 77.0012 43.44 76.8516 43.554 76.7946C43.6275 76.7579 43.7161 76.7715 43.7751 76.8286L44.0089 77.0544Z" fill="#606066"/>
<path fill-rule="evenodd" clip-rule="evenodd" d="M41.9858 85.0191L40.3456 83.3789C40.2726 83.3059 40.2575 83.1932 40.3087 83.1036L41.0577 81.7928C41.1326 81.6618 41.3116 81.6378 41.4183 81.7445L43.6202 83.9464C43.7269 84.0531 43.7029 84.2321 43.5719 84.307L42.2611 85.056C42.1715 85.1072 42.0588 85.0921 41.9858 85.0191ZM40.1838 83.5407C40.0379 83.3948 40.0076 83.1692 40.11 82.99L40.859 81.6793C41.0088 81.4172 41.3667 81.3693 41.5801 81.5827L43.782 83.7846C43.9954 83.998 43.9475 84.3559 43.6854 84.5056L42.3747 85.2546C42.1955 85.357 41.9699 85.3268 41.824 85.1809L40.1838 83.5407Z" fill="#606066"/>
<path fill-rule="evenodd" clip-rule="evenodd" d="M40.1273 83.5029L41.8618 85.2374C41.9231 85.2987 41.9445 85.3894 41.9171 85.4716L41.7833 85.8729C41.7295 86.0343 41.5247 86.0827 41.4044 85.9624L39.4024 83.9603C39.2821 83.84 39.3304 83.6352 39.4918 83.5814L39.8931 83.4476C39.9753 83.4202 40.066 83.4416 40.1273 83.5029ZM42.0236 85.0756C42.1462 85.1982 42.189 85.3795 42.1342 85.544L42.0004 85.9453C41.8928 86.2681 41.4832 86.3648 41.2426 86.1242L39.2405 84.1222C38.9999 83.8816 39.0967 83.4719 39.4194 83.3643L39.8207 83.2305C39.9852 83.1757 40.1665 83.2185 40.2891 83.3411L42.0236 85.0756Z" fill="#606066"/>
<path fill-rule="evenodd" clip-rule="evenodd" d="M42.3965 85.3772L43.4924 84.875C43.535 84.8555 43.5849 84.8618 43.6213 84.8911C43.6928 84.9487 43.6787 85.0613 43.5953 85.0995L42.4994 85.6017C42.416 85.64 42.3215 85.5771 42.3245 85.4854C42.3261 85.4386 42.3539 85.3967 42.3965 85.3772ZM43.3971 84.667C43.5185 84.6114 43.6609 84.6291 43.7649 84.7129C43.9688 84.8772 43.9286 85.1985 43.6906 85.3076L42.5947 85.8098C42.3567 85.9189 42.0871 85.7394 42.0958 85.4778C42.1002 85.3443 42.1798 85.2248 42.3011 85.1692L43.3971 84.667Z" fill="#606066"/>
<path fill-rule="evenodd" clip-rule="evenodd" d="M40.0002 82.9658L40.4712 81.9715C40.5004 81.9099 40.4877 81.8366 40.4395 81.7884C40.3579 81.7069 40.2196 81.7348 40.1761 81.8416L39.761 82.8605C39.7259 82.9465 39.7892 83.0406 39.882 83.0406C39.9326 83.0406 39.9786 83.0115 40.0002 82.9658ZM40.678 82.0694C40.7486 81.9204 40.7179 81.7432 40.6013 81.6266C40.404 81.4293 40.0694 81.4969 39.9642 81.7552L39.549 82.7742C39.4527 83.0107 39.6267 83.2694 39.882 83.2694C40.021 83.2694 40.1475 83.1894 40.207 83.0638L40.678 82.0694Z" fill="#606066"/>
<path d="M42.0562 81.2547C42.1032 81.3366 42.0885 81.4399 42.0206 81.5055L41.7868 81.7313C41.7278 81.7883 41.6392 81.8019 41.5658 81.7652C41.4517 81.7082 41.4229 81.5586 41.5076 81.4633L41.7235 81.2204C41.817 81.1152 41.9861 81.1327 42.0562 81.2547Z" fill="#606066"/>
<path fill-rule="evenodd" clip-rule="evenodd" d="M42.0206 81.5055C42.0885 81.4399 42.1032 81.3366 42.0562 81.2547C41.9861 81.1327 41.817 81.1152 41.7235 81.2204L41.5076 81.4633C41.4229 81.5586 41.4517 81.7082 41.5658 81.7652C41.6392 81.8019 41.7278 81.7883 41.7868 81.7313L42.0206 81.5055Z" fill="#606066"/>
<path d="M44.0425 83.2361C44.0895 83.318 44.0748 83.4213 44.0069 83.4869L43.7731 83.7127C43.7141 83.7697 43.6255 83.7833 43.5521 83.7466C43.4381 83.6897 43.4092 83.54 43.4939 83.4448L43.7098 83.2018C43.8033 83.0967 43.9724 83.1141 44.0425 83.2361Z" fill="#606066"/>
<path fill-rule="evenodd" clip-rule="evenodd" d="M44.0069 83.4869C44.0748 83.4213 44.0895 83.318 44.0425 83.2361C43.9724 83.1141 43.8033 83.0967 43.7098 83.2018L43.4939 83.4448C43.4092 83.54 43.4381 83.6897 43.5521 83.7466C43.6255 83.7833 43.7141 83.7697 43.7731 83.7127L44.0069 83.4869Z" fill="#606066"/>
<path d="M40.9039 80.461C40.9039 82.9936 43.0125 85.0467 45.6136 85.0467C48.2147 85.0467 50.3232 82.9936 50.3232 80.461C50.3232 77.9283 48.2147 75.8752 45.6136 75.8752C43.0125 75.8752 40.9039 77.9283 40.9039 80.461Z" fill="white"/>
<path fill-rule="evenodd" clip-rule="evenodd" d="M45.6136 84.8178C43.1331 84.8178 41.1328 82.8615 41.1328 80.461C41.1328 78.0604 43.1331 76.1041 45.6136 76.1041C48.0941 76.1041 50.0944 78.0604 50.0944 80.461C50.0944 82.8615 48.0941 84.8178 45.6136 84.8178ZM45.6136 85.0467C43.0125 85.0467 40.9039 82.9936 40.9039 80.461C40.9039 77.9283 43.0125 75.8752 45.6136 75.8752C48.2147 75.8752 50.3232 77.9283 50.3232 80.461C50.3232 82.9936 48.2147 85.0467 45.6136 85.0467Z" fill="#606066"/>
<path fill-rule="evenodd" clip-rule="evenodd" d="M81.4382 126.965L84.2854 122.813L79.1894 119.319L76.3423 123.471L81.4382 126.965ZM84.4741 122.942C84.5456 122.838 84.519 122.696 84.4148 122.624L79.3188 119.13C79.2146 119.059 79.0722 119.085 79.0007 119.189L76.0241 123.53L81.4975 127.283L84.4741 122.942Z" fill="#606066"/>
<path fill-rule="evenodd" clip-rule="evenodd" d="M81.5741 125.951L83.6447 122.931L79.3038 119.955L77.2331 122.975L81.5741 125.951ZM83.8335 123.061C83.9049 122.957 83.8784 122.814 83.7742 122.743L79.4332 119.766C79.3289 119.695 79.1865 119.721 79.115 119.825L77.0444 122.845C76.9729 122.949 76.9994 123.092 77.1037 123.163L81.4447 126.14C81.5489 126.211 81.6913 126.185 81.7628 126.081L83.8335 123.061Z" fill="#606066"/>
<path d="M80.209 123.902L79.6913 124.657L79.1251 124.269L79.6428 123.514L80.209 123.902Z" fill="#606066"/>
<path fill-rule="evenodd" clip-rule="evenodd" d="M79.7348 125.8L80.123 125.234L78.2357 123.939L77.8474 124.506L79.7348 125.8ZM79.298 125.223L79.4274 125.034L78.8612 124.646L78.7318 124.835L79.298 125.223Z" fill="#606066"/>
<path fill-rule="evenodd" clip-rule="evenodd" d="M88.9568 132.093L99.4014 116.444L92.7359 111.995L82.2914 127.644L88.9568 132.093ZM99.5917 116.571C99.6619 116.466 99.6335 116.323 99.5284 116.253L92.863 111.805C92.7578 111.735 92.6157 111.763 92.5456 111.868L81.974 127.708L89.0201 132.41L99.5917 116.571Z" fill="#606066"/>
<path fill-rule="evenodd" clip-rule="evenodd" d="M89.1528 130.654L96.7607 119.255C97.6026 117.994 97.2625 116.288 96.001 115.447L94.7846 114.635C93.5231 113.793 91.8179 114.133 90.976 115.394L83.3681 126.793C83.2278 127.004 83.2845 127.288 83.4948 127.428L88.518 130.781C88.7283 130.921 89.0125 130.864 89.1528 130.654ZM96.951 119.382C97.8631 118.016 97.4947 116.168 96.128 115.256L94.9117 114.444C93.545 113.532 91.6978 113.901 90.7857 115.267L83.1778 126.666C82.9673 126.982 83.0523 127.408 83.3677 127.619L88.391 130.971C88.7064 131.182 89.1327 131.097 89.3432 130.781L96.951 119.382Z" fill="#606066"/>
<path d="M87.173 127.868C87.3833 128.008 87.44 128.292 87.2996 128.503L87.1024 128.798C86.9621 129.008 86.6779 129.065 86.4676 128.925L86.1721 128.727C85.9618 128.587 85.9051 128.303 86.0455 128.093L86.2427 127.797C86.383 127.587 86.6672 127.53 86.8775 127.671L87.173 127.868Z" fill="#606066"/>
<path d="M86.6735 128.297C86.7707 128.362 86.797 128.493 86.732 128.59C86.6671 128.688 86.5356 128.714 86.4383 128.649C86.341 128.584 86.3148 128.453 86.3797 128.355C86.4447 128.258 86.5762 128.232 86.6735 128.297Z" fill="white"/>
<path fill-rule="evenodd" clip-rule="evenodd" d="M94.1976 121.612C94.1976 121.612 94.1976 121.612 94.1039 121.546L94.0101 121.481L94.0119 121.478L94.0176 121.47C94.0226 121.463 94.0301 121.452 94.0398 121.438C94.0593 121.409 94.0878 121.367 94.1237 121.314C94.1955 121.206 94.2969 121.051 94.4147 120.863C94.6505 120.486 94.9514 119.976 95.2137 119.441C95.4768 118.904 95.6971 118.351 95.7771 117.885C95.8585 117.412 95.7883 117.079 95.5406 116.914L93.6029 115.621C93.5181 115.564 93.4065 115.551 93.2588 115.59C93.1097 115.63 92.9361 115.722 92.7449 115.856C92.3632 116.123 91.9377 116.543 91.5371 116.989C91.1377 117.433 90.7678 117.898 90.4975 118.253C90.3624 118.43 90.2524 118.579 90.1762 118.684C90.1381 118.737 90.1084 118.778 90.0884 118.806C90.0783 118.82 90.0707 118.831 90.0656 118.838L90.0598 118.847L90.0584 118.849L90.0581 118.849C90.0581 118.849 90.058 118.849 89.9642 118.784C89.8705 118.718 89.8705 118.718 89.8706 118.718L89.8726 118.715L89.8786 118.706C89.8839 118.699 89.8918 118.688 89.902 118.674C89.9224 118.645 89.9525 118.603 89.991 118.55C90.0681 118.444 90.1792 118.293 90.3155 118.114C90.5879 117.757 90.9619 117.286 91.3669 116.836C91.7708 116.386 92.2102 115.951 92.6135 115.668C92.8149 115.527 93.0137 115.419 93.1996 115.369C93.3868 115.319 93.5726 115.325 93.7299 115.43L95.6676 116.724C96.0365 116.97 96.087 117.434 96.0027 117.924C95.917 118.422 95.6852 118.999 95.4191 119.542C95.1522 120.086 94.8468 120.603 94.6087 120.984C94.4895 121.175 94.3869 121.331 94.3141 121.441C94.2776 121.495 94.2486 121.538 94.2287 121.567C94.2187 121.582 94.211 121.593 94.2057 121.6L94.1997 121.609L94.1976 121.612Z" fill="#606066"/>
<path fill-rule="evenodd" clip-rule="evenodd" d="M73.8375 121.896L74.4603 120.936C74.5291 120.83 74.4989 120.688 74.3928 120.619L71.5131 118.751C71.4071 118.682 71.2654 118.712 71.1966 118.818L70.5738 119.778C70.505 119.884 70.5352 120.026 70.6412 120.095L73.521 121.963C73.627 122.032 73.7687 122.002 73.8375 121.896ZM74.6523 121.06C74.7898 120.848 74.7295 120.565 74.5174 120.427L71.6377 118.559C71.4256 118.421 71.1422 118.482 71.0046 118.694L70.3818 119.654C70.2443 119.866 70.3046 120.149 70.5167 120.287L73.3964 122.155C73.6085 122.293 73.8919 122.232 74.0295 122.02L74.6523 121.06Z" fill="#606066"/>
<path d="M72.4225 120.707C72.2105 120.57 72.1501 120.286 72.2877 120.074C72.4252 119.862 72.7087 119.802 72.9207 119.939C73.1328 120.077 73.1932 120.36 73.0556 120.572C72.918 120.784 72.6346 120.845 72.4225 120.707Z" fill="#606066"/>
<path fill-rule="evenodd" clip-rule="evenodd" d="M76.7779 113.575C77.9767 114.353 78.2275 115.966 77.4573 117.153C76.8545 118.082 76.134 118.656 75.5402 119.124L75.5152 119.144C75.227 119.371 74.9745 119.57 74.7756 119.774C74.5722 119.983 74.4326 120.191 74.3713 120.427L74.3314 120.581L71.4915 118.738L71.5855 118.638C71.9995 118.199 72.176 117.531 72.3667 116.759C72.3725 116.736 72.3783 116.712 72.384 116.689C72.5671 115.947 72.769 115.129 73.2337 114.413C74.0039 113.225 75.579 112.797 76.7779 113.575ZM77.2653 117.028C77.9744 115.935 77.7347 114.469 76.6533 113.767C75.5719 113.065 74.1348 113.444 73.4257 114.537C72.9823 115.221 72.7885 116.006 72.6031 116.756C72.5984 116.776 72.5936 116.795 72.5889 116.814C72.4145 117.52 72.2402 118.205 71.8419 118.693L74.1978 120.221C74.2855 119.996 74.4314 119.8 74.6116 119.615C74.8213 119.399 75.0844 119.192 75.367 118.969C75.3775 118.961 75.388 118.953 75.3986 118.944C75.9912 118.477 76.6848 117.923 77.2653 117.028Z" fill="#606066"/>
<path fill-rule="evenodd" clip-rule="evenodd" d="M73.6209 115.075C72.9487 116.111 73.1519 117.363 73.9735 117.896C74.795 118.429 76.0204 118.104 76.6926 117.068C77.3648 116.032 77.1615 114.781 76.34 114.248C75.5185 113.715 74.2931 114.039 73.6209 115.075ZM73.4289 114.951C72.7066 116.064 72.8947 117.469 73.8489 118.088C74.8032 118.707 76.1623 118.306 76.8846 117.193C77.6069 116.08 77.4188 114.675 76.4645 114.056C75.5103 113.437 74.1512 113.838 73.4289 114.951Z" fill="#606066"/>
<path fill-rule="evenodd" clip-rule="evenodd" d="M74.7793 116.235C74.6195 116.481 74.6904 116.723 74.8182 116.806C74.9459 116.889 75.1954 116.855 75.3553 116.609C75.5151 116.362 75.4441 116.121 75.3164 116.038C75.1886 115.955 74.9391 115.989 74.7793 116.235ZM74.5873 116.11C74.381 116.428 74.4285 116.826 74.6936 116.998C74.9587 117.17 75.3409 117.051 75.5472 116.733C75.7536 116.415 75.706 116.018 75.4409 115.846C75.1759 115.674 74.7937 115.792 74.5873 116.11Z" fill="#606066"/>
<path fill-rule="evenodd" clip-rule="evenodd" d="M71.4603 104.925L66.7499 101.678L60.3855 110.911L65.0959 114.158L71.4603 104.925ZM66.8798 101.49C66.7758 101.418 66.6333 101.444 66.5615 101.548L60.1971 110.781C60.1254 110.885 60.1516 111.027 60.2557 111.099L64.966 114.346C65.0701 114.418 65.2126 114.392 65.2843 114.288L71.6487 105.055C71.7205 104.951 71.6943 104.809 71.5902 104.737L66.8798 101.49Z" fill="#606066"/>
<path fill-rule="evenodd" clip-rule="evenodd" d="M70.3231 104.971L66.9316 102.633L64.3339 106.402L67.7253 108.739L70.3231 104.971ZM67.0615 102.445C66.9574 102.373 66.8149 102.399 66.7432 102.503L64.1455 106.272C64.0737 106.376 64.0999 106.518 64.204 106.59L67.5955 108.928C67.6995 109 67.842 108.973 67.9138 108.869L70.5115 105.101C70.5832 104.997 70.557 104.855 70.4529 104.783L67.0615 102.445Z" fill="#606066"/>
<path d="M67.3302 107.413L67.3029 107.418C67.1786 107.441 67.0963 107.56 67.1192 107.684L67.4461 109.462C67.469 109.586 67.5883 109.669 67.7126 109.646L67.7399 109.641C67.8642 109.618 67.9464 109.499 67.9236 109.374L67.5966 107.596C67.5738 107.472 67.4545 107.39 67.3302 107.413Z" fill="#606066"/>
<path d="M63.4932 107.213L63.6816 107.343L61.6034 110.358L61.415 110.228L63.4932 107.213Z" fill="#606066"/>
<path d="M63.8691 107.473L64.0576 107.603L61.9794 110.618L61.791 110.488L63.8691 107.473Z" fill="#606066"/>
<path d="M64.249 107.733L64.4374 107.863L62.0995 111.255L61.9111 111.125L64.249 107.733Z" fill="#606066"/>
<path d="M64.6279 107.993L64.8163 108.123L62.4784 111.515L62.29 111.385L64.6279 107.993Z" fill="#606066"/>
<path d="M65.001 108.253L65.1894 108.383L62.8515 111.774L62.663 111.644L65.001 108.253Z" fill="#606066"/>
<path d="M65.3818 108.513L65.5703 108.643L63.2323 112.034L63.0439 111.904L65.3818 108.513Z" fill="#606066"/>
<path d="M65.7559 108.772L65.9443 108.902L63.6063 112.294L63.4179 112.164L65.7559 108.772Z" fill="#606066"/>
<path d="M66.1299 109.032L66.3183 109.162L63.9804 112.554L63.7919 112.424L66.1299 109.032Z" fill="#606066"/>
<path d="M66.5059 109.292L66.6943 109.422L64.3563 112.813L64.1679 112.683L66.5059 109.292Z" fill="#606066"/>
<path d="M66.8877 109.552L67.0761 109.682L64.9979 112.697L64.8095 112.567L66.8877 109.552Z" fill="#606066"/>
<path d="M67.2656 109.811L67.454 109.941L65.3759 112.956L65.1875 112.826L67.2656 109.811Z" fill="#606066"/>
<path fill-rule="evenodd" clip-rule="evenodd" d="M39.0391 100.493L45.0038 104.334L49.0923 97.9844L43.1276 94.1436L39.0391 100.493ZM45.0723 104.65L49.4086 97.9159L43.0591 93.8273L38.7228 100.562L45.0723 104.65Z" fill="#606066"/>
<path d="M42.1133 102.475L41.9209 102.351L46.1333 95.8093L46.3257 95.9332L42.1133 102.475Z" fill="#606066"/>
<path d="M46.9805 101.255L41.0158 97.4147L41.1397 97.2222L47.1044 101.063L46.9805 101.255Z" fill="#606066"/>
<path fill-rule="evenodd" clip-rule="evenodd" d="M44.1926 99.3239L45.1112 104.313L44.8861 104.355L43.9701 99.3795L39.0617 100.604L39.0063 100.382L43.9286 99.154L43.01 94.1646L43.235 94.1231L44.1511 99.0984L49.0595 97.8736L49.1149 98.0956L44.1926 99.3239Z" fill="#606066"/>
<path fill-rule="evenodd" clip-rule="evenodd" d="M42.0846 102.365L46.953 101.145L47.0087 101.367L42.1402 102.587L42.0846 102.365ZM41.1288 97.3942L42.0326 102.331L41.8075 102.372L40.9036 97.4354L41.1288 97.3942ZM46.3135 96.1056L47.2173 101.043L46.9922 101.084L46.0884 96.1468L46.3135 96.1056ZM41.1123 97.1114L45.9807 95.8913L46.0363 96.1133L41.1679 97.3334L41.1123 97.1114Z" fill="#606066"/>
<path fill-rule="evenodd" clip-rule="evenodd" d="M45.17 100.904C44.6918 100.596 44.0545 100.734 43.7466 101.212C43.4387 101.69 43.5767 102.327 44.0549 102.635C44.5331 102.943 45.1704 102.805 45.4783 102.327C45.7862 101.849 45.6481 101.211 45.17 100.904ZM45.2938 100.711C44.7094 100.335 43.9305 100.504 43.5542 101.088C43.1778 101.672 43.3466 102.451 43.931 102.828C44.5155 103.204 45.2943 103.035 45.6707 102.451C46.047 101.866 45.8783 101.087 45.2938 100.711Z" fill="#606066"/>
<path fill-rule="evenodd" clip-rule="evenodd" d="M43.8809 95.7182C43.4027 95.4103 42.7654 95.5484 42.4575 96.0265C42.1496 96.5047 42.2877 97.142 42.7658 97.4499C43.244 97.7578 43.8813 97.6198 44.1892 97.1416C44.4971 96.6634 44.3591 96.0261 43.8809 95.7182ZM44.0048 95.5258C43.4203 95.1495 42.6415 95.3182 42.2651 95.9026C41.8888 96.4871 42.0575 97.266 42.642 97.6423C43.2264 98.0186 44.0053 97.8499 44.3816 97.2655C44.7579 96.681 44.5892 95.9022 44.0048 95.5258Z" fill="#606066"/>
<path fill-rule="evenodd" clip-rule="evenodd" d="M41.75 99.2437C41.4312 99.0385 41.0063 99.1305 40.8011 99.4493C40.5958 99.7681 40.6878 100.193 41.0066 100.398C41.3254 100.603 41.7502 100.511 41.9555 100.193C42.1608 99.8739 42.0688 99.449 41.75 99.2437ZM41.8739 99.0513C41.4488 98.7776 40.8824 98.9003 40.6087 99.3254C40.335 99.7505 40.4577 100.317 40.8827 100.591C41.3078 100.864 41.8742 100.742 42.1479 100.317C42.4216 99.8915 42.2989 99.325 41.8739 99.0513Z" fill="#606066"/>
<path fill-rule="evenodd" clip-rule="evenodd" d="M47.124 98.0792C46.8052 97.8739 46.3804 97.9659 46.1751 98.2847C45.9698 98.6035 46.0618 99.0284 46.3806 99.2336C46.6994 99.4389 47.1243 99.3469 47.3295 99.0281C47.5348 98.7093 47.4428 98.2845 47.124 98.0792ZM47.2479 97.8868C46.8228 97.6131 46.2564 97.7358 45.9827 98.1608C45.709 98.5859 45.8317 99.1524 46.2567 99.4261C46.6818 99.6998 47.2482 99.5771 47.5219 99.152C47.7956 98.7269 47.6729 98.1605 47.2479 97.8868Z" fill="#606066"/>
<path fill-rule="evenodd" clip-rule="evenodd" d="M126.634 58.6924L135.387 63.4424L135.277 63.6436L126.499 58.8792C126.31 59.1488 126.152 59.4197 126.013 59.7025C125.649 60.4424 125.415 61.2682 125.119 62.3799L124.898 62.321C125.193 61.2119 125.433 60.3647 125.808 59.6015C126.184 58.8352 126.695 58.1578 127.527 57.38L127.683 57.5471C127.399 57.8128 127.154 58.0655 126.94 58.3131L135.38 62.9559L135.27 63.1565L126.791 58.4919C126.736 58.5589 126.684 58.6257 126.634 58.6924Z" fill="#606066"/>
<path fill-rule="evenodd" clip-rule="evenodd" d="M143.625 68.6448L148.296 77.4395L148.498 77.3321L143.813 68.5109C144.084 68.3251 144.356 68.1694 144.64 68.0329C145.383 67.6758 146.211 67.4483 147.325 67.1626L147.269 66.9409C146.157 67.226 145.308 67.4583 144.541 67.8266C143.771 68.1964 143.089 68.701 142.304 69.5254L142.47 69.6833C142.738 69.4017 142.993 69.1592 143.242 68.9477L147.81 77.429L148.011 77.3205L143.423 68.7996C143.49 68.7459 143.557 68.6943 143.625 68.6448Z" fill="#606066"/>
<path fill-rule="evenodd" clip-rule="evenodd" d="M88.1589 76.96L94.9474 69.674L95.1148 69.83L88.3059 77.1379C88.5198 77.3876 88.7425 77.6085 88.9815 77.8139C89.6069 78.3511 90.3478 78.7851 91.3501 79.3495L91.2378 79.5489C90.2377 78.9858 89.4775 78.5416 88.8324 77.9874C88.1847 77.431 87.6566 76.7671 87.1115 75.7676L87.3124 75.658C87.4986 75.9994 87.682 76.2996 87.8683 76.5685L94.4748 69.5582L94.6414 69.7152L88.004 76.7581C88.0552 76.8275 88.1068 76.8947 88.1589 76.96Z" fill="#606066"/>
<path fill-rule="evenodd" clip-rule="evenodd" d="M115.92 109.284L119.597 97.7522L119.379 97.6827L115.691 109.249C115.294 109.181 114.923 109.085 114.559 108.962C113.625 108.646 112.733 108.147 111.551 107.459L111.436 107.656C112.615 108.343 113.527 108.854 114.485 109.179C115.448 109.505 116.452 109.641 117.82 109.589L117.812 109.36C117.333 109.378 116.901 109.373 116.502 109.345L119.996 98.1695L119.778 98.1012L116.268 109.325C116.149 109.314 116.034 109.3 115.92 109.284Z" fill="#606066"/>
<path fill-rule="evenodd" clip-rule="evenodd" d="M90.83 98.1281L95.8608 106.171L95.6668 106.293L90.6201 98.224C90.3393 98.3587 90.0826 98.5085 89.836 98.6769C89.1875 99.1199 88.6054 99.6946 87.8384 100.478L87.6748 100.318C88.44 99.5364 89.037 98.9455 89.7069 98.4879C90.3797 98.0283 91.122 97.7057 92.1774 97.4502L92.2312 97.6726C91.8736 97.7592 91.5541 97.8532 91.2624 97.9575L96.084 105.765L95.8893 105.885L91.0441 98.0394C90.9711 98.0682 90.8998 98.0978 90.83 98.1281Z" fill="#606066"/>
<path d="M114.182 43.9382V43.5194L114.981 42.8638C115.139 42.7333 115.248 42.6292 115.308 42.5514C115.367 42.4713 115.397 42.3832 115.397 42.2871C115.397 42.1887 115.367 42.112 115.308 42.0571C115.248 42.0022 115.17 41.9747 115.074 41.9747C114.985 41.9747 114.904 41.9999 114.83 42.0502C114.759 42.0983 114.677 42.1807 114.583 42.2974L114.213 41.9987C114.338 41.8271 114.468 41.7012 114.6 41.6212C114.735 41.5411 114.905 41.501 115.108 41.501C115.358 41.501 115.558 41.5697 115.709 41.707C115.86 41.842 115.936 42.0228 115.936 42.2493C115.936 42.3798 115.911 42.4976 115.86 42.6029C115.81 42.7059 115.745 42.7974 115.665 42.8775C115.584 42.9553 115.464 43.056 115.304 43.1796L114.913 43.4817H115.96V43.9382H114.182Z" fill="#825946"/>
<path d="M118.174 43.6258C117.975 43.8616 117.717 43.9794 117.402 43.9794C117.086 43.9794 116.83 43.8616 116.633 43.6258C116.436 43.3901 116.338 43.0938 116.338 42.7368C116.338 42.3821 116.437 42.0869 116.636 41.8511C116.835 41.6131 117.093 41.4941 117.409 41.4941C117.722 41.4941 117.977 41.612 118.174 41.8477C118.373 42.0834 118.473 42.3798 118.473 42.7368C118.473 43.0915 118.373 43.3878 118.174 43.6258ZM117.024 43.286C117.122 43.4302 117.251 43.5023 117.409 43.5023C117.566 43.5023 117.692 43.4313 117.786 43.2894C117.882 43.1453 117.93 42.961 117.93 42.7368C117.93 42.5171 117.881 42.3352 117.783 42.191C117.684 42.0445 117.557 41.9713 117.402 41.9713C117.246 41.9713 117.12 42.0434 117.024 42.1875C116.928 42.3294 116.88 42.5125 116.88 42.7368C116.88 42.9588 116.928 43.1418 117.024 43.286Z" fill="#825946"/>
<path d="M118.726 44.4943L118.682 44.2781C118.906 44.2529 119.018 44.1522 119.018 43.976V43.9382H118.805V43.389H119.362V43.8524C119.362 44.0721 119.308 44.2323 119.2 44.333C119.095 44.436 118.937 44.4897 118.726 44.4943Z" fill="#825946"/>
<path d="M120.015 43.9382V42.0537L119.596 42.1567L119.486 41.7241L120.176 41.5182H120.537V43.9382H120.015Z" fill="#825946"/>
<path d="M121.02 43.9382V43.5194L121.82 42.8638C121.978 42.7333 122.087 42.6292 122.146 42.5514C122.206 42.4713 122.235 42.3832 122.235 42.2871C122.235 42.1887 122.206 42.112 122.146 42.0571C122.087 42.0022 122.009 41.9747 121.913 41.9747C121.823 41.9747 121.742 41.9999 121.669 42.0502C121.598 42.0983 121.516 42.1807 121.422 42.2974L121.051 41.9987C121.177 41.8271 121.306 41.7012 121.439 41.6212C121.574 41.5411 121.743 41.501 121.947 41.501C122.196 41.501 122.397 41.5697 122.548 41.707C122.699 41.842 122.774 42.0228 122.774 42.2493C122.774 42.3798 122.749 42.4976 122.699 42.6029C122.648 42.7059 122.583 42.7974 122.503 42.8775C122.423 42.9553 122.303 43.056 122.143 43.1796L121.751 43.4817H122.798V43.9382H121.02Z" fill="#825946"/>
<path d="M84.4834 106.642V106.124H83.3095L83.2236 105.75L84.5418 104.222H84.988V105.695H85.3107V106.124H84.988V106.642H84.4834ZM83.845 105.695H84.4834V104.946L83.845 105.695Z" fill="#825946"/>
<path d="M85.6178 107.198L85.5732 106.982C85.7974 106.957 85.9096 106.856 85.9096 106.68V106.642H85.6967V106.093H86.2528V106.556C86.2528 106.776 86.199 106.936 86.0915 107.037C85.9862 107.14 85.8283 107.194 85.6178 107.198Z" fill="#825946"/>
<path d="M87.8323 106.642V106.124H86.6583L86.5725 105.75L87.8907 104.222H88.3369V105.695H88.6596V106.124H88.3369V106.642H87.8323ZM87.1938 105.695H87.8323V104.946L87.1938 105.695Z" fill="#825946"/>
<path d="M90.8547 106.33C90.6556 106.565 90.3981 106.683 90.0823 106.683C89.7665 106.683 89.5102 106.565 89.3134 106.33C89.1166 106.094 89.0182 105.798 89.0182 105.441C89.0182 105.086 89.1177 104.791 89.3168 104.555C89.5159 104.317 89.7734 104.198 90.0892 104.198C90.4027 104.198 90.6578 104.316 90.8547 104.552C91.0538 104.787 91.1533 105.084 91.1533 105.441C91.1533 105.795 91.0538 106.092 90.8547 106.33ZM89.7047 105.99C89.8031 106.134 89.9313 106.206 90.0892 106.206C90.2471 106.206 90.3729 106.135 90.4668 105.993C90.5629 105.849 90.6109 105.665 90.6109 105.441C90.6109 105.221 90.5617 105.039 90.4633 104.895C90.3649 104.748 90.2379 104.675 90.0823 104.675C89.9267 104.675 89.8008 104.747 89.7047 104.891C89.6086 105.033 89.5605 105.216 89.5605 105.441C89.5605 105.663 89.6086 105.846 89.7047 105.99Z" fill="#825946"/>
<path d="M169.318 57.4414V55.5568L168.899 55.6598L168.789 55.2273L169.479 55.0213H169.839V57.4414H169.318Z" fill="#825946"/>
<path d="M171.236 57.4757C170.966 57.4757 170.744 57.4116 170.57 57.2835C170.396 57.1553 170.309 56.986 170.309 56.7754C170.309 56.5077 170.439 56.3143 170.697 56.1953C170.494 56.0717 170.392 55.8944 170.392 55.6632C170.392 55.4756 170.47 55.3188 170.625 55.1929C170.783 55.0671 170.987 55.0042 171.236 55.0042C171.488 55.0042 171.692 55.0671 171.847 55.1929C172.003 55.3188 172.081 55.4779 172.081 55.6701C172.081 55.8967 171.979 56.0717 171.775 56.1953C171.906 56.264 172.003 56.3418 172.067 56.4287C172.131 56.5157 172.163 56.629 172.163 56.7686C172.163 56.986 172.076 57.1587 171.902 57.2869C171.73 57.4128 171.508 57.4757 171.236 57.4757ZM170.986 55.9378C171.05 55.9928 171.133 56.0202 171.236 56.0202C171.339 56.0202 171.422 55.9928 171.483 55.9378C171.547 55.8829 171.579 55.8108 171.579 55.7216C171.579 55.6438 171.547 55.5774 171.483 55.5225C171.422 55.4676 171.339 55.4401 171.236 55.4401C171.131 55.4401 171.047 55.4676 170.986 55.5225C170.924 55.5774 170.893 55.6449 170.893 55.725C170.893 55.8097 170.924 55.8806 170.986 55.9378ZM171.236 57.0397C171.364 57.0397 171.465 57.0111 171.538 56.9539C171.614 56.8967 171.652 56.8235 171.652 56.7342C171.652 56.6427 171.613 56.5706 171.535 56.518C171.459 56.4653 171.36 56.439 171.236 56.439C171.113 56.439 171.012 56.4665 170.934 56.5214C170.859 56.574 170.821 56.6473 170.821 56.7411C170.821 56.8258 170.859 56.8967 170.934 56.9539C171.01 57.0111 171.11 57.0397 171.236 57.0397Z" fill="#825946"/>
<path d="M172.451 57.9975L172.406 57.7812C172.631 57.756 172.743 57.6553 172.743 57.4791V57.4414H172.53V56.8921H173.086V57.3555C173.086 57.5752 173.032 57.7354 172.925 57.8361C172.819 57.9391 172.661 57.9929 172.451 57.9975Z" fill="#825946"/>
<path d="M173.467 57.4414V57.0226L174.267 56.3669C174.425 56.2365 174.534 56.1324 174.593 56.0546C174.653 55.9745 174.683 55.8864 174.683 55.7902C174.683 55.6918 174.653 55.6152 174.593 55.5602C174.534 55.5053 174.456 55.4779 174.36 55.4779C174.271 55.4779 174.189 55.503 174.116 55.5534C174.045 55.6014 173.963 55.6838 173.869 55.8005L173.498 55.5019C173.624 55.3303 173.754 55.2044 173.886 55.1243C174.021 55.0442 174.191 55.0042 174.394 55.0042C174.644 55.0042 174.844 55.0728 174.995 55.2101C175.146 55.3451 175.222 55.5259 175.222 55.7525C175.222 55.8829 175.196 56.0008 175.146 56.106C175.096 56.209 175.03 56.3006 174.95 56.3807C174.87 56.4585 174.75 56.5592 174.59 56.6827L174.199 56.9848H175.246V57.4414H173.467Z" fill="#825946"/>
<path d="M175.71 57.4414L176.784 55.495H175.655V55.0385H177.385V55.4367L176.307 57.4414H175.71Z" fill="#825946"/>
<path d="M121.255 70.9426V69.0581L120.836 69.161L120.727 68.7285L121.417 68.5226H121.777V70.9426H121.255Z" fill="#825946"/>
<path d="M122.703 70.9426V69.0581L122.285 69.161L122.175 68.7285L122.865 68.5226H123.225V70.9426H122.703Z" fill="#825946"/>
<path d="M123.674 71.4987L123.63 71.2825C123.854 71.2573 123.966 71.1566 123.966 70.9804V70.9426H123.753V70.3934H124.309V70.8568C124.309 71.0765 124.256 71.2367 124.148 71.3374C124.043 71.4404 123.885 71.4941 123.674 71.4987Z" fill="#825946"/>
<path d="M125.57 70.9838C125.222 70.9838 124.922 70.8637 124.67 70.6234L124.99 70.2423C125.182 70.4163 125.373 70.5032 125.563 70.5032C125.689 70.5032 125.787 70.4735 125.858 70.414C125.929 70.3545 125.964 70.271 125.964 70.1634C125.964 70.0627 125.926 69.9837 125.848 69.9265C125.77 69.867 125.667 69.8373 125.539 69.8373C125.411 69.8373 125.277 69.867 125.137 69.9265L124.832 69.724L124.9 68.5397H126.376V69.0031H125.353L125.326 69.4185C125.436 69.391 125.541 69.3773 125.642 69.3773C125.891 69.3773 126.094 69.4414 126.249 69.5695C126.405 69.6977 126.483 69.8922 126.483 70.1531C126.483 70.4071 126.399 70.6096 126.232 70.7607C126.067 70.9094 125.847 70.9838 125.57 70.9838Z" fill="#825946"/>
<path d="M128.707 70.6302C128.508 70.866 128.25 70.9838 127.934 70.9838C127.619 70.9838 127.362 70.866 127.165 70.6302C126.969 70.3945 126.87 70.0982 126.87 69.7412C126.87 69.3865 126.97 69.0912 127.169 68.8555C127.368 68.6175 127.625 68.4985 127.941 68.4985C128.255 68.4985 128.51 68.6164 128.707 68.8521C128.906 69.0878 129.005 69.3842 129.005 69.7412C129.005 70.0959 128.906 70.3922 128.707 70.6302ZM127.557 70.2904C127.655 70.4346 127.783 70.5067 127.941 70.5067C128.099 70.5067 128.225 70.4357 128.319 70.2938C128.415 70.1497 128.463 69.9654 128.463 69.7412C128.463 69.5215 128.414 69.3395 128.315 69.1954C128.217 69.0489 128.09 68.9757 127.934 68.9757C127.779 68.9757 127.653 69.0478 127.557 69.1919C127.461 69.3338 127.413 69.5169 127.413 69.7412C127.413 69.9632 127.461 70.1462 127.557 70.2904Z" fill="#825946"/>
<path d="M86.7197 61.1023V60.6835L87.5195 60.0278C87.6774 59.8974 87.7862 59.7933 87.8457 59.7155C87.9052 59.6354 87.9349 59.5473 87.9349 59.4512C87.9349 59.3528 87.9052 59.2761 87.8457 59.2212C87.7862 59.1662 87.7083 59.1388 87.6122 59.1388C87.523 59.1388 87.4417 59.164 87.3685 59.2143C87.2976 59.2624 87.2152 59.3447 87.1214 59.4615L86.7506 59.1628C86.8765 58.9912 87.0058 58.8653 87.1385 58.7852C87.2735 58.7051 87.4429 58.6651 87.6466 58.6651C87.896 58.6651 88.0962 58.7337 88.2473 58.871C88.3983 59.006 88.4738 59.1868 88.4738 59.4134C88.4738 59.5438 88.4487 59.6617 88.3983 59.767C88.348 59.8699 88.2827 59.9615 88.2027 60.0416C88.1226 60.1194 88.0024 60.2201 87.8422 60.3437L87.4509 60.6457H88.4979V61.1023H86.7197Z" fill="#825946"/>
<path d="M90.7121 60.7899C90.513 61.0256 90.2556 61.1435 89.9398 61.1435C89.6239 61.1435 89.3676 61.0256 89.1708 60.7899C88.974 60.5542 88.8756 60.2578 88.8756 59.9008C88.8756 59.5461 88.9752 59.2509 89.1743 59.0152C89.3734 58.7772 89.6308 58.6582 89.9466 58.6582C90.2601 58.6582 90.5153 58.7761 90.7121 59.0118C90.9112 59.2475 91.0108 59.5438 91.0108 59.9008C91.0108 60.2556 90.9112 60.5519 90.7121 60.7899ZM89.5622 60.4501C89.6606 60.5942 89.7887 60.6663 89.9466 60.6663C90.1045 60.6663 90.2304 60.5954 90.3242 60.4535C90.4203 60.3093 90.4684 60.1251 90.4684 59.9008C90.4684 59.6811 90.4192 59.4992 90.3208 59.355C90.2224 59.2086 90.0954 59.1353 89.9398 59.1353C89.7841 59.1353 89.6583 59.2074 89.5622 59.3516C89.466 59.4935 89.418 59.6766 89.418 59.9008C89.418 60.1228 89.466 60.3059 89.5622 60.4501Z" fill="#825946"/>
<path d="M91.2646 61.6584L91.2199 61.4421C91.4442 61.4169 91.5563 61.3163 91.5563 61.14V61.1023H91.3435V60.5531H91.8996V61.0165C91.8996 61.2362 91.8458 61.3964 91.7383 61.497C91.633 61.6 91.4751 61.6538 91.2646 61.6584Z" fill="#825946"/>
<path d="M92.3342 61.1023L93.4086 59.1559H92.2793V58.6994H94.0094V59.0976L92.9315 61.1023H92.3342Z" fill="#825946"/>
<path d="M94.8157 61.1023V59.2177L94.3969 59.3207L94.2871 58.8882L94.9771 58.6822H95.3375V61.1023H94.8157Z" fill="#825946"/>
<path d="M18.5275 76.0776C18.3157 76.4066 18.0302 76.5943 17.671 76.6407L17.5764 76.1471C17.831 76.1068 18.0164 75.9962 18.1329 75.8154C18.1874 75.7307 18.2092 75.6481 18.1984 75.5677C18.1869 75.4841 18.1427 75.4175 18.0657 75.368C17.983 75.3147 17.8972 75.3085 17.8084 75.3492C17.7195 75.39 17.6348 75.4729 17.5543 75.598L17.4354 75.7827L17.1079 75.6699L16.9333 74.8757L16.4223 75.6695L16.0414 75.4242L16.9203 74.059L17.2551 74.2745L17.414 75.0994C17.7084 74.7773 18.0154 74.7191 18.3348 74.9247C18.5291 75.0498 18.6451 75.2184 18.6828 75.4305C18.7217 75.6406 18.6699 75.8563 18.5275 76.0776Z" fill="#825946"/>
<path d="M19.6091 75.3487L19.4031 75.2692C19.5033 75.067 19.4794 74.9182 19.3312 74.8228L19.2995 74.8023L19.1843 74.9813L18.7225 74.684L19.0235 74.2164L19.4131 74.4673C19.5978 74.5862 19.7034 74.7181 19.7299 74.8631C19.7595 75.0073 19.7192 75.1692 19.6091 75.3487Z" fill="#825946"/>
<path d="M20.2133 73.459C20.0014 73.7881 19.7159 73.9758 19.3567 74.0222L19.2622 73.5285C19.5167 73.4883 19.7022 73.3777 19.8187 73.1968C19.8732 73.1122 19.895 73.0296 19.8842 72.9492C19.8727 72.8656 19.8285 72.799 19.7515 72.7494C19.6688 72.6962 19.583 72.6899 19.4941 72.7307C19.4053 72.7715 19.3206 72.8544 19.2401 72.9795L19.1211 73.1642L18.7937 73.0514L18.6191 72.2572L18.1081 73.0509L17.7271 72.8057L18.606 71.4404L18.9408 71.656L19.0997 72.4809C19.3942 72.1588 19.7011 72.1005 20.0205 72.3062C20.2149 72.4313 20.3309 72.5999 20.3686 72.8119C20.4075 73.0221 20.3557 73.2378 20.2133 73.459Z" fill="#825946"/>
<path d="M22.3432 70.9686C22.0248 71.1419 21.7228 71.2305 21.4372 71.2345C21.1497 71.2372 20.8683 71.15 20.5932 70.9728C20.318 70.7957 20.1231 70.5763 20.0085 70.3147C19.8919 70.0519 19.8466 69.7396 19.8725 69.378L20.2886 69.3723C20.2988 69.6565 20.3486 69.89 20.4378 70.0726C20.5264 70.2521 20.6717 70.4069 20.8737 70.537C21.0758 70.6671 21.2778 70.7359 21.4798 70.7434C21.6811 70.7478 21.9132 70.6959 22.1762 70.5875L22.3432 70.9686Z" fill="#825946"/>
<path d="M22.4701 69.8773L20.8855 68.8572L20.7454 69.2651L20.3223 69.1233L20.5226 68.4317L20.7177 68.1286L22.7525 69.4386L22.4701 69.8773Z" fill="#825946"/>
<path d="M23.4633 69.3619L23.2573 69.2824C23.3576 69.0802 23.3336 68.9314 23.1854 68.836L23.1537 68.8155L23.0385 68.9945L22.5767 68.6972L22.8777 68.2296L23.2673 68.4805C23.4521 68.5994 23.5576 68.7313 23.5841 68.8763C23.6137 69.0205 23.5734 69.1824 23.4633 69.3619Z" fill="#825946"/>
<path d="M24.2505 66.5348C24.3409 66.8298 24.3006 67.1101 24.1297 67.3756C23.9587 67.6412 23.7209 67.7929 23.4161 67.8308C23.1114 67.8687 22.809 67.791 22.5088 67.5977C22.2105 67.4057 22.0162 67.1622 21.9258 66.8672C21.8334 66.571 21.8727 66.2901 22.0437 66.0246C22.2134 65.7609 22.4506 65.6102 22.7554 65.5723C23.0613 65.5325 23.3644 65.6092 23.6646 65.8025C23.9628 65.9945 24.1581 66.2386 24.2505 66.5348ZM23.3422 67.3178C23.5167 67.3131 23.6467 67.2444 23.7322 67.1116C23.8177 66.9788 23.8261 66.8346 23.7576 66.6789C23.6884 66.52 23.5595 66.3799 23.371 66.2585C23.1863 66.1396 23.0066 66.0825 22.8322 66.0872C22.6557 66.0906 22.5254 66.1578 22.4412 66.2886C22.3569 66.4195 22.3494 66.5643 22.4186 66.7232C22.4859 66.8808 22.6138 67.0203 22.8024 67.1417C22.989 67.2619 23.169 67.3206 23.3422 67.3178Z" fill="#825946"/>
<path d="M25.3855 66.243L24.9695 66.2487C24.9592 65.9645 24.9098 65.7326 24.8212 65.5531C24.732 65.3705 24.5863 65.2141 24.3843 65.084C24.1822 64.954 23.9806 64.8867 23.7793 64.8823C23.5773 64.8748 23.3448 64.9252 23.0818 65.0335L22.9148 64.6524C23.2332 64.4791 23.5362 64.3911 23.8237 64.3884C24.1093 64.3845 24.3897 64.4711 24.6649 64.6482C24.94 64.8253 25.1359 65.0453 25.2524 65.3082C25.3671 65.5698 25.4114 65.8814 25.3855 66.243Z" fill="#825946"/>
<path d="M82.1994 58.6991C82.1994 64.7025 77.3326 69.5693 71.3292 69.5693C65.3257 69.5693 60.459 64.7025 60.459 58.6991C60.459 52.6956 65.3257 47.8289 71.3292 47.8289C77.3326 47.8289 82.1994 52.6956 82.1994 58.6991Z" fill="url(#paint0_linear)"/>
<path d="M65.0956 57.8982L67.1012 54.2651H64.9931V53.4128H68.2226V54.1561L66.2106 57.8982H65.0956Z" fill="white"/>
<path d="M70.0875 57.9751C69.4382 57.9751 68.8785 57.7508 68.4086 57.3023L69.0046 56.5911C69.3634 56.9157 69.7201 57.078 70.0747 57.078C70.3096 57.078 70.4933 57.0225 70.6257 56.9114C70.7581 56.8004 70.8244 56.6444 70.8244 56.4437C70.8244 56.2557 70.7517 56.1083 70.6065 56.0015C70.4612 55.8905 70.269 55.8349 70.0298 55.8349C69.7906 55.8349 69.5407 55.8905 69.2801 56.0015L68.7098 55.6235L68.838 53.4128H71.5933V54.2779H69.6838L69.6325 55.0532C69.8376 55.0019 70.0341 54.9763 70.222 54.9763C70.6877 54.9763 71.0657 55.0959 71.3562 55.3351C71.6467 55.5744 71.7919 55.9375 71.7919 56.4245C71.7919 56.8986 71.636 57.2767 71.3242 57.5586C71.0166 57.8363 70.6044 57.9751 70.0875 57.9751Z" fill="white"/>
<path d="M72.1903 58.9363L72.107 58.5326C72.5256 58.4856 72.7349 58.2976 72.7349 57.9687V57.8982H72.3376V56.873H73.3757V57.738C73.3757 58.1481 73.2753 58.4471 73.0745 58.6351C72.878 58.8273 72.5833 58.9277 72.1903 58.9363Z" fill="white"/>
<path d="M77.194 57.3151C76.8223 57.7551 76.3417 57.9751 75.7522 57.9751C75.1627 57.9751 74.6843 57.7551 74.3169 57.3151C73.9495 56.8751 73.7658 56.3219 73.7658 55.6555C73.7658 54.9934 73.9517 54.4423 74.3233 54.0023C74.695 53.5581 75.1755 53.3359 75.765 53.3359C76.3503 53.3359 76.8266 53.5559 77.194 53.9959C77.5656 54.4359 77.7514 54.9891 77.7514 55.6555C77.7514 56.3177 77.5656 56.8709 77.194 57.3151ZM75.0474 56.6808C75.2311 56.9499 75.4703 57.0844 75.765 57.0844C76.0598 57.0844 76.2948 56.952 76.4699 56.6872C76.6493 56.418 76.739 56.0742 76.739 55.6555C76.739 55.2454 76.6472 54.9058 76.4635 54.6367C76.2798 54.3633 76.0427 54.2266 75.7522 54.2266C75.4618 54.2266 75.2268 54.3612 75.0474 54.6303C74.868 54.8951 74.7783 55.2369 74.7783 55.6555C74.7783 56.0699 74.868 56.4116 75.0474 56.6808Z" fill="white"/>
<path d="M64.9736 64.5348L66.9792 60.9016H64.8711V60.0494H68.1006V60.7927L66.0886 64.5348H64.9736Z" fill="white"/>
<path d="M70.2209 64.6117C69.6783 64.6117 69.2469 64.4515 68.9265 64.1311C68.5719 63.7765 68.3947 63.2062 68.3947 62.4202C68.3947 61.694 68.5613 61.1045 68.8945 60.6517C69.2277 60.1989 69.7168 59.9725 70.3618 59.9725C70.883 59.9725 71.3507 60.137 71.7651 60.4659L71.2461 61.2284C71.0838 61.1045 70.9342 61.0148 70.7975 60.9593C70.6651 60.8995 70.5092 60.8696 70.3298 60.8696C70.0649 60.8696 69.8556 60.9657 69.7018 61.1579C69.5523 61.3459 69.4605 61.5958 69.4263 61.9076C69.7168 61.7154 70.0265 61.6193 70.3554 61.6193C70.8168 61.6193 71.1948 61.7453 71.4896 61.9973C71.7843 62.2494 71.9317 62.6039 71.9317 63.061C71.9317 63.5138 71.7694 63.8855 71.4447 64.1759C71.1201 64.4664 70.7121 64.6117 70.2209 64.6117ZM69.6121 63.58C69.7531 63.7039 69.9432 63.7658 70.1824 63.7658C70.4216 63.7658 70.6096 63.7039 70.7463 63.58C70.883 63.4561 70.9513 63.2938 70.9513 63.093C70.9513 62.9008 70.8808 62.7449 70.7399 62.6253C70.5989 62.5014 70.4088 62.4395 70.1696 62.4395C69.9304 62.4395 69.7424 62.4993 69.6057 62.6189C69.469 62.7385 69.4007 62.8987 69.4007 63.0994C69.4007 63.2917 69.4712 63.4519 69.6121 63.58Z" fill="white"/>
<path d="M72.3123 65.5728L72.229 65.1691C72.6476 65.1221 72.8569 64.9342 72.8569 64.6053V64.5348H72.4597V63.5095H73.4977V64.3746C73.4977 64.7847 73.3973 65.0837 73.1966 65.2717C73.0001 65.4639 72.7053 65.5643 72.3123 65.5728Z" fill="white"/>
<path d="M77.316 63.9517C76.9443 64.3917 76.4638 64.6117 75.8743 64.6117C75.2847 64.6117 74.8063 64.3917 74.4389 63.9517C74.0716 63.5117 73.8879 62.9585 73.8879 62.2921C73.8879 61.6299 74.0737 61.0789 74.4453 60.6389C74.817 60.1946 75.2976 59.9725 75.8871 59.9725C76.4723 59.9725 76.9486 60.1925 77.316 60.6325C77.6876 61.0725 77.8735 61.6257 77.8735 62.2921C77.8735 62.9542 77.6876 63.5074 77.316 63.9517ZM75.1694 63.3173C75.3531 63.5864 75.5923 63.721 75.8871 63.721C76.1818 63.721 76.4168 63.5886 76.5919 63.3237C76.7713 63.0546 76.861 62.7107 76.861 62.2921C76.861 61.882 76.7692 61.5424 76.5855 61.2733C76.4018 60.9999 76.1647 60.8632 75.8743 60.8632C75.5838 60.8632 75.3488 60.9977 75.1694 61.2668C74.99 61.5317 74.9003 61.8734 74.9003 62.2921C74.9003 62.7064 74.99 63.0482 75.1694 63.3173Z" fill="white"/>
<path d="M52.3379 62.476V61.0521L55.0573 58.8229C55.5941 58.3794 55.9637 58.0254 56.166 57.7608C56.3683 57.4885 56.4695 57.1889 56.4695 56.8622C56.4695 56.5276 56.3683 56.2669 56.166 56.0802C55.9637 55.8934 55.6992 55.8001 55.3724 55.8001C55.0689 55.8001 54.7927 55.8857 54.5437 56.0568C54.3025 56.2202 54.0224 56.5003 53.7034 56.8972L52.4429 55.8818C52.8709 55.2982 53.3105 54.8703 53.7618 54.5979C54.2208 54.3256 54.7966 54.1895 55.4891 54.1895C56.3372 54.1895 57.018 54.4229 57.5316 54.8897C58.0451 55.3488 58.3019 55.9635 58.3019 56.7338C58.3019 57.1773 58.2163 57.578 58.0451 57.9359C57.8739 58.286 57.6522 58.5973 57.3798 58.8696C57.1075 59.1341 56.699 59.4765 56.1544 59.8967L54.8239 60.9237H58.3836V62.476H52.3379Z" fill="#825946"/>
<path d="M56.9119 85.8175V82.9341H57.5462V84.1946L58.7161 82.9341H59.4823L58.3083 84.1575L59.5358 85.8175H58.7738L57.8799 84.59L57.5462 84.936V85.8175H56.9119Z" fill="#606066"/>
<path d="M61.1401 84.4582L61.8363 82.9341H62.5242L61.4161 85.1626C61.2926 85.4097 61.1552 85.5882 61.0042 85.6981C60.8559 85.8079 60.6788 85.8629 60.4728 85.8629C60.2559 85.8629 60.0485 85.8066 59.8508 85.694L60.098 85.2285C60.2023 85.2917 60.3163 85.3232 60.4399 85.3232C60.5827 85.3232 60.7035 85.2463 60.8024 85.0926L59.649 82.9341H60.3575L61.1401 84.4582Z" fill="#606066"/>
<path d="M62.7276 85.8175L63.7327 84.3511L62.7688 82.9341H63.5102L64.1158 83.8691L64.7254 82.9341H65.4463L64.4824 84.3429L65.4875 85.8175H64.746L64.0993 84.8289L63.4485 85.8175H62.7276Z" fill="#606066"/>
<path d="M65.9629 85.8175V82.9341H66.5973V84.0751H67.7672V82.9341H68.4015V85.8175H67.7672V84.66H66.5973V85.8175H65.9629Z" fill="#606066"/>
<path d="M71.3746 82.9341V85.8175H70.7403V84.8948H70.2418L69.624 85.8175H68.8825L69.5869 84.7877C69.175 84.634 68.969 84.3333 68.969 83.8856C68.969 83.589 69.0651 83.357 69.2573 83.1895C69.4523 83.0192 69.7187 82.9341 70.0565 82.9341H71.3746ZM70.0977 84.3346H70.7403V83.5067H70.11C69.9535 83.5067 69.8313 83.5424 69.7434 83.6138C69.6555 83.6852 69.6116 83.7895 69.6116 83.9268C69.6116 84.0504 69.6542 84.1493 69.7393 84.2234C69.8272 84.2976 69.9466 84.3346 70.0977 84.3346Z" fill="#606066"/>
<path d="M71.9293 84.8413V84.2399H73.198V84.8413H71.9293Z" fill="#606066"/>
<path d="M58.263 90.2151C57.8401 90.2151 57.4872 90.0723 57.2043 89.7867C56.9242 89.4983 56.7842 89.1441 56.7842 88.7239C56.7842 88.3065 56.9256 87.9536 57.2085 87.6653C57.4913 87.3769 57.8511 87.2327 58.2877 87.2327C58.5376 87.2327 58.7477 87.2739 58.9179 87.3563C59.0882 87.436 59.2502 87.5513 59.404 87.7023L59.025 88.139C58.9015 88.0264 58.7848 87.9454 58.6749 87.8959C58.5678 87.8438 58.4374 87.8177 58.2836 87.8177C58.0419 87.8177 57.8414 87.9055 57.6822 88.0813C57.5256 88.2543 57.4474 88.4685 57.4474 88.7239C57.4474 88.9765 57.5256 89.1907 57.6822 89.3665C57.8414 89.5423 58.0419 89.6301 58.2836 89.6301C58.4374 89.6301 58.5706 89.6027 58.6831 89.5477C58.7957 89.4928 58.9152 89.4077 59.0415 89.2924L59.4452 89.7249C59.2887 89.8924 59.1184 90.016 58.9344 90.0956C58.7532 90.1752 58.5294 90.2151 58.263 90.2151Z" fill="#606066"/>
<path d="M60.6245 90.1656V87.8671H59.7471V87.2822H62.1362V87.8671H61.2588V90.1656H60.6245Z" fill="#606066"/>
<path d="M65.1204 89.7825C64.8293 90.0709 64.464 90.2151 64.0246 90.2151C63.5852 90.2151 63.22 90.0709 62.9289 89.7825C62.6406 89.4942 62.4964 89.1413 62.4964 88.7239C62.4964 88.3092 62.6419 87.9577 62.933 87.6694C63.2269 87.3783 63.5935 87.2327 64.0329 87.2327C64.4723 87.2327 64.8361 87.3769 65.1245 87.6653C65.4156 87.9536 65.5611 88.3065 65.5611 88.7239C65.5611 89.1386 65.4142 89.4915 65.1204 89.7825ZM63.4067 89.3665C63.5715 89.5423 63.7802 89.6301 64.0329 89.6301C64.2855 89.6301 64.4929 89.5436 64.6549 89.3706C64.8169 89.1949 64.8979 88.9793 64.8979 88.7239C64.8979 88.4713 64.8155 88.2571 64.6508 88.0813C64.486 87.9055 64.2773 87.8177 64.0246 87.8177C63.772 87.8177 63.5647 87.9055 63.4026 88.0813C63.2406 88.2543 63.1596 88.4685 63.1596 88.7239C63.1596 88.9765 63.242 89.1907 63.4067 89.3665Z" fill="#606066"/>
<path d="M66.5069 87.2822H68.5665V90.1656H67.9322V87.8547H67.1001V88.0731C67.1001 88.636 67.0658 89.0727 66.9971 89.383C66.9312 89.6933 66.8337 89.9075 66.7046 90.0256C66.5756 90.1437 66.3957 90.2027 66.165 90.2027C66.036 90.2027 65.9247 90.1903 65.8314 90.1656L65.8726 89.6425C65.911 89.648 65.944 89.6507 65.9714 89.6507C66.0648 89.6507 66.1403 89.6315 66.198 89.5931C66.2584 89.5519 66.3133 89.4709 66.3628 89.35C66.4149 89.2292 66.452 89.0493 66.474 88.8104C66.4959 88.5687 66.5069 88.2584 66.5069 87.8795V87.2822Z" fill="#606066"/>
<path d="M71.7538 89.7825C71.4627 90.0709 71.0974 90.2151 70.6581 90.2151C70.2187 90.2151 69.8534 90.0709 69.5623 89.7825C69.274 89.4942 69.1298 89.1413 69.1298 88.7239C69.1298 88.3092 69.2754 87.9577 69.5665 87.6694C69.8603 87.3783 70.2269 87.2327 70.6663 87.2327C71.1057 87.2327 71.4695 87.3769 71.7579 87.6653C72.049 87.9536 72.1945 88.3065 72.1945 88.7239C72.1945 89.1386 72.0476 89.4915 71.7538 89.7825ZM70.0402 89.3665C70.2049 89.5423 70.4136 89.6301 70.6663 89.6301C70.9189 89.6301 71.1263 89.5436 71.2883 89.3706C71.4503 89.1949 71.5313 88.9793 71.5313 88.7239C71.5313 88.4713 71.4489 88.2571 71.2842 88.0813C71.1194 87.9055 70.9107 87.8177 70.6581 87.8177C70.4054 87.8177 70.1981 87.9055 70.036 88.0813C69.874 88.2543 69.793 88.4685 69.793 88.7239C69.793 88.9765 69.8754 89.1907 70.0402 89.3665Z" fill="#606066"/>
<path d="M72.7572 90.1656V87.2822H74.096C74.4283 87.2822 74.6796 87.3673 74.8498 87.5376C74.9816 87.6694 75.0475 87.8355 75.0475 88.036C75.0475 88.3079 74.9212 88.5152 74.6686 88.658C74.8471 88.7266 74.9816 88.8173 75.0723 88.9299C75.1629 89.0397 75.2082 89.188 75.2082 89.3747C75.2082 89.6329 75.1121 89.8292 74.9198 89.9638C74.7276 90.0984 74.464 90.1656 74.129 90.1656H72.7572ZM73.3751 88.4479H73.9601C74.2649 88.4479 74.4173 88.3436 74.4173 88.1348C74.4173 88.0387 74.3816 87.966 74.3102 87.9165C74.2388 87.8644 74.1358 87.8383 74.0013 87.8383H73.3751V88.4479ZM73.3751 89.6095H74.129C74.4283 89.6095 74.578 89.5024 74.578 89.2882C74.578 89.0795 74.4214 88.9752 74.1084 88.9752H73.3751V89.6095Z" fill="#606066"/>
<path d="M75.4829 90.1656L76.7186 87.2616H77.3036L78.5393 90.1656H77.8761L77.6125 89.5189H76.3932L76.1296 90.1656H75.4829ZM76.6198 88.9587H77.386L77.0029 88.0236L76.6198 88.9587Z" fill="#606066"/>
<path d="M81.2664 87.2822V90.1656H80.6321V89.2429H80.1336L79.5158 90.1656H78.7743L79.4787 89.1358C79.0668 88.982 78.8608 88.6813 78.8608 88.2337C78.8608 87.9371 78.9569 87.7051 79.1491 87.5376C79.3441 87.3673 79.6105 87.2822 79.9483 87.2822H81.2664ZM79.9895 88.6827H80.6321V87.8547H80.0018C79.8453 87.8547 79.7231 87.8904 79.6352 87.9618C79.5473 88.0332 79.5034 88.1376 79.5034 88.2749C79.5034 88.3985 79.546 88.4973 79.6311 88.5715C79.719 88.6456 79.8384 88.6827 79.9895 88.6827Z" fill="#606066"/>
<path d="M107.696 28.2224C107.405 28.5108 107.04 28.6549 106.601 28.6549C106.161 28.6549 105.796 28.5108 105.505 28.2224C105.216 27.9341 105.072 27.5812 105.072 27.1638C105.072 26.7491 105.218 26.3976 105.509 26.1092C105.803 25.8182 106.169 25.6726 106.609 25.6726C107.048 25.6726 107.412 25.8168 107.7 26.1051C107.991 26.3935 108.137 26.7464 108.137 27.1638C108.137 27.5784 107.99 27.9313 107.696 28.2224ZM105.983 27.8064C106.147 27.9821 106.356 28.07 106.609 28.07C106.861 28.07 107.069 27.9835 107.231 27.8105C107.393 27.6347 107.474 27.4192 107.474 27.1638C107.474 26.9111 107.391 26.6969 107.227 26.5212C107.062 26.3454 106.853 26.2575 106.601 26.2575C106.348 26.2575 106.141 26.3454 105.978 26.5212C105.816 26.6942 105.735 26.9084 105.735 27.1638C105.735 27.4164 105.818 27.6306 105.983 27.8064Z" fill="#606066"/>
<path d="M109.334 26.2946V26.7972H110.096C110.417 26.7972 110.666 26.8782 110.842 27.0402C111.02 27.1995 111.109 27.4164 111.109 27.691C111.109 27.9821 111.015 28.2073 110.825 28.3666C110.636 28.5259 110.372 28.6055 110.034 28.6055H108.7V25.722H110.912V26.2946H109.334ZM110.03 27.3244H109.334V28.0329H110.034C110.328 28.0329 110.475 27.9107 110.475 27.6663C110.475 27.4384 110.327 27.3244 110.03 27.3244Z" fill="#606066"/>
<path d="M115.323 29.2069V28.6055H111.632V25.722H112.267V28.0329H113.292V25.722H113.927V28.0329H114.956V25.722H115.591V28.0329H115.933L115.85 29.2069H115.323Z" fill="#606066"/>
<path d="M116.132 28.6055L117.368 25.7014H117.953L119.188 28.6055H118.525L118.262 27.9588L117.042 27.9588L116.779 28.6055H116.132ZM117.269 27.3986H118.035L117.652 26.4635L117.269 27.3986Z" fill="#606066"/>
<path d="M121.915 25.722V28.6055H121.281V27.6828H120.783L120.165 28.6055H119.423L120.128 27.5757C119.716 27.4219 119.51 27.1212 119.51 26.6736C119.51 26.377 119.606 26.1449 119.798 25.9774C119.993 25.8072 120.26 25.722 120.597 25.722H121.915ZM120.638 27.1226H121.281V26.2946H120.651C120.494 26.2946 120.372 26.3303 120.284 26.4017C120.196 26.4731 120.152 26.5775 120.152 26.7148C120.152 26.8384 120.195 26.9372 120.28 27.0114C120.368 27.0855 120.487 27.1226 120.638 27.1226Z" fill="#606066"/>
<path d="M105.2 32.9536V30.0701H105.834V31.3306L107.004 30.0701H107.77L106.596 31.2935L107.824 32.9536H107.062L106.168 31.7261L105.834 32.0721V32.9536H105.2Z" fill="#606066"/>
<path d="M110.705 32.5705C110.414 32.8588 110.049 33.003 109.609 33.003C109.17 33.003 108.805 32.8588 108.514 32.5705C108.225 32.2822 108.081 31.9293 108.081 31.5119C108.081 31.0972 108.227 30.7457 108.518 30.4573C108.812 30.1662 109.178 30.0207 109.618 30.0207C110.057 30.0207 110.421 30.1649 110.709 30.4532C111 30.7416 111.146 31.0944 111.146 31.5119C111.146 31.9265 110.999 32.2794 110.705 32.5705ZM108.992 32.1545C109.156 32.3302 109.365 32.4181 109.618 32.4181C109.87 32.4181 110.078 32.3316 110.24 32.1586C110.402 31.9828 110.483 31.7672 110.483 31.5119C110.483 31.2592 110.4 31.045 110.236 30.8693C110.071 30.6935 109.862 30.6056 109.609 30.6056C109.357 30.6056 109.149 30.6935 108.987 30.8693C108.825 31.0423 108.744 31.2565 108.744 31.5119C108.744 31.7645 108.827 31.9787 108.992 32.1545Z" fill="#606066"/>
<path d="M111.709 32.9536V30.0701H112.392L113.15 31.2894L113.908 30.0701H114.592V32.9536H113.962V31.0711L113.15 32.3028H113.134L112.331 31.0835V32.9536H111.709Z" fill="#606066"/>
<path d="M115.285 32.9536V30.0701H115.919V31.2112H117.089V30.0701H117.723V32.9536H117.089V31.7961H115.919V32.9536H115.285Z" fill="#606066"/>
<path d="M118.167 32.9536L119.403 30.0495H119.988L121.224 32.9536H120.561L120.297 32.3069H119.078L118.814 32.9536H118.167ZM119.304 31.7467H120.07L119.687 30.8116L119.304 31.7467Z" fill="#606066"/>
<path d="M122.34 32.9536V30.6551H121.463V30.0701H123.852V30.6551H122.975V32.9536H122.34Z" fill="#606066"/>
<path d="M124.093 32.9536L125.329 30.0495H125.913L127.149 32.9536H126.486L126.222 32.3069H125.003L124.739 32.9536H124.093ZM125.23 31.7467H125.996L125.613 30.8116L125.23 31.7467Z" fill="#606066"/>
<path d="M160.122 28.6055V25.722H160.756V26.9825L161.926 25.722H162.692L161.518 26.9455L162.746 28.6055H161.984L161.09 27.378L160.756 27.724V28.6055H160.122Z" fill="#606066"/>
<path d="M165.627 28.2224C165.336 28.5108 164.971 28.6549 164.532 28.6549C164.092 28.6549 163.727 28.5108 163.436 28.2224C163.148 27.9341 163.003 27.5812 163.003 27.1638C163.003 26.7491 163.149 26.3976 163.44 26.1092C163.734 25.8182 164.1 25.6726 164.54 25.6726C164.979 25.6726 165.343 25.8168 165.631 26.1051C165.923 26.3935 166.068 26.7464 166.068 27.1638C166.068 27.5784 165.921 27.9313 165.627 28.2224ZM163.914 27.8064C164.078 27.9821 164.287 28.07 164.54 28.07C164.792 28.07 165 27.9835 165.162 27.8105C165.324 27.6347 165.405 27.4192 165.405 27.1638C165.405 26.9111 165.322 26.6969 165.158 26.5212C164.993 26.3454 164.784 26.2575 164.532 26.2575C164.279 26.2575 164.072 26.3454 163.91 26.5212C163.748 26.6942 163.667 26.9084 163.667 27.1638C163.667 27.4164 163.749 27.6306 163.914 27.8064Z" fill="#606066"/>
<path d="M166.631 28.6055V25.722H167.315L168.073 26.9413L168.83 25.722H169.514V28.6055H168.884V26.723L168.073 27.9547H168.056L167.253 26.7354V28.6055H166.631Z" fill="#606066"/>
<path d="M170.207 28.6055V25.722H170.841V26.8631L172.011 26.8631V25.722H172.646V28.6055L172.011 28.6055V27.448L170.841 27.448V28.6055H170.207Z" fill="#606066"/>
<path d="M173.089 28.6055L174.325 25.7014H174.91L176.146 28.6055H175.483L175.219 27.9588H174L173.736 28.6055H173.089ZM174.226 27.3986H174.993L174.609 26.4635L174.226 27.3986Z" fill="#606066"/>
<path d="M177.262 28.6055V26.307H176.385V25.722H178.774V26.307H177.897V28.6055H177.262Z" fill="#606066"/>
<path d="M179.015 28.6055L180.251 25.7014H180.836L182.071 28.6055H181.408L181.145 27.9588H179.925L179.662 28.6055H179.015ZM180.152 27.3986H180.918L180.535 26.4635L180.152 27.3986Z" fill="#606066"/>
<path d="M16.5218 88.2564L26.2478 73.2309L33.9048 78.1407L23.6617 93.1342L16.5218 88.2564Z" fill="#EBEBEB"/>
<path d="M17.3265 87.3314L27.0524 72.3059L28.4255 73.2311L21.4457 86.5042L17.3265 87.3314Z" fill="#EBEBEB"/>
<path d="M37.5739 56.2968L46.9808 41.8885L48.3539 42.8137L39.1758 57.2121L37.5739 56.2968Z" fill="#EBEBEB"/>
<path d="M54.8102 30.6654L64.2172 16.2571L65.5902 17.1823L56.4122 31.5808L54.8102 30.6654Z" fill="#EBEBEB"/>
<path d="M38.2589 55.3808L46.4332 42.7821L53.8205 47.8289L45.4018 60.1518L38.2589 55.3808Z" fill="#EBEBEB"/>
<path d="M55.4976 29.7494L74.6519 0.228491L79.0001 8.92456L62.6404 34.5204L55.4976 29.7494Z" fill="#EBEBEB"/>
<path d="M103.936 0.229004H123.387V8.92517H103.936V0.229004Z" fill="#EBEBEB"/>
<path d="M120.42 87.1912H194.109V93.8277H120.42V87.1912Z" fill="#EBEBEB"/>
<path d="M142.848 0.229004H162.528V8.92517H142.848V0.229004Z" fill="#EBEBEB"/>
<path d="M181.979 0.229004H194.108V8.92517H181.979V0.229004Z" fill="#EBEBEB"/>
<path d="M74.6504 0.229004H88.61V8.92517H74.6504V0.229004Z" fill="#EBEBEB"/>
<path d="M103.022 0.229004H124.534V2.05978H103.022V0.229004Z" fill="#EBEBEB"/>
<path d="M141.928 0.229004H163.439V2.05978H141.928V0.229004Z" fill="#EBEBEB"/>
<path d="M181.061 0.229004H195.478V2.05978H181.061V0.229004Z" fill="#EBEBEB"/>
<path d="M181.979 1.83057H195.481V3.66134H181.979V1.83057Z" fill="#EBEBEB"/>
<path d="M190.899 6.17896H195.476V93.8272H190.899V6.17896Z" fill="#EBEBEB"/>
<path d="M147.649 6.17896H152.455V66.1367H147.649V6.17896Z" fill="#EBEBEB"/>
<path d="M147.649 77.1221H152.455V89.2509H147.649V77.1221Z" fill="#EBEBEB"/>
<path d="M119.843 87.1912L125.45 90.1662L120.415 98.1758L114.923 94.6287L119.843 87.1912Z" fill="#EBEBEB"/>
<path d="M74.6504 0.229004H89.7543V2.05978H74.6504V0.229004Z" fill="#EBEBEB"/>
<path fill-rule="evenodd" clip-rule="evenodd" d="M89.4075 1.8309L89.4075 0.228976L89.6363 0.228976L89.6363 2.05975L88.6065 2.05975L88.6065 9.03957L88.3777 9.03957L88.3777 1.8309L89.4075 1.8309Z" fill="#606066"/>
<path d="M91.4699 142L0.160156 82.6143L3.8217 77.0076L89.4103 133.418L107.718 105.499L113.439 109.389L91.4699 142Z" fill="#EBEBEB"/>
<path fill-rule="evenodd" clip-rule="evenodd" d="M195.705 0V3.66165H194.332V5.95012H195.705V93.8272H195.476V6.17896H194.103V3.43281H195.476V0.229063L74.4162 0.343378L74.416 0.114531L195.705 0Z" fill="#606066"/>
<path fill-rule="evenodd" clip-rule="evenodd" d="M79.0475 8.92554H147.649V65.9083H152.226V8.92554H191.13V87.4199H152.34V77.4651H147.763V87.4199H119.905L114.97 94.7094L120.38 98.1319L123.213 93.5987H191.015V93.8276H123.34L120.452 98.4483L114.648 94.7766L119.783 87.191H147.534V77.2362H152.569V87.191H190.901V9.15438H152.455V66.1372H147.42V9.15438H79.171L25.3742 91.1632L89.3744 133.374L107.682 105.34L113.481 109.128L91.6767 141.949L91.4861 141.822L113.163 109.193L107.748 105.657L89.4403 133.691L25.0576 91.2285L79.0475 8.92554Z" fill="#606066"/>
<path fill-rule="evenodd" clip-rule="evenodd" d="M74.6298 0.291285L17.8127 86.4334L3.85255 77.1648L0.318297 82.4662L14.5248 91.7856L14.3993 91.977L0 82.531L3.78884 76.8478L17.748 86.1157L74.4388 0.165283L74.6298 0.291285Z" fill="#606066"/>
<path d="M29.5602 40.7351L4.84473 77.6938L6.44665 78.7236L29.9034 43.0236L41.2313 50.6899L42.2611 49.2024L29.5602 40.7351Z" fill="#EBEBEB"/>
<path fill-rule="evenodd" clip-rule="evenodd" d="M29.5332 40.5759L42.4261 49.1712L41.2656 50.8476L29.94 43.1828L6.48468 78.8806L4.68945 77.7265L29.5332 40.5759ZM29.5964 40.8931L5.00922 77.66L6.41784 78.5655L29.8761 42.8632L41.2063 50.5311L42.1054 49.2324L29.5964 40.8931Z" fill="#606066"/>
<path d="M65.8402 117.97L64.2383 116.826L89.0681 79.5242L90.4412 80.3251L65.8402 117.97Z" fill="#EBEBEB"/>
<path fill-rule="evenodd" clip-rule="evenodd" d="M89.034 79.3708L90.6042 80.2868L65.8721 118.133L64.083 116.855L89.034 79.3708ZM89.1049 79.6772L64.3962 116.797L65.811 117.808L90.2809 80.3632L89.1049 79.6772Z" fill="#606066"/>
<path d="M87.0021 101.951L79.4502 97.1457L80.48 95.6582L88.0319 100.464L87.0021 101.951Z" fill="#EBEBEB"/>
<path fill-rule="evenodd" clip-rule="evenodd" d="M80.4512 95.502L88.1963 100.431L87.0362 102.106L79.291 97.1778L80.4512 95.502ZM80.514 95.8132L79.6146 97.1124L86.9733 101.795L87.8728 100.496L80.514 95.8132Z" fill="#606066"/>
<path d="M94.7822 106.986L95.812 105.498L104.051 111.105L103.021 112.707L94.7822 106.986Z" fill="#EBEBEB"/>
<path fill-rule="evenodd" clip-rule="evenodd" d="M95.7903 105.34L104.215 111.073L103.061 112.869L94.6309 107.015L95.7903 105.34ZM95.8492 105.657L94.9491 106.957L102.996 112.546L103.902 111.137L95.8492 105.657Z" fill="#606066"/>
<path d="M118.698 64.8777L65.7197 29.6354L66.7495 28.0334L118.876 62.8181H125.105V64.8777H118.698Z" fill="#EBEBEB"/>
<path fill-rule="evenodd" clip-rule="evenodd" d="M66.7181 27.8748L118.913 62.7048H125.222V64.9933H118.665L65.5645 29.6693L66.7181 27.8748ZM66.7847 28.1943L65.8788 29.6036L118.734 64.7644H124.993V62.9336H118.844L66.7847 28.1943Z" fill="#606066"/>
<path d="M135.29 62.7034H147.648V64.9918H135.29V62.7034Z" fill="#EBEBEB"/>
<path fill-rule="evenodd" clip-rule="evenodd" d="M147.419 62.9322H135.519V64.763H147.419V62.9322ZM135.29 62.7034V64.9918H147.648V62.7034H135.29Z" fill="#606066"/>
<path d="M94.334 69.4548L104.174 55.1519L105.662 56.1817L96.0503 70.4846L94.334 69.4548Z" fill="#EBEBEB"/>
<path fill-rule="evenodd" clip-rule="evenodd" d="M104.142 54.9934L105.817 56.1528L96.0819 70.6396L94.168 69.4912L104.142 54.9934ZM104.201 55.3122L94.4945 69.4202L96.0133 70.3315L105.501 56.2125L104.201 55.3122Z" fill="#606066"/>
<path fill-rule="evenodd" clip-rule="evenodd" d="M124.45 1.64822L141.698 1.60514L141.698 1.83398L124.451 1.87706L124.45 1.64822Z" fill="#BFEBF4"/>
<path fill-rule="evenodd" clip-rule="evenodd" d="M124.455 1.87858L141.874 1.8339L141.875 2.06274L124.455 2.10743L124.455 1.87858Z" fill="#7CAFBA"/>
<path fill-rule="evenodd" clip-rule="evenodd" d="M48.0166 42.9942L56.0659 31.2202L56.248 31.3586L48.1988 43.1327L48.0166 42.9942Z" fill="#BFEBF4"/>
<path fill-rule="evenodd" clip-rule="evenodd" d="M48.1791 43.1069L56.3081 31.2145L56.4902 31.353L48.3613 43.2454L48.1791 43.1069Z" fill="#7CAFBA"/>
<path fill-rule="evenodd" clip-rule="evenodd" d="M28.1318 72.9619L38.8998 57.2104L39.082 57.3489L28.314 73.1004L28.1318 72.9619Z" fill="#BFEBF4"/>
<path fill-rule="evenodd" clip-rule="evenodd" d="M28.2778 73.0749L39.1528 57.1652L39.335 57.3037L28.46 73.2134L28.2778 73.0749Z" fill="#7CAFBA"/>
<path fill-rule="evenodd" clip-rule="evenodd" d="M163.587 1.64822L180.834 1.60514L180.835 1.83398L163.588 1.87706L163.587 1.64822Z" fill="#BFEBF4"/>
<path fill-rule="evenodd" clip-rule="evenodd" d="M163.588 1.87858L181.008 1.8339L181.009 2.06274L163.589 2.10743L163.588 1.87858Z" fill="#7CAFBA"/>
<path fill-rule="evenodd" clip-rule="evenodd" d="M89.6692 1.64928L102.952 1.61637L102.952 1.84521L89.6698 1.87812L89.6692 1.64928Z" fill="#BFEBF4"/>
<path fill-rule="evenodd" clip-rule="evenodd" d="M89.6693 1.87783L103.084 1.84342L103.085 2.07227L89.6699 2.10668L89.6693 1.87783Z" fill="#7CAFBA"/>
<path fill-rule="evenodd" clip-rule="evenodd" d="M123.45 2.56603L142.927 2.51725L142.928 2.74609L123.451 2.79488L123.45 2.56603Z" fill="#BFEBF4"/>
<path fill-rule="evenodd" clip-rule="evenodd" d="M123.383 2.74601L142.911 2.74601L142.911 2.97485L123.383 2.97485L123.383 2.74601Z" fill="#7CAFBA"/>
<path fill-rule="evenodd" clip-rule="evenodd" d="M48.1548 44.1209L57.2446 30.8247L57.4268 30.9631L48.337 44.2594L48.1548 44.1209Z" fill="#BFEBF4"/>
<path fill-rule="evenodd" clip-rule="evenodd" d="M48.2414 44.2632L57.3865 30.9565L57.5684 31.0955L48.4233 44.4021L48.2414 44.2632Z" fill="#7CAFBA"/>
<path fill-rule="evenodd" clip-rule="evenodd" d="M28.1679 74.2299L40.1 56.7758L40.2822 56.9143L28.3501 74.3683L28.1679 74.2299Z" fill="#BFEBF4"/>
<path fill-rule="evenodd" clip-rule="evenodd" d="M28.2367 74.3877L40.2314 56.9121L40.4131 57.0513L28.4185 74.5268L28.2367 74.3877Z" fill="#7CAFBA"/>
<path fill-rule="evenodd" clip-rule="evenodd" d="M162.59 2.56603L182.067 2.51725L182.067 2.74609L162.59 2.79488L162.59 2.56603Z" fill="#BFEBF4"/>
<path fill-rule="evenodd" clip-rule="evenodd" d="M162.524 2.74601L182.052 2.74601L182.052 2.97485L162.524 2.97485L162.524 2.74601Z" fill="#7CAFBA"/>
<path fill-rule="evenodd" clip-rule="evenodd" d="M88.6515 2.56571L104.102 2.52701L104.103 2.75586L88.6521 2.79456L88.6515 2.56571Z" fill="#BFEBF4"/>
<path fill-rule="evenodd" clip-rule="evenodd" d="M88.5981 2.74682L104.089 2.75675L104.089 2.9856L88.5982 2.97566L88.5981 2.74682Z" fill="#7CAFBA"/>
<path fill-rule="evenodd" clip-rule="evenodd" d="M124.339 1.94535V0.229004H124.568V2.1742H123.538V9.0396H123.31V1.94535H124.339Z" fill="#606066"/>
<path fill-rule="evenodd" clip-rule="evenodd" d="M48.2113 43.1222L46.7608 42.2046L46.8832 42.0112L48.527 43.0512L47.9762 43.9218L53.7705 47.618L53.6474 47.811L47.6609 43.9921L48.2113 43.1222Z" fill="#606066"/>
<path fill-rule="evenodd" clip-rule="evenodd" d="M28.3129 73.3297L26.8624 72.4121L26.9848 72.2187L28.6286 73.2587L28.0778 74.1293L33.8721 77.8256L33.749 78.0185L27.7625 74.1996L28.3129 73.3297Z" fill="#606066"/>
<path fill-rule="evenodd" clip-rule="evenodd" d="M33.5775 65.3202L32.1271 64.4026L32.2494 64.2092L33.8932 65.2492L33.3424 66.1198L39.1367 69.816L39.0136 70.009L33.0271 66.1901L33.5775 65.3202Z" fill="#606066"/>
<path fill-rule="evenodd" clip-rule="evenodd" d="M56.2672 31.182L54.8565 30.2043L54.7261 30.3924L56.3249 31.5004L56.9118 30.6537L62.5751 34.5475L62.7048 34.359L56.8535 30.3359L56.2672 31.182Z" fill="#606066"/>
<path fill-rule="evenodd" clip-rule="evenodd" d="M39.1236 57.1324L37.713 56.1547L37.5826 56.3428L39.1813 57.4509L39.7682 56.6041L45.4316 60.498L45.5612 60.3094L39.71 56.2864L39.1236 57.1324Z" fill="#606066"/>
<path fill-rule="evenodd" clip-rule="evenodd" d="M163.469 1.94535V0.229004H163.698V2.1742H162.668V9.0396H162.439V1.94535H163.469Z" fill="#606066"/>
<path fill-rule="evenodd" clip-rule="evenodd" d="M141.959 1.94535V0.229004H141.731V2.1742H142.76V9.0396H142.989V1.94535H141.959Z" fill="#606066"/>
<path fill-rule="evenodd" clip-rule="evenodd" d="M181.092 1.94535V0.229004H180.863V2.1742H181.893V9.0396H182.122V1.94535H181.092Z" fill="#606066"/>
<path fill-rule="evenodd" clip-rule="evenodd" d="M103.142 1.94535V0.229004H102.913V2.1742H103.943V9.0396H104.172V1.94535H103.142Z" fill="#606066"/>
<path fill-rule="evenodd" clip-rule="evenodd" d="M29.3867 85.1126L29.5129 84.9216L61.4567 106.027L65.8819 99.4463L71.4642 98.2833L75.05 100.481L74.9305 100.676L71.422 98.5259L66.0198 99.6514L61.5199 106.343L29.3867 85.1126Z" fill="#606066"/>
<defs>
<linearGradient id="paint0_linear" x1="60.459" y1="58.6991" x2="82.1994" y2="58.6991" gradientUnits="userSpaceOnUse">
<stop stop-color="#725E55"/>
<stop offset="1" stop-color="#88563F"/>
</linearGradient>
</defs>
</svg>
