<svg width="687" height="402" viewBox="0 0 687 402" fill="none" xmlns="http://www.w3.org/2000/svg">
<g filter="url(#filter0_d)">
<rect x="75" y="75" width="537" height="252" fill="white"/>
</g>
<path d="M328.114 118.932C326.589 120.487 324.66 121.264 322.328 121.264C319.996 121.264 318.075 120.494 316.564 118.954C315.053 117.414 314.298 115.529 314.298 113.3C314.298 111.1 315.061 109.223 316.586 107.668C318.111 106.113 320.04 105.336 322.372 105.336C324.704 105.336 326.625 106.106 328.136 107.646C329.647 109.186 330.402 111.071 330.402 113.3C330.402 115.5 329.639 117.377 328.114 118.932ZM318.61 117.194C319.607 118.25 320.861 118.778 322.372 118.778C323.883 118.778 325.122 118.25 326.09 117.194C327.073 116.138 327.564 114.84 327.564 113.3C327.564 111.775 327.065 110.484 326.068 109.428C325.085 108.357 323.839 107.822 322.328 107.822C320.817 107.822 319.571 108.35 318.588 109.406C317.62 110.462 317.136 111.76 317.136 113.3C317.136 114.825 317.627 116.123 318.61 117.194ZM332.021 123.794V118.712H333.275C334.141 116.981 334.573 114.349 334.573 110.814V109.384H343.571V118.712H345.221L344.869 123.794H342.647V121H334.507L334.243 123.794H332.021ZM336.003 118.712H340.909V111.672H337.081V113.212C337.081 115.368 336.722 117.201 336.003 118.712ZM347.436 121V109.384H350.098V114.092H355.224V109.384H357.886V121H355.224V116.314H350.098V121H347.436ZM366.751 121.264C364.991 121.264 363.524 120.677 362.351 119.504C361.177 118.331 360.591 116.901 360.591 115.214C360.591 113.527 361.185 112.097 362.373 110.924C363.561 109.736 365.035 109.142 366.795 109.142C368.555 109.142 370.021 109.729 371.195 110.902C372.383 112.075 372.977 113.513 372.977 115.214C372.977 116.886 372.383 118.316 371.195 119.504C370.007 120.677 368.525 121.264 366.751 121.264ZM366.795 118.954C367.851 118.954 368.701 118.595 369.347 117.876C369.992 117.157 370.315 116.27 370.315 115.214C370.315 114.173 369.977 113.293 369.303 112.574C368.628 111.841 367.777 111.474 366.751 111.474C365.709 111.474 364.866 111.833 364.221 112.552C363.575 113.271 363.253 114.158 363.253 115.214C363.253 116.241 363.59 117.121 364.265 117.854C364.939 118.587 365.783 118.954 366.795 118.954ZM375.688 121V109.384H378.328V114.95L383.388 109.384H386.512L382.002 114.268L386.886 121H383.74L380.22 116.204L378.328 118.206V121H375.688ZM394.251 121.264C392.491 121.264 391.024 120.677 389.851 119.504C388.677 118.331 388.091 116.901 388.091 115.214C388.091 113.527 388.685 112.097 389.873 110.924C391.061 109.736 392.535 109.142 394.295 109.142C396.055 109.142 397.521 109.729 398.695 110.902C399.883 112.075 400.477 113.513 400.477 115.214C400.477 116.886 399.883 118.316 398.695 119.504C397.507 120.677 396.025 121.264 394.251 121.264ZM394.295 118.954C395.351 118.954 396.201 118.595 396.847 117.876C397.492 117.157 397.815 116.27 397.815 115.214C397.815 114.173 397.477 113.293 396.803 112.574C396.128 111.841 395.277 111.474 394.251 111.474C393.209 111.474 392.366 111.833 391.721 112.552C391.075 113.271 390.753 114.158 390.753 115.214C390.753 116.241 391.09 117.121 391.765 117.854C392.439 118.587 393.283 118.954 394.295 118.954ZM403.188 121V109.384H405.828L409.458 114.774L413.11 109.384H415.75V121H413.066V113.256L409.414 118.47L405.784 113.3V121H403.188ZM419.086 121V109.384H421.748V114.092H426.874V109.384H429.536V121H426.874V116.314H421.748V121H419.086ZM442.625 121H439.985V119.57C439.046 120.685 437.792 121.242 436.223 121.242C435.064 121.242 434.082 120.927 433.275 120.296C432.483 119.651 432.087 118.756 432.087 117.612C432.087 116.365 432.52 115.419 433.385 114.774C434.25 114.129 435.387 113.806 436.795 113.806C437.924 113.806 438.995 113.967 440.007 114.29V114.07C440.007 113.263 439.758 112.647 439.259 112.222C438.775 111.797 438.071 111.584 437.147 111.584C436.091 111.584 434.984 111.826 433.825 112.31L433.099 110.176C434.536 109.531 436.01 109.208 437.521 109.208C439.208 109.208 440.476 109.633 441.327 110.484C442.192 111.335 442.625 112.545 442.625 114.114V121ZM440.051 116.798V116.138C439.259 115.83 438.372 115.676 437.389 115.676C436.553 115.676 435.9 115.837 435.431 116.16C434.962 116.483 434.727 116.937 434.727 117.524C434.727 118.052 434.94 118.47 435.365 118.778C435.79 119.086 436.326 119.24 436.971 119.24C437.866 119.24 438.599 119.013 439.171 118.558C439.758 118.103 440.051 117.517 440.051 116.798ZM448.277 121V111.672H444.537V109.384H454.701V111.672H450.961V121H448.277ZM456.813 121V109.384H459.475V114.092H464.601V109.384H467.263V121H464.601V116.314H459.475V121H456.813ZM480.352 121H477.712V119.57C476.773 120.685 475.519 121.242 473.95 121.242C472.791 121.242 471.808 120.927 471.002 120.296C470.21 119.651 469.814 118.756 469.814 117.612C469.814 116.365 470.246 115.419 471.112 114.774C471.977 114.129 473.114 113.806 474.522 113.806C475.651 113.806 476.722 113.967 477.734 114.29V114.07C477.734 113.263 477.484 112.647 476.986 112.222C476.502 111.797 475.798 111.584 474.874 111.584C473.818 111.584 472.71 111.826 471.552 112.31L470.826 110.176C472.263 109.531 473.737 109.208 475.248 109.208C476.934 109.208 478.203 109.633 479.054 110.484C479.919 111.335 480.352 112.545 480.352 114.114V121ZM477.778 116.798V116.138C476.986 115.83 476.098 115.676 475.116 115.676C474.28 115.676 473.627 115.837 473.158 116.16C472.688 116.483 472.454 116.937 472.454 117.524C472.454 118.052 472.666 118.47 473.092 118.778C473.517 119.086 474.052 119.24 474.698 119.24C475.592 119.24 476.326 119.013 476.898 118.558C477.484 118.103 477.778 117.517 477.778 116.798ZM482.462 121L485.674 116.644C484.852 116.395 484.192 115.977 483.694 115.39C483.21 114.789 482.968 114.048 482.968 113.168C482.968 112.024 483.371 111.107 484.178 110.418C484.984 109.729 486.106 109.384 487.544 109.384H493.374V121H490.712V117.084H488.336L485.586 121H482.462ZM487.918 115.082H490.712V111.54H487.896C487.192 111.54 486.634 111.701 486.224 112.024C485.828 112.332 485.63 112.757 485.63 113.3C485.63 113.857 485.835 114.297 486.246 114.62C486.671 114.928 487.228 115.082 487.918 115.082ZM503.349 121V105.6H505.923L512.831 116.16V105.6H515.581V121H513.227L506.099 110.176V121H503.349ZM517.429 117.92V116.248H523.171V117.92H517.429ZM522.621 114.004C522.005 114.635 521.235 114.95 520.311 114.95C519.387 114.95 518.617 114.642 518.001 114.026C517.399 113.395 517.099 112.625 517.099 111.716C517.099 110.807 517.407 110.037 518.023 109.406C518.639 108.775 519.409 108.46 520.333 108.46C521.257 108.46 522.019 108.775 522.621 109.406C523.237 110.022 523.545 110.785 523.545 111.694C523.545 112.603 523.237 113.373 522.621 114.004ZM519.211 112.97C519.504 113.307 519.878 113.476 520.333 113.476C520.787 113.476 521.154 113.307 521.433 112.97C521.711 112.633 521.851 112.215 521.851 111.716C521.851 111.217 521.704 110.799 521.411 110.462C521.117 110.125 520.751 109.956 520.311 109.956C519.841 109.956 519.467 110.125 519.189 110.462C518.91 110.799 518.771 111.217 518.771 111.716C518.771 112.2 518.917 112.618 519.211 112.97ZM532.424 121V118.866L537.726 114.356C538.811 113.447 539.559 112.699 539.97 112.112C540.395 111.511 540.608 110.873 540.608 110.198C540.608 109.465 540.373 108.885 539.904 108.46C539.434 108.02 538.84 107.8 538.122 107.8C537.447 107.8 536.838 107.983 536.296 108.35C535.768 108.717 535.188 109.303 534.558 110.11L532.644 108.614C533.436 107.499 534.25 106.685 535.086 106.172C535.936 105.644 537.014 105.38 538.32 105.38C539.83 105.38 541.055 105.805 541.994 106.656C542.932 107.507 543.402 108.629 543.402 110.022C543.402 110.623 543.328 111.166 543.182 111.65C543.035 112.119 542.771 112.603 542.39 113.102C542.023 113.586 541.62 114.033 541.18 114.444C540.754 114.84 540.16 115.353 539.398 115.984L536.23 118.624H543.556V121H532.424ZM547.17 121L554.078 107.976H546.334V105.6H557.158V107.646L550.206 121H547.17Z" fill="#3A3A3A"/>
<path fill-rule="evenodd" clip-rule="evenodd" d="M145.072 208.523L146.712 210.163C146.785 210.236 146.8 210.349 146.749 210.438L146 211.749C145.925 211.88 145.746 211.904 145.639 211.797L143.437 209.595C143.331 209.489 143.355 209.31 143.486 209.235L144.796 208.486C144.886 208.435 144.999 208.45 145.072 208.523ZM146.874 210.001C147.02 210.147 147.05 210.373 146.948 210.552L146.199 211.862C146.049 212.125 145.691 212.172 145.478 211.959L143.276 209.757C143.062 209.544 143.11 209.186 143.372 209.036L144.683 208.287C144.862 208.185 145.088 208.215 145.234 208.361L146.874 210.001Z" fill="#606066"/>
<path fill-rule="evenodd" clip-rule="evenodd" d="M146.93 210.039L145.196 208.304C145.135 208.243 145.113 208.152 145.141 208.07L145.274 207.669C145.328 207.507 145.533 207.459 145.653 207.579L147.655 209.581C147.776 209.702 147.727 209.907 147.566 209.96L147.165 210.094C147.082 210.122 146.992 210.1 146.93 210.039ZM145.034 208.466C144.911 208.344 144.869 208.162 144.923 207.998L145.057 207.596C145.165 207.274 145.574 207.177 145.815 207.418L147.817 209.42C148.058 209.66 147.961 210.07 147.638 210.177L147.237 210.311C147.072 210.366 146.891 210.323 146.769 210.201L145.034 208.466Z" fill="#606066"/>
<path fill-rule="evenodd" clip-rule="evenodd" d="M144.661 208.165L143.565 208.667C143.523 208.686 143.473 208.68 143.436 208.651C143.365 208.593 143.379 208.48 143.462 208.442L144.558 207.94C144.642 207.902 144.736 207.965 144.733 208.056C144.732 208.103 144.704 208.145 144.661 208.165ZM143.661 208.875C143.539 208.93 143.397 208.913 143.293 208.829C143.089 208.665 143.129 208.343 143.367 208.234L144.463 207.732C144.701 207.623 144.971 207.802 144.962 208.064C144.957 208.197 144.878 208.317 144.756 208.373L143.661 208.875Z" fill="#606066"/>
<path fill-rule="evenodd" clip-rule="evenodd" d="M147.057 210.576L146.586 211.57C146.557 211.632 146.57 211.705 146.618 211.753C146.7 211.835 146.838 211.807 146.882 211.7L147.297 210.681C147.332 210.595 147.268 210.501 147.176 210.501C147.125 210.501 147.079 210.53 147.057 210.576ZM146.38 211.472C146.309 211.621 146.34 211.799 146.456 211.915C146.654 212.112 146.988 212.045 147.093 211.786L147.509 210.768C147.605 210.531 147.431 210.272 147.176 210.272C147.037 210.272 146.91 210.352 146.851 210.478L146.38 211.472Z" fill="#606066"/>
<path d="M145 212.287C144.953 212.205 144.968 212.102 145.036 212.036L145.27 211.81C145.329 211.753 145.417 211.74 145.491 211.777C145.605 211.834 145.634 211.983 145.549 212.078L145.333 212.321C145.24 212.427 145.071 212.409 145 212.287Z" fill="#606066"/>
<path fill-rule="evenodd" clip-rule="evenodd" d="M145.036 212.036C144.968 212.102 144.953 212.205 145 212.287C145.071 212.409 145.24 212.427 145.333 212.321L145.549 212.078C145.634 211.983 145.605 211.834 145.491 211.777C145.417 211.74 145.329 211.753 145.27 211.81L145.036 212.036Z" fill="#606066"/>
<path d="M143.015 210.306C142.968 210.224 142.983 210.12 143.051 210.055L143.284 209.829C143.344 209.772 143.432 209.758 143.506 209.795C143.62 209.852 143.648 210.002 143.564 210.097L143.348 210.34C143.254 210.445 143.085 210.428 143.015 210.306Z" fill="#606066"/>
<path fill-rule="evenodd" clip-rule="evenodd" d="M143.051 210.055C142.983 210.12 142.968 210.224 143.015 210.306C143.085 210.428 143.254 210.445 143.348 210.34L143.564 210.097C143.648 210.002 143.62 209.852 143.506 209.795C143.432 209.758 143.344 209.772 143.284 209.829L143.051 210.055Z" fill="#606066"/>
<path fill-rule="evenodd" clip-rule="evenodd" d="M145.07 218.018L146.71 216.378C146.783 216.305 146.798 216.192 146.747 216.103L145.998 214.792C145.923 214.661 145.744 214.637 145.637 214.744L143.435 216.946C143.329 217.052 143.353 217.231 143.484 217.306L144.795 218.055C144.884 218.106 144.997 218.091 145.07 218.018ZM146.872 216.54C147.018 216.394 147.048 216.168 146.946 215.989L146.197 214.679C146.047 214.417 145.689 214.369 145.476 214.582L143.274 216.784C143.06 216.997 143.108 217.355 143.37 217.505L144.681 218.254C144.86 218.356 145.086 218.326 145.232 218.18L146.872 216.54Z" fill="#606066"/>
<path fill-rule="evenodd" clip-rule="evenodd" d="M146.929 216.502L145.195 218.236C145.134 218.298 145.112 218.388 145.14 218.471L145.273 218.872C145.327 219.033 145.532 219.082 145.652 218.961L147.654 216.959C147.775 216.839 147.726 216.634 147.565 216.58L147.164 216.447C147.081 216.419 146.991 216.441 146.929 216.502ZM145.033 218.075C144.91 218.197 144.868 218.379 144.922 218.543L145.056 218.944C145.164 219.267 145.573 219.364 145.814 219.123L147.816 217.121C148.057 216.881 147.96 216.471 147.637 216.363L147.236 216.23C147.071 216.175 146.89 216.218 146.768 216.34L145.033 218.075Z" fill="#606066"/>
<path fill-rule="evenodd" clip-rule="evenodd" d="M144.661 218.377L143.565 217.875C143.523 217.855 143.473 217.862 143.436 217.891C143.365 217.948 143.379 218.061 143.462 218.099L144.558 218.601C144.642 218.64 144.736 218.577 144.733 218.485C144.732 218.438 144.704 218.396 144.661 218.377ZM143.661 217.667C143.539 217.611 143.397 217.629 143.293 217.713C143.089 217.877 143.129 218.198 143.367 218.307L144.463 218.81C144.701 218.919 144.971 218.739 144.962 218.478C144.957 218.344 144.878 218.225 144.756 218.169L143.661 217.667Z" fill="#606066"/>
<path fill-rule="evenodd" clip-rule="evenodd" d="M147.059 215.966L146.588 214.971C146.559 214.91 146.572 214.837 146.62 214.788C146.702 214.707 146.84 214.735 146.883 214.842L147.299 215.861C147.334 215.947 147.27 216.041 147.178 216.041C147.127 216.041 147.081 216.011 147.059 215.966ZM146.382 215.069C146.311 214.92 146.342 214.743 146.458 214.627C146.656 214.429 146.99 214.497 147.095 214.755L147.511 215.774C147.607 216.011 147.433 216.269 147.178 216.269C147.039 216.269 146.912 216.189 146.853 216.064L146.382 215.069Z" fill="#606066"/>
<path d="M145 214.254C144.953 214.336 144.967 214.439 145.035 214.504L145.269 214.73C145.328 214.787 145.416 214.801 145.49 214.764C145.604 214.707 145.633 214.558 145.548 214.462L145.332 214.219C145.239 214.114 145.07 214.132 145 214.254Z" fill="#606066"/>
<path fill-rule="evenodd" clip-rule="evenodd" d="M145.035 214.504C144.967 214.439 144.953 214.336 145 214.254C145.07 214.132 145.239 214.114 145.332 214.219L145.548 214.462C145.633 214.558 145.604 214.707 145.49 214.764C145.416 214.801 145.328 214.787 145.269 214.73L145.035 214.504Z" fill="#606066"/>
<path d="M143.013 216.236C142.966 216.318 142.981 216.421 143.049 216.487L143.283 216.712C143.342 216.769 143.43 216.783 143.504 216.746C143.618 216.689 143.646 216.54 143.562 216.445L143.346 216.202C143.252 216.096 143.083 216.114 143.013 216.236Z" fill="#606066"/>
<path fill-rule="evenodd" clip-rule="evenodd" d="M143.049 216.487C142.981 216.421 142.966 216.318 143.013 216.236C143.083 216.114 143.252 216.096 143.346 216.202L143.562 216.445C143.646 216.54 143.618 216.689 143.504 216.746C143.43 216.783 143.342 216.769 143.283 216.712L143.049 216.487Z" fill="#606066"/>
<path fill-rule="evenodd" clip-rule="evenodd" d="M137.988 208.522L136.348 210.162C136.275 210.235 136.259 210.348 136.311 210.438L137.06 211.748C137.135 211.879 137.314 211.903 137.42 211.797L139.622 209.595C139.729 209.488 139.705 209.309 139.574 209.234L138.263 208.485C138.173 208.434 138.061 208.449 137.988 208.522ZM136.186 210.001C136.04 210.146 136.01 210.372 136.112 210.551L136.861 211.862C137.011 212.124 137.369 212.172 137.582 211.959L139.784 209.757C139.997 209.543 139.949 209.185 139.687 209.036L138.377 208.287C138.197 208.184 137.972 208.214 137.826 208.36L136.186 210.001Z" fill="#606066"/>
<path fill-rule="evenodd" clip-rule="evenodd" d="M136.127 210.039L137.862 208.304C137.923 208.243 137.944 208.152 137.917 208.07L137.783 207.669C137.73 207.507 137.525 207.459 137.404 207.579L135.402 209.581C135.282 209.701 135.33 209.906 135.492 209.96L135.893 210.094C135.975 210.121 136.066 210.1 136.127 210.039ZM138.024 208.466C138.146 208.343 138.189 208.162 138.134 207.998L138 207.596C137.893 207.273 137.483 207.177 137.243 207.417L135.241 209.419C135 209.66 135.097 210.07 135.419 210.177L135.821 210.311C135.985 210.366 136.167 210.323 136.289 210.2L138.024 208.466Z" fill="#606066"/>
<path fill-rule="evenodd" clip-rule="evenodd" d="M138.396 208.164L139.492 208.666C139.535 208.686 139.585 208.679 139.621 208.65C139.693 208.593 139.679 208.48 139.595 208.442L138.499 207.94C138.416 207.901 138.321 207.964 138.325 208.056C138.326 208.103 138.354 208.145 138.396 208.164ZM139.397 208.874C139.518 208.93 139.661 208.912 139.765 208.828C139.969 208.664 139.929 208.343 139.691 208.234L138.595 207.731C138.357 207.622 138.087 207.802 138.096 208.063C138.1 208.197 138.18 208.316 138.301 208.372L139.397 208.874Z" fill="#606066"/>
<path fill-rule="evenodd" clip-rule="evenodd" d="M135.998 210.575L136.469 211.57C136.498 211.631 136.486 211.704 136.438 211.753C136.356 211.834 136.218 211.806 136.174 211.699L135.759 210.68C135.724 210.595 135.787 210.5 135.88 210.5C135.931 210.5 135.977 210.53 135.998 210.575ZM136.676 211.472C136.747 211.621 136.716 211.798 136.599 211.914C136.402 212.112 136.067 212.044 135.962 211.786L135.547 210.767C135.451 210.53 135.625 210.272 135.88 210.272C136.019 210.272 136.146 210.352 136.205 210.477L136.676 211.472Z" fill="#606066"/>
<path d="M138.056 212.287C138.103 212.205 138.089 212.102 138.021 212.036L137.787 211.81C137.728 211.753 137.639 211.74 137.566 211.776C137.452 211.833 137.423 211.983 137.508 212.078L137.724 212.321C137.817 212.426 137.986 212.409 138.056 212.287Z" fill="#606066"/>
<path fill-rule="evenodd" clip-rule="evenodd" d="M138.021 212.036C138.089 212.102 138.103 212.205 138.056 212.287C137.986 212.409 137.817 212.426 137.724 212.321L137.508 212.078C137.423 211.983 137.452 211.833 137.566 211.776C137.639 211.74 137.728 211.753 137.787 211.81L138.021 212.036Z" fill="#606066"/>
<path d="M140.044 210.305C140.091 210.223 140.077 210.12 140.009 210.054L139.775 209.829C139.716 209.772 139.627 209.758 139.554 209.795C139.44 209.852 139.411 210.001 139.496 210.096L139.712 210.339C139.805 210.445 139.974 210.427 140.044 210.305Z" fill="#606066"/>
<path fill-rule="evenodd" clip-rule="evenodd" d="M140.009 210.054C140.077 210.12 140.091 210.223 140.044 210.305C139.974 210.427 139.805 210.445 139.712 210.339L139.496 210.096C139.411 210.001 139.44 209.852 139.554 209.795C139.627 209.758 139.716 209.772 139.775 209.829L140.009 210.054Z" fill="#606066"/>
<path fill-rule="evenodd" clip-rule="evenodd" d="M137.986 218.019L136.346 216.379C136.273 216.306 136.258 216.193 136.309 216.104L137.058 214.793C137.133 214.662 137.312 214.638 137.418 214.745L139.62 216.946C139.727 217.053 139.703 217.232 139.572 217.307L138.261 218.056C138.172 218.107 138.059 218.092 137.986 218.019ZM136.184 216.541C136.038 216.395 136.008 216.169 136.11 215.99L136.859 214.679C137.009 214.417 137.367 214.369 137.58 214.583L139.782 216.785C139.995 216.998 139.947 217.356 139.685 217.506L138.375 218.255C138.195 218.357 137.97 218.327 137.824 218.181L136.184 216.541Z" fill="#606066"/>
<path fill-rule="evenodd" clip-rule="evenodd" d="M136.127 216.503L137.862 218.237C137.923 218.299 137.944 218.389 137.917 218.472L137.783 218.873C137.73 219.034 137.525 219.083 137.404 218.962L135.402 216.96C135.282 216.84 135.33 216.635 135.492 216.581L135.893 216.448C135.975 216.42 136.066 216.442 136.127 216.503ZM138.024 218.076C138.146 218.198 138.189 218.38 138.134 218.544L138 218.945C137.893 219.268 137.483 219.365 137.243 219.124L135.241 217.122C135 216.882 135.097 216.472 135.419 216.364L135.821 216.231C135.985 216.176 136.167 216.219 136.289 216.341L138.024 218.076Z" fill="#606066"/>
<path fill-rule="evenodd" clip-rule="evenodd" d="M138.396 218.377L139.492 217.875C139.535 217.856 139.585 217.862 139.621 217.891C139.693 217.949 139.679 218.061 139.595 218.1L138.499 218.602C138.416 218.64 138.321 218.577 138.325 218.485C138.326 218.439 138.354 218.397 138.396 218.377ZM139.397 217.667C139.518 217.611 139.661 217.629 139.765 217.713C139.969 217.877 139.929 218.199 139.691 218.308L138.595 218.81C138.357 218.919 138.087 218.739 138.096 218.478C138.1 218.344 138.18 218.225 138.301 218.169L139.397 217.667Z" fill="#606066"/>
<path fill-rule="evenodd" clip-rule="evenodd" d="M136 215.966L136.471 214.971C136.5 214.91 136.488 214.837 136.439 214.788C136.358 214.707 136.22 214.735 136.176 214.842L135.761 215.861C135.726 215.947 135.789 216.041 135.882 216.041C135.933 216.041 135.979 216.011 136 215.966ZM136.678 215.069C136.749 214.92 136.718 214.743 136.601 214.627C136.404 214.429 136.069 214.497 135.964 214.755L135.549 215.774C135.453 216.011 135.627 216.269 135.882 216.269C136.021 216.269 136.148 216.189 136.207 216.064L136.678 215.069Z" fill="#606066"/>
<path d="M138.056 214.255C138.103 214.337 138.089 214.44 138.021 214.505L137.787 214.731C137.728 214.788 137.639 214.802 137.566 214.765C137.452 214.708 137.423 214.559 137.508 214.463L137.724 214.22C137.817 214.115 137.986 214.133 138.056 214.255Z" fill="#606066"/>
<path fill-rule="evenodd" clip-rule="evenodd" d="M138.021 214.505C138.089 214.44 138.103 214.337 138.056 214.255C137.986 214.133 137.817 214.115 137.724 214.22L137.508 214.463C137.423 214.559 137.452 214.708 137.566 214.765C137.639 214.802 137.728 214.788 137.787 214.731L138.021 214.505Z" fill="#606066"/>
<path d="M140.042 216.236C140.089 216.318 140.075 216.421 140.007 216.487L139.773 216.713C139.714 216.77 139.626 216.783 139.552 216.747C139.438 216.69 139.409 216.54 139.494 216.445L139.71 216.202C139.803 216.097 139.972 216.114 140.042 216.236Z" fill="#606066"/>
<path fill-rule="evenodd" clip-rule="evenodd" d="M140.007 216.487C140.075 216.421 140.089 216.318 140.042 216.236C139.972 216.114 139.803 216.097 139.71 216.202L139.494 216.445C139.409 216.54 139.438 216.69 139.552 216.747C139.626 216.783 139.714 216.77 139.773 216.713L140.007 216.487Z" fill="#606066"/>
<path d="M136.904 213.461C136.904 215.994 139.013 218.047 141.614 218.047C144.215 218.047 146.323 215.994 146.323 213.461C146.323 210.928 144.215 208.875 141.614 208.875C139.013 208.875 136.904 210.928 136.904 213.461Z" fill="white"/>
<path fill-rule="evenodd" clip-rule="evenodd" d="M141.614 217.818C139.133 217.818 137.133 215.861 137.133 213.461C137.133 211.06 139.133 209.104 141.614 209.104C144.094 209.104 146.094 211.06 146.094 213.461C146.094 215.861 144.094 217.818 141.614 217.818ZM141.614 218.047C139.013 218.047 136.904 215.994 136.904 213.461C136.904 210.928 139.013 208.875 141.614 208.875C144.215 208.875 146.323 210.928 146.323 213.461C146.323 215.994 144.215 218.047 141.614 218.047Z" fill="#606066"/>
<path fill-rule="evenodd" clip-rule="evenodd" d="M177.438 259.965L180.285 255.813L175.189 252.319L172.342 256.471L177.438 259.965ZM180.474 255.942C180.546 255.838 180.519 255.696 180.415 255.624L175.319 252.13C175.215 252.059 175.072 252.085 175.001 252.189L172.024 256.53L177.498 260.283L180.474 255.942Z" fill="#606066"/>
<path fill-rule="evenodd" clip-rule="evenodd" d="M177.574 258.951L179.645 255.931L175.304 252.955L173.233 255.975L177.574 258.951ZM179.833 256.061C179.905 255.957 179.878 255.814 179.774 255.743L175.433 252.766C175.329 252.695 175.186 252.721 175.115 252.825L173.044 255.845C172.973 255.949 172.999 256.092 173.104 256.163L177.445 259.14C177.549 259.211 177.691 259.185 177.763 259.081L179.833 256.061Z" fill="#606066"/>
<path d="M176.209 256.902L175.691 257.657L175.125 257.269L175.643 256.514L176.209 256.902Z" fill="#606066"/>
<path fill-rule="evenodd" clip-rule="evenodd" d="M175.735 258.8L176.123 258.234L174.236 256.939L173.847 257.506L175.735 258.8ZM175.298 258.223L175.427 258.034L174.861 257.646L174.732 257.835L175.298 258.223Z" fill="#606066"/>
<path fill-rule="evenodd" clip-rule="evenodd" d="M184.957 265.093L195.401 249.444L188.736 244.995L178.291 260.644L184.957 265.093ZM195.592 249.571C195.662 249.466 195.634 249.323 195.528 249.253L188.863 244.805C188.758 244.735 188.616 244.763 188.546 244.868L177.974 260.708L185.02 265.41L195.592 249.571Z" fill="#606066"/>
<path fill-rule="evenodd" clip-rule="evenodd" d="M185.153 263.654L192.761 252.255C193.603 250.994 193.263 249.288 192.001 248.447L190.785 247.635C189.523 246.793 187.818 247.133 186.976 248.394L179.368 259.793C179.228 260.004 179.285 260.288 179.495 260.428L184.518 263.781C184.728 263.921 185.012 263.864 185.153 263.654ZM192.951 252.382C193.863 251.016 193.495 249.168 192.128 248.256L190.912 247.444C189.545 246.532 187.698 246.901 186.786 248.267L179.178 259.666C178.967 259.982 179.052 260.408 179.368 260.619L184.391 263.971C184.706 264.182 185.133 264.097 185.343 263.781L192.951 252.382Z" fill="#606066"/>
<path d="M183.173 260.868C183.383 261.008 183.44 261.292 183.3 261.503L183.102 261.798C182.962 262.008 182.678 262.065 182.468 261.925L182.172 261.727C181.962 261.587 181.905 261.303 182.045 261.093L182.243 260.797C182.383 260.587 182.667 260.53 182.877 260.671L183.173 260.868Z" fill="#606066"/>
<path d="M182.673 261.297C182.771 261.362 182.797 261.493 182.732 261.59C182.667 261.688 182.536 261.714 182.438 261.649C182.341 261.584 182.315 261.453 182.38 261.355C182.445 261.258 182.576 261.232 182.673 261.297Z" fill="white"/>
<path fill-rule="evenodd" clip-rule="evenodd" d="M190.198 254.612C190.198 254.612 190.198 254.612 190.104 254.546L190.01 254.481L190.012 254.478L190.018 254.47C190.023 254.463 190.03 254.452 190.04 254.438C190.059 254.409 190.088 254.367 190.124 254.314C190.196 254.206 190.297 254.051 190.415 253.863C190.65 253.486 190.951 252.976 191.214 252.441C191.477 251.904 191.697 251.351 191.777 250.885C191.858 250.412 191.788 250.079 191.541 249.914L189.603 248.621C189.518 248.564 189.406 248.551 189.259 248.59C189.11 248.63 188.936 248.722 188.745 248.856C188.363 249.123 187.938 249.543 187.537 249.989C187.138 250.433 186.768 250.898 186.497 251.253C186.362 251.43 186.252 251.579 186.176 251.684C186.138 251.737 186.108 251.778 186.088 251.806C186.078 251.82 186.071 251.831 186.066 251.838L186.06 251.847L186.058 251.849L186.058 251.849C186.058 251.849 186.058 251.849 185.964 251.784C185.871 251.718 185.871 251.718 185.871 251.718L185.873 251.715L185.879 251.706C185.884 251.699 185.892 251.688 185.902 251.674C185.922 251.645 185.952 251.603 185.991 251.55C186.068 251.444 186.179 251.293 186.315 251.114C186.588 250.757 186.962 250.286 187.367 249.836C187.771 249.386 188.21 248.951 188.614 248.668C188.815 248.527 189.014 248.419 189.2 248.369C189.387 248.319 189.573 248.325 189.73 248.43L191.668 249.724C192.037 249.97 192.087 250.434 192.003 250.924C191.917 251.422 191.685 251.999 191.419 252.542C191.152 253.086 190.847 253.603 190.609 253.984C190.49 254.175 190.387 254.331 190.314 254.441C190.278 254.495 190.249 254.538 190.229 254.567C190.219 254.582 190.211 254.593 190.206 254.6L190.2 254.609L190.198 254.612Z" fill="#606066"/>
<path fill-rule="evenodd" clip-rule="evenodd" d="M169.838 254.896L170.46 253.936C170.529 253.83 170.499 253.688 170.393 253.619L167.513 251.751C167.407 251.682 167.265 251.712 167.197 251.818L166.574 252.778C166.505 252.884 166.535 253.026 166.641 253.095L169.521 254.963C169.627 255.032 169.769 255.002 169.838 254.896ZM170.652 254.06C170.79 253.848 170.729 253.565 170.517 253.427L167.638 251.559C167.426 251.421 167.142 251.482 167.005 251.694L166.382 252.654C166.244 252.866 166.305 253.149 166.517 253.287L169.396 255.155C169.608 255.293 169.892 255.232 170.029 255.02L170.652 254.06Z" fill="#606066"/>
<path d="M168.423 253.707C168.21 253.57 168.15 253.286 168.288 253.074C168.425 252.862 168.709 252.802 168.921 252.939C169.133 253.077 169.193 253.36 169.056 253.572C168.918 253.784 168.635 253.845 168.423 253.707Z" fill="#606066"/>
<path fill-rule="evenodd" clip-rule="evenodd" d="M172.778 246.575C173.977 247.353 174.228 248.966 173.457 250.153C172.854 251.082 172.134 251.656 171.54 252.124L171.515 252.144C171.227 252.371 170.974 252.57 170.776 252.774C170.572 252.983 170.433 253.191 170.371 253.427L170.331 253.581L167.491 251.738L167.585 251.638C168 251.199 168.176 250.531 168.367 249.759C168.372 249.736 168.378 249.712 168.384 249.689C168.567 248.947 168.769 248.129 169.234 247.413C170.004 246.225 171.579 245.797 172.778 246.575ZM173.265 250.028C173.974 248.935 173.735 247.469 172.653 246.767C171.572 246.065 170.135 246.444 169.426 247.537C168.982 248.221 168.788 249.006 168.603 249.756C168.598 249.776 168.594 249.795 168.589 249.814C168.415 250.52 168.24 251.205 167.842 251.693L170.198 253.221C170.286 252.996 170.431 252.8 170.612 252.615C170.821 252.399 171.084 252.192 171.367 251.969C171.378 251.961 171.388 251.953 171.399 251.944C171.991 251.477 172.685 250.923 173.265 250.028Z" fill="#606066"/>
<path fill-rule="evenodd" clip-rule="evenodd" d="M169.621 248.075C168.949 249.111 169.152 250.363 169.973 250.896C170.795 251.429 172.02 251.104 172.693 250.068C173.365 249.032 173.162 247.781 172.34 247.248C171.518 246.715 170.293 247.039 169.621 248.075ZM169.429 247.951C168.707 249.064 168.895 250.469 169.849 251.088C170.803 251.707 172.162 251.306 172.885 250.193C173.607 249.08 173.419 247.675 172.465 247.056C171.51 246.437 170.151 246.838 169.429 247.951Z" fill="#606066"/>
<path fill-rule="evenodd" clip-rule="evenodd" d="M170.779 249.235C170.62 249.481 170.69 249.723 170.818 249.806C170.946 249.889 171.195 249.855 171.355 249.609C171.515 249.362 171.444 249.121 171.316 249.038C171.189 248.955 170.939 248.989 170.779 249.235ZM170.587 249.11C170.381 249.428 170.429 249.826 170.694 249.998C170.959 250.17 171.341 250.051 171.547 249.733C171.754 249.415 171.706 249.018 171.441 248.846C171.176 248.674 170.794 248.792 170.587 249.11Z" fill="#606066"/>
<path fill-rule="evenodd" clip-rule="evenodd" d="M167.46 237.925L162.75 234.678L156.386 243.911L161.096 247.158L167.46 237.925ZM162.88 234.49C162.776 234.418 162.633 234.444 162.562 234.548L156.197 243.781C156.125 243.885 156.152 244.027 156.256 244.099L160.966 247.346C161.07 247.418 161.213 247.392 161.284 247.288L167.649 238.055C167.72 237.951 167.694 237.809 167.59 237.737L162.88 234.49Z" fill="#606066"/>
<path fill-rule="evenodd" clip-rule="evenodd" d="M166.323 237.971L162.932 235.633L160.334 239.402L163.725 241.739L166.323 237.971ZM163.061 235.445C162.957 235.373 162.815 235.399 162.743 235.503L160.145 239.272C160.074 239.376 160.1 239.518 160.204 239.59L163.595 241.928C163.7 242 163.842 241.973 163.914 241.869L166.511 238.101C166.583 237.997 166.557 237.855 166.453 237.783L163.061 235.445Z" fill="#606066"/>
<path d="M163.33 240.413L163.303 240.418C163.179 240.441 163.096 240.56 163.119 240.684L163.446 242.462C163.469 242.586 163.588 242.669 163.713 242.646L163.74 242.641C163.864 242.618 163.946 242.499 163.924 242.374L163.597 240.596C163.574 240.472 163.454 240.39 163.33 240.413Z" fill="#606066"/>
<path d="M159.493 240.213L159.682 240.343L157.603 243.358L157.415 243.228L159.493 240.213Z" fill="#606066"/>
<path d="M159.869 240.473L160.058 240.603L157.979 243.618L157.791 243.488L159.869 240.473Z" fill="#606066"/>
<path d="M160.249 240.733L160.437 240.863L158.099 244.255L157.911 244.125L160.249 240.733Z" fill="#606066"/>
<path d="M160.628 240.993L160.816 241.123L158.478 244.515L158.29 244.385L160.628 240.993Z" fill="#606066"/>
<path d="M161.001 241.253L161.189 241.383L158.851 244.774L158.663 244.644L161.001 241.253Z" fill="#606066"/>
<path d="M161.382 241.513L161.57 241.643L159.232 245.034L159.044 244.904L161.382 241.513Z" fill="#606066"/>
<path d="M161.756 241.772L161.944 241.902L159.606 245.294L159.418 245.164L161.756 241.772Z" fill="#606066"/>
<path d="M162.13 242.032L162.318 242.162L159.98 245.554L159.792 245.424L162.13 242.032Z" fill="#606066"/>
<path d="M162.506 242.292L162.694 242.422L160.356 245.813L160.168 245.683L162.506 242.292Z" fill="#606066"/>
<path d="M162.888 242.552L163.076 242.682L160.998 245.697L160.81 245.567L162.888 242.552Z" fill="#606066"/>
<path d="M163.266 242.811L163.454 242.941L161.376 245.956L161.187 245.826L163.266 242.811Z" fill="#606066"/>
<path fill-rule="evenodd" clip-rule="evenodd" d="M135.039 233.493L141.004 237.334L145.092 230.984L139.128 227.144L135.039 233.493ZM141.072 237.65L145.409 230.916L139.059 226.827L134.723 233.562L141.072 237.65Z" fill="#606066"/>
<path d="M138.113 235.475L137.921 235.351L142.133 228.809L142.326 228.933L138.113 235.475Z" fill="#606066"/>
<path d="M142.98 234.255L137.016 230.415L137.14 230.222L143.104 234.063L142.98 234.255Z" fill="#606066"/>
<path fill-rule="evenodd" clip-rule="evenodd" d="M140.193 232.324L141.111 237.313L140.886 237.355L139.97 232.379L135.062 233.604L135.006 233.382L139.929 232.154L139.01 227.165L139.235 227.123L140.151 232.098L145.059 230.874L145.115 231.096L140.193 232.324Z" fill="#606066"/>
<path fill-rule="evenodd" clip-rule="evenodd" d="M138.085 235.365L142.953 234.145L143.009 234.367L138.14 235.587L138.085 235.365ZM137.129 230.394L138.033 235.331L137.807 235.372L136.904 230.435L137.129 230.394ZM142.313 229.106L143.217 234.043L142.992 234.084L142.088 229.147L142.313 229.106ZM137.112 230.111L141.981 228.891L142.036 229.113L137.168 230.333L137.112 230.111Z" fill="#606066"/>
<path fill-rule="evenodd" clip-rule="evenodd" d="M141.17 233.904C140.692 233.596 140.055 233.734 139.747 234.212C139.439 234.69 139.577 235.327 140.055 235.635C140.533 235.943 141.17 235.805 141.478 235.327C141.786 234.849 141.648 234.211 141.17 233.904ZM141.294 233.711C140.709 233.335 139.931 233.504 139.554 234.088C139.178 234.672 139.347 235.451 139.931 235.828C140.515 236.204 141.294 236.035 141.671 235.451C142.047 234.866 141.878 234.087 141.294 233.711Z" fill="#606066"/>
<path fill-rule="evenodd" clip-rule="evenodd" d="M139.881 228.718C139.403 228.41 138.765 228.548 138.458 229.027C138.15 229.505 138.288 230.142 138.766 230.45C139.244 230.758 139.881 230.62 140.189 230.142C140.497 229.663 140.359 229.026 139.881 228.718ZM140.005 228.526C139.42 228.149 138.641 228.318 138.265 228.903C137.889 229.487 138.057 230.266 138.642 230.642C139.226 231.019 140.005 230.85 140.382 230.265C140.758 229.681 140.589 228.902 140.005 228.526Z" fill="#606066"/>
<path fill-rule="evenodd" clip-rule="evenodd" d="M137.75 232.244C137.431 232.038 137.006 232.13 136.801 232.449C136.596 232.768 136.688 233.193 137.007 233.398C137.325 233.603 137.75 233.511 137.956 233.193C138.161 232.874 138.069 232.449 137.75 232.244ZM137.874 232.051C137.449 231.778 136.882 231.9 136.609 232.325C136.335 232.75 136.458 233.317 136.883 233.591C137.308 233.864 137.874 233.742 138.148 233.317C138.422 232.891 138.299 232.325 137.874 232.051Z" fill="#606066"/>
<path fill-rule="evenodd" clip-rule="evenodd" d="M143.124 231.079C142.805 230.874 142.38 230.966 142.175 231.285C141.97 231.604 142.062 232.028 142.381 232.234C142.699 232.439 143.124 232.347 143.33 232.028C143.535 231.709 143.443 231.284 143.124 231.079ZM143.248 230.887C142.823 230.613 142.256 230.736 141.983 231.161C141.709 231.586 141.832 232.152 142.257 232.426C142.682 232.7 143.248 232.577 143.522 232.152C143.796 231.727 143.673 231.16 143.248 230.887Z" fill="#606066"/>
<path fill-rule="evenodd" clip-rule="evenodd" d="M222.634 191.692L231.387 196.442L231.277 196.644L222.499 191.879C222.31 192.149 222.152 192.42 222.013 192.702C221.649 193.442 221.415 194.268 221.119 195.38L220.898 195.321C221.193 194.212 221.433 193.365 221.808 192.602C222.184 191.835 222.695 191.158 223.527 190.38L223.683 190.547C223.399 190.813 223.154 191.065 222.94 191.313L231.38 195.956L231.27 196.156L222.791 191.492C222.736 191.559 222.684 191.626 222.634 191.692Z" fill="#606066"/>
<path fill-rule="evenodd" clip-rule="evenodd" d="M239.625 201.645L244.296 210.439L244.498 210.332L239.813 201.511C240.084 201.325 240.356 201.169 240.64 201.033C241.383 200.676 242.211 200.448 243.325 200.163L243.269 199.941C242.157 200.226 241.308 200.458 240.541 200.827C239.771 201.196 239.089 201.701 238.304 202.525L238.47 202.683C238.738 202.402 238.993 202.159 239.242 201.948L243.81 210.429L244.011 210.32L239.423 201.8C239.49 201.746 239.557 201.694 239.625 201.645Z" fill="#606066"/>
<path fill-rule="evenodd" clip-rule="evenodd" d="M184.159 209.96L190.947 202.674L191.115 202.83L184.306 210.138C184.52 210.388 184.742 210.609 184.982 210.814C185.607 211.351 186.348 211.785 187.35 212.349L187.238 212.549C186.238 211.986 185.477 211.542 184.832 210.987C184.185 210.431 183.657 209.767 183.111 208.768L183.312 208.658C183.499 208.999 183.682 209.3 183.868 209.568L190.475 202.558L190.641 202.715L184.004 209.758C184.055 209.828 184.107 209.895 184.159 209.96Z" fill="#606066"/>
<path fill-rule="evenodd" clip-rule="evenodd" d="M211.92 242.284L215.597 230.752L215.379 230.683L211.691 242.249C211.294 242.181 210.923 242.085 210.559 241.962C209.625 241.646 208.733 241.147 207.551 240.459L207.436 240.656C208.615 241.343 209.527 241.854 210.485 242.179C211.448 242.505 212.452 242.641 213.82 242.589L213.812 242.36C213.333 242.378 212.901 242.373 212.502 242.345L215.996 231.169L215.778 231.101L212.268 242.325C212.149 242.314 212.034 242.3 211.92 242.284Z" fill="#606066"/>
<path fill-rule="evenodd" clip-rule="evenodd" d="M186.83 231.128L191.861 239.171L191.667 239.293L186.62 231.224C186.339 231.359 186.083 231.508 185.836 231.677C185.188 232.12 184.605 232.695 183.838 233.478L183.675 233.318C184.44 232.536 185.037 231.946 185.707 231.488C186.38 231.028 187.122 230.706 188.177 230.45L188.231 230.673C187.874 230.759 187.554 230.853 187.262 230.957L192.084 238.765L191.889 238.885L187.044 231.039C186.971 231.068 186.9 231.098 186.83 231.128Z" fill="#606066"/>
<path d="M210.182 176.938V176.519L210.981 175.864C211.139 175.733 211.248 175.629 211.308 175.551C211.367 175.471 211.397 175.383 211.397 175.287C211.397 175.189 211.367 175.112 211.308 175.057C211.248 175.002 211.17 174.975 211.074 174.975C210.985 174.975 210.904 175 210.83 175.05C210.759 175.098 210.677 175.181 210.583 175.297L210.213 174.999C210.338 174.827 210.468 174.701 210.6 174.621C210.735 174.541 210.905 174.501 211.108 174.501C211.358 174.501 211.558 174.57 211.709 174.707C211.86 174.842 211.936 175.023 211.936 175.249C211.936 175.38 211.911 175.498 211.86 175.603C211.81 175.706 211.745 175.797 211.665 175.878C211.584 175.955 211.464 176.056 211.304 176.18L210.913 176.482H211.96V176.938H210.182Z" fill="#825946"/>
<path d="M214.174 176.626C213.975 176.862 213.717 176.979 213.402 176.979C213.086 176.979 212.83 176.862 212.633 176.626C212.436 176.39 212.338 176.094 212.338 175.737C212.338 175.382 212.437 175.087 212.636 174.851C212.835 174.613 213.093 174.494 213.409 174.494C213.722 174.494 213.977 174.612 214.174 174.848C214.373 175.083 214.473 175.38 214.473 175.737C214.473 176.091 214.373 176.388 214.174 176.626ZM213.024 176.286C213.122 176.43 213.251 176.502 213.409 176.502C213.566 176.502 213.692 176.431 213.786 176.289C213.882 176.145 213.93 175.961 213.93 175.737C213.93 175.517 213.881 175.335 213.783 175.191C213.684 175.045 213.557 174.971 213.402 174.971C213.246 174.971 213.12 175.043 213.024 175.188C212.928 175.329 212.88 175.513 212.88 175.737C212.88 175.959 212.928 176.142 213.024 176.286Z" fill="#825946"/>
<path d="M214.726 177.494L214.682 177.278C214.906 177.253 215.018 177.152 215.018 176.976V176.938H214.805V176.389H215.362V176.852C215.362 177.072 215.308 177.232 215.2 177.333C215.095 177.436 214.937 177.49 214.726 177.494Z" fill="#825946"/>
<path d="M216.015 176.938V175.054L215.596 175.157L215.486 174.724L216.176 174.518H216.537V176.938H216.015Z" fill="#825946"/>
<path d="M217.02 176.938V176.519L217.82 175.864C217.978 175.733 218.087 175.629 218.146 175.551C218.206 175.471 218.235 175.383 218.235 175.287C218.235 175.189 218.206 175.112 218.146 175.057C218.087 175.002 218.009 174.975 217.913 174.975C217.823 174.975 217.742 175 217.669 175.05C217.598 175.098 217.516 175.181 217.422 175.297L217.051 174.999C217.177 174.827 217.306 174.701 217.439 174.621C217.574 174.541 217.743 174.501 217.947 174.501C218.196 174.501 218.397 174.57 218.548 174.707C218.699 174.842 218.774 175.023 218.774 175.249C218.774 175.38 218.749 175.498 218.699 175.603C218.648 175.706 218.583 175.797 218.503 175.878C218.423 175.955 218.303 176.056 218.143 176.18L217.751 176.482H218.798V176.938H217.02Z" fill="#825946"/>
<path d="M180.483 239.642V239.124H179.309L179.224 238.75L180.542 237.222H180.988V238.695H181.311V239.124H180.988V239.642H180.483ZM179.845 238.695H180.483V237.946L179.845 238.695Z" fill="#825946"/>
<path d="M181.618 240.198L181.573 239.982C181.797 239.957 181.91 239.856 181.91 239.68V239.642H181.697V239.093H182.253V239.556C182.253 239.776 182.199 239.936 182.091 240.037C181.986 240.14 181.828 240.194 181.618 240.198Z" fill="#825946"/>
<path d="M183.832 239.642V239.124H182.658L182.573 238.75L183.891 237.222H184.337V238.695H184.66V239.124H184.337V239.642H183.832ZM183.194 238.695H183.832V237.946L183.194 238.695Z" fill="#825946"/>
<path d="M186.855 239.33C186.656 239.565 186.398 239.683 186.082 239.683C185.766 239.683 185.51 239.565 185.313 239.33C185.117 239.094 185.018 238.798 185.018 238.441C185.018 238.086 185.118 237.791 185.317 237.555C185.516 237.317 185.773 237.198 186.089 237.198C186.403 237.198 186.658 237.316 186.855 237.552C187.054 237.787 187.153 238.084 187.153 238.441C187.153 238.795 187.054 239.092 186.855 239.33ZM185.705 238.99C185.803 239.134 185.931 239.206 186.089 239.206C186.247 239.206 186.373 239.135 186.467 238.993C186.563 238.849 186.611 238.665 186.611 238.441C186.611 238.221 186.562 238.039 186.463 237.895C186.365 237.748 186.238 237.675 186.082 237.675C185.927 237.675 185.801 237.747 185.705 237.891C185.609 238.033 185.561 238.216 185.561 238.441C185.561 238.663 185.609 238.846 185.705 238.99Z" fill="#825946"/>
<path d="M265.318 190.441V188.557L264.899 188.66L264.789 188.227L265.479 188.021H265.839V190.441H265.318Z" fill="#825946"/>
<path d="M267.236 190.476C266.966 190.476 266.744 190.412 266.57 190.283C266.396 190.155 266.309 189.986 266.309 189.775C266.309 189.508 266.439 189.314 266.697 189.195C266.494 189.072 266.392 188.894 266.392 188.663C266.392 188.476 266.47 188.319 266.625 188.193C266.783 188.067 266.987 188.004 267.236 188.004C267.488 188.004 267.692 188.067 267.847 188.193C268.003 188.319 268.081 188.478 268.081 188.67C268.081 188.897 267.979 189.072 267.775 189.195C267.906 189.264 268.003 189.342 268.067 189.429C268.131 189.516 268.163 189.629 268.163 189.769C268.163 189.986 268.076 190.159 267.902 190.287C267.73 190.413 267.508 190.476 267.236 190.476ZM266.986 188.938C267.05 188.993 267.133 189.02 267.236 189.02C267.339 189.02 267.422 188.993 267.483 188.938C267.547 188.883 267.579 188.811 267.579 188.722C267.579 188.644 267.547 188.577 267.483 188.522C267.422 188.468 267.339 188.44 267.236 188.44C267.131 188.44 267.047 188.468 266.986 188.522C266.924 188.577 266.893 188.645 266.893 188.725C266.893 188.81 266.924 188.881 266.986 188.938ZM267.236 190.04C267.364 190.04 267.465 190.011 267.538 189.954C267.614 189.897 267.652 189.823 267.652 189.734C267.652 189.643 267.613 189.571 267.535 189.518C267.459 189.465 267.36 189.439 267.236 189.439C267.113 189.439 267.012 189.466 266.934 189.521C266.859 189.574 266.821 189.647 266.821 189.741C266.821 189.826 266.859 189.897 266.934 189.954C267.01 190.011 267.11 190.04 267.236 190.04Z" fill="#825946"/>
<path d="M268.451 190.997L268.406 190.781C268.631 190.756 268.743 190.655 268.743 190.479V190.441H268.53V189.892H269.086V190.356C269.086 190.575 269.032 190.735 268.925 190.836C268.819 190.939 268.661 190.993 268.451 190.997Z" fill="#825946"/>
<path d="M269.467 190.441V190.023L270.267 189.367C270.425 189.236 270.534 189.132 270.593 189.055C270.653 188.974 270.683 188.886 270.683 188.79C270.683 188.692 270.653 188.615 270.593 188.56C270.534 188.505 270.456 188.478 270.36 188.478C270.271 188.478 270.189 188.503 270.116 188.553C270.045 188.601 269.963 188.684 269.869 188.801L269.498 188.502C269.624 188.33 269.754 188.204 269.886 188.124C270.021 188.044 270.191 188.004 270.394 188.004C270.644 188.004 270.844 188.073 270.995 188.21C271.146 188.345 271.222 188.526 271.222 188.752C271.222 188.883 271.196 189.001 271.146 189.106C271.096 189.209 271.03 189.301 270.95 189.381C270.87 189.458 270.75 189.559 270.59 189.683L270.199 189.985H271.246V190.441H269.467Z" fill="#825946"/>
<path d="M271.71 190.441L272.784 188.495H271.655V188.038H273.385V188.437L272.307 190.441H271.71Z" fill="#825946"/>
<path d="M217.255 203.943V202.058L216.836 202.161L216.727 201.729L217.417 201.523H217.777V203.943H217.255Z" fill="#825946"/>
<path d="M218.703 203.943V202.058L218.285 202.161L218.175 201.729L218.865 201.523H219.225V203.943H218.703Z" fill="#825946"/>
<path d="M219.674 204.499L219.63 204.282C219.854 204.257 219.966 204.157 219.966 203.98V203.943H219.753V203.393H220.309V203.857C220.309 204.076 220.256 204.237 220.148 204.337C220.043 204.44 219.885 204.494 219.674 204.499Z" fill="#825946"/>
<path d="M221.57 203.984C221.222 203.984 220.922 203.864 220.67 203.623L220.99 203.242C221.182 203.416 221.373 203.503 221.563 203.503C221.689 203.503 221.787 203.473 221.858 203.414C221.929 203.354 221.964 203.271 221.964 203.163C221.964 203.063 221.926 202.984 221.848 202.927C221.77 202.867 221.667 202.837 221.539 202.837C221.411 202.837 221.277 202.867 221.137 202.927L220.832 202.724L220.9 201.54H222.376V202.003H221.353L221.326 202.418C221.436 202.391 221.541 202.377 221.642 202.377C221.891 202.377 222.094 202.441 222.249 202.57C222.405 202.698 222.483 202.892 222.483 203.153C222.483 203.407 222.399 203.61 222.232 203.761C222.067 203.909 221.847 203.984 221.57 203.984Z" fill="#825946"/>
<path d="M224.707 203.63C224.508 203.866 224.25 203.984 223.934 203.984C223.619 203.984 223.362 203.866 223.165 203.63C222.969 203.395 222.87 203.098 222.87 202.741C222.87 202.386 222.97 202.091 223.169 201.856C223.368 201.618 223.625 201.499 223.941 201.499C224.255 201.499 224.51 201.616 224.707 201.852C224.906 202.088 225.005 202.384 225.005 202.741C225.005 203.096 224.906 203.392 224.707 203.63ZM223.557 203.29C223.655 203.435 223.783 203.507 223.941 203.507C224.099 203.507 224.225 203.436 224.319 203.294C224.415 203.15 224.463 202.965 224.463 202.741C224.463 202.521 224.414 202.34 224.315 202.195C224.217 202.049 224.09 201.976 223.934 201.976C223.779 201.976 223.653 202.048 223.557 202.192C223.461 202.334 223.413 202.517 223.413 202.741C223.413 202.963 223.461 203.146 223.557 203.29Z" fill="#825946"/>
<path d="M182.72 194.102V193.683L183.52 193.028C183.677 192.897 183.786 192.793 183.846 192.715C183.905 192.635 183.935 192.547 183.935 192.451C183.935 192.353 183.905 192.276 183.846 192.221C183.786 192.166 183.708 192.139 183.612 192.139C183.523 192.139 183.442 192.164 183.369 192.214C183.298 192.262 183.215 192.345 183.121 192.461L182.751 192.163C182.876 191.991 183.006 191.865 183.139 191.785C183.274 191.705 183.443 191.665 183.647 191.665C183.896 191.665 184.096 191.734 184.247 191.871C184.398 192.006 184.474 192.187 184.474 192.413C184.474 192.544 184.449 192.662 184.398 192.767C184.348 192.87 184.283 192.961 184.203 193.042C184.123 193.119 184.002 193.22 183.842 193.344L183.451 193.646H184.498V194.102H182.72Z" fill="#825946"/>
<path d="M186.712 193.79C186.513 194.026 186.256 194.143 185.94 194.143C185.624 194.143 185.368 194.026 185.171 193.79C184.974 193.554 184.876 193.258 184.876 192.901C184.876 192.546 184.975 192.251 185.174 192.015C185.373 191.777 185.631 191.658 185.947 191.658C186.26 191.658 186.515 191.776 186.712 192.012C186.911 192.247 187.011 192.544 187.011 192.901C187.011 193.256 186.911 193.552 186.712 193.79ZM185.562 193.45C185.661 193.594 185.789 193.666 185.947 193.666C186.105 193.666 186.23 193.595 186.324 193.454C186.42 193.309 186.468 193.125 186.468 192.901C186.468 192.681 186.419 192.499 186.321 192.355C186.222 192.209 186.095 192.135 185.94 192.135C185.784 192.135 185.658 192.207 185.562 192.352C185.466 192.493 185.418 192.677 185.418 192.901C185.418 193.123 185.466 193.306 185.562 193.45Z" fill="#825946"/>
<path d="M187.265 194.658L187.22 194.442C187.444 194.417 187.556 194.316 187.556 194.14V194.102H187.344V193.553H187.9V194.016C187.9 194.236 187.846 194.396 187.738 194.497C187.633 194.6 187.475 194.654 187.265 194.658Z" fill="#825946"/>
<path d="M188.334 194.102L189.409 192.156H188.279V191.699H190.009V192.098L188.931 194.102H188.334Z" fill="#825946"/>
<path d="M190.816 194.102V192.218L190.397 192.321L190.287 191.888L190.977 191.682H191.337V194.102H190.816Z" fill="#825946"/>
<path d="M114.527 209.078C114.316 209.407 114.03 209.594 113.671 209.641L113.576 209.147C113.831 209.107 114.016 208.996 114.133 208.815C114.187 208.731 114.209 208.648 114.198 208.568C114.187 208.484 114.143 208.418 114.066 208.368C113.983 208.315 113.897 208.308 113.808 208.349C113.72 208.39 113.635 208.473 113.554 208.598L113.435 208.783L113.108 208.67L112.933 207.876L112.422 208.669L112.041 208.424L112.92 207.059L113.255 207.275L113.414 208.099C113.708 207.777 114.015 207.719 114.335 207.925C114.529 208.05 114.645 208.218 114.683 208.43C114.722 208.641 114.67 208.856 114.527 209.078Z" fill="#825946"/>
<path d="M115.609 208.349L115.403 208.269C115.503 208.067 115.479 207.918 115.331 207.823L115.299 207.802L115.184 207.981L114.722 207.684L115.023 207.216L115.413 207.467C115.598 207.586 115.703 207.718 115.73 207.863C115.759 208.007 115.719 208.169 115.609 208.349Z" fill="#825946"/>
<path d="M116.213 206.459C116.001 206.788 115.716 206.976 115.357 207.022L115.262 206.529C115.517 206.488 115.702 206.378 115.819 206.197C115.873 206.112 115.895 206.03 115.884 205.949C115.873 205.866 115.828 205.799 115.752 205.749C115.669 205.696 115.583 205.69 115.494 205.731C115.405 205.771 115.321 205.854 115.24 205.979L115.121 206.164L114.794 206.051L114.619 205.257L114.108 206.051L113.727 205.806L114.606 204.44L114.941 204.656L115.1 205.481C115.394 205.159 115.701 205.101 116.021 205.306C116.215 205.431 116.331 205.6 116.369 205.812C116.407 206.022 116.356 206.238 116.213 206.459Z" fill="#825946"/>
<path d="M118.343 203.969C118.025 204.142 117.723 204.231 117.437 204.234C117.15 204.237 116.868 204.15 116.593 203.973C116.318 203.796 116.123 203.576 116.008 203.315C115.892 203.052 115.847 202.74 115.873 202.378L116.289 202.372C116.299 202.657 116.349 202.89 116.438 203.073C116.526 203.252 116.672 203.407 116.874 203.537C117.076 203.667 117.278 203.736 117.48 203.743C117.681 203.748 117.913 203.696 118.176 203.588L118.343 203.969Z" fill="#825946"/>
<path d="M118.47 202.877L116.886 201.857L116.745 202.265L116.322 202.123L116.523 201.432L116.718 201.129L118.753 202.439L118.47 202.877Z" fill="#825946"/>
<path d="M119.463 202.362L119.257 202.282C119.358 202.08 119.334 201.931 119.185 201.836L119.154 201.816L119.038 201.994L118.577 201.697L118.878 201.23L119.267 201.48C119.452 201.599 119.558 201.731 119.584 201.876C119.614 202.021 119.573 202.182 119.463 202.362Z" fill="#825946"/>
<path d="M120.25 199.535C120.341 199.83 120.301 200.11 120.13 200.376C119.959 200.641 119.721 200.793 119.416 200.831C119.111 200.869 118.809 200.791 118.509 200.598C118.211 200.406 118.016 200.162 117.926 199.867C117.833 199.571 117.873 199.29 118.044 199.025C118.213 198.761 118.451 198.61 118.755 198.572C119.061 198.532 119.364 198.609 119.665 198.802C119.963 198.994 120.158 199.239 120.25 199.535ZM119.342 200.318C119.517 200.313 119.647 200.244 119.732 200.112C119.818 199.979 119.826 199.835 119.758 199.679C119.688 199.52 119.56 199.38 119.371 199.258C119.186 199.14 119.007 199.082 118.832 199.087C118.656 199.091 118.525 199.158 118.441 199.289C118.357 199.419 118.349 199.564 118.419 199.723C118.486 199.881 118.614 200.02 118.802 200.142C118.989 200.262 119.169 200.321 119.342 200.318Z" fill="#825946"/>
<path d="M121.385 199.243L120.969 199.249C120.959 198.964 120.91 198.733 120.821 198.553C120.732 198.37 120.586 198.214 120.384 198.084C120.182 197.954 119.981 197.887 119.779 197.882C119.577 197.875 119.345 197.925 119.082 198.033L118.915 197.652C119.233 197.479 119.536 197.391 119.824 197.388C120.109 197.384 120.39 197.471 120.665 197.648C120.94 197.825 121.136 198.045 121.252 198.308C121.367 198.57 121.411 198.881 121.385 199.243Z" fill="#825946"/>
<path d="M178.199 191.699C178.199 197.703 173.333 202.569 167.329 202.569C161.326 202.569 156.459 197.703 156.459 191.699C156.459 185.696 161.326 180.829 167.329 180.829C173.333 180.829 178.199 185.696 178.199 191.699Z" fill="url(#paint0_linear)"/>
<path d="M161.096 190.898L163.101 187.265H160.993V186.413H164.223V187.156L162.211 190.898H161.096Z" fill="white"/>
<path d="M166.087 190.975C165.438 190.975 164.879 190.751 164.409 190.302L165.005 189.591C165.363 189.916 165.72 190.078 166.075 190.078C166.31 190.078 166.493 190.023 166.626 189.911C166.758 189.8 166.824 189.644 166.824 189.444C166.824 189.256 166.752 189.108 166.606 189.002C166.461 188.89 166.269 188.835 166.03 188.835C165.791 188.835 165.541 188.89 165.28 189.002L164.71 188.623L164.838 186.413H167.593V187.278H165.684L165.633 188.053C165.838 188.002 166.034 187.976 166.222 187.976C166.688 187.976 167.066 188.096 167.356 188.335C167.647 188.574 167.792 188.937 167.792 189.424C167.792 189.899 167.636 190.277 167.324 190.559C167.017 190.836 166.604 190.975 166.087 190.975Z" fill="white"/>
<path d="M168.19 191.936L168.107 191.533C168.526 191.486 168.735 191.298 168.735 190.969V190.898H168.338V189.873H169.376V190.738C169.376 191.148 169.275 191.447 169.075 191.635C168.878 191.827 168.583 191.928 168.19 191.936Z" fill="white"/>
<path d="M173.194 190.315C172.822 190.755 172.342 190.975 171.752 190.975C171.163 190.975 170.684 190.755 170.317 190.315C169.95 189.875 169.766 189.322 169.766 188.656C169.766 187.993 169.952 187.442 170.323 187.002C170.695 186.558 171.176 186.336 171.765 186.336C172.35 186.336 172.827 186.556 173.194 186.996C173.566 187.436 173.751 187.989 173.751 188.656C173.751 189.318 173.566 189.871 173.194 190.315ZM171.047 189.681C171.231 189.95 171.47 190.084 171.765 190.084C172.06 190.084 172.295 189.952 172.47 189.687C172.649 189.418 172.739 189.074 172.739 188.656C172.739 188.245 172.647 187.906 172.463 187.637C172.28 187.363 172.043 187.227 171.752 187.227C171.462 187.227 171.227 187.361 171.047 187.63C170.868 187.895 170.778 188.237 170.778 188.656C170.778 189.07 170.868 189.412 171.047 189.681Z" fill="white"/>
<path d="M160.974 197.535L162.979 193.902H160.871V193.049H164.101V193.793L162.089 197.535H160.974Z" fill="white"/>
<path d="M166.221 197.612C165.678 197.612 165.247 197.451 164.926 197.131C164.572 196.777 164.395 196.206 164.395 195.42C164.395 194.694 164.561 194.105 164.894 193.652C165.228 193.199 165.717 192.972 166.362 192.972C166.883 192.972 167.351 193.137 167.765 193.466L167.246 194.228C167.084 194.105 166.934 194.015 166.798 193.959C166.665 193.899 166.509 193.87 166.33 193.87C166.065 193.87 165.856 193.966 165.702 194.158C165.552 194.346 165.46 194.596 165.426 194.908C165.717 194.715 166.026 194.619 166.355 194.619C166.817 194.619 167.195 194.745 167.49 194.997C167.784 195.249 167.932 195.604 167.932 196.061C167.932 196.514 167.769 196.885 167.445 197.176C167.12 197.466 166.712 197.612 166.221 197.612ZM165.612 196.58C165.753 196.704 165.943 196.766 166.182 196.766C166.422 196.766 166.61 196.704 166.746 196.58C166.883 196.456 166.951 196.294 166.951 196.093C166.951 195.901 166.881 195.745 166.74 195.625C166.599 195.501 166.409 195.439 166.17 195.439C165.93 195.439 165.742 195.499 165.606 195.619C165.469 195.738 165.401 195.899 165.401 196.099C165.401 196.292 165.471 196.452 165.612 196.58Z" fill="white"/>
<path d="M168.312 198.573L168.229 198.169C168.648 198.122 168.857 197.934 168.857 197.605V197.535H168.46V196.51H169.498V197.375C169.498 197.785 169.397 198.084 169.197 198.272C169 198.464 168.705 198.564 168.312 198.573Z" fill="white"/>
<path d="M173.316 196.952C172.944 197.392 172.464 197.612 171.874 197.612C171.285 197.612 170.806 197.392 170.439 196.952C170.072 196.512 169.888 195.958 169.888 195.292C169.888 194.63 170.074 194.079 170.445 193.639C170.817 193.195 171.298 192.972 171.887 192.972C172.472 192.972 172.949 193.192 173.316 193.632C173.688 194.072 173.873 194.626 173.873 195.292C173.873 195.954 173.688 196.507 173.316 196.952ZM171.169 196.317C171.353 196.586 171.592 196.721 171.887 196.721C172.182 196.721 172.417 196.589 172.592 196.324C172.771 196.055 172.861 195.711 172.861 195.292C172.861 194.882 172.769 194.542 172.586 194.273C172.402 194 172.165 193.863 171.874 193.863C171.584 193.863 171.349 193.998 171.169 194.267C170.99 194.532 170.9 194.873 170.9 195.292C170.9 195.706 170.99 196.048 171.169 196.317Z" fill="white"/>
<path d="M148.338 195.476V194.052L151.057 191.823C151.594 191.379 151.964 191.025 152.166 190.761C152.368 190.489 152.469 190.189 152.469 189.862C152.469 189.528 152.368 189.267 152.166 189.08C151.964 188.893 151.699 188.8 151.372 188.8C151.069 188.8 150.793 188.886 150.544 189.057C150.303 189.22 150.022 189.5 149.703 189.897L148.443 188.882C148.871 188.298 149.31 187.87 149.762 187.598C150.221 187.326 150.797 187.189 151.489 187.189C152.337 187.189 153.018 187.423 153.532 187.89C154.045 188.349 154.302 188.963 154.302 189.734C154.302 190.177 154.216 190.578 154.045 190.936C153.874 191.286 153.652 191.597 153.38 191.87C153.108 192.134 152.699 192.476 152.154 192.897L150.824 193.924H154.384V195.476H148.338Z" fill="#825946"/>
<path d="M152.912 218.818V215.934H153.546V217.195L154.716 215.934H155.482L154.308 217.157L155.536 218.818H154.774L153.88 217.59L153.546 217.936V218.818H152.912Z" fill="#606066"/>
<path d="M157.14 217.458L157.836 215.934H158.524L157.416 218.163C157.293 218.41 157.155 218.588 157.004 218.698C156.856 218.808 156.679 218.863 156.473 218.863C156.256 218.863 156.049 218.807 155.851 218.694L156.098 218.228C156.202 218.292 156.316 218.323 156.44 218.323C156.583 218.323 156.704 218.246 156.802 218.093L155.649 215.934H156.357L157.14 217.458Z" fill="#606066"/>
<path d="M158.728 218.818L159.733 217.351L158.769 215.934H159.51L160.116 216.869L160.725 215.934H161.446L160.482 217.343L161.487 218.818H160.746L160.099 217.829L159.448 218.818H158.728Z" fill="#606066"/>
<path d="M161.963 218.818V215.934H162.597V217.075H163.767V215.934H164.402V218.818H163.767V217.66H162.597V218.818H161.963Z" fill="#606066"/>
<path d="M167.375 215.934V218.818H166.74V217.895H166.242L165.624 218.818H164.882L165.587 217.788C165.175 217.634 164.969 217.333 164.969 216.886C164.969 216.589 165.065 216.357 165.257 216.189C165.452 216.019 165.719 215.934 166.056 215.934H167.375ZM166.098 217.335H166.74V216.507H166.11C165.954 216.507 165.831 216.542 165.743 216.614C165.656 216.685 165.612 216.79 165.612 216.927C165.612 217.05 165.654 217.149 165.739 217.223C165.827 217.298 165.947 217.335 166.098 217.335Z" fill="#606066"/>
<path d="M167.929 217.841V217.24H169.198V217.841H167.929Z" fill="#606066"/>
<path d="M154.263 223.215C153.84 223.215 153.487 223.072 153.204 222.787C152.924 222.498 152.784 222.144 152.784 221.724C152.784 221.306 152.926 220.954 153.208 220.665C153.491 220.377 153.851 220.233 154.288 220.233C154.538 220.233 154.748 220.274 154.918 220.356C155.088 220.436 155.25 220.551 155.404 220.702L155.025 221.139C154.901 221.026 154.785 220.945 154.675 220.896C154.568 220.844 154.437 220.818 154.284 220.818C154.042 220.818 153.841 220.906 153.682 221.081C153.526 221.254 153.447 221.469 153.447 221.724C153.447 221.977 153.526 222.191 153.682 222.367C153.841 222.542 154.042 222.63 154.284 222.63C154.437 222.63 154.571 222.603 154.683 222.548C154.796 222.493 154.915 222.408 155.042 222.292L155.445 222.725C155.289 222.892 155.118 223.016 154.934 223.096C154.753 223.175 154.529 223.215 154.263 223.215Z" fill="#606066"/>
<path d="M156.624 223.166V220.867H155.747V220.282H158.136V220.867H157.259V223.166H156.624Z" fill="#606066"/>
<path d="M161.12 222.783C160.829 223.071 160.464 223.215 160.025 223.215C159.585 223.215 159.22 223.071 158.929 222.783C158.641 222.494 158.496 222.141 158.496 221.724C158.496 221.309 158.642 220.958 158.933 220.669C159.227 220.378 159.593 220.233 160.033 220.233C160.472 220.233 160.836 220.377 161.124 220.665C161.416 220.954 161.561 221.306 161.561 221.724C161.561 222.139 161.414 222.491 161.12 222.783ZM159.407 222.367C159.572 222.542 159.78 222.63 160.033 222.63C160.286 222.63 160.493 222.544 160.655 222.371C160.817 222.195 160.898 221.979 160.898 221.724C160.898 221.471 160.816 221.257 160.651 221.081C160.486 220.906 160.277 220.818 160.025 220.818C159.772 220.818 159.565 220.906 159.403 221.081C159.241 221.254 159.16 221.469 159.16 221.724C159.16 221.977 159.242 222.191 159.407 222.367Z" fill="#606066"/>
<path d="M162.507 220.282H164.567V223.166H163.932V220.855H163.1V221.073C163.1 221.636 163.066 222.073 162.997 222.383C162.931 222.693 162.834 222.907 162.705 223.026C162.576 223.144 162.396 223.203 162.165 223.203C162.036 223.203 161.925 223.19 161.831 223.166L161.873 222.642C161.911 222.648 161.944 222.651 161.971 222.651C162.065 222.651 162.14 222.632 162.198 222.593C162.258 222.552 162.313 222.471 162.363 222.35C162.415 222.229 162.452 222.049 162.474 221.81C162.496 221.569 162.507 221.258 162.507 220.879V220.282Z" fill="#606066"/>
<path d="M167.754 222.783C167.463 223.071 167.097 223.215 166.658 223.215C166.219 223.215 165.853 223.071 165.562 222.783C165.274 222.494 165.13 222.141 165.13 221.724C165.13 221.309 165.275 220.958 165.566 220.669C165.86 220.378 166.227 220.233 166.666 220.233C167.106 220.233 167.47 220.377 167.758 220.665C168.049 220.954 168.195 221.306 168.195 221.724C168.195 222.139 168.048 222.491 167.754 222.783ZM166.04 222.367C166.205 222.542 166.414 222.63 166.666 222.63C166.919 222.63 167.126 222.544 167.288 222.371C167.45 222.195 167.531 221.979 167.531 221.724C167.531 221.471 167.449 221.257 167.284 221.081C167.119 220.906 166.911 220.818 166.658 220.818C166.405 220.818 166.198 220.906 166.036 221.081C165.874 221.254 165.793 221.469 165.793 221.724C165.793 221.977 165.875 222.191 166.04 222.367Z" fill="#606066"/>
<path d="M168.757 223.166V220.282H170.096C170.428 220.282 170.68 220.367 170.85 220.538C170.982 220.669 171.048 220.836 171.048 221.036C171.048 221.308 170.921 221.515 170.669 221.658C170.847 221.727 170.982 221.817 171.072 221.93C171.163 222.04 171.208 222.188 171.208 222.375C171.208 222.633 171.112 222.829 170.92 222.964C170.728 223.098 170.464 223.166 170.129 223.166H168.757ZM169.375 221.448H169.96C170.265 221.448 170.417 221.344 170.417 221.135C170.417 221.039 170.382 220.966 170.31 220.917C170.239 220.864 170.136 220.838 170.001 220.838H169.375V221.448ZM169.375 222.61H170.129C170.428 222.61 170.578 222.502 170.578 222.288C170.578 222.08 170.421 221.975 170.108 221.975H169.375V222.61Z" fill="#606066"/>
<path d="M171.483 223.166L172.719 220.262H173.304L174.539 223.166H173.876L173.613 222.519H172.393L172.13 223.166H171.483ZM172.62 221.959H173.386L173.003 221.024L172.62 221.959Z" fill="#606066"/>
<path d="M177.266 220.282V223.166H176.632V222.243H176.134L175.516 223.166H174.774L175.479 222.136C175.067 221.982 174.861 221.681 174.861 221.234C174.861 220.937 174.957 220.705 175.149 220.538C175.344 220.367 175.61 220.282 175.948 220.282H177.266ZM175.989 221.683H176.632V220.855H176.002C175.845 220.855 175.723 220.89 175.635 220.962C175.547 221.033 175.503 221.138 175.503 221.275C175.503 221.398 175.546 221.497 175.631 221.571C175.719 221.646 175.838 221.683 175.989 221.683Z" fill="#606066"/>
<path d="M203.696 161.222C203.405 161.511 203.04 161.655 202.601 161.655C202.161 161.655 201.796 161.511 201.505 161.222C201.216 160.934 201.072 160.581 201.072 160.164C201.072 159.749 201.218 159.398 201.509 159.109C201.803 158.818 202.169 158.673 202.609 158.673C203.048 158.673 203.412 158.817 203.7 159.105C203.991 159.393 204.137 159.746 204.137 160.164C204.137 160.578 203.99 160.931 203.696 161.222ZM201.983 160.806C202.147 160.982 202.356 161.07 202.609 161.07C202.861 161.07 203.069 160.984 203.231 160.81C203.393 160.635 203.474 160.419 203.474 160.164C203.474 159.911 203.391 159.697 203.227 159.521C203.062 159.345 202.853 159.258 202.601 159.258C202.348 159.258 202.141 159.345 201.978 159.521C201.816 159.694 201.735 159.908 201.735 160.164C201.735 160.416 201.818 160.631 201.983 160.806Z" fill="#606066"/>
<path d="M205.334 159.295V159.797H206.096C206.417 159.797 206.666 159.878 206.842 160.04C207.02 160.199 207.109 160.416 207.109 160.691C207.109 160.982 207.015 161.207 206.825 161.367C206.636 161.526 206.372 161.606 206.034 161.606H204.7V158.722H206.912V159.295H205.334ZM206.03 160.324H205.334V161.033H206.034C206.328 161.033 206.475 160.911 206.475 160.666C206.475 160.438 206.327 160.324 206.03 160.324Z" fill="#606066"/>
<path d="M211.323 162.207V161.606H207.632V158.722H208.267V161.033H209.292V158.722H209.927V161.033H210.956V158.722H211.591V161.033H211.933L211.85 162.207H211.323Z" fill="#606066"/>
<path d="M212.132 161.606L213.368 158.701H213.953L215.188 161.606H214.525L214.262 160.959H213.042L212.779 161.606H212.132ZM213.269 160.399H214.035L213.652 159.464L213.269 160.399Z" fill="#606066"/>
<path d="M217.915 158.722V161.606H217.281V160.683H216.783L216.165 161.606H215.423L216.128 160.576C215.716 160.422 215.51 160.121 215.51 159.674C215.51 159.377 215.606 159.145 215.798 158.977C215.993 158.807 216.26 158.722 216.597 158.722H217.915ZM216.638 160.123H217.281V159.295H216.651C216.494 159.295 216.372 159.33 216.284 159.402C216.196 159.473 216.152 159.577 216.152 159.715C216.152 159.838 216.195 159.937 216.28 160.011C216.368 160.086 216.487 160.123 216.638 160.123Z" fill="#606066"/>
<path d="M201.2 165.954V163.07H201.834V164.331L203.004 163.07H203.77L202.596 164.294L203.824 165.954H203.062L202.168 164.726L201.834 165.072V165.954H201.2Z" fill="#606066"/>
<path d="M206.705 165.571C206.414 165.859 206.049 166.003 205.609 166.003C205.17 166.003 204.805 165.859 204.514 165.571C204.225 165.282 204.081 164.929 204.081 164.512C204.081 164.097 204.227 163.746 204.518 163.457C204.812 163.166 205.178 163.021 205.618 163.021C206.057 163.021 206.421 163.165 206.709 163.453C207 163.742 207.146 164.094 207.146 164.512C207.146 164.927 206.999 165.279 206.705 165.571ZM204.992 165.154C205.156 165.33 205.365 165.418 205.618 165.418C205.87 165.418 206.078 165.332 206.24 165.159C206.402 164.983 206.483 164.767 206.483 164.512C206.483 164.259 206.4 164.045 206.236 163.869C206.071 163.694 205.862 163.606 205.609 163.606C205.357 163.606 205.149 163.694 204.987 163.869C204.825 164.042 204.744 164.256 204.744 164.512C204.744 164.765 204.827 164.979 204.992 165.154Z" fill="#606066"/>
<path d="M207.709 165.954V163.07H208.392L209.15 164.289L209.908 163.07H210.592V165.954H209.962V164.071L209.15 165.303H209.134L208.331 164.083V165.954H207.709Z" fill="#606066"/>
<path d="M211.285 165.954V163.07H211.919V164.211H213.089V163.07H213.723V165.954H213.089V164.796H211.919V165.954H211.285Z" fill="#606066"/>
<path d="M214.167 165.954L215.403 163.05H215.988L217.224 165.954H216.561L216.297 165.307H215.078L214.814 165.954H214.167ZM215.304 164.747H216.07L215.687 163.812L215.304 164.747Z" fill="#606066"/>
<path d="M218.34 165.954V163.655H217.463V163.07H219.852V163.655H218.975V165.954H218.34Z" fill="#606066"/>
<path d="M220.093 165.954L221.329 163.05H221.913L223.149 165.954H222.486L222.222 165.307H221.003L220.739 165.954H220.093ZM221.23 164.747H221.996L221.613 163.812L221.23 164.747Z" fill="#606066"/>
<path d="M256.122 161.606V158.722H256.756V159.983L257.926 158.722H258.692L257.518 159.945L258.746 161.606H257.984L257.09 160.378L256.756 160.724V161.606H256.122Z" fill="#606066"/>
<path d="M261.627 161.222C261.336 161.511 260.971 161.655 260.532 161.655C260.092 161.655 259.727 161.511 259.436 161.222C259.148 160.934 259.003 160.581 259.003 160.164C259.003 159.749 259.149 159.398 259.44 159.109C259.734 158.818 260.1 158.673 260.54 158.673C260.979 158.673 261.343 158.817 261.631 159.105C261.923 159.393 262.068 159.746 262.068 160.164C262.068 160.578 261.921 160.931 261.627 161.222ZM259.914 160.806C260.078 160.982 260.287 161.07 260.54 161.07C260.792 161.07 261 160.983 261.162 160.81C261.324 160.635 261.405 160.419 261.405 160.164C261.405 159.911 261.322 159.697 261.158 159.521C260.993 159.345 260.784 159.258 260.532 159.258C260.279 159.258 260.072 159.345 259.91 159.521C259.748 159.694 259.667 159.908 259.667 160.164C259.667 160.416 259.749 160.631 259.914 160.806Z" fill="#606066"/>
<path d="M262.631 161.606V158.722H263.315L264.073 159.941L264.83 158.722H265.514V161.606H264.884V159.723L264.073 160.955H264.056L263.253 159.735V161.606H262.631Z" fill="#606066"/>
<path d="M266.207 161.606V158.722H266.841V159.863H268.011V158.722H268.646V161.606H268.011V160.448H266.841V161.606H266.207Z" fill="#606066"/>
<path d="M269.089 161.606L270.325 158.701H270.91L272.146 161.606H271.483L271.219 160.959H270L269.736 161.606H269.089ZM270.226 160.399H270.993L270.609 159.464L270.226 160.399Z" fill="#606066"/>
<path d="M273.262 161.606V159.307H272.385V158.722H274.774V159.307H273.897V161.606H273.262Z" fill="#606066"/>
<path d="M275.015 161.606L276.251 158.701H276.836L278.071 161.606H277.408L277.145 160.959H275.925L275.662 161.606H275.015ZM276.152 160.399H276.918L276.535 159.464L276.152 160.399Z" fill="#606066"/>
<path d="M112.522 221.256L122.248 206.231L129.905 211.141L119.662 226.134L112.522 221.256Z" fill="#EBEBEB"/>
<path d="M113.326 220.331L123.052 205.306L124.426 206.231L117.446 219.504L113.326 220.331Z" fill="#EBEBEB"/>
<path d="M133.574 189.297L142.981 174.888L144.354 175.814L135.176 190.212L133.574 189.297Z" fill="#EBEBEB"/>
<path d="M150.81 163.665L160.217 149.257L161.59 150.182L152.412 164.581L150.81 163.665Z" fill="#EBEBEB"/>
<path d="M134.259 188.381L142.433 175.782L149.82 180.829L141.402 193.152L134.259 188.381Z" fill="#EBEBEB"/>
<path d="M151.498 162.749L170.652 133.228L175 141.925L158.64 167.52L151.498 162.749Z" fill="#EBEBEB"/>
<path d="M199.936 133.229H219.387V141.925H199.936V133.229Z" fill="#EBEBEB"/>
<path d="M216.42 220.191H290.109V226.828H216.42V220.191Z" fill="#EBEBEB"/>
<path d="M238.848 133.229H258.528V141.925H238.848V133.229Z" fill="#EBEBEB"/>
<path d="M277.979 133.229H290.108V141.925H277.979V133.229Z" fill="#EBEBEB"/>
<path d="M170.65 133.229H184.61V141.925H170.65V133.229Z" fill="#EBEBEB"/>
<path d="M199.022 133.229H220.534V135.06H199.022V133.229Z" fill="#EBEBEB"/>
<path d="M237.928 133.229H259.439V135.06H237.928V133.229Z" fill="#EBEBEB"/>
<path d="M277.061 133.229H291.478V135.06H277.061V133.229Z" fill="#EBEBEB"/>
<path d="M277.979 134.831H291.481V136.661H277.979V134.831Z" fill="#EBEBEB"/>
<path d="M286.899 139.179H291.476V226.827H286.899V139.179Z" fill="#EBEBEB"/>
<path d="M243.649 139.179H248.455V199.137H243.649V139.179Z" fill="#EBEBEB"/>
<path d="M243.649 210.122H248.455V222.251H243.649V210.122Z" fill="#EBEBEB"/>
<path d="M215.843 220.191L221.45 223.166L216.415 231.176L210.923 227.629L215.843 220.191Z" fill="#EBEBEB"/>
<path d="M170.65 133.229H185.754V135.06H170.65V133.229Z" fill="#EBEBEB"/>
<path fill-rule="evenodd" clip-rule="evenodd" d="M185.407 134.831L185.407 133.229L185.636 133.229L185.636 135.06L184.607 135.06L184.607 142.04L184.378 142.04L184.378 134.831L185.407 134.831Z" fill="#606066"/>
<path d="M187.47 275L96.1602 215.614L99.8217 210.008L185.41 266.418L203.718 238.499L209.439 242.389L187.47 275Z" fill="#EBEBEB"/>
<path fill-rule="evenodd" clip-rule="evenodd" d="M291.705 133V136.662H290.332V138.95H291.705V226.827H291.476V139.179H290.103V136.433H291.476V133.229L170.416 133.343L170.416 133.115L291.705 133Z" fill="#606066"/>
<path fill-rule="evenodd" clip-rule="evenodd" d="M175.047 141.926H243.649V198.908H248.226V141.926H287.13V220.42H248.34V210.465H243.763V220.42H215.905L210.97 227.709L216.38 231.132L219.213 226.599H287.015V226.828H219.34L216.452 231.448L210.648 227.777L215.783 220.191H243.534V210.236H248.569V220.191H286.901V142.154H248.455V199.137H243.42V142.154H175.171L121.374 224.163L185.374 266.374L203.682 238.34L209.481 242.128L187.677 274.949L187.486 274.822L209.163 242.193L203.748 238.657L185.44 266.691L121.058 224.229L175.047 141.926Z" fill="#606066"/>
<path fill-rule="evenodd" clip-rule="evenodd" d="M170.63 133.291L113.813 219.433L99.8525 210.165L96.3183 215.466L110.525 224.786L110.399 224.977L96 215.531L99.7888 209.848L113.748 219.116L170.439 133.165L170.63 133.291Z" fill="#606066"/>
<path d="M125.56 173.735L100.845 210.694L102.447 211.724L125.903 176.024L137.231 183.69L138.261 182.202L125.56 173.735Z" fill="#EBEBEB"/>
<path fill-rule="evenodd" clip-rule="evenodd" d="M125.533 173.576L138.426 182.171L137.266 183.848L125.94 176.183L102.485 211.881L100.689 210.726L125.533 173.576ZM125.596 173.893L101.009 210.66L102.418 211.566L125.876 175.863L137.206 183.531L138.105 182.232L125.596 173.893Z" fill="#606066"/>
<path d="M161.84 250.97L160.238 249.826L185.068 212.524L186.441 213.325L161.84 250.97Z" fill="#EBEBEB"/>
<path fill-rule="evenodd" clip-rule="evenodd" d="M185.034 212.371L186.604 213.287L161.872 251.133L160.083 249.855L185.034 212.371ZM185.105 212.677L160.396 249.797L161.811 250.808L186.281 213.363L185.105 212.677Z" fill="#606066"/>
<path d="M183.002 234.951L175.45 230.146L176.48 228.658L184.032 233.464L183.002 234.951Z" fill="#EBEBEB"/>
<path fill-rule="evenodd" clip-rule="evenodd" d="M176.451 228.502L184.196 233.431L183.036 235.106L175.291 230.178L176.451 228.502ZM176.514 228.813L175.615 230.112L182.973 234.795L183.873 233.496L176.514 228.813Z" fill="#606066"/>
<path d="M190.782 239.986L191.812 238.498L200.051 244.105L199.021 245.707L190.782 239.986Z" fill="#EBEBEB"/>
<path fill-rule="evenodd" clip-rule="evenodd" d="M191.79 238.34L200.215 244.073L199.061 245.869L190.631 240.015L191.79 238.34ZM191.849 238.657L190.949 239.957L198.996 245.546L199.902 244.137L191.849 238.657Z" fill="#606066"/>
<path d="M214.698 197.878L161.72 162.635L162.75 161.033L214.876 195.818H221.105V197.878H214.698Z" fill="#EBEBEB"/>
<path fill-rule="evenodd" clip-rule="evenodd" d="M162.718 160.875L214.913 195.705H221.222V197.993H214.665L161.564 162.669L162.718 160.875ZM162.785 161.194L161.879 162.604L214.734 197.764H220.993V195.934H214.844L162.785 161.194Z" fill="#606066"/>
<path d="M231.29 195.703H243.648V197.992H231.29V195.703Z" fill="#EBEBEB"/>
<path fill-rule="evenodd" clip-rule="evenodd" d="M243.419 195.932H231.519V197.763H243.419V195.932ZM231.29 195.703V197.992H243.648V195.703H231.29Z" fill="#606066"/>
<path d="M190.334 202.455L200.174 188.152L201.662 189.182L192.05 203.485L190.334 202.455Z" fill="#EBEBEB"/>
<path fill-rule="evenodd" clip-rule="evenodd" d="M200.142 187.993L201.817 189.153L192.082 203.64L190.168 202.491L200.142 187.993ZM200.201 188.312L190.495 202.42L192.013 203.331L201.501 189.212L200.201 188.312Z" fill="#606066"/>
<path fill-rule="evenodd" clip-rule="evenodd" d="M220.45 134.648L237.698 134.605L237.698 134.834L220.451 134.877L220.45 134.648Z" fill="#BFEBF4"/>
<path fill-rule="evenodd" clip-rule="evenodd" d="M220.455 134.879L237.874 134.834L237.875 135.063L220.455 135.107L220.455 134.879Z" fill="#7CAFBA"/>
<path fill-rule="evenodd" clip-rule="evenodd" d="M144.017 175.994L152.066 164.22L152.248 164.359L144.199 176.133L144.017 175.994Z" fill="#BFEBF4"/>
<path fill-rule="evenodd" clip-rule="evenodd" d="M144.179 176.107L152.308 164.215L152.49 164.353L144.361 176.245L144.179 176.107Z" fill="#7CAFBA"/>
<path fill-rule="evenodd" clip-rule="evenodd" d="M124.132 205.962L134.9 190.21L135.082 190.349L124.314 206.1L124.132 205.962Z" fill="#BFEBF4"/>
<path fill-rule="evenodd" clip-rule="evenodd" d="M124.278 206.075L135.153 190.165L135.335 190.304L124.46 206.213L124.278 206.075Z" fill="#7CAFBA"/>
<path fill-rule="evenodd" clip-rule="evenodd" d="M259.587 134.648L276.834 134.605L276.835 134.834L259.588 134.877L259.587 134.648Z" fill="#BFEBF4"/>
<path fill-rule="evenodd" clip-rule="evenodd" d="M259.588 134.879L277.008 134.834L277.009 135.063L259.589 135.107L259.588 134.879Z" fill="#7CAFBA"/>
<path fill-rule="evenodd" clip-rule="evenodd" d="M185.669 134.649L198.952 134.616L198.952 134.845L185.67 134.878L185.669 134.649Z" fill="#BFEBF4"/>
<path fill-rule="evenodd" clip-rule="evenodd" d="M185.669 134.878L199.084 134.843L199.085 135.072L185.67 135.107L185.669 134.878Z" fill="#7CAFBA"/>
<path fill-rule="evenodd" clip-rule="evenodd" d="M219.45 135.566L238.927 135.517L238.928 135.746L219.451 135.795L219.45 135.566Z" fill="#BFEBF4"/>
<path fill-rule="evenodd" clip-rule="evenodd" d="M219.383 135.746L238.911 135.746L238.911 135.975L219.383 135.975L219.383 135.746Z" fill="#7CAFBA"/>
<path fill-rule="evenodd" clip-rule="evenodd" d="M144.155 177.121L153.245 163.825L153.427 163.963L144.337 177.259L144.155 177.121Z" fill="#BFEBF4"/>
<path fill-rule="evenodd" clip-rule="evenodd" d="M144.241 177.263L153.387 163.956L153.568 164.095L144.423 177.402L144.241 177.263Z" fill="#7CAFBA"/>
<path fill-rule="evenodd" clip-rule="evenodd" d="M124.168 207.23L136.1 189.776L136.282 189.914L124.35 207.368L124.168 207.23Z" fill="#BFEBF4"/>
<path fill-rule="evenodd" clip-rule="evenodd" d="M124.237 207.388L136.231 189.912L136.413 190.051L124.418 207.527L124.237 207.388Z" fill="#7CAFBA"/>
<path fill-rule="evenodd" clip-rule="evenodd" d="M258.59 135.566L278.067 135.517L278.067 135.746L258.59 135.795L258.59 135.566Z" fill="#BFEBF4"/>
<path fill-rule="evenodd" clip-rule="evenodd" d="M258.524 135.746L278.052 135.746L278.052 135.975L258.524 135.975L258.524 135.746Z" fill="#7CAFBA"/>
<path fill-rule="evenodd" clip-rule="evenodd" d="M184.652 135.566L200.102 135.527L200.103 135.756L184.652 135.795L184.652 135.566Z" fill="#BFEBF4"/>
<path fill-rule="evenodd" clip-rule="evenodd" d="M184.598 135.747L200.089 135.757L200.089 135.986L184.598 135.976L184.598 135.747Z" fill="#7CAFBA"/>
<path fill-rule="evenodd" clip-rule="evenodd" d="M220.339 134.945V133.229H220.568V135.174H219.538V142.04H219.31V134.945H220.339Z" fill="#606066"/>
<path fill-rule="evenodd" clip-rule="evenodd" d="M144.211 176.122L142.761 175.205L142.883 175.011L144.527 176.051L143.976 176.922L149.77 180.618L149.647 180.811L143.661 176.992L144.211 176.122Z" fill="#606066"/>
<path fill-rule="evenodd" clip-rule="evenodd" d="M124.313 206.33L122.862 205.412L122.985 205.219L124.629 206.259L124.078 207.129L129.872 210.826L129.749 211.018L123.762 207.2L124.313 206.33Z" fill="#606066"/>
<path fill-rule="evenodd" clip-rule="evenodd" d="M129.578 198.32L128.127 197.403L128.249 197.209L129.893 198.249L129.342 199.12L135.137 202.816L135.014 203.009L129.027 199.19L129.578 198.32Z" fill="#606066"/>
<path fill-rule="evenodd" clip-rule="evenodd" d="M152.267 164.182L150.857 163.204L150.726 163.392L152.325 164.5L152.912 163.654L158.575 167.548L158.705 167.359L152.854 163.336L152.267 164.182Z" fill="#606066"/>
<path fill-rule="evenodd" clip-rule="evenodd" d="M135.124 190.132L133.713 189.155L133.583 189.343L135.181 190.451L135.768 189.604L141.432 193.498L141.561 193.309L135.71 189.286L135.124 190.132Z" fill="#606066"/>
<path fill-rule="evenodd" clip-rule="evenodd" d="M259.469 134.945V133.229H259.698V135.174H258.668V142.04H258.439V134.945H259.469Z" fill="#606066"/>
<path fill-rule="evenodd" clip-rule="evenodd" d="M237.959 134.945V133.229H237.731V135.174H238.76V142.04H238.989V134.945H237.959Z" fill="#606066"/>
<path fill-rule="evenodd" clip-rule="evenodd" d="M277.092 134.945V133.229H276.863V135.174H277.893V142.04H278.122V134.945H277.092Z" fill="#606066"/>
<path fill-rule="evenodd" clip-rule="evenodd" d="M199.142 134.945V133.229H198.913V135.174H199.943V142.04H200.172V134.945H199.142Z" fill="#606066"/>
<path fill-rule="evenodd" clip-rule="evenodd" d="M125.387 218.113L125.513 217.922L157.457 239.027L161.882 232.446L167.464 231.283L171.05 233.481L170.93 233.676L167.422 231.526L162.02 232.651L157.52 239.343L125.387 218.113Z" fill="#606066"/>
<path d="M319.939 204H319.026V196.958H314.993V204H314.08V196.147H319.939V204ZM326.358 204H325.456V198.876H323.688C323.592 200.151 323.458 201.162 323.286 201.911C323.114 202.659 322.89 203.207 322.614 203.554C322.342 203.902 321.995 204.075 321.572 204.075C321.379 204.075 321.225 204.054 321.11 204.011V203.35C321.189 203.372 321.279 203.382 321.379 203.382C321.791 203.382 322.118 202.947 322.362 202.077C322.605 201.207 322.79 199.886 322.915 198.113H326.358V204ZM333.335 201.051C333.335 202.011 333.093 202.761 332.61 203.302C332.126 203.839 331.459 204.107 330.606 204.107C330.08 204.107 329.613 203.984 329.205 203.737C328.796 203.49 328.481 203.135 328.259 202.673C328.037 202.211 327.926 201.671 327.926 201.051C327.926 200.092 328.166 199.345 328.646 198.812C329.126 198.274 329.792 198.006 330.644 198.006C331.468 198.006 332.121 198.28 332.604 198.828C333.091 199.375 333.335 200.117 333.335 201.051ZM328.85 201.051C328.85 201.803 329 202.376 329.301 202.77C329.602 203.164 330.044 203.361 330.628 203.361C331.212 203.361 331.654 203.166 331.955 202.775C332.259 202.382 332.411 201.807 332.411 201.051C332.411 200.303 332.259 199.735 331.955 199.349C331.654 198.958 331.208 198.763 330.617 198.763C330.034 198.763 329.593 198.955 329.296 199.338C328.999 199.721 328.85 200.292 328.85 201.051ZM339.292 203.232H341.902V198.124H342.793V203.232H343.637V206.025H342.734V204H334.903V198.124H335.795V203.232H338.4V198.124H339.292V203.232ZM348.396 204L348.218 203.162H348.175C347.882 203.531 347.588 203.782 347.294 203.914C347.004 204.043 346.641 204.107 346.204 204.107C345.62 204.107 345.162 203.957 344.829 203.656C344.5 203.355 344.335 202.928 344.335 202.373C344.335 201.184 345.286 200.561 347.187 200.503L348.186 200.471V200.106C348.186 199.644 348.086 199.304 347.885 199.085C347.688 198.863 347.371 198.752 346.935 198.752C346.444 198.752 345.889 198.903 345.27 199.204L344.996 198.521C345.286 198.364 345.603 198.24 345.946 198.151C346.294 198.061 346.641 198.017 346.988 198.017C347.69 198.017 348.209 198.172 348.546 198.484C348.886 198.795 349.056 199.295 349.056 199.982V204H348.396ZM346.381 203.372C346.936 203.372 347.371 203.219 347.687 202.915C348.005 202.611 348.165 202.185 348.165 201.637V201.105L347.273 201.143C346.564 201.168 346.052 201.279 345.737 201.476C345.425 201.669 345.27 201.972 345.27 202.383C345.27 202.706 345.366 202.951 345.56 203.119C345.757 203.287 346.03 203.372 346.381 203.372ZM356.012 206.036H355.147V204H351.033V206.036H350.173V203.232H350.635C351.115 202.58 351.491 201.816 351.763 200.938C352.035 200.061 352.177 199.119 352.188 198.113H355.168V203.232H356.012V206.036ZM354.309 203.232V198.817H352.988C352.941 199.612 352.787 200.417 352.526 201.234C352.268 202.047 351.946 202.713 351.559 203.232H354.309ZM358.085 200.546H359.9C361.404 200.546 362.156 201.1 362.156 202.206C362.156 202.786 361.959 203.23 361.565 203.538C361.175 203.846 360.602 204 359.847 204H357.193V198.113H358.085V200.546ZM358.085 201.314V203.253H359.804C360.276 203.253 360.638 203.171 360.889 203.006C361.139 202.842 361.265 202.593 361.265 202.26C361.265 201.934 361.148 201.696 360.916 201.545C360.686 201.391 360.307 201.314 359.777 201.314H358.085ZM320.014 216.303C320.014 216.936 319.829 217.465 319.46 217.889C319.091 218.308 318.571 218.59 317.901 218.736V218.791C318.703 218.891 319.305 219.142 319.706 219.543C320.107 219.939 320.308 220.468 320.308 221.129C320.308 222.09 319.968 222.833 319.289 223.357C318.61 223.877 317.644 224.137 316.391 224.137C315.283 224.137 314.349 223.957 313.588 223.597V222.168C314.012 222.378 314.461 222.539 314.935 222.653C315.409 222.767 315.864 222.824 316.302 222.824C317.076 222.824 317.655 222.681 318.038 222.394C318.421 222.106 318.612 221.662 318.612 221.061C318.612 220.527 318.4 220.135 317.977 219.885C317.553 219.634 316.887 219.509 315.98 219.509H315.112V218.203H315.994C317.589 218.203 318.387 217.652 318.387 216.549C318.387 216.12 318.248 215.79 317.97 215.558C317.692 215.325 317.282 215.209 316.739 215.209C316.361 215.209 315.996 215.264 315.646 215.373C315.295 215.478 314.88 215.685 314.401 215.995L313.615 214.874C314.531 214.2 315.595 213.862 316.808 213.862C317.815 213.862 318.601 214.079 319.166 214.512C319.731 214.945 320.014 215.542 320.014 216.303ZM322.748 224L326.699 215.435H321.504V214.02H328.415V215.141L324.484 224H322.748ZM331.812 222.53C331.594 223.378 331.193 224.469 330.609 225.805H329.427C329.741 224.574 329.976 223.43 330.131 222.373H331.71L331.812 222.53ZM338.074 224H336.468V217.547C336.468 216.777 336.486 216.166 336.522 215.715C336.418 215.824 336.288 215.945 336.133 216.077C335.982 216.209 335.472 216.629 334.602 217.335L333.795 216.316L336.734 214.006H338.074V224ZM341.383 219.741C341.383 215.831 342.976 213.876 346.161 213.876C346.662 213.876 347.086 213.915 347.433 213.992V215.332C347.086 215.232 346.685 215.182 346.229 215.182C345.159 215.182 344.354 215.469 343.816 216.043C343.279 216.617 342.987 217.538 342.941 218.805H343.023C343.238 218.436 343.538 218.151 343.926 217.95C344.313 217.745 344.769 217.643 345.293 217.643C346.2 217.643 346.906 217.921 347.412 218.477C347.918 219.033 348.171 219.787 348.171 220.739C348.171 221.787 347.877 222.617 347.289 223.228C346.706 223.834 345.908 224.137 344.896 224.137C344.181 224.137 343.559 223.966 343.03 223.624C342.502 223.278 342.094 222.776 341.807 222.12C341.524 221.459 341.383 220.666 341.383 219.741ZM344.869 222.811C345.421 222.811 345.844 222.633 346.141 222.277C346.441 221.922 346.592 221.414 346.592 220.753C346.592 220.179 346.451 219.728 346.168 219.399C345.89 219.071 345.471 218.907 344.91 218.907C344.564 218.907 344.245 218.982 343.953 219.133C343.661 219.279 343.431 219.481 343.263 219.741C343.094 219.996 343.01 220.258 343.01 220.527C343.01 221.17 343.183 221.712 343.529 222.154C343.88 222.592 344.327 222.811 344.869 222.811ZM357.864 222.462L357.953 222.134C358.14 221.455 358.302 220.933 358.438 220.568L360.134 216.439H362.273V224H360.79V217.896L360.667 218.306C360.462 219.039 360.289 219.579 360.147 219.926L358.493 224H357.276L355.622 219.898C355.394 219.306 355.185 218.638 354.993 217.896V224H353.523V216.439H355.649L357.29 220.445C357.436 220.814 357.627 221.487 357.864 222.462ZM370.812 224H364.037V222.783L366.614 220.192C367.375 219.413 367.879 218.862 368.125 218.538C368.376 218.21 368.558 217.902 368.672 217.615C368.786 217.328 368.843 217.021 368.843 216.692C368.843 216.241 368.706 215.886 368.433 215.626C368.164 215.366 367.79 215.236 367.312 215.236C366.929 215.236 366.557 215.307 366.197 215.448C365.842 215.59 365.429 215.845 364.96 216.214L364.092 215.154C364.648 214.685 365.188 214.352 365.712 214.156C366.236 213.96 366.794 213.862 367.387 213.862C368.316 213.862 369.062 214.106 369.622 214.594C370.183 215.077 370.463 215.729 370.463 216.549C370.463 217 370.381 217.428 370.217 217.834C370.057 218.24 369.809 218.659 369.472 219.092C369.139 219.52 368.583 220.101 367.804 220.835L366.067 222.517V222.585H370.812V224Z" fill="#3A3A3A"/>
<path d="M445.508 196.851C444.892 196.851 444.294 196.987 443.714 197.259L443.328 196.486C443.944 196.185 444.674 196.035 445.519 196.035C446.296 196.035 446.964 196.192 447.522 196.507C448.085 196.822 448.511 197.272 448.801 197.855C449.091 198.439 449.236 199.127 449.236 199.918C449.236 201.264 448.91 202.299 448.258 203.022C447.607 203.746 446.668 204.107 445.444 204.107C444.631 204.107 443.945 204.005 443.387 203.801V203.001C443.684 203.076 443.986 203.144 444.294 203.205C444.602 203.266 444.934 203.296 445.288 203.296C446.258 203.296 446.991 203.039 447.485 202.523C447.979 202.004 448.24 201.257 448.269 200.283H444.407V199.467H448.258C448.18 198.647 447.897 198.006 447.41 197.544C446.926 197.082 446.292 196.851 445.508 196.851ZM454.843 198.876H452.931V204H452.04V198.876H450.149V198.113H454.843V198.876ZM459.629 204L459.452 203.162H459.409C459.115 203.531 458.821 203.782 458.528 203.914C458.238 204.043 457.874 204.107 457.438 204.107C456.854 204.107 456.396 203.957 456.062 203.656C455.733 203.355 455.568 202.928 455.568 202.373C455.568 201.184 456.519 200.561 458.42 200.503L459.419 200.471V200.106C459.419 199.644 459.319 199.304 459.119 199.085C458.922 198.863 458.605 198.752 458.168 198.752C457.677 198.752 457.122 198.903 456.503 199.204L456.229 198.521C456.519 198.364 456.836 198.24 457.18 198.151C457.527 198.061 457.874 198.017 458.222 198.017C458.924 198.017 459.443 198.172 459.779 198.484C460.119 198.795 460.29 199.295 460.29 199.982V204H459.629ZM457.615 203.372C458.17 203.372 458.605 203.219 458.92 202.915C459.239 202.611 459.398 202.185 459.398 201.637V201.105L458.506 201.143C457.797 201.168 457.285 201.279 456.97 201.476C456.659 201.669 456.503 201.972 456.503 202.383C456.503 202.706 456.6 202.951 456.793 203.119C456.99 203.287 457.264 203.372 457.615 203.372ZM464.817 198.124H465.639V200.976L468.072 198.124H469.05L466.59 200.976L469.259 204H468.228L465.639 201.019V204H464.817V201.019L462.234 204H461.208L463.872 200.976L461.417 198.124H462.395L464.817 200.976V198.124ZM448.332 224H446.726V217.547C446.726 216.777 446.744 216.166 446.78 215.715C446.675 215.824 446.546 215.945 446.391 216.077C446.24 216.209 445.73 216.629 444.859 217.335L444.053 216.316L446.992 214.006H448.332V224ZM458.388 224H451.613V222.783L454.19 220.192C454.951 219.413 455.455 218.862 455.701 218.538C455.952 218.21 456.134 217.902 456.248 217.615C456.362 217.328 456.419 217.021 456.419 216.692C456.419 216.241 456.282 215.886 456.009 215.626C455.74 215.366 455.366 215.236 454.888 215.236C454.505 215.236 454.133 215.307 453.773 215.448C453.418 215.59 453.006 215.845 452.536 216.214L451.668 215.154C452.224 214.685 452.764 214.352 453.288 214.156C453.812 213.96 454.37 213.862 454.963 213.862C455.893 213.862 456.638 214.106 457.198 214.594C457.759 215.077 458.039 215.729 458.039 216.549C458.039 217 457.957 217.428 457.793 217.834C457.633 218.24 457.385 218.659 457.048 219.092C456.715 219.52 456.159 220.101 455.38 220.835L453.644 222.517V222.585H458.388V224ZM464.342 214.006L460.623 224H459.105L462.831 214.006H464.342ZM469.797 224H468.19V217.547C468.19 216.777 468.209 216.166 468.245 215.715C468.14 215.824 468.01 215.945 467.855 216.077C467.705 216.209 467.195 216.629 466.324 217.335L465.518 216.316L468.457 214.006H469.797V224ZM474.213 224L478.164 215.435H472.969V214.02H479.88V215.141L475.949 224H474.213Z" fill="#3A3A3A"/>
<rect x="313" y="249" width="256" height="1" fill="url(#paint1_linear)"/>
<path d="M320.464 291.288C317.728 291.288 315.544 290.32 313.912 288.384L316.456 285.96C317.656 287.304 319.008 287.976 320.512 287.976C321.216 287.976 321.784 287.792 322.216 287.424C322.664 287.04 322.888 286.528 322.888 285.888C322.888 285.2 322.6 284.672 322.024 284.304C321.448 283.936 320.64 283.752 319.6 283.752H318.064L317.488 281.4L321.496 277.368H314.896V274.2H326.248V276.984L322 281.04C325.008 281.552 326.512 283.136 326.512 285.792C326.512 287.408 325.96 288.728 324.856 289.752C323.768 290.776 322.304 291.288 320.464 291.288ZM335.466 291.24C333.578 291.24 332.026 290.792 330.81 289.896C329.594 289 328.986 287.816 328.986 286.344C328.986 284.472 329.89 283.12 331.698 282.288C330.274 281.424 329.562 280.184 329.562 278.568C329.562 277.256 330.106 276.16 331.194 275.28C332.298 274.4 333.722 273.96 335.466 273.96C337.226 273.96 338.65 274.4 339.738 275.28C340.826 276.16 341.37 277.272 341.37 278.616C341.37 280.2 340.658 281.424 339.234 282.288C340.146 282.768 340.826 283.312 341.274 283.92C341.722 284.528 341.946 285.32 341.946 286.296C341.946 287.816 341.338 289.024 340.122 289.92C338.922 290.8 337.37 291.24 335.466 291.24ZM333.714 280.488C334.162 280.872 334.746 281.064 335.466 281.064C336.186 281.064 336.762 280.872 337.194 280.488C337.642 280.104 337.866 279.6 337.866 278.976C337.866 278.432 337.642 277.968 337.194 277.584C336.762 277.2 336.186 277.008 335.466 277.008C334.73 277.008 334.146 277.2 333.714 277.584C333.282 277.968 333.066 278.44 333.066 279C333.066 279.592 333.282 280.088 333.714 280.488ZM335.466 288.192C336.362 288.192 337.066 287.992 337.578 287.592C338.106 287.192 338.37 286.68 338.37 286.056C338.37 285.416 338.098 284.912 337.554 284.544C337.026 284.176 336.33 283.992 335.466 283.992C334.602 283.992 333.898 284.184 333.354 284.568C332.826 284.936 332.562 285.448 332.562 286.104C332.562 286.696 332.826 287.192 333.354 287.592C333.882 287.992 334.586 288.192 335.466 288.192ZM357.539 291.288C355.107 291.288 353.011 290.448 351.251 288.768L353.483 286.104C354.827 287.32 356.163 287.928 357.491 287.928C358.371 287.928 359.059 287.72 359.555 287.304C360.051 286.888 360.299 286.304 360.299 285.552C360.299 284.848 360.027 284.296 359.483 283.896C358.939 283.48 358.219 283.272 357.323 283.272C356.427 283.272 355.491 283.48 354.515 283.896L352.379 282.48L352.859 274.2H363.179V277.44H356.027L355.835 280.344C356.603 280.152 357.339 280.056 358.043 280.056C359.787 280.056 361.203 280.504 362.291 281.4C363.379 282.296 363.923 283.656 363.923 285.48C363.923 287.256 363.339 288.672 362.171 289.728C361.019 290.768 359.475 291.288 357.539 291.288ZM372.467 291.288C370.387 291.288 368.547 290.624 366.947 289.296L368.891 286.488C370.091 287.448 371.315 287.928 372.563 287.928C373.555 287.928 374.339 287.584 374.915 286.896C375.491 286.208 375.843 285.28 375.971 284.112C375.075 284.88 373.939 285.264 372.563 285.264C370.723 285.264 369.259 284.784 368.171 283.824C367.099 282.848 366.563 281.504 366.563 279.792C366.563 278.096 367.155 276.696 368.339 275.592C369.539 274.472 371.083 273.912 372.971 273.912C374.075 273.912 374.995 274.056 375.731 274.344C376.483 274.632 377.179 275.096 377.819 275.736C379.147 277.064 379.811 279.192 379.811 282.12C379.811 284.904 379.171 287.128 377.891 288.792C376.611 290.456 374.803 291.288 372.467 291.288ZM371.027 281.496C371.555 281.96 372.267 282.192 373.163 282.192C374.059 282.192 374.763 281.96 375.275 281.496C375.787 281.016 376.043 280.4 376.043 279.648C376.043 278.896 375.779 278.28 375.251 277.8C374.723 277.32 374.003 277.08 373.091 277.08C372.195 277.08 371.491 277.32 370.979 277.8C370.483 278.264 370.235 278.888 370.235 279.672C370.235 280.424 370.499 281.032 371.027 281.496ZM388.669 291.24C386.781 291.24 385.229 290.792 384.013 289.896C382.797 289 382.189 287.816 382.189 286.344C382.189 284.472 383.093 283.12 384.901 282.288C383.477 281.424 382.765 280.184 382.765 278.568C382.765 277.256 383.309 276.16 384.397 275.28C385.501 274.4 386.925 273.96 388.669 273.96C390.429 273.96 391.853 274.4 392.941 275.28C394.029 276.16 394.573 277.272 394.573 278.616C394.573 280.2 393.861 281.424 392.437 282.288C393.349 282.768 394.029 283.312 394.477 283.92C394.925 284.528 395.149 285.32 395.149 286.296C395.149 287.816 394.541 289.024 393.325 289.92C392.125 290.8 390.573 291.24 388.669 291.24ZM386.917 280.488C387.365 280.872 387.949 281.064 388.669 281.064C389.389 281.064 389.965 280.872 390.397 280.488C390.845 280.104 391.069 279.6 391.069 278.976C391.069 278.432 390.845 277.968 390.397 277.584C389.965 277.2 389.389 277.008 388.669 277.008C387.933 277.008 387.349 277.2 386.917 277.584C386.485 277.968 386.269 278.44 386.269 279C386.269 279.592 386.485 280.088 386.917 280.488ZM388.669 288.192C389.565 288.192 390.269 287.992 390.781 287.592C391.309 287.192 391.573 286.68 391.573 286.056C391.573 285.416 391.301 284.912 390.757 284.544C390.229 284.176 389.533 283.992 388.669 283.992C387.805 283.992 387.101 284.184 386.557 284.568C386.029 284.936 385.765 285.448 385.765 286.104C385.765 286.696 386.029 287.192 386.557 287.592C387.085 287.992 387.789 288.192 388.669 288.192ZM407.694 291V277.824L404.766 278.544L403.998 275.52L408.822 274.08H411.342V291H407.694ZM414.723 291V288.072L420.315 283.488C421.419 282.576 422.179 281.848 422.595 281.304C423.011 280.744 423.219 280.128 423.219 279.456C423.219 278.768 423.011 278.232 422.595 277.848C422.179 277.464 421.635 277.272 420.963 277.272C420.339 277.272 419.771 277.448 419.259 277.8C418.763 278.136 418.187 278.712 417.531 279.528L414.939 277.44C415.819 276.24 416.723 275.36 417.651 274.8C418.595 274.24 419.779 273.96 421.203 273.96C422.947 273.96 424.347 274.44 425.403 275.4C426.459 276.344 426.987 277.608 426.987 279.192C426.987 280.104 426.811 280.928 426.459 281.664C426.107 282.384 425.651 283.024 425.091 283.584C424.531 284.128 423.691 284.832 422.571 285.696L419.835 287.808H427.155V291H414.723ZM442.636 288.816C441.244 290.464 439.444 291.288 437.236 291.288C435.028 291.288 433.236 290.464 431.86 288.816C430.484 287.168 429.796 285.096 429.796 282.6C429.796 280.12 430.492 278.056 431.884 276.408C433.276 274.744 435.076 273.912 437.284 273.912C439.476 273.912 441.26 274.736 442.636 276.384C444.028 278.032 444.724 280.104 444.724 282.6C444.724 285.08 444.028 287.152 442.636 288.816ZM434.596 286.44C435.284 287.448 436.18 287.952 437.284 287.952C438.388 287.952 439.268 287.456 439.924 286.464C440.596 285.456 440.932 284.168 440.932 282.6C440.932 281.064 440.588 279.792 439.9 278.784C439.212 277.76 438.324 277.248 437.236 277.248C436.148 277.248 435.268 277.752 434.596 278.76C433.924 279.752 433.588 281.032 433.588 282.6C433.588 284.152 433.924 285.432 434.596 286.44ZM455.387 291V288.432H453.467V286.104H455.387V284.232H453.467V281.256H455.387V273.864H460.859C463.067 273.864 464.675 274.312 465.683 275.208C466.707 276.104 467.219 277.336 467.219 278.904C467.219 279.832 467.011 280.704 466.595 281.52C466.179 282.336 465.483 282.992 464.507 283.488C463.547 283.984 462.235 284.232 460.571 284.232H459.011V286.104H462.707V288.432H459.011V291H455.387ZM459.011 281.256H460.211C461.235 281.256 462.043 281.08 462.635 280.728C463.243 280.376 463.547 279.808 463.547 279.024C463.547 277.568 462.587 276.84 460.667 276.84H459.011V281.256Z" fill="#3FBC7B"/>
<defs>
<filter id="filter0_d" x="0" y="0" width="687" height="402" filterUnits="userSpaceOnUse" color-interpolation-filters="sRGB">
<feFlood flood-opacity="0" result="BackgroundImageFix"/>
<feColorMatrix in="SourceAlpha" type="matrix" values="0 0 0 0 0 0 0 0 0 0 0 0 0 0 0 0 0 0 127 0"/>
<feOffset/>
<feGaussianBlur stdDeviation="37.5"/>
<feColorMatrix type="matrix" values="0 0 0 0 0 0 0 0 0 0 0 0 0 0 0 0 0 0 0.06 0"/>
<feBlend mode="normal" in2="BackgroundImageFix" result="effect1_dropShadow"/>
<feBlend mode="normal" in="SourceGraphic" in2="effect1_dropShadow" result="shape"/>
</filter>
<linearGradient id="paint0_linear" x1="156.459" y1="191.699" x2="178.199" y2="191.699" gradientUnits="userSpaceOnUse">
<stop stop-color="#725E55"/>
<stop offset="1" stop-color="#88563F"/>
</linearGradient>
<linearGradient id="paint1_linear" x1="313" y1="249.5" x2="569" y2="249.5" gradientUnits="userSpaceOnUse">
<stop stop-color="#3FBB7B"/>
<stop offset="1" stop-color="#31CB50"/>
</linearGradient>
</defs>
</svg>
