<svg width="155" height="187" viewBox="0 0 155 187" fill="none" xmlns="http://www.w3.org/2000/svg">
<path fill-rule="evenodd" clip-rule="evenodd" d="M72.7739 6.94067H0V157.74H77.2754V184.374H143.297V187H154.176V6.94067H93.0306V17.8193H105.785V34.6998H109.161V17.8193H143.297V58.3326H109.161V50.455H105.785V58.3326H103.159V62.0838H143.297V142.735H119.664V154.364H118.539V157.74H143.297V180.623H80.6515V157.74H87.7789V154.364H86.2784V142.36H82.152V62.0838H85.153V58.3326H82.152V47.8291H76.5252V51.2052H79.151V142.36H63.3959V154.739H61.8954V156.99H34.1362V154.739H32.6357V142.36H8.62784V51.2052H49.8914V47.8291H48.766V42.5774H45.3899V47.8291H8.62784V17.8193H45.3899V26.8222H48.3909V17.8193H72.7739V6.94067Z" fill="#EBEBEB"/>
<path d="M0 6.94074H48.766V7.31586H0V6.94074Z" fill="#606066"/>
<path d="M72.7739 6.75317H55.5183V7.1283H72.2113V17.0691H7.87759V143.111H86.2784V142.36H8.62784V17.6318H72.7739V6.75317Z" fill="#606066"/>
<path d="M0 17.0691H0.750247V118.352H0V17.0691Z" fill="#606066"/>
<path d="M45.3899 26.8223V17.8193H46.1402V26.072H47.6407V17.8193H48.3909V26.8223H45.3899Z" fill="#606066"/>
<path d="M45.3899 47.8292H8.62784V48.5794H46.1402V43.3277H48.0158V48.5794H49.1412V50.4551H8.62784V51.2053H49.8914V47.8292H48.766V42.5775H45.3899V47.8292Z" fill="#606066"/>
<path d="M87.7789 157.74H0V156.99H87.0286V155.114H85.5281V143.111H86.2784V154.364H87.7789V157.74Z" fill="#606066"/>
<path d="M32.6357 143.111H31.8855V155.49H33.386V156.99H34.1362V154.739H32.6357V143.111Z" fill="#606066"/>
<path d="M63.3959 143.111H64.1461V155.49H62.6456V156.99H61.8954V154.739H63.3959V143.111Z" fill="#606066"/>
<path fill-rule="evenodd" clip-rule="evenodd" d="M77.2754 157.74V184.374H143.297V187H154.176V156.99H153.801V186.25H144.047V156.99H143.297H119.289V155.114H120.415V143.486H144.235V142.735H143.297H131.668H131.293H101.283V156.99H100.908V157.74H118.539H143.297V180.623H80.6515V157.74H79.9013V181.373H143.297V183.624H78.0257V157.74H77.2754ZM119.664 154.364H118.539V156.99H102.034V143.486H119.664V154.364Z" fill="#606066"/>
<path d="M154.176 143.486H153.801V17.0691H154.176V143.486Z" fill="#606066"/>
<path d="M143.297 142.735H144.235L144.047 17.0691H93.7809V7.69098H154.176V6.94074H93.0306V17.8193H106.535H108.411H109.161H143.297V58.3326V59.0829V61.3336V62.0839V142.735Z" fill="#606066"/>
<path d="M105.785 17.8193V34.6999H109.161V17.8193H108.411V33.9496H106.535V17.8193H105.785Z" fill="#606066"/>
<path d="M143.297 58.3326H109.161V50.4551H105.785V58.3326H103.159V62.0839H131.293H131.668H143.297V61.3336H103.909V59.0829H106.535V51.2053H108.411V59.0829H143.297V58.3326Z" fill="#606066"/>
<path d="M79.151 142.548V51.2053H76.5252V47.8292H82.152V58.3326H85.153V62.0839H82.152V142.548H81.4018V61.3336H84.4028V59.0829H81.4018V48.5794H77.2754V50.4551H79.9013V142.548H79.151Z" fill="#606066"/>
<path d="M131.668 62.0839H131.293V142.735H131.668V62.0839Z" fill="#606066"/>
<rect x="32.6357" y="152.114" width="30.7601" height="0.375123" fill="#7CAFBA"/>
<rect x="32.6357" y="152.489" width="30.7601" height="0.750247" fill="#BFEBF4"/>
<rect x="34.1367" y="154.74" width="27.7591" height="0.375123" fill="#7CAFBA"/>
<rect x="34.1367" y="155.115" width="27.7591" height="0.750247" fill="#BFEBF4"/>
<rect x="102.033" y="152.114" width="17.6308" height="0.375123" fill="#7CAFBA"/>
<rect x="102.033" y="152.489" width="17.6308" height="0.750247" fill="#BFEBF4"/>
<rect x="102.033" y="154.74" width="16.5054" height="0.375123" fill="#7CAFBA"/>
<rect x="102.033" y="155.115" width="16.5054" height="0.750247" fill="#BFEBF4"/>
<path fill-rule="evenodd" clip-rule="evenodd" d="M142.922 34.3248H134.669V44.4532H142.922V34.3248ZM134.669 33.9497C134.462 33.9497 134.294 34.1177 134.294 34.3248V44.4532C134.294 44.6603 134.462 44.8283 134.669 44.8283H143.297V33.9497H134.669Z" fill="#222225"/>
<path fill-rule="evenodd" clip-rule="evenodd" d="M141.421 35.0751H135.419V43.7029H141.421V35.0751ZM135.419 34.7C135.212 34.7 135.044 34.8679 135.044 35.0751V43.7029C135.044 43.9101 135.212 44.078 135.419 44.078H141.421C141.628 44.078 141.796 43.9101 141.796 43.7029V35.0751C141.796 34.8679 141.628 34.7 141.421 34.7H135.419Z" fill="#222225"/>
<path d="M139.921 38.8262H141.421V39.9515H139.921V38.8262Z" fill="#222225"/>
<path fill-rule="evenodd" clip-rule="evenodd" d="M142.922 37.7009H141.797V41.4522H142.922V37.7009ZM142.547 38.8263H142.172V39.9517H142.547V38.8263Z" fill="#222225"/>
<path fill-rule="evenodd" clip-rule="evenodd" d="M142.922 17.8195L109.536 17.8195L109.536 32.0741H142.922V17.8195ZM109.536 17.4443C109.329 17.4443 109.161 17.6123 109.161 17.8195V32.0741C109.161 32.2813 109.329 32.4493 109.536 32.4493H143.297V17.4443H109.536Z" fill="#222225"/>
<path fill-rule="evenodd" clip-rule="evenodd" d="M140.672 18.9449H115.914C113.428 18.9449 111.412 20.9603 111.412 23.4464V26.8225C111.412 29.3086 113.428 31.324 115.914 31.324H140.672C141.086 31.324 141.422 30.9881 141.422 30.5738V19.6952C141.422 19.2808 141.086 18.9449 140.672 18.9449ZM115.914 18.5698C113.22 18.5698 111.037 20.7532 111.037 23.4464V26.8225C111.037 29.5158 113.22 31.6991 115.914 31.6991H140.672C141.293 31.6991 141.797 31.1953 141.797 30.5738V19.6952C141.797 19.0737 141.293 18.5698 140.672 18.5698H115.914Z" fill="#222225"/>
<path d="M138.421 24.5718C138.421 24.1574 138.757 23.8215 139.171 23.8215H139.921C140.336 23.8215 140.672 24.1574 140.672 24.5718V25.322C140.672 25.7364 140.336 26.0723 139.921 26.0723H139.171C138.757 26.0723 138.421 25.7364 138.421 25.322V24.5718Z" fill="#222225"/>
<path d="M139.546 24.9469C139.546 24.7397 139.714 24.5718 139.921 24.5718C140.128 24.5718 140.296 24.7397 140.296 24.9469C140.296 25.1541 140.128 25.322 139.921 25.322C139.714 25.322 139.546 25.1541 139.546 24.9469Z" fill="white"/>
<path fill-rule="evenodd" clip-rule="evenodd" d="M122.295 20.4454C122.295 20.4454 122.295 20.4454 122.291 20.6329C122.287 20.8204 122.287 20.8204 122.287 20.8204L122.281 20.8203L122.263 20.82C122.248 20.8197 122.224 20.8193 122.194 20.819C122.133 20.8182 122.043 20.8175 121.928 20.8175C121.699 20.8175 121.371 20.8204 120.978 20.8321C120.19 20.8554 119.142 20.9137 118.096 21.0532C117.046 21.1932 116.012 21.4131 115.246 21.7538C114.468 22.0996 114.038 22.5342 114.038 23.0712V27.1975C114.038 27.3839 114.131 27.5652 114.337 27.7456C114.544 27.9277 114.851 28.0946 115.237 28.2448C116.008 28.5447 117.047 28.7592 118.098 28.911C119.146 29.0624 120.196 29.1499 120.984 29.1995C121.378 29.2243 121.706 29.2397 121.936 29.2488C122.05 29.2533 122.141 29.2563 122.202 29.2582C122.232 29.2591 122.256 29.2598 122.272 29.2602L122.289 29.2606L122.295 29.2608C122.295 29.2608 122.295 29.2608 122.291 29.4483C122.287 29.6358 122.287 29.6358 122.287 29.6358L122.28 29.6356L122.262 29.6352C122.246 29.6347 122.222 29.6341 122.19 29.6331C122.128 29.6312 122.037 29.6282 121.921 29.6236C121.689 29.6144 121.358 29.5989 120.96 29.5739C120.166 29.5239 119.106 29.4356 118.044 29.2822C116.985 29.1293 115.913 28.91 115.101 28.5944C114.696 28.4369 114.344 28.2507 114.09 28.0276C113.834 27.8028 113.663 27.5269 113.663 27.1975V23.0712C113.663 22.2953 114.289 21.7686 115.093 21.411C115.909 21.0483 116.985 20.8228 118.046 20.6814C119.11 20.5396 120.172 20.4807 120.967 20.4571C121.364 20.4453 121.696 20.4424 121.928 20.4424C122.044 20.4424 122.136 20.4431 122.198 20.4439C122.23 20.4442 122.254 20.4446 122.27 20.4449L122.289 20.4452L122.295 20.4454Z" fill="#222225"/>
<path fill-rule="evenodd" clip-rule="evenodd" d="M142.172 48.9547H140.296C140.089 48.9547 139.921 49.1227 139.921 49.3298V54.9567C139.921 55.1639 140.089 55.3318 140.296 55.3318H142.172C142.379 55.3318 142.547 55.1639 142.547 54.9567V49.3298C142.547 49.1227 142.379 48.9547 142.172 48.9547ZM140.296 48.5796C139.882 48.5796 139.546 48.9155 139.546 49.3298V54.9567C139.546 55.371 139.882 55.7069 140.296 55.7069H142.172C142.586 55.7069 142.922 55.371 142.922 54.9567V49.3298C142.922 48.9155 142.586 48.5796 142.172 48.5796H140.296Z" fill="#222225"/>
<path d="M141.796 51.9556C141.796 52.3699 141.46 52.7058 141.046 52.7058C140.632 52.7058 140.296 52.3699 140.296 51.9556C140.296 51.5412 140.632 51.2053 141.046 51.2053C141.46 51.2053 141.796 51.5412 141.796 51.9556Z" fill="#222225"/>
<path fill-rule="evenodd" clip-rule="evenodd" d="M128.104 52.3307C128.104 49.9882 130.099 48.2044 132.418 48.2043C134.234 48.2043 135.666 48.6828 136.84 49.0818L136.889 49.0986C137.459 49.2923 137.957 49.462 138.416 49.5531C138.885 49.6463 139.294 49.6535 139.674 49.5269L139.921 49.4446V54.9937L139.7 54.9535C138.726 54.7764 137.65 55.1296 136.419 55.5558C136.381 55.5687 136.344 55.5816 136.307 55.5946C135.123 56.0047 133.818 56.4571 132.418 56.4571C130.099 56.4571 128.104 54.6732 128.104 52.3307ZM132.418 48.5795C130.283 48.5795 128.48 50.2177 128.48 52.3307C128.48 54.4437 130.283 56.0819 132.418 56.0819C133.754 56.0819 135.006 55.6481 136.204 55.2332C136.235 55.2225 136.265 55.2119 136.296 55.2013C137.422 54.8117 138.519 54.44 139.546 54.5524V49.9491C139.158 50.0292 138.758 50.0036 138.343 49.921C137.859 49.8249 137.34 49.6481 136.781 49.4581C136.76 49.4511 136.74 49.444 136.719 49.4369C135.548 49.0388 134.167 48.5795 132.418 48.5795Z" fill="#222225"/>
<path fill-rule="evenodd" clip-rule="evenodd" d="M132.981 55.3317C135.005 55.3317 136.544 53.9359 136.544 52.3307C136.544 50.7255 135.005 49.3297 132.981 49.3297C130.956 49.3297 129.417 50.7255 129.417 52.3307C129.417 53.9359 130.956 55.3317 132.981 55.3317ZM132.981 55.7068C135.156 55.7068 136.92 54.1953 136.92 52.3307C136.92 50.4661 135.156 48.9546 132.981 48.9546C130.805 48.9546 129.042 50.4661 129.042 52.3307C129.042 54.1953 130.805 55.7068 132.981 55.7068Z" fill="#222225"/>
<path fill-rule="evenodd" clip-rule="evenodd" d="M133.543 52.7058C134.025 52.7058 134.294 52.3928 134.294 52.1431C134.294 51.8935 134.025 51.5804 133.543 51.5804C133.062 51.5804 132.793 51.8935 132.793 52.1431C132.793 52.3928 133.062 52.7058 133.543 52.7058ZM133.543 53.0809C134.165 53.0809 134.669 52.6611 134.669 52.1431C134.669 51.6252 134.165 51.2053 133.543 51.2053C132.922 51.2053 132.418 51.6252 132.418 52.1431C132.418 52.6611 132.922 53.0809 133.543 53.0809Z" fill="#222225"/>
<path fill-rule="evenodd" clip-rule="evenodd" d="M142.172 63.2094H132.794L132.794 81.5904H142.172V63.2094ZM132.794 62.8342C132.587 62.8342 132.419 63.0022 132.419 63.2094V81.5904C132.419 81.7976 132.587 81.9655 132.794 81.9655H142.172C142.379 81.9655 142.547 81.7976 142.547 81.5904V63.2094C142.547 63.0022 142.379 62.8342 142.172 62.8342H132.794Z" fill="#222225"/>
<path fill-rule="evenodd" clip-rule="evenodd" d="M140.671 64.3346H133.919V71.8371H140.671V64.3346ZM133.919 63.9595C133.712 63.9595 133.544 64.1274 133.544 64.3346V71.8371C133.544 72.0442 133.712 72.2122 133.919 72.2122H140.671C140.878 72.2122 141.046 72.0442 141.046 71.8371V64.3346C141.046 64.1274 140.878 63.9595 140.671 63.9595H133.919Z" fill="#222225"/>
<path d="M138.906 70.4143L138.874 70.4465C138.727 70.593 138.727 70.8305 138.874 70.977L140.969 73.0724C141.115 73.2189 141.353 73.2189 141.499 73.0724L141.532 73.0402C141.678 72.8937 141.678 72.6562 141.532 72.5097L139.436 70.4143C139.29 70.2678 139.052 70.2678 138.906 70.4143Z" fill="#222225"/>
<path d="M133.544 73.7126H133.919V79.7146H133.544V73.7126Z" fill="#222225"/>
<path d="M134.295 73.7126H134.67V79.7146H134.295V73.7126Z" fill="#222225"/>
<path d="M135.045 73.7126H135.42V80.4649H135.045V73.7126Z" fill="#222225"/>
<path d="M135.795 73.7126H136.17V80.4649H135.795V73.7126Z" fill="#222225"/>
<path d="M136.545 73.7126H136.92V80.4649H136.545V73.7126Z" fill="#222225"/>
<path d="M137.296 73.7126H137.671V80.4649H137.296V73.7126Z" fill="#222225"/>
<path d="M138.046 73.7126H138.421V80.4649H138.046V73.7126Z" fill="#222225"/>
<path d="M138.796 73.7126H139.171V80.4649H138.796V73.7126Z" fill="#222225"/>
<path d="M139.546 73.7126H139.921V80.4649H139.546V73.7126Z" fill="#222225"/>
<path d="M140.297 73.7126H140.672V79.7146H140.297V73.7126Z" fill="#222225"/>
<path d="M141.047 73.7126H141.422V79.7146H141.047V73.7126Z" fill="#222225"/>
<path fill-rule="evenodd" clip-rule="evenodd" d="M143.297 99.2211H131.668V111.6H143.297V99.2211ZM131.293 98.8459V111.975H143.672V98.8459H131.293Z" fill="#222225"/>
<path d="M137.295 99.2209H137.67V111.975H137.295V99.2209Z" fill="#222225"/>
<path d="M131.668 105.223H143.297V105.598H131.668V105.223Z" fill="#222225"/>
<path fill-rule="evenodd" clip-rule="evenodd" d="M137.225 105.41L131.531 99.3494L131.805 99.0925L137.482 105.137L143.16 99.0925L143.433 99.3494L137.74 105.41L143.433 111.472L143.16 111.728L137.482 105.684L131.805 111.728L131.531 111.472L137.225 105.41Z" fill="#222225"/>
<path fill-rule="evenodd" clip-rule="evenodd" d="M137.432 99.3493L131.805 105.351L131.531 105.095L137.158 99.0928L137.432 99.3493ZM143.16 105.351L137.533 99.3493L137.807 99.0928L143.434 105.095L143.16 105.351ZM137.158 111.728L131.531 105.726L131.805 105.47L137.432 111.472L137.158 111.728ZM143.434 105.726L137.807 111.728L137.533 111.472L143.16 105.47L143.434 105.726Z" fill="#222225"/>
<path fill-rule="evenodd" clip-rule="evenodd" d="M134.481 104.098C135.413 104.098 136.169 103.342 136.169 102.41C136.169 101.477 135.413 100.722 134.481 100.722C133.549 100.722 132.793 101.477 132.793 102.41C132.793 103.342 133.549 104.098 134.481 104.098ZM134.481 104.473C135.621 104.473 136.544 103.549 136.544 102.41C136.544 101.27 135.621 100.346 134.481 100.346C133.342 100.346 132.418 101.27 132.418 102.41C132.418 103.549 133.342 104.473 134.481 104.473Z" fill="#222225"/>
<path fill-rule="evenodd" clip-rule="evenodd" d="M140.859 110.1C141.791 110.1 142.547 109.344 142.547 108.412C142.547 107.479 141.791 106.724 140.859 106.724C139.927 106.724 139.171 107.479 139.171 108.412C139.171 109.344 139.927 110.1 140.859 110.1ZM140.859 110.475C141.999 110.475 142.922 109.551 142.922 108.412C142.922 107.272 141.999 106.348 140.859 106.348C139.72 106.348 138.796 107.272 138.796 108.412C138.796 109.551 139.72 110.475 140.859 110.475Z" fill="#222225"/>
<path fill-rule="evenodd" clip-rule="evenodd" d="M140.671 103.347C141.293 103.347 141.797 102.843 141.797 102.222C141.797 101.6 141.293 101.097 140.671 101.097C140.05 101.097 139.546 101.6 139.546 102.222C139.546 102.843 140.05 103.347 140.671 103.347ZM140.671 103.722C141.5 103.722 142.172 103.051 142.172 102.222C142.172 101.393 141.5 100.721 140.671 100.721C139.843 100.721 139.171 101.393 139.171 102.222C139.171 103.051 139.843 103.722 140.671 103.722Z" fill="#222225"/>
<path fill-rule="evenodd" clip-rule="evenodd" d="M134.293 109.724C134.915 109.724 135.419 109.221 135.419 108.599C135.419 107.978 134.915 107.474 134.293 107.474C133.672 107.474 133.168 107.978 133.168 108.599C133.168 109.221 133.672 109.724 134.293 109.724ZM134.293 110.1C135.122 110.1 135.794 109.428 135.794 108.599C135.794 107.77 135.122 107.099 134.293 107.099C133.465 107.099 132.793 107.77 132.793 108.599C132.793 109.428 133.465 110.1 134.293 110.1Z" fill="#222225"/>
<path fill-rule="evenodd" clip-rule="evenodd" d="M100.515 69.3039L85.0527 59.617L85.2519 59.2991L100.726 68.9939C101.125 68.3964 101.462 67.8019 101.758 67.177C102.428 65.7621 102.889 64.1829 103.35 62.0444L103.717 62.1234C103.253 64.273 102.785 65.8846 102.097 67.3376C101.408 68.7922 100.502 70.0793 99.1725 71.5861L98.8913 71.3379C99.3482 70.8201 99.753 70.3303 100.115 69.8523L85.0538 60.5554L85.2508 60.2362L100.339 69.5499C100.399 69.4677 100.457 69.3857 100.515 69.3039Z" fill="#222225"/>
<path fill-rule="evenodd" clip-rule="evenodd" d="M98.9625 36.8322L108.253 50.9333L108.566 50.7269L99.2813 36.6343C99.7973 36.3242 100.317 36.0623 100.859 35.8309C102.285 35.2232 103.878 34.8233 106.015 34.3197L105.929 33.9546C103.796 34.4572 102.172 34.8635 100.712 35.4858C99.2474 36.1104 97.9527 36.9499 96.4667 38.3128L96.7203 38.5893C97.245 38.1079 97.744 37.6944 98.2338 37.334L107.316 50.9343L107.628 50.7259L98.539 37.1155C98.6805 37.0169 98.8216 36.9227 98.9625 36.8322Z" fill="#222225"/>
<path fill-rule="evenodd" clip-rule="evenodd" d="M90.103 1.2596L72.481 13.1624L72.691 13.4733L90.301 1.57852C90.8273 2.43017 91.241 3.13824 91.6062 3.9196C92.1385 5.05819 92.5697 6.35696 93.0862 8.48233L93.4507 8.39374C92.9313 6.25651 92.4931 4.93102 91.9461 3.76074C91.4547 2.70957 90.8769 1.78732 90.084 0.521773C89.9964 0.381952 89.9062 0.237942 89.8132 0.0891031L89.4951 0.287918C89.5826 0.428 89.6675 0.56358 89.75 0.6952L72.483 12.0357L72.689 12.3492L89.9491 1.01321C90.0014 1.09684 90.0527 1.17892 90.103 1.2596Z" fill="#222225"/>
<path fill-rule="evenodd" clip-rule="evenodd" d="M37.4663 40.1639L47.6772 26.3356L47.979 26.5585L37.7838 40.3655C38.473 40.7843 39.2031 41.1097 39.9791 41.3874C41.0185 41.7594 42.1264 42.0421 43.3285 42.3488C44.0586 42.5351 44.8234 42.7302 45.6288 42.9597L45.526 43.3204C44.7452 43.098 43.9901 42.9052 43.2628 42.7194C42.0454 42.4085 40.9057 42.1175 39.8526 41.7406C38.1552 41.133 36.6474 40.293 35.3079 38.7621L35.5902 38.5151C36.0126 38.9978 36.4522 39.4093 36.9109 39.7653L46.7389 26.3363L47.0416 26.5578L37.212 39.9891C37.2961 40.0491 37.3809 40.1073 37.4663 40.1639Z" fill="#222225"/>
<path fill-rule="evenodd" clip-rule="evenodd" d="M62.5527 58.2979L76.8138 49.1122L76.6106 48.7968L62.3069 58.01C61.7036 57.29 61.1828 56.5658 60.7134 55.7872C59.7249 54.1477 58.9592 52.2593 58.1349 49.6483L57.7772 49.7612C58.6054 52.3846 59.3816 54.3049 60.3921 55.9809C61.4034 57.6582 62.6443 59.0825 64.3925 60.7202L64.6489 60.4465C64.0903 59.9232 63.5855 59.4233 63.1248 58.9312L76.8143 50.0497L76.6101 49.735L62.8668 58.6514C62.7597 58.5334 62.6551 58.4156 62.5527 58.2979Z" fill="#222225"/>
<path fill-rule="evenodd" clip-rule="evenodd" d="M55.8516 53.5057L49.6058 49.6772L49.8018 49.3573L56.0826 53.2073C56.2746 52.9488 56.4477 52.6866 56.6077 52.4099C57.0576 51.6318 57.4084 50.7311 57.7764 49.4649L58.1366 49.5696C57.7645 50.8502 57.4036 51.7829 56.9324 52.5977C56.4608 53.4134 55.8835 54.1026 55.0885 54.9013L54.8226 54.6367C55.0851 54.3729 55.3218 54.123 55.5374 53.878L49.4204 50.2412L49.6121 49.9187L55.7842 53.5883C55.8069 53.5607 55.8294 53.5332 55.8516 53.5057Z" fill="#222225"/>
<path fill-rule="evenodd" clip-rule="evenodd" d="M99.3877 146.326L86.5535 154.393L86.7532 154.711L99.6084 146.63C99.9044 147.052 100.143 147.454 100.348 147.879C100.868 148.957 101.182 150.199 101.663 152.342L102.029 152.26C101.549 150.123 101.228 148.839 100.686 147.716C100.143 146.59 99.3819 145.637 98.0461 144.149L97.767 144.399C98.1996 144.881 98.5686 145.303 98.8873 145.691L85.9906 153.831L86.1908 154.148L99.1247 145.985C99.2168 146.101 99.3043 146.214 99.3877 146.326Z" fill="#222225"/>
<path d="M27.1664 113.598C26.6892 114.071 26.0905 114.307 25.3703 114.307C24.6501 114.307 24.0514 114.071 23.5742 113.598C23.1016 113.125 22.8652 112.547 22.8652 111.863C22.8652 111.183 23.1038 110.607 23.581 110.134C24.0626 109.657 24.6636 109.418 25.3838 109.418C26.104 109.418 26.7005 109.655 27.1732 110.127C27.6503 110.6 27.8889 111.179 27.8889 111.863C27.8889 112.542 27.6481 113.121 27.1664 113.598ZM24.3575 112.916C24.6276 113.204 24.9697 113.348 25.3838 113.348C25.7979 113.348 26.1378 113.206 26.4034 112.923C26.669 112.635 26.8018 112.281 26.8018 111.863C26.8018 111.449 26.6667 111.098 26.3966 110.809C26.1266 110.521 25.7844 110.377 25.3703 110.377C24.9562 110.377 24.6163 110.521 24.3507 110.809C24.0851 111.093 23.9523 111.444 23.9523 111.863C23.9523 112.277 24.0874 112.628 24.3575 112.916Z" fill="#323232"/>
<path d="M29.8511 110.438V111.262H31.1003C31.627 111.262 32.0344 111.395 32.3225 111.66C32.6151 111.921 32.7614 112.277 32.7614 112.727C32.7614 113.204 32.6061 113.573 32.2954 113.834C31.9848 114.095 31.5527 114.226 30.999 114.226H28.8113V109.499H32.4372V110.438H29.8511ZM30.9923 112.126H29.8511V113.287H30.999C31.4807 113.287 31.7215 113.087 31.7215 112.687C31.7215 112.313 31.4784 112.126 30.9923 112.126Z" fill="#323232"/>
<path d="M39.6683 115.212V114.226H33.6183V109.499H34.6581V113.287H36.3394V109.499H37.3793V113.287H39.0673V109.499H40.1072V113.287H40.6676L40.5326 115.212H39.6683Z" fill="#323232"/>
<path d="M40.9941 114.226L43.0197 109.466H43.9785L46.0042 114.226H44.9171L44.4849 113.166H42.4863L42.0541 114.226H40.9941ZM42.8577 112.248H44.1136L43.4856 110.715L42.8577 112.248Z" fill="#323232"/>
<path d="M50.4744 109.499V114.226H49.4346V112.714H48.6176L47.6047 114.226H46.3893L47.544 112.538C46.8687 112.286 46.5311 111.793 46.5311 111.059C46.5311 110.573 46.6887 110.193 47.0038 109.918C47.3234 109.639 47.76 109.499 48.3137 109.499H50.4744ZM48.3812 111.795H49.4346V110.438H48.4015C48.1449 110.438 47.9446 110.497 47.8006 110.614C47.6565 110.731 47.5845 110.902 47.5845 111.127C47.5845 111.329 47.6543 111.491 47.7938 111.613C47.9378 111.734 48.1337 111.795 48.3812 111.795Z" fill="#323232"/>
<path d="M23.0746 121.353V116.627H24.1144V118.693L26.032 116.627H27.2879L25.3636 118.632L27.3757 121.353H26.1266L24.6613 119.341L24.1144 119.908V121.353H23.0746Z" fill="#323232"/>
<path d="M32.0987 120.725C31.6215 121.198 31.0228 121.434 30.3026 121.434C29.5824 121.434 28.9837 121.198 28.5065 120.725C28.0338 120.253 27.7975 119.674 27.7975 118.99C27.7975 118.31 28.0361 117.734 28.5133 117.262C28.9949 116.784 29.5959 116.546 30.3161 116.546C31.0363 116.546 31.6328 116.782 32.1054 117.255C32.5826 117.727 32.8212 118.306 32.8212 118.99C32.8212 119.67 32.5803 120.248 32.0987 120.725ZM29.2898 120.043C29.5599 120.332 29.902 120.476 30.3161 120.476C30.7302 120.476 31.0701 120.334 31.3357 120.05C31.6013 119.762 31.7341 119.409 31.7341 118.99C31.7341 118.576 31.599 118.225 31.3289 117.937C31.0588 117.649 30.7167 117.505 30.3026 117.505C29.8885 117.505 29.5486 117.649 29.283 117.937C29.0174 118.22 28.8846 118.571 28.8846 118.99C28.8846 119.404 29.0197 119.755 29.2898 120.043Z" fill="#323232"/>
<path d="M33.7436 121.353V116.627H34.8645L36.1069 118.625L37.3493 116.627H38.4701V121.353H37.4371V118.268L36.1069 120.287H36.0799L34.7632 118.288V121.353H33.7436Z" fill="#323232"/>
<path d="M39.6056 121.353V116.627H40.6455V118.497H42.5631V116.627H43.6029V121.353H42.5631V119.456H40.6455V121.353H39.6056Z" fill="#323232"/>
<path d="M44.3306 121.353L46.3563 116.593H47.3151L49.3407 121.353H48.2536L47.8215 120.293H45.8228L45.3907 121.353H44.3306ZM46.1942 119.375H47.4501L46.8222 117.842L46.1942 119.375Z" fill="#323232"/>
<path d="M51.1709 121.353V117.586H49.7326V116.627H53.6489V117.586H52.2107V121.353H51.1709Z" fill="#323232"/>
<path d="M54.0435 121.353L56.0692 116.593H57.028L59.0537 121.353H57.9665L57.5344 120.293H55.5358L55.1036 121.353H54.0435ZM55.9071 119.375H57.163L56.5351 117.842L55.9071 119.375Z" fill="#323232"/>
<path d="M93.9727 96.22V91.4934H95.0125V93.5596L96.9301 91.4934H98.186L96.2617 93.4988L98.2738 96.22H97.0247L95.5594 94.2078L95.0125 94.775V96.22H93.9727Z" fill="#323232"/>
<path d="M100.904 93.9917L102.045 91.4934H103.172L101.356 95.1464C101.153 95.5515 100.928 95.8441 100.681 96.0241C100.438 96.2042 100.147 96.2942 99.8097 96.2942C99.4541 96.2942 99.1143 96.202 98.7902 96.0174L99.1953 95.2544C99.3663 95.3579 99.5532 95.4097 99.7557 95.4097C99.9898 95.4097 100.188 95.2837 100.35 95.0316L98.4593 91.4934H99.6207L100.904 93.9917Z" fill="#323232"/>
<path d="M103.506 96.22L105.153 93.8162L103.573 91.4934H104.789L105.781 93.0262L106.781 91.4934H107.962L106.382 93.8027L108.03 96.22H106.814L105.754 94.5994L104.687 96.22H103.506Z" fill="#323232"/>
<path d="M108.809 96.22V91.4934H109.849V93.3638H111.767V91.4934H112.806V96.22H111.767V94.3226H109.849V96.22H108.809Z" fill="#323232"/>
<path d="M117.68 91.4934V96.22H116.64V94.7075H115.823L114.81 96.22H113.595L114.749 94.5319C114.074 94.2798 113.737 93.7869 113.737 93.0532C113.737 92.567 113.894 92.1866 114.209 91.912C114.529 91.633 114.966 91.4934 115.519 91.4934H117.68ZM115.587 93.7892H116.64V92.432H115.607C115.35 92.432 115.15 92.4905 115.006 92.6075C114.862 92.7246 114.79 92.8956 114.79 93.1207C114.79 93.3233 114.86 93.4853 114.999 93.6069C115.143 93.7284 115.339 93.7892 115.587 93.7892Z" fill="#323232"/>
<path d="M22.7832 35.0749V34.3884L24.0943 33.3137C24.3531 33.0999 24.5313 32.9292 24.6288 32.8017C24.7263 32.6704 24.7751 32.526 24.7751 32.3684C24.7751 32.2071 24.7263 32.0814 24.6288 31.9914C24.5313 31.9014 24.4037 31.8564 24.2462 31.8564C24.0999 31.8564 23.9667 31.8976 23.8467 31.9802C23.7304 32.0589 23.5953 32.194 23.4415 32.3853L22.8338 31.8958C23.0402 31.6144 23.2521 31.4081 23.4697 31.2768C23.691 31.1455 23.9686 31.0799 24.3025 31.0799C24.7113 31.0799 25.0396 31.1924 25.2872 31.4175C25.5347 31.6388 25.6585 31.9351 25.6585 32.3065C25.6585 32.5203 25.6173 32.7135 25.5347 32.8861C25.4522 33.0549 25.3453 33.2049 25.214 33.3362C25.0827 33.4638 24.8858 33.6288 24.6232 33.8314L23.9817 34.3266H25.6979V35.0749H22.7832Z" fill="#825946"/>
<path d="M26.2327 35.9865L26.1596 35.632C26.5272 35.5907 26.711 35.4257 26.711 35.1368V35.0749H26.3621V34.1746H27.2737V34.9343C27.2737 35.2944 27.1855 35.557 27.0092 35.722C26.8367 35.8908 26.5778 35.979 26.2327 35.9865Z" fill="#825946"/>
<path d="M29.5308 35.1424C29.0544 35.1424 28.6755 35.0018 28.3942 34.7204C28.0828 34.4091 27.9272 33.9083 27.9272 33.2181C27.9272 32.5804 28.0735 32.0627 28.3661 31.665C28.6586 31.2674 29.0882 31.0686 29.6546 31.0686C30.1122 31.0686 30.523 31.213 30.8869 31.5019L30.4311 32.1715C30.2886 32.0627 30.1573 31.9839 30.0372 31.9351C29.9209 31.8826 29.784 31.8564 29.6265 31.8564C29.3939 31.8564 29.2101 31.9408 29.075 32.1096C28.9437 32.2746 28.8631 32.4941 28.8331 32.7679C29.0882 32.5991 29.3601 32.5147 29.649 32.5147C30.0541 32.5147 30.3861 32.6254 30.6449 32.8467C30.9038 33.068 31.0332 33.3794 31.0332 33.7807C31.0332 34.1784 30.8906 34.5047 30.6055 34.7598C30.3204 35.0149 29.9622 35.1424 29.5308 35.1424ZM28.9963 34.2365C29.12 34.3453 29.287 34.3997 29.497 34.3997C29.7071 34.3997 29.8722 34.3453 29.9922 34.2365C30.1122 34.1277 30.1723 33.9852 30.1723 33.8089C30.1723 33.6401 30.1104 33.5032 29.9866 33.3981C29.8628 33.2893 29.6959 33.2349 29.4858 33.2349C29.2757 33.2349 29.1107 33.2875 28.9906 33.3925C28.8706 33.4975 28.8106 33.6382 28.8106 33.8145C28.8106 33.9833 28.8725 34.124 28.9963 34.2365Z" fill="#825946"/>
<path d="M70.1363 35.0749V34.2253H68.212L68.0713 33.6119L70.232 31.108H70.9635V33.5219H71.4924V34.2253H70.9635V35.0749H70.1363ZM69.0897 33.5219H70.1363V32.2953L69.0897 33.5219Z" fill="#825946"/>
<path d="M71.9958 35.9865L71.9226 35.632C72.2902 35.5907 72.474 35.4257 72.474 35.1368V35.0749H72.1252V34.1746H73.0367V34.9343C73.0367 35.2944 72.9486 35.557 72.7723 35.722C72.5997 35.8908 72.3409 35.979 71.9958 35.9865Z" fill="#825946"/>
<path d="M75.2938 35.1424C74.8174 35.1424 74.4386 35.0018 74.1572 34.7204C73.8459 34.4091 73.6902 33.9083 73.6902 33.2181C73.6902 32.5804 73.8365 32.0627 74.1291 31.665C74.4217 31.2674 74.8512 31.0686 75.4176 31.0686C75.8753 31.0686 76.286 31.213 76.6499 31.5019L76.1941 32.1715C76.0516 32.0627 75.9203 31.9839 75.8003 31.9351C75.684 31.8826 75.547 31.8564 75.3895 31.8564C75.1569 31.8564 74.9731 31.9408 74.8381 32.1096C74.7068 32.2746 74.6261 32.4941 74.5961 32.7679C74.8512 32.5991 75.1232 32.5147 75.412 32.5147C75.8171 32.5147 76.1491 32.6254 76.408 32.8467C76.6668 33.068 76.7962 33.3794 76.7962 33.7807C76.7962 34.1784 76.6537 34.5047 76.3686 34.7598C76.0835 35.0149 75.7252 35.1424 75.2938 35.1424ZM74.7593 34.2365C74.8831 34.3453 75.05 34.3997 75.2601 34.3997C75.4701 34.3997 75.6352 34.3453 75.7552 34.2365C75.8753 34.1277 75.9353 33.9852 75.9353 33.8089C75.9353 33.6401 75.8734 33.5032 75.7496 33.3981C75.6258 33.2893 75.4589 33.2349 75.2488 33.2349C75.0388 33.2349 74.8737 33.2875 74.7537 33.3925C74.6336 33.4975 74.5736 33.6382 74.5736 33.8145C74.5736 33.9833 74.6355 34.124 74.7593 34.2365Z" fill="#825946"/>
<path d="M79.3514 35.0749V34.2253H77.427L77.2864 33.6119L79.4471 31.108H80.1786V33.5219H80.7075V34.2253H80.1786V35.0749H79.3514ZM78.3048 33.5219H79.3514V32.2953L78.3048 33.5219Z" fill="#825946"/>
<path d="M113.911 46.3961C113.27 46.3961 112.758 46.1691 112.375 45.7152L112.971 45.1469C113.253 45.462 113.57 45.6196 113.922 45.6196C114.087 45.6196 114.221 45.5764 114.322 45.4902C114.427 45.4001 114.479 45.2801 114.479 45.13C114.479 44.9687 114.412 44.8449 114.277 44.7587C114.142 44.6724 113.952 44.6293 113.709 44.6293H113.348L113.213 44.0778L114.153 43.1325H112.606V42.3898H115.267V43.0425L114.271 43.9934C114.976 44.1135 115.329 44.4848 115.329 45.1075C115.329 45.4864 115.2 45.7959 114.941 46.036C114.686 46.276 114.343 46.3961 113.911 46.3961Z" fill="#825946"/>
<path d="M115.875 47.2401L115.802 46.8856C116.17 46.8444 116.354 46.6793 116.354 46.3905V46.3286H116.005V45.4283H116.916V46.1879C116.916 46.548 116.828 46.8106 116.652 46.9756C116.479 47.1445 116.221 47.2326 115.875 47.2401Z" fill="#825946"/>
<path d="M117.542 46.3286V45.6421L118.853 44.5674C119.112 44.3535 119.29 44.1829 119.387 44.0553C119.485 43.924 119.534 43.7796 119.534 43.622C119.534 43.4607 119.485 43.3351 119.387 43.245C119.29 43.155 119.162 43.11 119.005 43.11C118.858 43.11 118.725 43.1513 118.605 43.2338C118.489 43.3126 118.354 43.4476 118.2 43.6389L117.592 43.1494C117.799 42.868 118.011 42.6617 118.228 42.5304C118.45 42.3991 118.727 42.3335 119.061 42.3335C119.47 42.3335 119.798 42.446 120.046 42.6711C120.293 42.8924 120.417 43.1888 120.417 43.5601C120.417 43.774 120.376 43.9672 120.293 44.1397C120.211 44.3085 120.104 44.4586 119.973 44.5899C119.841 44.7174 119.644 44.8825 119.382 45.085L118.74 45.5802H120.456V46.3286H117.542Z" fill="#825946"/>
<path d="M121.217 46.3286L122.978 43.1381H121.127V42.3898H123.963V43.0425L122.196 46.3286H121.217Z" fill="#825946"/>
<path d="M23.5081 134.107V131.018L22.8217 131.187L22.6416 130.478L23.7726 130.14H24.3634V134.107H23.5081Z" fill="#825946"/>
<path d="M26.5966 134.175C26.0264 134.175 25.535 133.978 25.1223 133.584L25.6456 132.96C25.9607 133.245 26.274 133.387 26.5853 133.387C26.7916 133.387 26.9529 133.338 27.0692 133.241C27.1855 133.143 27.2437 133.006 27.2437 132.83C27.2437 132.665 27.1799 132.536 27.0523 132.442C26.9248 132.344 26.756 132.296 26.5459 132.296C26.3359 132.296 26.1164 132.344 25.8876 132.442L25.3868 132.11L25.4993 130.169H27.9189V130.928H26.2421L26.1971 131.609C26.3771 131.564 26.5497 131.542 26.7147 131.542C27.1236 131.542 27.4556 131.647 27.7107 131.857C27.9658 132.067 28.0933 132.386 28.0933 132.813C28.0933 133.23 27.9564 133.562 27.6826 133.809C27.4125 134.053 27.0505 134.175 26.5966 134.175Z" fill="#825946"/>
<path d="M28.6441 135.019L28.5709 134.664C28.9386 134.623 29.1224 134.458 29.1224 134.169V134.107H28.7735V133.207H29.6851V133.967C29.6851 134.327 29.5969 134.589 29.4206 134.754C29.248 134.923 28.9892 135.011 28.6441 135.019Z" fill="#825946"/>
<path d="M33.239 133.595C32.9126 133.982 32.4906 134.175 31.9729 134.175C31.4553 134.175 31.0351 133.982 30.7125 133.595C30.3899 133.209 30.2286 132.723 30.2286 132.138C30.2286 131.557 30.3918 131.073 30.7182 130.686C31.0445 130.296 31.4665 130.101 31.9842 130.101C32.4981 130.101 32.9164 130.294 33.239 130.681C33.5653 131.067 33.7285 131.553 33.7285 132.138C33.7285 132.719 33.5653 133.205 33.239 133.595ZM31.354 133.038C31.5153 133.275 31.7254 133.393 31.9842 133.393C32.243 133.393 32.4494 133.276 32.6032 133.044C32.7607 132.808 32.8395 132.506 32.8395 132.138C32.8395 131.778 32.7588 131.48 32.5975 131.243C32.4362 131.003 32.228 130.883 31.9729 130.883C31.7179 130.883 31.5115 131.001 31.354 131.238C31.1964 131.47 31.1177 131.77 31.1177 132.138C31.1177 132.502 31.1964 132.802 31.354 133.038Z" fill="#825946"/>
<path d="M95.1576 107.474V104.385L94.4711 104.553L94.291 103.844L95.422 103.507H96.0128V107.474H95.1576Z" fill="#825946"/>
<path d="M97.5314 107.474V104.385L96.8449 104.553L96.6648 103.844L97.7958 103.507H98.3867V107.474H97.5314Z" fill="#825946"/>
<path d="M99.1231 108.385L99.0499 108.031C99.4175 107.99 99.6014 107.825 99.6014 107.536V107.474H99.2525V106.573H100.164V107.333C100.164 107.693 100.076 107.956 99.8996 108.121C99.727 108.29 99.4682 108.378 99.1231 108.385Z" fill="#825946"/>
<path d="M102.23 107.541C101.66 107.541 101.168 107.344 100.756 106.95L101.279 106.326C101.594 106.611 101.907 106.754 102.219 106.754C102.425 106.754 102.586 106.705 102.702 106.607C102.819 106.51 102.877 106.373 102.877 106.196C102.877 106.031 102.813 105.902 102.686 105.808C102.558 105.711 102.389 105.662 102.179 105.662C101.969 105.662 101.75 105.711 101.521 105.808L101.02 105.476L101.133 103.535H103.552V104.295H101.875L101.83 104.975C102.01 104.93 102.183 104.908 102.348 104.908C102.757 104.908 103.089 105.013 103.344 105.223C103.599 105.433 103.727 105.752 103.727 106.18C103.727 106.596 103.59 106.928 103.316 107.176C103.046 107.419 102.684 107.541 102.23 107.541Z" fill="#825946"/>
<path d="M99.2812 171.687C98.6398 171.687 98.1277 171.46 97.7451 171.007L98.3416 170.438C98.6229 170.753 98.9399 170.911 99.2925 170.911C99.4576 170.911 99.5907 170.868 99.692 170.781C99.797 170.691 99.8496 170.571 99.8496 170.421C99.8496 170.26 99.782 170.136 99.647 170.05C99.5119 169.964 99.3225 169.921 99.0787 169.921H98.7186L98.5835 169.369L99.5232 168.424H97.9758V167.681H100.637V168.334L99.6414 169.285C100.347 169.405 100.699 169.776 100.699 170.399C100.699 170.778 100.57 171.087 100.311 171.327C100.056 171.567 99.7126 171.687 99.2812 171.687Z" fill="#825946"/>
<path d="M101.246 172.531L101.172 172.177C101.54 172.136 101.724 171.971 101.724 171.682V171.62H101.375V170.72H102.287V171.479C102.287 171.839 102.198 172.102 102.022 172.267C101.849 172.436 101.591 172.524 101.246 172.531Z" fill="#825946"/>
<path d="M104.386 171.687C103.745 171.687 103.233 171.46 102.85 171.007L103.446 170.438C103.728 170.753 104.045 170.911 104.397 170.911C104.562 170.911 104.696 170.868 104.797 170.781C104.902 170.691 104.954 170.571 104.954 170.421C104.954 170.26 104.887 170.136 104.752 170.05C104.617 169.964 104.427 169.921 104.184 169.921H103.823L103.688 169.369L104.628 168.424H103.081V167.681H105.742V168.334L104.746 169.285C105.451 169.405 105.804 169.776 105.804 170.399C105.804 170.778 105.675 171.087 105.416 171.327C105.161 171.567 104.817 171.687 104.386 171.687Z" fill="#825946"/>
<path d="M106.407 171.62V170.933L107.718 169.859C107.977 169.645 108.155 169.474 108.252 169.347C108.35 169.215 108.399 169.071 108.399 168.913C108.399 168.752 108.35 168.626 108.252 168.536C108.155 168.446 108.027 168.401 107.87 168.401C107.723 168.401 107.59 168.443 107.47 168.525C107.354 168.604 107.219 168.739 107.065 168.93L106.457 168.441C106.664 168.159 106.876 167.953 107.093 167.822C107.314 167.69 107.592 167.625 107.926 167.625C108.335 167.625 108.663 167.737 108.911 167.962C109.158 168.184 109.282 168.48 109.282 168.851C109.282 169.065 109.241 169.258 109.158 169.431C109.076 169.6 108.969 169.75 108.837 169.881C108.706 170.009 108.509 170.174 108.247 170.376L107.605 170.872H109.321V171.62H106.407Z" fill="#825946"/>
<path d="M113.214 172.413C112.693 172.128 112.303 171.791 112.044 171.4C111.785 171.007 111.656 170.541 111.656 170.005C111.656 169.469 111.785 169.005 112.044 168.615C112.303 168.221 112.693 167.882 113.214 167.597L113.591 168.165C113.209 168.431 112.931 168.707 112.759 168.992C112.59 169.273 112.505 169.611 112.505 170.005C112.505 170.399 112.59 170.738 112.759 171.023C112.931 171.305 113.209 171.579 113.591 171.845L113.214 172.413Z" fill="#825946"/>
<path d="M114.831 171.62V168.531L114.144 168.7L113.964 167.991L115.095 167.653H115.686V171.62H114.831Z" fill="#825946"/>
<path d="M116.423 172.531L116.35 172.177C116.717 172.136 116.901 171.971 116.901 171.682V171.62H116.552V170.72H117.464V171.479C117.464 171.839 117.375 172.102 117.199 172.267C117.027 172.436 116.768 172.524 116.423 172.531Z" fill="#825946"/>
<path d="M121.018 171.108C120.691 171.494 120.269 171.687 119.752 171.687C119.234 171.687 118.814 171.494 118.491 171.108C118.168 170.721 118.007 170.236 118.007 169.65C118.007 169.069 118.17 168.585 118.497 168.199C118.823 167.809 119.245 167.614 119.763 167.614C120.277 167.614 120.695 167.807 121.018 168.193C121.344 168.58 121.507 169.065 121.507 169.65C121.507 170.232 121.344 170.718 121.018 171.108ZM119.133 170.551C119.294 170.787 119.504 170.905 119.763 170.905C120.022 170.905 120.228 170.789 120.382 170.556C120.539 170.32 120.618 170.018 120.618 169.65C120.618 169.29 120.537 168.992 120.376 168.756C120.215 168.516 120.007 168.396 119.752 168.396C119.496 168.396 119.29 168.514 119.133 168.75C118.975 168.983 118.896 169.283 118.896 169.65C118.896 170.014 118.975 170.314 119.133 170.551Z" fill="#825946"/>
<path d="M122.427 172.413L122.05 171.845C122.433 171.579 122.708 171.305 122.877 171.023C123.05 170.738 123.136 170.399 123.136 170.005C123.136 169.611 123.05 169.273 122.877 168.992C122.708 168.707 122.433 168.431 122.05 168.165L122.427 167.597C122.948 167.882 123.338 168.221 123.597 168.615C123.856 169.005 123.986 169.469 123.986 170.005C123.986 170.541 123.856 171.007 123.597 171.4C123.338 171.791 122.948 172.128 122.427 172.413Z" fill="#825946"/>
<circle cx="49.7031" cy="84.4036" r="17.8184" fill="url(#paint0_linear)"/>
<path d="M40.406 83.2168C39.2086 83.2168 38.2528 82.7932 37.5386 81.9459L38.6519 80.885C39.1771 81.4732 39.7688 81.7673 40.427 81.7673C40.7351 81.7673 40.9837 81.6868 41.1727 81.5258C41.3688 81.3577 41.4668 81.1336 41.4668 80.8535C41.4668 80.5524 41.3408 80.3214 41.0887 80.1603C40.8366 79.9992 40.483 79.9187 40.0279 79.9187H39.3557L39.1036 78.8894L40.8576 77.1248H37.9692V75.7383H42.9373V76.9567L41.0782 78.7318C42.3947 78.9559 43.0529 79.6491 43.0529 80.8115C43.0529 81.5187 42.8113 82.0964 42.3281 82.5446C41.852 82.9927 41.2113 83.2168 40.406 83.2168Z" fill="white"/>
<path d="M43.9651 83.0908L47.2527 77.1353H43.797V75.7383H49.0908V76.9567L45.7927 83.0908H43.9651Z" fill="white"/>
<path d="M48.5742 84.7923L48.4376 84.1306C49.1238 84.0536 49.467 83.7455 49.467 83.2063V83.0908H48.8157V81.4102H50.5173V82.8282C50.5173 83.5004 50.3528 83.9906 50.0236 84.2987C49.7015 84.6138 49.2184 84.7783 48.5742 84.7923Z" fill="white"/>
<path d="M56.7762 82.135C56.167 82.8562 55.3792 83.2168 54.4129 83.2168C53.4466 83.2168 52.6623 82.8562 52.0601 82.135C51.4579 81.4137 51.1568 80.5069 51.1568 79.4146C51.1568 78.3292 51.4614 77.4259 52.0706 76.7047C52.6798 75.9764 53.4676 75.6123 54.4339 75.6123C55.3932 75.6123 56.174 75.9729 56.7762 76.6942C57.3854 77.4154 57.69 78.3222 57.69 79.4146C57.69 80.4999 57.3854 81.4067 56.7762 82.135ZM53.2575 81.0951C53.5586 81.5363 53.9508 81.7568 54.4339 81.7568C54.9171 81.7568 55.3022 81.5398 55.5893 81.1056C55.8834 80.6645 56.0304 80.1008 56.0304 79.4146C56.0304 78.7423 55.8799 78.1857 55.5788 77.7445C55.2777 77.2964 54.8891 77.0723 54.4129 77.0723C53.9367 77.0723 53.5516 77.2929 53.2575 77.734C52.9634 78.1681 52.8164 78.7283 52.8164 79.4146C52.8164 80.0938 52.9634 80.654 53.2575 81.0951Z" fill="white"/>
<path d="M59.7053 83.0908V77.3244L58.4239 77.6395L58.0878 76.316L60.199 75.6858H61.3018V83.0908H59.7053Z" fill="white"/>
<path d="M39.7239 94.0954C38.5265 94.0954 37.5707 93.6717 36.8564 92.8245L37.9698 91.7636C38.495 92.3518 39.0867 92.6459 39.7449 92.6459C40.053 92.6459 40.3016 92.5654 40.4906 92.4043C40.6867 92.2363 40.7847 92.0122 40.7847 91.7321C40.7847 91.431 40.6587 91.1999 40.4066 91.0389C40.1545 90.8778 39.8009 90.7973 39.3458 90.7973H38.6735L38.4215 89.768L40.1755 88.0034H37.2871V86.6169H42.2552V87.8353L40.3961 89.6104C41.7125 89.8345 42.3708 90.5277 42.3708 91.6901C42.3708 92.3973 42.1292 92.975 41.646 93.4232C41.1699 93.8713 40.5292 94.0954 39.7239 94.0954Z" fill="white"/>
<path d="M45.9144 94.0744C45.0881 94.0744 44.4089 93.8783 43.8767 93.4862C43.3446 93.0941 43.0785 92.5759 43.0785 91.9317C43.0785 91.1124 43.4741 90.5207 44.2654 90.1566C43.6422 89.7785 43.3306 89.2358 43.3306 88.5286C43.3306 87.9544 43.5686 87.4747 44.0448 87.0896C44.528 86.7045 45.1512 86.5119 45.9144 86.5119C46.6847 86.5119 47.3079 86.7045 47.784 87.0896C48.2602 87.4747 48.4983 87.9614 48.4983 88.5496C48.4983 89.2428 48.1867 89.7785 47.5635 90.1566C47.9626 90.3667 48.2602 90.6047 48.4562 90.8708C48.6523 91.1369 48.7503 91.4835 48.7503 91.9107C48.7503 92.5759 48.4843 93.1046 47.9521 93.4967C47.4269 93.8818 46.7477 94.0744 45.9144 94.0744ZM45.1477 89.3688C45.3437 89.5369 45.5993 89.6209 45.9144 89.6209C46.2295 89.6209 46.4816 89.5369 46.6707 89.3688C46.8667 89.2008 46.9648 88.9802 46.9648 88.7071C46.9648 88.469 46.8667 88.266 46.6707 88.0979C46.4816 87.9299 46.2295 87.8458 45.9144 87.8458C45.5923 87.8458 45.3367 87.9299 45.1477 88.0979C44.9586 88.266 44.8641 88.4725 44.8641 88.7176C44.8641 88.9767 44.9586 89.1938 45.1477 89.3688ZM45.9144 92.7404C46.3065 92.7404 46.6146 92.6529 46.8387 92.4779C47.0698 92.3028 47.1853 92.0787 47.1853 91.8056C47.1853 91.5255 47.0663 91.305 46.8282 91.1439C46.5971 90.9829 46.2925 90.9023 45.9144 90.9023C45.5363 90.9023 45.2282 90.9864 44.9901 91.1544C44.759 91.3155 44.6435 91.5395 44.6435 91.8266C44.6435 92.0857 44.759 92.3028 44.9901 92.4779C45.2212 92.6529 45.5293 92.7404 45.9144 92.7404Z" fill="white"/>
<path d="M49.2563 95.6709L49.1197 95.0092C49.806 94.9322 50.1491 94.6241 50.1491 94.0849V93.9693H49.4979V92.2888H51.1994V93.7068C51.1994 94.379 51.0349 94.8691 50.7058 95.1772C50.3836 95.4923 49.9005 95.6569 49.2563 95.6709Z" fill="white"/>
<path d="M57.4583 93.0135C56.8491 93.7348 56.0613 94.0954 55.095 94.0954C54.1287 94.0954 53.3444 93.7348 52.7422 93.0135C52.14 92.2923 51.8389 91.3855 51.8389 90.2931C51.8389 89.2078 52.1435 88.3045 52.7527 87.5832C53.3619 86.855 54.1497 86.4909 55.116 86.4909C56.0753 86.4909 56.8561 86.8515 57.4583 87.5727C58.0675 88.294 58.3721 89.2008 58.3721 90.2931C58.3721 91.3785 58.0675 92.2853 57.4583 93.0135ZM53.9396 91.9737C54.2407 92.4148 54.6329 92.6354 55.116 92.6354C55.5992 92.6354 55.9843 92.4183 56.2714 91.9842C56.5655 91.543 56.7125 90.9794 56.7125 90.2931C56.7125 89.6209 56.562 89.0642 56.2609 88.6231C55.9598 88.1749 55.5712 87.9509 55.095 87.9509C54.6189 87.9509 54.2337 88.1714 53.9396 88.6126C53.6455 89.0467 53.4985 89.6069 53.4985 90.2931C53.4985 90.9724 53.6455 91.5325 53.9396 91.9737Z" fill="white"/>
<path d="M60.3874 93.9693V88.2029L59.106 88.5181L58.7699 87.1946L60.8811 86.5644H61.9839V93.9693H60.3874Z" fill="white"/>
<rect x="34.5107" y="84.2161" width="30.7601" height="0.750247" fill="white"/>
<path d="M24.787 90.5933V80.0902L22.453 80.6641L21.8408 78.2536L25.6862 77.1057H27.695V90.5933H24.787Z" fill="#825946"/>
<defs>
<linearGradient id="paint0_linear" x1="31.8848" y1="84.4036" x2="67.5215" y2="84.4036" gradientUnits="userSpaceOnUse">
<stop stop-color="#725E55"/>
<stop offset="1" stop-color="#88563F"/>
</linearGradient>
</defs>
</svg>
