<svg width="22" height="22" viewBox="0 0 22 22" fill="none" xmlns="http://www.w3.org/2000/svg">
<path d="M20.625 0H1.375C0.616687 0 0 0.616687 0 1.375V20.625C0 21.3833 0.616687 22 1.375 22H20.625C21.3833 22 22 21.3833 22 20.625V1.375C22 0.616687 21.3833 0 20.625 0ZM20.625 4.8125H16.5V2.75H15.125V5.5C15.125 5.8795 15.433 6.1875 15.8125 6.1875H20.625V15.8125H9.625C9.2455 15.8125 8.9375 16.1205 8.9375 16.5V19.25H10.3125V17.1875H20.625V20.625L1.375 20.6257V18.5625H5.5V17.1875H1.375V1.375H6.1875V3.4375H7.5625V1.375H10.3125V6.1875H4.8125C4.433 6.1875 4.125 6.4955 4.125 6.875V14.4375H5.5V11.6875H8.25V10.3125H5.5V7.5625H10.3125V10.3125C10.3125 10.692 10.6205 11 11 11H18.5625V9.625H11.6875V1.375H20.625V4.8125Z" fill="#282828"/>
</svg>
