<svg width="8" height="14" viewBox="0 0 8 14" fill="none" xmlns="http://www.w3.org/2000/svg">
<path d="M0.579834 7.11753H2.04352V13.1471C2.04352 13.2671 2.14006 13.3636 2.26007 13.3636H4.7439C4.86392 13.3636 4.96046 13.2671 4.96046 13.1471V7.14623H6.6433C6.75289 7.14623 6.8442 7.06535 6.85725 6.95577L7.11294 4.73546C7.12076 4.67545 7.09989 4.61283 7.06076 4.56847C7.01901 4.52151 6.96161 4.49542 6.89899 4.49542H4.96046V3.10479C4.96046 2.68473 5.18745 2.47339 5.63099 2.47339C5.6936 2.47339 6.89899 2.47339 6.89899 2.47339C7.01901 2.47339 7.11555 2.37686 7.11555 2.25684V0.219162C7.11555 0.0991445 7.01901 0.00260907 6.89899 0.00260907H5.15092C5.13787 0.00260907 5.11178 0 5.07004 0C4.76739 0 3.71332 0.0600086 2.88103 0.824465C1.95742 1.67763 2.08527 2.69256 2.11657 2.86736V4.49542H0.579834C0.459817 4.49542 0.363281 4.59196 0.363281 4.71197V6.90359C0.363281 7.021 0.459817 7.11753 0.579834 7.11753Z" fill="#4C4C4C"/>
</svg>
