<svg width="22" height="21" viewBox="0 0 22 21" fill="none" xmlns="http://www.w3.org/2000/svg">
<path d="M12.4412 16.0237H5.11378C4.82489 16.0237 4.59082 16.2578 4.59082 16.5466V20.2103C4.59082 20.4992 4.82489 20.7333 5.11378 20.7333H12.4412C12.7301 20.7333 12.9642 20.4992 12.9642 20.2103V16.5466C12.9642 16.2578 12.7301 16.0237 12.4412 16.0237Z" fill="white"/>
<path d="M21.4773 16.0237H14.1499C13.861 16.0237 13.627 16.2578 13.627 16.5466V20.2103C13.627 20.4992 13.861 20.7333 14.1499 20.7333H21.4773C21.7662 20.7333 22.0003 20.4992 22.0003 20.2103V16.5466C22.0003 16.2578 21.7662 16.0237 21.4773 16.0237Z" fill="white"/>
<path d="M5.11378 10.0504H12.4412C12.7301 10.0504 12.9642 9.81637 12.9642 9.52748V5.86452C12.9642 5.57563 12.7301 5.34155 12.4412 5.34155H5.11378C4.82489 5.34155 4.59082 5.57563 4.59082 5.86452V9.52822C4.59082 9.81637 4.82489 10.0504 5.11378 10.0504Z" fill="white"/>
<path d="M21.4773 5.34082H14.1499C13.861 5.34082 13.627 5.57489 13.627 5.86378V9.52749C13.627 9.81638 13.861 10.0504 14.1499 10.0504H21.4773C21.7662 10.0504 22.0003 9.81638 22.0003 9.52749V5.86378C22.0003 5.57564 21.7662 5.34082 21.4773 5.34082Z" fill="white"/>
<path d="M9.51906 4.70963H16.8465C17.1354 4.70963 17.3694 4.47555 17.3694 4.18667V0.522963C17.3694 0.234074 17.1354 0 16.8465 0H9.51906C9.23017 0 8.99609 0.234074 8.99609 0.522963V4.18667C8.99609 4.47555 9.23017 4.70963 9.51906 4.70963Z" fill="white"/>
<path d="M9.14844 11.2051V14.8688C9.14844 15.1577 9.38251 15.3918 9.6714 15.3918H16.9988C17.2877 15.3918 17.5218 15.1577 17.5218 14.8688V11.2051C17.5218 10.9162 17.2877 10.6821 16.9988 10.6821H9.6714C9.38177 10.6821 9.14844 10.9162 9.14844 11.2051Z" fill="white"/>
<path d="M8.37333 14.8688V11.2051C8.37333 10.9162 8.13926 10.6821 7.85037 10.6821H0.522963C0.234074 10.6821 0 10.9162 0 11.2051V14.8688C0 15.1577 0.234074 15.3918 0.522963 15.3918H7.85037C8.13926 15.3918 8.37333 15.1577 8.37333 14.8688Z" fill="white"/>
</svg>
