<svg width="118" height="76" viewBox="0 0 118 76" fill="none" xmlns="http://www.w3.org/2000/svg">
<path d="M6.63772 46.2976V55.2269H6.58718L4.46437 46.2976H0.311404L2.8891 54.6793L0.286133 66.5233H4.46437L6.58718 55.9176H6.63772V66.5233H10.8412V55.9261H10.917L13.0399 66.5317H17.1928L14.6151 54.6878L17.1675 46.306H13.0399L10.917 55.2353H10.8412V46.306H6.63772V46.2976ZM18.5322 46.2976V66.5233H22.7357L24.8332 56.9201H24.8585V66.5233H28.7756V46.2976H24.5216L22.4661 55.5891H22.4409V46.2976H18.5322ZM32.1199 46.2976V61.4353C32.1199 62.7999 31.665 63.3896 30.7131 63.3896H30.2077V66.5149H31.2354C35.0093 66.5149 36.037 63.9624 36.037 60.7614V49.5239H37.5196V66.5233H41.7484V46.2976H32.1199ZM47.8556 57.097H48.3779C49.0434 57.097 49.3551 57.4087 49.3551 58.3606V62.3451C49.3551 63.297 49.0434 63.6086 48.3779 63.6086H47.8556V57.097ZM47.8556 46.2976H43.6521V66.5233H48.6222C51.1999 66.5233 53.567 65.5208 53.567 62.4124V58.2848C53.567 55.1764 51.1999 54.1739 48.6222 54.1739H47.8556V46.2976ZM55.4961 46.2976V66.5233H63.3555V63.6086H59.6996V56.7095H63.2123V53.8201H59.6996V49.187H63.3555V46.2976H55.4961Z" fill="white"/>
<path d="M55.0404 19.5602H56.1608V21.5904C56.1608 21.8262 56.1102 22.0705 56.0176 22.3064C55.9249 22.5254 55.7986 22.7108 55.6385 22.8792C55.4785 23.0477 55.2763 23.1909 55.0657 23.2836C54.8467 23.3762 54.6108 23.4268 54.3749 23.4268H53.6336C53.3978 23.4268 53.1535 23.3762 52.9429 23.2836C52.7239 23.1909 52.5385 23.0477 52.3953 22.8792C52.2268 22.7108 52.0836 22.517 51.991 22.3064C51.8983 22.0705 51.873 21.8262 51.873 21.5904V14.826C51.873 14.5649 51.8983 14.3206 51.991 14.0847C52.0836 13.8657 52.2268 13.6804 52.3953 13.5119C52.5385 13.3434 52.7323 13.2002 52.9429 13.1076C53.1619 13.0149 53.3978 12.9644 53.6336 12.9644H54.3749C54.6108 12.9644 54.8551 13.0149 55.0657 13.1076C55.2847 13.2002 55.47 13.3434 55.6385 13.5119C55.807 13.6804 55.9249 13.8741 56.0176 14.0847C56.1102 14.3206 56.1608 14.5649 56.1608 14.826V16.4266H55.0404V14.826C55.0404 14.607 54.9646 14.447 54.8467 14.3206C54.7287 14.1774 54.5603 14.1268 54.3665 14.1268H53.6252C53.4315 14.1268 53.263 14.1774 53.145 14.3206C53.0271 14.4385 52.9513 14.607 52.9513 14.826V21.582C52.9513 21.7757 53.0271 21.9442 53.145 22.0874C53.263 22.2053 53.4315 22.2811 53.6252 22.2811H54.3665C54.535 22.2811 54.6529 22.2559 54.7456 22.2053C54.8214 22.1801 54.8888 22.1295 54.9393 22.0874C54.9646 22.0116 54.9899 21.9442 54.9899 21.8515C55.0151 21.7757 55.0151 21.683 55.0151 21.5904V19.5602H55.0404ZM59.5977 14.2111V23.3088H58.5026V14.2111H56.7589V13.0654H61.3415V14.2111H59.5977ZM63.3211 14.2111V17.766H64.6857C64.8795 17.766 65.0479 17.6901 65.1659 17.5722C65.2838 17.429 65.3596 17.2605 65.3596 17.0668V14.826C65.3596 14.607 65.2838 14.4638 65.1659 14.3459C65.0479 14.2532 64.8795 14.2027 64.6857 14.2027H63.3211V14.2111ZM62.2007 13.0654H64.6857C64.9216 13.0654 65.1659 13.0907 65.3765 13.1834C65.5871 13.276 65.7808 13.4024 65.9493 13.5456C66.0925 13.7141 66.2357 13.9078 66.3115 14.1184C66.4042 14.3374 66.4547 14.5733 66.4547 14.8345V17.0752C66.4547 17.3363 66.4042 17.5806 66.3115 17.7912C66.2357 18.0102 66.0925 18.1956 65.9493 18.364C65.7808 18.5325 65.5871 18.6757 65.3765 18.7684C65.1575 18.8611 64.9216 18.9116 64.6857 18.9116H63.3211V23.3088H62.2007V13.0654ZM70.7004 14.826C70.7004 14.607 70.6245 14.447 70.5066 14.3206C70.3887 14.1774 70.2202 14.1268 70.0264 14.1268H69.2851C69.0661 14.1268 68.9229 14.1774 68.7797 14.3206C68.6618 14.4385 68.6112 14.607 68.6112 14.826V21.582C68.6112 21.7757 68.6618 21.9442 68.7797 22.0874C68.9229 22.2053 69.0661 22.2811 69.2851 22.2811H70.0264C70.2202 22.2811 70.3887 22.2053 70.5066 22.0874C70.6245 21.9442 70.7004 21.7757 70.7004 21.582V14.826ZM71.8039 21.5904C71.8039 21.8262 71.7533 22.0705 71.6607 22.3064C71.5849 22.5254 71.4417 22.7108 71.2984 22.8792C71.13 23.0477 70.9362 23.1909 70.7256 23.2836C70.5066 23.3762 70.2707 23.4268 70.0349 23.4268H69.2936C69.0324 23.4268 68.8134 23.3762 68.6028 23.2836C68.3838 23.1909 68.1985 23.0477 68.03 22.8792C67.8615 22.7108 67.7436 22.517 67.6509 22.3064C67.5583 22.0705 67.5077 21.8262 67.5077 21.5904V14.826C67.5077 14.5649 67.5583 14.3206 67.6509 14.0847C67.7436 13.8657 67.8699 13.6804 68.03 13.5119C68.19 13.3434 68.3922 13.2002 68.6028 13.1076C68.8218 13.0149 69.0324 12.9644 69.2936 12.9644H70.0349C70.2707 12.9644 70.515 13.0149 70.7256 13.1076C70.9446 13.2002 71.13 13.3434 71.2984 13.5119C71.4417 13.6804 71.5849 13.8741 71.6607 14.0847C71.7533 14.3206 71.8039 14.5649 71.8039 14.826V21.5904ZM76.9845 23.3088V16.1486L74.4574 22.8792V23.3088H73.3623V13.0654H74.4574V20.1836L76.9845 13.4698V13.0654H78.1049V23.3088H76.9845ZM81.803 14.2111V23.3088H80.7079V14.2111H78.9641V13.0654H83.5467V14.2111H81.803ZM85.5095 14.2111V17.0752H87.6323V18.2208H85.5095V22.1379H87.9692V23.3088H84.4144V13.0654H87.9692V14.2111H85.5095ZM88.3736 22.2559C88.6095 22.2559 88.8285 22.2306 88.997 22.2053C89.1654 22.1548 89.2834 22.1127 89.4013 22.0368C89.494 21.9863 89.5698 21.9189 89.6203 21.8178C89.6709 21.742 89.6961 21.6746 89.6961 21.5988L90.0331 13.0233H94.0681V23.292H92.973V14.1858H91.1366L90.8249 21.6157C90.8249 21.8768 90.7491 22.1211 90.6312 22.3317C90.5132 22.5507 90.3448 22.736 90.151 22.9045C89.932 23.073 89.6709 23.1909 89.3845 23.2836C89.0728 23.3762 88.7358 23.4015 88.382 23.4015H88.2388V22.2559H88.3736ZM99.7121 21.7336C99.7121 21.9526 99.6868 22.1632 99.5942 22.3822C99.5015 22.6012 99.3751 22.7866 99.2319 22.9298C99.0887 23.073 98.9202 23.2162 98.7265 23.292C98.5075 23.3847 98.2969 23.4352 98.0779 23.4352H97.3113C97.0754 23.4352 96.8564 23.3847 96.6627 23.292C96.4436 23.2162 96.2836 23.073 96.1404 22.9298C95.9972 22.7866 95.8792 22.5928 95.7782 22.3822C95.7023 22.1632 95.6602 21.9526 95.6602 21.7336V13.0402H96.7553V16.9067C96.9743 16.7382 97.1849 16.595 97.404 16.4518C97.5977 16.3339 97.783 16.2328 97.9768 16.1401C98.1958 16.0475 98.3559 15.9969 98.5243 15.9969C98.8613 15.9969 99.1477 16.1149 99.3583 16.3592C99.5942 16.595 99.6952 16.8814 99.6952 17.2184V21.7336H99.7121ZM98.617 17.7407C98.617 17.5469 98.617 17.4037 98.5917 17.3111C98.5412 17.2184 98.5159 17.1679 98.4738 17.1679C98.398 17.1679 98.28 17.2184 98.0947 17.2858C97.9262 17.3785 97.7325 17.4795 97.5472 17.5975C97.3281 17.7407 97.067 17.9092 96.8059 18.0776V21.7336C96.8059 21.9021 96.8564 22.02 96.9238 22.1127C97.0165 22.2306 97.1597 22.2811 97.3281 22.2811H98.0947C98.2379 22.2811 98.3811 22.2306 98.4738 22.1127C98.5665 22.02 98.617 21.8936 98.617 21.7336V17.7407ZM105.541 13.0654V23.3088H104.421V18.2208H102.391V23.3088H101.271V13.0654H102.391V17.0752H104.421V13.0654H105.541ZM110.798 23.3088L110.343 20.8238H108.077L107.647 23.3088H106.527L108.128 13.4192C108.128 13.3013 108.203 13.2002 108.296 13.1076C108.414 13.0149 108.515 12.9644 108.658 12.9644H109.753C109.897 12.9644 109.989 13.0149 110.116 13.1076C110.208 13.2002 110.284 13.3013 110.284 13.4192L111.935 23.3088H110.798ZM109.341 14.3037C109.341 14.2532 109.341 14.2279 109.315 14.2111C109.29 14.1605 109.239 14.1353 109.223 14.1353H109.172C109.122 14.1353 109.096 14.1353 109.079 14.1858C109.079 14.2364 109.054 14.2616 109.054 14.3037L108.22 19.6529H110.2L109.341 14.3037ZM116.956 23.3088H115.835V18.2714H115.406L113.662 23.3088H112.516L114.26 18.2714C114.041 18.2461 113.83 18.1787 113.662 18.0524C113.468 17.9597 113.3 17.8165 113.157 17.6733C113.013 17.5048 112.895 17.3111 112.82 17.1005C112.727 16.8814 112.702 16.6709 112.702 16.435V14.8345C112.702 14.5733 112.752 14.329 112.845 14.1184C112.938 13.8994 113.064 13.7141 113.224 13.5456C113.367 13.4024 113.561 13.2845 113.771 13.1834C113.991 13.0907 114.226 13.0654 114.462 13.0654H116.947V23.3088H116.956ZM114.471 14.2111C114.277 14.2111 114.108 14.2616 113.991 14.3543C113.873 14.4722 113.797 14.6154 113.797 14.8345V16.435C113.797 16.654 113.873 16.8141 113.991 16.9404C114.108 17.0583 114.277 17.1342 114.471 17.1342H115.835V14.2195H114.471V14.2111ZM55.1583 27.9841C55.3268 27.6724 55.5206 27.4113 55.7059 27.1922C55.8744 26.9732 56.0681 26.8132 56.2282 26.6868C56.4219 26.5689 56.5904 26.4678 56.7757 26.4004C56.9442 26.3246 57.1127 26.3077 57.298 26.2825V27.4281C57.2475 27.4281 57.2053 27.4534 57.1295 27.4787C57.0369 27.4787 56.9611 27.5292 56.8684 27.5545C56.7757 27.605 56.6746 27.6471 56.582 27.7229C56.4893 27.7988 56.4135 27.8914 56.3461 27.9841L54.754 30.8313V30.9493L57.3064 36.5343H56.1355L53.819 31.4463H53.1282V36.5343H52.0331V26.2909H53.1282V30.3006H53.819L55.1583 27.9841ZM61.173 28.0599C61.173 27.8409 61.0972 27.6808 60.9792 27.5545C60.8613 27.4365 60.6928 27.3607 60.4991 27.3607H59.7578C59.5388 27.3607 59.3955 27.4365 59.2523 27.5545C59.1344 27.6724 59.0839 27.8409 59.0839 28.0599V34.8158C59.0839 35.0349 59.1344 35.1949 59.2523 35.3213C59.3955 35.4392 59.5388 35.515 59.7578 35.515H60.4991C60.6928 35.515 60.8613 35.4392 60.9792 35.3213C61.0972 35.2033 61.173 35.0349 61.173 34.8158V28.0599ZM62.2765 34.8158C62.2765 35.077 62.226 35.3213 62.1586 35.5319C62.0659 35.7509 61.9227 35.9362 61.7795 36.1047C61.611 36.2732 61.4173 36.4164 61.2067 36.509C60.9877 36.6017 60.7518 36.6522 60.5159 36.6522H59.7746C59.5135 36.6522 59.2945 36.6017 59.0839 36.509C58.8648 36.4164 58.6795 36.2732 58.511 36.1047C58.3426 35.9362 58.2246 35.7425 58.132 35.5319C58.0393 35.3128 57.9888 35.077 57.9888 34.8158V28.0599C57.9888 27.7988 58.0393 27.5545 58.132 27.3439C58.2246 27.108 58.351 26.9143 58.511 26.7458C58.6711 26.5773 58.8733 26.4341 59.0839 26.3667C59.3029 26.274 59.5135 26.2235 59.7746 26.2235H60.5159C60.7518 26.2235 60.9961 26.274 61.2067 26.3667C61.4257 26.4425 61.611 26.5857 61.7795 26.7458C61.9227 26.9143 62.0659 27.108 62.1586 27.3439C62.2344 27.5629 62.2765 27.7988 62.2765 28.0599V34.8158ZM70.4139 26.2909L70.793 36.5343H69.6726L69.3104 27.4365H69.1925L67.7857 36.4164H66.6906L65.3091 27.4365H65.1912L64.8121 36.5343H63.717L64.096 26.2909H66.2947L67.2466 33.7207L68.2237 26.2909H70.4139ZM76.6476 26.2909V36.5343H75.5525V27.4365H73.5223V36.5343H72.402V26.2909H76.6476ZM81.9293 36.5343L81.4745 34.0493H79.2084L78.7536 36.5343H77.6585L79.259 26.6447C79.259 26.552 79.3348 26.4257 79.4275 26.3583C79.5201 26.2656 79.6465 26.2151 79.7897 26.2151H80.8848C81.0027 26.2151 81.1207 26.2403 81.247 26.333C81.3397 26.4257 81.3902 26.5268 81.4155 26.6447L83.0413 36.5343H81.9293ZM80.472 27.5292C80.472 27.4787 80.4467 27.4534 80.4467 27.4365C80.3962 27.386 80.3709 27.3607 80.3541 27.3607H80.3035C80.253 27.3607 80.2277 27.386 80.2109 27.4365C80.2109 27.4618 80.1856 27.5124 80.1856 27.5292L79.3516 32.9036H81.3313L80.472 27.5292ZM88.2809 26.2909V36.5343H87.1858V31.4463H85.1304V36.5343H84.0353V26.2909H85.1304V30.3006H87.1858V26.2909H88.2809ZM93.6469 36.5343V29.3909L91.1198 36.1047V36.5343H90.0247V26.2909H91.1198V33.4343L93.6469 26.7037V26.2993H94.7673V36.5427H93.6469V36.5343ZM100.554 36.5343H99.4594V31.5221H99.0045L97.2607 36.5343H96.1404L97.8841 31.4968C97.6482 31.4716 97.4545 31.4042 97.2607 31.3031C97.067 31.1852 96.8985 31.0672 96.7553 30.8987C96.6121 30.7303 96.4942 30.5365 96.4184 30.3512C96.3426 30.1322 96.3004 29.8963 96.3004 29.6604V28.0599C96.3004 27.7988 96.351 27.5545 96.4436 27.3439C96.5363 27.1249 96.6627 26.9395 96.8227 26.7963C96.9912 26.6278 97.1849 26.5099 97.3955 26.4172C97.6146 26.3414 97.8252 26.2993 98.0863 26.2993H100.546V36.5343H100.554ZM98.0947 27.4365C97.8757 27.4365 97.7325 27.4871 97.5893 27.605C97.4713 27.6977 97.4208 27.8662 97.4208 28.0599V29.6604C97.4208 29.8795 97.4713 30.0395 97.5893 30.1659C97.7325 30.3091 97.8757 30.3596 98.0947 30.3596H99.4594V27.445H98.0947V27.4365Z" fill="white"/>
<path d="M116.957 72.7315H0V76H116.957V72.7315Z" fill="#3CB453"/>
<path fill-rule="evenodd" clip-rule="evenodd" d="M36.7531 17.7406L25.979 22.2305V18.7178L36.7531 14.2279L44.7979 17.5974V21.0849L36.7531 17.7406Z" fill="#3CB453"/>
<path fill-rule="evenodd" clip-rule="evenodd" d="M36.7531 25.0525L25.979 29.534V26.0297L36.7531 21.5398L44.7979 24.9093V28.4137L36.7531 25.0525Z" fill="#3CB453"/>
<path fill-rule="evenodd" clip-rule="evenodd" d="M36.7531 32.4066L25.979 36.8965V33.3837L36.7531 28.8938L44.7979 32.2634V35.7677L36.7531 32.4066Z" fill="#3CB453"/>
<path fill-rule="evenodd" clip-rule="evenodd" d="M18.8187 21.8262L5.89655 27.4365V40.3081L1.74359 42.0266V25.6675L18.8187 18.3135V7.47196L36.7531 0L44.7979 3.34427V6.85702L36.7531 3.48747L29.8708 6.35158L22.9717 9.24097V36.7954L18.8187 38.5139V21.8262Z" fill="#3CB453"/>
<path fill-rule="evenodd" clip-rule="evenodd" d="M36.7531 11.0774L25.979 15.5673V12.0798L36.7531 7.58989L44.7979 10.9342V14.4469L36.7531 11.0774Z" fill="#3CB453"/>
<path fill-rule="evenodd" clip-rule="evenodd" d="M19.7032 31.9769V35.3633L9.0976 39.7859V36.391L19.7032 31.9769Z" fill="#3CB453"/>
<path fill-rule="evenodd" clip-rule="evenodd" d="M19.7032 25.9539V29.3234L9.0976 33.7375V30.3764L19.7032 25.9539Z" fill="#3CB453"/>
<path d="M72.4955 52.1268V48.5214C72.4955 47.898 72.5882 47.0388 73.3042 47.0388C74.0455 47.0388 74.1382 47.898 74.1382 48.5214C74.1382 54.4686 67.8371 57.855 67.8371 61.89V66.5232H78.7966V63.1789H72.4955C72.4955 59.3545 78.7966 55.0583 78.7966 48.732V47.7969C78.7966 44.8149 76.1683 43.7114 73.3042 43.7114C70.4401 43.7114 67.8371 44.8065 67.8371 47.7969V52.1184H72.4955V52.1268ZM80.6582 62.8756C80.6582 65.8577 83.2612 66.9612 86.1253 66.9612C88.9894 66.9612 91.5924 65.8661 91.5924 62.8756V47.8054C91.5924 44.8233 88.9894 43.7198 86.1253 43.7198C83.2612 43.7198 80.6582 44.8149 80.6582 47.8054V62.8756ZM86.9424 62.1596C86.9424 62.783 86.8498 63.6422 86.1337 63.6422C85.3924 63.6422 85.2998 62.783 85.2998 62.1596V48.5214C85.2998 47.898 85.3924 47.0388 86.1337 47.0388C86.8498 47.0388 86.9424 47.898 86.9424 48.5214V62.1596ZM93.4625 62.8756C93.4625 65.8577 96.0655 66.9612 98.9548 66.9612C101.819 66.9612 104.422 65.8661 104.422 62.8756V47.8054C104.422 44.8233 101.819 43.7198 98.9548 43.7198C96.0655 43.7198 93.4625 44.8149 93.4625 47.8054V62.8756ZM99.7635 62.1596C99.7635 62.783 99.6709 63.6422 98.9548 63.6422C98.2135 63.6422 98.1209 62.783 98.1209 62.1596V48.5214C98.1209 47.898 98.2135 47.0388 98.9548 47.0388C99.6709 47.0388 99.7635 47.898 99.7635 48.5214V62.1596ZM106.284 62.8756C106.284 65.8577 108.887 66.9612 111.751 66.9612C114.615 66.9612 117.243 65.8661 117.243 62.8756V47.8054C117.243 44.8233 114.615 43.7198 111.751 43.7198C108.887 43.7198 106.284 44.8149 106.284 47.8054V62.8756ZM112.585 62.1596C112.585 62.783 112.492 63.6422 111.751 63.6422C111.035 63.6422 110.942 62.783 110.942 62.1596V48.5214C110.942 47.898 111.035 47.0388 111.751 47.0388C112.492 47.0388 112.585 47.898 112.585 48.5214V62.1596Z" fill="#3CB453"/>
</svg>
