<svg width="15" height="14" viewBox="0 0 15 14" fill="none" xmlns="http://www.w3.org/2000/svg">
<path d="M11.0419 0H4.77455C2.63854 0 0.908203 1.72931 0.908203 3.86407V10.1359C0.908203 12.2624 2.63854 14 4.77455 14H11.0501C13.1779 14 14.9165 12.2707 14.9165 10.1359V3.86407C14.9082 1.72931 13.1696 0 11.0419 0ZM13.6663 10.1277C13.6663 11.5757 12.4907 12.7506 11.0419 12.7506H4.77455C3.32571 12.7506 2.15007 11.5757 2.15007 10.1277V3.86407C2.15007 2.41608 3.32571 1.24113 4.77455 1.24113H11.0501C12.499 1.24113 13.6746 2.41608 13.6746 3.86407L13.6663 10.1277Z" fill="#4C4C4C"/>
<path d="M7.90513 3.39209C5.91814 3.39209 4.30371 5.00557 4.30371 6.99138C4.30371 8.9772 5.91814 10.5989 7.91341 10.5989C9.90868 10.5989 11.5231 8.98547 11.5231 6.99138C11.5148 5.00557 9.9004 3.39209 7.90513 3.39209ZM7.90513 9.35781C6.60531 9.35781 5.5373 8.29871 5.5373 6.99138C5.54558 5.69233 6.60531 4.63322 7.90513 4.63322C9.20495 4.63322 10.273 5.69233 10.273 6.99965C10.273 8.29871 9.21323 9.35781 7.90513 9.35781Z" fill="#4C4C4C"/>
<path d="M11.6636 2.3418C11.4235 2.3418 11.1917 2.44109 11.0179 2.60657C10.844 2.77206 10.7529 3.01201 10.7529 3.25196C10.7529 3.49191 10.8523 3.72359 11.0179 3.89735C11.1834 4.06284 11.4235 4.16213 11.6636 4.16213C11.9037 4.16213 12.1355 4.06284 12.3094 3.89735C12.4833 3.73187 12.5743 3.49191 12.5743 3.25196C12.5743 3.01201 12.475 2.78033 12.3094 2.60657C12.1438 2.43281 11.9037 2.3418 11.6636 2.3418Z" fill="#4C4C4C"/>
</svg>
