<svg width="137" height="67" viewBox="0 0 137 67" fill="none" xmlns="http://www.w3.org/2000/svg">
<path d="M63.0023 38.2535C60.925 41.0678 59.5179 43.4801 58.6468 45.4233C58.1777 46.6294 57.9767 47.3665 58.1777 47.7016C58.2447 47.8356 58.3788 47.9696 58.5128 47.9696C59.1158 48.1706 60.0539 47.5676 61.3271 46.0934C61.8631 45.4903 62.6672 44.5522 63.6053 43.2121C63.7394 43.011 63.8734 43.011 64.0744 43.1451C64.2084 43.2791 64.2084 43.4131 64.1414 43.6141C63.3373 44.6192 62.6002 45.5573 61.9302 46.4284C60.724 47.8356 59.6519 48.5727 58.8478 48.5727C57.9097 48.5727 57.2396 48.1706 56.8376 47.4335C56.5695 46.8975 56.5025 46.2944 56.7036 45.6243C55.0954 47.6346 53.6882 48.6397 52.6161 48.6397C51.745 48.6397 51.0749 48.2376 50.6729 47.5006C49.9358 46.0934 50.1368 44.4182 51.2089 42.542C51.946 41.3358 52.9511 40.2637 54.2913 39.3256C55.6314 38.3875 56.9046 37.9185 57.9767 37.9185C58.7808 37.9185 59.3839 38.1865 59.5849 38.7225C59.8529 39.1916 59.7189 39.7947 59.2499 40.5318C60.255 39.3256 60.9921 38.5885 61.4611 38.4545C61.9302 38.2535 62.3992 38.1865 63.0023 38.2535ZM58.5128 38.4545C57.2396 38.4545 55.5644 40.0627 53.4202 43.3461C52.08 45.4233 51.611 46.8975 52.013 47.7686C52.08 47.9026 52.2141 48.0366 52.4151 48.1036C52.8171 48.2376 53.5542 47.8356 54.5593 46.8305C55.5644 45.8254 56.5025 44.6192 57.3736 43.1451C58.7808 40.7328 59.3169 39.2586 59.1158 38.8566C59.0488 38.5885 58.7808 38.4545 58.5128 38.4545Z" fill="#444444"/>
<path fill-rule="evenodd" clip-rule="evenodd" d="M71.9134 35.3724C71.9134 35.3724 71.7794 35.4394 71.3773 35.5064C70.6402 35.5734 69.9702 35.9755 69.3671 36.5785C68.094 38.0527 66.9548 39.9959 65.9497 42.4082C66.6198 41.4701 67.4239 40.599 68.496 39.6609C69.8362 38.4548 70.9083 37.9187 71.7124 37.9187C72.3154 37.9187 72.8515 38.2537 73.1865 38.9908C73.5216 39.6609 73.6556 40.465 73.5886 41.4031C73.5216 42.3412 73.2535 43.2123 72.7845 43.9494C70.7743 47.0988 68.563 48.6399 66.1507 48.6399C65.7487 48.6399 65.2796 48.5059 64.8776 48.3049C64.6096 48.1709 64.4085 47.9698 64.2745 47.7688C64.1405 47.5678 64.1405 47.4338 64.2745 47.4338C64.4085 47.4338 64.5426 47.5008 64.7436 47.7018C65.0116 47.9698 65.3466 48.1039 65.6817 48.1039C66.4188 48.1709 67.0888 47.9028 67.7589 47.2328C68.362 46.5627 69.3001 45.1555 70.5732 43.0113C71.9134 40.733 72.3824 39.3929 72.1814 38.8568C72.1144 38.7228 71.9134 38.5888 71.7124 38.5888C70.9753 38.5888 69.8362 39.3259 68.295 40.867C67.1559 42.0732 66.1507 43.2793 65.3466 44.5525C65.4137 44.5525 65.4137 44.6195 65.3466 44.6195L65.2796 44.6865C65.1456 44.8875 65.0786 45.0215 64.9446 45.2225C61.9963 50.1811 58.6459 59.4952 57.0377 64.7218C56.9037 65.2578 56.7027 65.8609 56.5686 66.33C56.4346 66.799 56.2336 67 55.9656 67C55.5635 67 55.2955 66.799 55.0945 66.397C54.5584 65.3248 55.0945 62.6445 56.8367 58.4901C59.249 52.7274 61.7282 46.6297 64.7436 41.2021C66.0167 38.8568 67.4239 37.1816 68.831 36.0425C69.5681 35.4394 70.3722 35.1714 71.3103 35.1714C71.6454 35.1714 71.9134 35.2384 71.9134 35.3724Z" fill="#444444"/>
<path d="M76.2019 41.2035C76.872 39.9973 77.475 39.1932 78.1451 38.6572C78.8152 38.2551 79.6863 38.1211 80.8924 38.1211C79.8203 39.1262 78.6142 41.0695 77.274 43.9508C77.8101 43.2807 78.8152 42.2086 80.3564 40.6674C82.5676 38.6572 84.3768 37.7861 85.851 37.9201C86.7891 37.9871 87.3922 38.4562 87.5932 39.1262C87.6602 39.4613 87.5932 39.6623 87.3252 39.7963C87.2582 39.7963 86.9231 39.6623 86.32 39.3273C85.985 39.1262 85.583 39.0592 85.1809 38.9922C83.7738 38.9252 82.6346 39.4613 81.6295 40.5334C81.2945 41.3375 81.1605 42.6776 81.4285 44.4198C81.5625 45.559 81.8305 46.4301 82.0986 46.9661C82.3666 47.4352 82.6346 47.7032 83.1037 47.7032C83.5057 47.7032 84.1758 47.2342 85.1809 46.229C85.784 45.425 86.5211 44.4868 87.4592 43.3477C87.5262 43.2137 87.6602 43.2137 87.8612 43.2807C88.0622 43.4147 88.0622 43.5487 87.9952 43.7498C87.1911 44.8889 86.3871 45.827 85.65 46.6311C84.2428 48.1723 83.0367 48.8423 82.1656 48.7083C81.4955 48.6413 80.9594 48.1723 80.5574 47.4352C80.2894 46.9661 80.0883 46.2961 79.9543 45.425C79.6863 44.0848 79.6863 42.9457 79.8873 41.9406C79.6193 42.2086 79.1502 42.6106 78.6142 43.2137C77.6761 44.2188 77.006 45.0899 76.6709 45.693C76.1349 47.0331 75.7328 48.1053 75.5988 48.9094C75.2638 48.9094 74.9288 48.5743 74.5937 47.9712C74.5267 47.8372 74.4597 47.6362 74.4597 47.5022C74.2587 45.961 74.8617 43.8838 76.2019 41.2035Z" fill="#444444"/>
<path d="M95.5007 38.9236C96.1038 40.1297 95.7688 41.8719 94.5626 44.0162C92.7534 47.0985 90.9442 48.6397 89.202 48.6397C88.0629 48.6397 87.2588 48.1036 86.7227 47.0315C85.9856 45.5573 86.1197 43.8821 87.2588 42.0059C87.9289 40.7998 88.934 39.7947 90.2071 39.0576C91.4133 38.3205 92.4854 37.9185 93.5575 37.9185C94.4956 37.9185 95.1657 38.2535 95.5007 38.9236ZM94.1606 38.3875C92.8204 38.3875 91.2122 40.0627 89.403 43.3461C88.1969 45.4233 87.7949 46.8975 88.1969 47.6346C88.3979 48.0366 88.6659 48.1706 89.135 48.1706C90.2071 48.1706 91.7483 46.4954 93.7585 43.078C94.9647 41.0008 95.3667 39.5266 94.9647 38.7225C94.6966 38.5215 94.4956 38.3875 94.1606 38.3875Z" fill="#444444"/>
<path d="M107.361 36.8469C106.691 36.9809 105.953 37.0479 105.082 37.0479C104.814 36.9139 104.747 36.7128 104.881 36.6458C105.819 36.7128 106.556 36.5788 107.026 36.3108C108.031 35.9757 109.371 34.6356 111.046 32.2233C111.716 31.3522 111.984 30.4811 111.85 29.543C111.649 28.9399 111.046 28.6049 110.175 28.6049C109.572 28.6049 108.768 29.074 107.763 30.0121C104.546 33.4295 101.866 37.3829 99.5877 41.7384C102 39.2591 103.943 37.986 105.417 37.986C106.154 37.986 106.691 38.321 107.026 38.9911C107.629 40.1972 107.294 41.8054 105.953 43.8827C103.943 47.032 101.598 48.6402 98.7836 48.6402C97.5105 48.6402 96.5723 48.1711 96.1703 47.233C95.5002 45.8929 96.0363 43.7486 97.7115 40.7333C99.8557 36.8468 102.536 33.3625 105.685 30.4811C107.495 28.8729 109.036 28.0688 110.175 28.0688C111.515 28.0688 112.386 28.6049 112.855 29.543C113.324 30.4141 113.056 31.6203 112.051 33.1614C110.51 35.3727 108.902 36.5788 107.361 36.8469ZM105.417 38.522C104.144 38.522 102.201 39.9292 99.5207 42.6765C98.6496 43.6146 98.0465 44.5527 97.7115 45.5578C97.3764 46.563 97.3764 47.3 97.7785 47.7021C98.0465 47.9701 98.3145 48.1041 98.7166 48.1041C99.4537 48.1041 100.258 47.7021 101.062 46.898C101.598 46.2949 102.469 45.1558 103.675 43.4136C104.211 42.6095 104.747 41.8724 105.283 41.0683C106.02 39.9292 106.288 39.1921 106.087 38.7901C105.953 38.6561 105.752 38.522 105.417 38.522Z" fill="#444444"/>
<path d="M110.779 43.2137C111.717 42.4766 112.655 42.0745 113.66 42.0745C115 42.1415 115.603 43.0126 115.536 44.8218C115.134 46.162 114.397 47.2341 113.325 48.0382C112.722 48.4403 111.717 48.7083 110.175 48.7083C109.17 48.7083 108.5 48.3733 108.165 47.6362C107.629 46.497 107.83 45.0229 108.835 43.2137C110.108 40.8014 111.382 39.2602 112.521 38.5231C112.99 38.2551 113.66 38.1211 114.464 38.1881C112.32 41.0694 111.114 42.7446 110.779 43.2137ZM110.712 43.9507C109.639 45.827 109.304 47.1001 109.639 47.8372C109.773 48.1052 109.974 48.1722 110.242 48.1722C111.382 48.0382 112.253 47.6362 112.923 47.0331C113.727 46.162 114.196 45.4249 114.33 44.6878C114.464 43.4817 114.129 42.8786 113.258 42.8786C112.789 42.7446 111.918 43.1467 110.712 43.9507ZM122.907 38.1211C120.763 41.0694 119.288 43.4817 118.484 45.4249C118.015 46.564 117.881 47.3681 118.082 47.7702C118.216 48.0382 118.417 48.1052 118.685 48.1052C119.355 48.1052 120.294 47.5692 121.366 46.43C122.304 45.4919 123.175 44.4198 123.912 43.4147C124.113 43.2807 124.247 43.2137 124.381 43.2807C124.582 43.4147 124.582 43.5487 124.448 43.6827C123.912 44.6208 123.041 45.6929 121.902 46.8321C120.696 48.0382 119.624 48.6413 118.618 48.6413C117.613 48.6413 116.943 48.3062 116.608 47.5692C116.072 46.43 116.273 44.9559 117.278 43.1467C118.551 40.7344 119.825 39.1932 120.964 38.4561C121.366 38.1881 122.036 38.0541 122.907 38.1211Z" fill="#444444"/>
<path d="M135.437 38.0527C133.494 40.8671 132.086 43.3463 131.215 45.4236C130.679 46.6967 130.545 47.5008 130.679 47.7688C130.746 47.9029 130.813 47.9699 131.014 48.0369C131.617 48.2379 132.555 47.7018 133.762 46.2947C133.762 46.2277 134.566 45.2896 136.107 43.3463C136.241 43.2123 136.442 43.2123 136.576 43.2793C136.777 43.4134 136.777 43.5474 136.643 43.6814C136.107 44.4855 135.37 45.4236 134.365 46.5627C133.092 47.9699 132.086 48.6399 131.349 48.6399C130.411 48.5729 129.741 48.1709 129.339 47.5008C129.071 46.9648 129.004 46.2947 129.138 45.5576C128.937 45.8926 128.669 46.2277 128.334 46.6297C127.061 47.9699 125.989 48.707 125.118 48.707C124.247 48.707 123.643 48.3719 123.308 47.7018C122.705 46.4957 122.906 45.0215 123.979 43.1453C124.984 41.2691 126.257 39.862 127.731 38.7898C128.2 38.4548 128.937 38.3208 129.942 38.3878C127.597 41.1351 126.056 43.5474 125.252 45.5576C124.783 46.8307 124.582 47.5678 124.716 47.9029C124.783 48.0369 124.917 48.1709 125.051 48.1709C125.721 48.4389 126.659 47.8359 127.932 46.4287C128.535 45.7586 129.205 44.6865 130.076 43.2123C131.349 40.8671 132.555 39.3259 133.695 38.5218C133.896 38.1198 134.566 37.9857 135.437 38.0527ZM129.741 33.6973C129.674 33.4962 129.674 33.4292 129.808 33.4292C129.942 33.4292 130.076 33.4962 130.277 33.6302C130.746 34.0323 131.349 34.7024 132.086 35.6405C133.762 34.5684 135.102 33.8313 136.107 33.4962C136.375 33.3622 136.576 33.3622 136.643 33.5632C136.911 33.6973 136.911 33.8313 136.71 33.8983C135.169 34.9704 133.762 36.0425 132.555 37.1146C132.354 37.3157 132.22 37.3827 132.086 37.3827C131.885 37.3827 131.751 37.2487 131.55 36.9136C131.148 35.8415 130.478 34.7694 129.741 33.6973Z" fill="#444444"/>
<path d="M58.8476 19.6935C56.6363 22.4408 54.2241 26.5283 51.6108 32.0229C49.5335 36.3114 47.9253 40.8679 46.7192 45.6925C46.5182 46.4966 46.3172 47.3007 46.1161 48.1048C45.9151 48.7748 45.6471 49.1099 45.312 49.1099C44.843 49.1769 44.4409 48.8419 44.1729 48.1718C43.5028 46.5636 44.2399 42.6772 46.3842 36.4454C47.5233 33.6311 48.6624 31.1518 49.8686 29.1416C53.621 22.7089 56.9714 18.6214 59.8527 16.9462C61.5949 16.0751 63.1361 15.8071 64.4762 16.2091C64.8113 16.2761 65.0793 16.4102 65.3473 16.6782C65.6154 16.8792 65.7494 17.0802 65.6824 17.2813C65.6824 17.4153 65.4813 17.4823 65.0123 17.4823C64.2082 17.3483 63.7391 17.2813 63.6051 17.2813C62.0639 16.9462 60.4558 17.7503 58.8476 19.6935Z" fill="#444444"/>
<path d="M54.4249 11.1163C45.8479 9.30707 36.8019 8.43597 27.3538 8.43597C22.5292 8.43597 18.5088 9.24006 15.2924 10.7812C11.54 12.5904 9.86479 15.1367 10.2668 18.4201C10.4009 19.4922 10.7359 20.2963 11.339 21.0334C11.1379 21.1004 11.0039 21.2344 10.8029 21.3014C10.0658 20.3633 9.66377 19.2912 9.52975 18.1521C9.0607 14.1316 10.9369 11.0493 15.2924 8.83801C18.7098 7.16282 22.7973 6.29172 27.5548 6.29172C35.7967 6.29172 45.1108 7.49786 55.296 9.91014C56.7701 8.36896 58.1773 7.36385 59.5844 6.89479C60.3215 6.62676 60.7236 6.62676 60.7906 6.89479C60.8576 7.09582 60.6566 7.29684 60.1205 7.49786C58.9814 7.89991 57.9093 8.77101 56.9041 10.1782C61.9967 10.7812 75.6663 11.4513 79.9548 8.16794C82.367 6.35873 83.1041 3.81244 82.3 2.20426C81.697 0.998122 79.9548 0.194031 79.1507 1.60119C78.5476 2.5393 79.9548 3.61142 80.3568 2.47229C80.0218 2.40528 80.3568 2.6063 79.9548 2.6063C79.2847 2.67331 79.2177 2.07024 79.4857 1.6682C79.7537 1.33316 80.2898 1.19914 80.7589 1.80221C81.1609 2.27127 80.9599 3.00835 80.5578 3.34339C79.2847 4.41551 77.6765 2.47229 78.3466 1.19914C79.2177 -0.409038 81.4289 -0.275023 82.5681 0.864107C84.9133 3.27638 84.2432 6.89479 81.0939 9.17305C75.5993 13.1935 61.9297 11.8534 55.899 11.2503C53.0847 15.1367 49.8013 20.2963 46.0489 26.729C45.5128 27.8012 44.9098 28.8733 44.3067 30.0124C40.0852 38.4554 34.9927 44.5531 28.962 48.3725C24.6735 51.1198 20.184 52.527 15.4934 52.661C12.4111 52.795 9.52975 52.1249 6.98346 50.7848C3.83411 49.1096 1.75687 46.5633 0.751755 43.0119C-1.25847 35.9761 0.751755 29.8114 6.91646 24.5178C7.98858 23.5797 9.39574 22.6416 11.1379 21.6365C11.406 21.5695 11.607 21.4354 11.808 21.3014C16.4985 19.0902 21.3901 18.0851 26.5497 18.2191C28.4259 18.2861 30.1681 18.6211 31.8433 19.4252C33.6525 20.2963 34.9927 21.4354 35.8638 22.8426C38.8121 22.9766 41.4924 23.7137 43.9717 25.1879L43.6366 25.6569C41.6264 24.4508 39.1471 23.7137 36.1318 23.4457C35.9308 23.4457 35.7297 23.3787 35.4617 23.3787C35.3947 23.3787 35.3947 23.3787 35.3277 23.3787C29.23 23.3787 23.4003 25.1209 17.9727 28.6723C15.7615 30.0794 13.8852 31.8886 12.3441 34.0329C10.4009 36.6462 9.59676 38.9914 9.99881 41.2027C10.2668 42.4758 10.8699 43.548 11.942 44.4191C13.0141 45.2232 14.1533 45.6922 15.3594 45.6922C18.8438 45.6922 22.8643 43.816 27.2868 40.1306C29.9671 37.9193 32.1113 35.373 33.8535 32.4917C35.6627 29.4094 36.3328 26.7961 35.8638 24.7188C35.7967 24.4508 35.7297 24.2498 35.5957 23.9817C35.7967 23.9147 36.0648 23.9147 36.2658 23.9147C36.3998 24.3168 36.5338 24.5848 36.5338 24.8528C37.0699 27.1981 36.3998 29.9454 34.6576 33.0278C33.0494 35.8421 30.8382 38.3884 28.0239 40.8007C23.4673 44.4861 19.3129 46.2953 15.5604 46.2953C14.0863 46.2953 12.7461 45.8932 11.54 45.0221C10.1998 44.017 9.39574 42.6769 9.0607 41.0017C8.65865 38.7234 9.39574 36.1771 11.406 33.4298C13.1482 30.9505 15.2254 29.0073 17.6377 27.6001C21.0551 25.5229 24.3384 24.1828 27.3538 23.4457C29.364 23.0436 31.8433 22.7756 34.7916 22.7756C33.1834 20.2963 30.4361 19.0232 26.6167 19.0232C20.452 19.0232 14.5553 21.3684 8.92669 26.059C6.04536 28.4712 3.96812 31.2856 2.56096 34.5019C1.1538 37.7183 0.88577 40.5996 1.68986 43.2129C2.62797 46.4293 4.50418 48.7076 7.3185 50.1817C9.52975 51.3879 12.009 51.9239 14.7563 51.8569C26.7507 51.5889 37.1369 36.5122 43.2346 26.528C43.5696 26.059 43.7706 25.7909 43.9717 25.3219L44.0387 25.3889C46.1829 21.6365 49.6673 16.8789 54.4249 11.1163Z" fill="#444444"/>
<path fill-rule="evenodd" clip-rule="evenodd" d="M76.3369 23.2419C76.5379 21.7678 77.1409 20.3606 77.409 18.9534C78.0791 15.6031 78.3471 16.0051 76.9399 15.6031L75.3317 22.8399L76.3369 23.2419ZM79.9553 10.9795C80.5583 10.9795 80.9604 11.5156 80.9604 12.1187C80.9604 12.5207 80.6924 12.8558 80.2903 13.0568C80.8264 13.6598 82.2335 15.402 82.7026 15.6701L82.9706 22.1698C83.1716 23.845 83.6407 22.5049 83.6407 23.845C83.3727 24.5151 81.8315 24.113 80.6253 25.3192C79.9553 25.9892 79.6872 26.1903 78.8831 26.5253C80.2903 29.0046 76.6719 28.6696 78.3471 26.4583C76.8729 25.6542 77.342 25.5202 76.5379 24.5821C75.8678 23.912 74.5276 23.845 74.0586 23.1079C74.2596 21.8348 74.6617 23.0409 75.0637 21.5667L76.2028 15.067C77.0069 14.5309 78.5481 13.4588 79.4192 12.9228C79.0842 12.7217 78.8161 12.3867 78.8161 11.9177C78.8831 11.3816 79.4192 10.9125 79.9553 10.9795ZM81.4964 23.644C82.0325 23.644 82.3005 23.51 82.6356 23.1749L82.0325 15.8711L80.9604 16.2061C81.1614 18.6854 81.3624 21.1647 81.4964 23.644ZM76.8729 23.443C78.5481 23.912 79.2182 23.979 80.9604 23.711L80.6253 16.1391L78.3471 15.9381C77.878 18.4844 77.342 20.9637 76.8729 23.443Z" fill="#444444"/>
<path d="M68.6971 52.6623C68.7642 52.6623 68.7642 52.6623 68.7642 52.6623V52.7293L68.1611 55.5437H68.6971C68.8982 55.5437 69.0992 55.4767 69.2332 55.3426C69.3672 55.2086 69.5012 55.0076 69.6353 54.6726L69.9703 53.9355C70.1043 53.6004 70.2383 53.3324 70.3723 53.1984C70.4393 53.0644 70.5734 52.9304 70.7074 52.8634C70.8414 52.7964 70.9084 52.7293 71.0424 52.6623C71.1764 52.5953 71.3105 52.5953 71.5115 52.5283H71.6455C71.7125 52.5283 71.7125 52.5283 71.7795 52.5283L71.8465 52.5953L71.9135 53.0644C71.9135 53.1314 71.9135 53.1314 71.9135 53.1984C71.9135 53.1984 71.8465 53.2654 71.7795 53.2654H71.6455C71.5115 53.2654 71.4445 53.3324 71.3775 53.3324C71.3104 53.3324 71.2434 53.3994 71.2434 53.3994C71.1764 53.4664 71.1094 53.5334 71.0424 53.6674C70.9754 53.8015 70.9084 53.9355 70.7744 54.1365L70.5064 54.6726C70.3723 55.0076 70.1713 55.2756 70.0373 55.4096C69.9033 55.6107 69.7023 55.7447 69.5012 55.8117C69.6353 55.8787 69.7693 56.0127 69.9033 56.1467C69.9703 56.2807 70.0373 56.4818 70.1043 56.6828L70.2383 58.0229C70.2383 58.224 70.3053 58.358 70.3053 58.425C70.3053 58.492 70.3053 58.492 70.3723 58.559C70.3723 58.626 70.4394 58.626 70.5064 58.693C70.5734 58.693 70.6404 58.76 70.7074 58.76H70.9084C70.9754 58.76 70.9754 58.76 71.0424 58.827V58.894L70.8414 59.3631C70.7744 59.4301 70.7744 59.4301 70.7074 59.4301C70.6404 59.4301 70.5734 59.4301 70.4394 59.4301H70.3053C70.1043 59.3631 69.9703 59.3631 69.9033 59.2961C69.7693 59.2291 69.7023 59.1621 69.6353 59.0281C69.5682 58.961 69.5683 58.894 69.5012 58.827C69.5012 58.76 69.4342 58.492 69.4342 58.0229L69.3672 57.0178C69.3002 56.6828 69.3002 56.4818 69.1662 56.3478C69.0992 56.2137 68.8982 56.1467 68.6301 56.1467H68.0941L67.424 59.2291C67.424 59.2961 67.424 59.2961 67.357 59.2961H67.29H66.7539C66.6869 59.2961 66.6869 59.2961 66.6869 59.2961C66.6869 59.2961 66.6869 59.2291 66.6869 59.1621L67.357 56.0797H66.8209C66.6199 56.0797 66.4189 56.1467 66.2849 56.2137C66.1509 56.2807 65.9498 56.5488 65.8158 56.8838L65.3468 57.8889C65.1457 58.358 65.0117 58.559 64.9447 58.693C64.8777 58.76 64.8107 58.827 64.7437 58.894C64.6097 59.0281 64.4757 59.0951 64.3417 59.1621C64.2076 59.2291 64.0066 59.2961 63.8056 59.2961H63.6716C63.5376 59.2961 63.4706 59.2961 63.4035 59.2961L63.3365 59.2291L63.2695 59.0281C63.2695 58.961 63.2695 58.9611 63.3365 58.894C63.3365 58.894 63.4035 58.827 63.4706 58.827H63.6716C63.7386 58.827 63.8056 58.827 63.8726 58.76C63.9396 58.76 64.0066 58.693 64.0736 58.626C64.1406 58.559 64.1406 58.559 64.2076 58.492C64.2746 58.425 64.3417 58.291 64.4087 58.157L65.0787 56.8168C65.2128 56.6158 65.3468 56.4148 65.4808 56.2807C65.6148 56.1467 65.8158 56.0127 66.0839 55.9457C65.9498 55.8787 65.8158 55.7447 65.7488 55.6107C65.6818 55.4767 65.6148 55.2086 65.6148 54.8066L65.5478 54.2705C65.4808 53.8685 65.4808 53.6674 65.4808 53.6674C65.4808 53.6004 65.4808 53.6004 65.4138 53.5334C65.3468 53.4664 65.3468 53.4664 65.2798 53.3994C65.2128 53.3994 65.1457 53.3324 65.0787 53.3324H64.9447C64.8777 53.3324 64.8777 53.3324 64.8107 53.2654C64.8107 53.2654 64.8107 53.1984 64.8107 53.1314L65.0117 52.6623C65.0117 52.5953 65.0787 52.5953 65.0787 52.5953C65.0787 52.5953 65.1457 52.5953 65.2128 52.5953H65.2798C65.4808 52.6623 65.6148 52.6623 65.7488 52.7293C65.8158 52.7963 65.9498 52.8634 66.0168 52.9304C66.0839 52.9974 66.0839 53.1314 66.1509 53.2654C66.1509 53.3994 66.2179 53.6674 66.2179 54.0025L66.2849 54.7396C66.2849 55.1416 66.3519 55.3426 66.4859 55.4767C66.6199 55.6107 66.8209 55.6107 67.022 55.6107H67.424L68.0271 52.7963C68.0271 52.7293 68.0271 52.7293 68.0941 52.7293C68.0941 52.7293 68.1611 52.7293 68.2281 52.7293H68.6971V52.6623ZM76.403 54.6726L75.6659 58.157C75.5989 58.291 75.5989 58.358 75.5989 58.425C75.5989 58.492 75.5989 58.559 75.5989 58.559C75.5989 58.626 75.5989 58.693 75.5989 58.693C75.5989 58.76 75.5989 58.827 75.6659 58.894C75.6659 58.9611 75.6659 59.0281 75.733 59.0951C75.733 59.1621 75.8 59.1621 75.8 59.2291V59.2961C75.8 59.2961 75.733 59.2961 75.733 59.3631L75.3309 59.5641C75.2639 59.5641 75.1969 59.5641 75.1299 59.4971C75.0629 59.4301 75.0629 59.2961 75.0629 59.0951C75.0629 59.0281 75.0629 59.0281 75.0629 58.9611C75.0629 58.894 75.0629 58.827 75.0629 58.76V58.693C74.8619 59.0281 74.5938 59.2291 74.2588 59.3631C73.9237 59.4971 73.6557 59.6311 73.3207 59.6311C72.9856 59.6311 72.7176 59.5641 72.5166 59.3631C72.3156 59.1621 72.2486 58.894 72.2486 58.626C72.2486 58.559 72.2486 58.492 72.2486 58.492C72.2486 58.492 72.3156 58.358 72.3826 58.0899L73.0526 55.0076C73.0526 54.9406 73.0527 54.8736 73.1197 54.8736C73.1197 54.8736 73.1867 54.8736 73.1867 54.8066L73.7227 54.6726C73.7897 54.6726 73.7897 54.6726 73.8567 54.6726C73.8567 54.6726 73.8567 54.6726 73.8567 54.7396L73.1867 57.8889C73.1197 58.224 73.0526 58.425 73.0526 58.425V58.492C73.0526 58.693 73.1197 58.827 73.1867 58.894C73.2537 58.9611 73.3877 59.0281 73.5887 59.0281C73.7227 59.0281 73.9237 58.9611 74.1248 58.894C74.3258 58.827 74.4598 58.693 74.5938 58.626C74.7948 58.492 74.9289 58.291 74.9959 58.0899C75.1299 57.8889 75.1969 57.5539 75.2639 57.1518L75.733 54.9406C75.733 54.8736 75.733 54.8066 75.8 54.8066C75.8 54.8066 75.867 54.8066 75.867 54.7396L76.403 54.6056C76.269 54.5385 76.336 54.6056 76.403 54.6726C76.403 54.6056 76.403 54.6056 76.403 54.6726ZM81.2276 54.8736L80.2225 59.3631C80.2225 59.4301 80.2225 59.4301 80.1555 59.4301H80.0884H79.6194C79.5524 59.4301 79.5524 59.4301 79.5524 59.4301C79.5524 59.4301 79.5524 59.3631 79.5524 59.2961L80.4235 55.2756H79.1503V55.3426C79.0163 55.8117 78.9493 56.2137 78.8153 56.6828C78.6813 57.0848 78.6143 57.4199 78.5473 57.6879C78.4133 58.0229 78.2792 58.291 78.1452 58.559C78.0112 58.76 77.8772 58.961 77.6762 59.0951C77.5422 59.2291 77.3411 59.3631 77.1401 59.4301C76.9391 59.4971 76.8051 59.4971 76.6041 59.4971C76.537 59.4971 76.537 59.4971 76.537 59.4971L76.47 59.4301V59.0281C76.47 58.961 76.47 58.9611 76.537 58.894C76.537 58.894 76.6041 58.827 76.6711 58.827H76.7381C77.0061 58.827 77.1401 58.693 77.3411 58.559C77.4752 58.425 77.6092 58.157 77.7432 57.8889C77.8772 57.5539 78.0112 57.1518 78.1452 56.6158C78.2792 56.0797 78.4133 55.6107 78.5473 55.0076L78.6143 54.6726C78.6143 54.6056 78.6143 54.6056 78.6813 54.5385C78.6813 54.5385 78.7483 54.5385 78.8153 54.4715H81.2276C81.2946 54.4715 81.2946 54.4715 81.2946 54.5385C81.2276 54.7396 81.2276 54.8066 81.2276 54.8736ZM84.511 54.6056C84.98 54.6056 85.3821 54.7396 85.6501 55.0746C85.9181 55.3426 86.0521 55.7447 86.0521 56.2807C86.0521 56.6828 85.9851 57.0178 85.9181 57.4199C85.7841 57.8219 85.6501 58.157 85.4491 58.492C85.181 58.827 84.913 59.1621 84.578 59.3631C84.2429 59.5641 83.8409 59.6311 83.4388 59.6311C82.9698 59.6311 82.5677 59.4971 82.2997 59.2291C82.0317 58.9611 81.8977 58.559 81.8977 57.9559C81.8977 57.5539 81.9647 57.0848 82.0987 56.7498C82.2327 56.3478 82.3667 56.0127 82.5677 55.6777C82.8358 55.3426 83.1038 55.0076 83.4388 54.8736C83.7739 54.6726 84.1089 54.6056 84.511 54.6056ZM85.248 56.2807C85.248 55.9457 85.181 55.6777 84.98 55.4767C84.846 55.2756 84.578 55.2086 84.3099 55.2086C84.0419 55.2086 83.7739 55.2756 83.5728 55.4096C83.3718 55.5437 83.1708 55.7447 83.0368 56.0127C82.9028 56.2807 82.7688 56.5488 82.7017 56.8838C82.6347 57.2189 82.5677 57.5539 82.5677 57.8889C82.5677 58.224 82.6347 58.492 82.7688 58.693C82.9028 58.894 83.1038 58.9611 83.4388 58.9611C83.7069 58.9611 83.9079 58.894 84.1089 58.76C84.3099 58.626 84.511 58.425 84.645 58.157C84.779 57.8889 84.913 57.6209 84.98 57.2189C85.248 56.8838 85.248 56.5488 85.248 56.2807ZM91.1447 54.6726L90.4076 58.157C90.3406 58.291 90.3406 58.358 90.3406 58.425C90.3406 58.492 90.3406 58.559 90.3406 58.559C90.3406 58.626 90.3406 58.693 90.3406 58.693C90.3406 58.76 90.3406 58.827 90.4076 58.894C90.4076 58.9611 90.4076 59.0281 90.4746 59.0951C90.4746 59.1621 90.5416 59.1621 90.5416 59.2291V59.2961C90.5416 59.2961 90.4746 59.2961 90.4746 59.3631L90.0726 59.5641C90.0056 59.5641 89.9386 59.5641 89.8716 59.4971C89.8046 59.4301 89.8046 59.2961 89.8046 59.0951C89.8046 59.0281 89.8046 59.0281 89.8046 58.9611C89.8046 58.894 89.8046 58.827 89.8046 58.76V58.693C89.6035 59.0281 89.3355 59.2291 89.0005 59.3631C88.6654 59.4971 88.3974 59.6311 88.0624 59.6311C87.7273 59.6311 87.4593 59.5641 87.2583 59.3631C87.0572 59.1621 86.9902 58.894 86.9902 58.626C86.9902 58.559 86.9902 58.492 86.9902 58.492C86.9902 58.492 87.0572 58.358 87.1243 58.0899L87.7943 55.0076C87.7943 54.9406 87.7943 54.8736 87.8613 54.8736C87.8613 54.8736 87.9283 54.8736 87.9283 54.8066L88.4644 54.6726C88.5314 54.6726 88.5314 54.6726 88.5984 54.6726C88.5984 54.6726 88.5984 54.6726 88.5984 54.7396L87.9283 57.8889C87.8613 58.224 87.7943 58.425 87.7943 58.425V58.492C87.7943 58.693 87.8613 58.827 87.9283 58.894C87.9953 58.9611 88.1294 59.0281 88.3304 59.0281C88.4644 59.0281 88.6654 58.9611 88.8665 58.894C89.0675 58.827 89.2015 58.693 89.3355 58.626C89.5365 58.492 89.6705 58.291 89.7376 58.0899C89.8716 57.8889 89.9386 57.5539 90.0056 57.1518L90.4746 54.9406C90.4746 54.8736 90.4746 54.8066 90.5416 54.8066C90.5416 54.8066 90.6086 54.8066 90.6086 54.7396L91.1447 54.6056C91.0777 54.5385 91.0777 54.6056 91.1447 54.6726C91.1447 54.6056 91.1447 54.6056 91.1447 54.6726ZM90.6086 52.6623L91.0107 52.7293C91.0777 52.7293 91.0777 52.7293 91.0777 52.7293C91.0777 52.7293 91.0777 52.7293 91.0777 52.7963C91.0777 52.7963 91.0777 52.8634 91.0107 52.9974C90.9437 53.0644 90.9437 53.1314 90.8767 53.1984C90.7427 53.4664 90.5416 53.6004 90.2736 53.7345C90.0056 53.8685 89.7375 53.9355 89.4695 53.9355C89.1345 53.9355 88.8665 53.8685 88.6654 53.6674C88.4644 53.4664 88.3974 53.2654 88.3974 52.9304C88.3974 52.8634 88.3974 52.7963 88.3974 52.7963C88.3974 52.7293 88.4644 52.7293 88.5314 52.7293L88.8665 52.6623H88.9335C88.9335 52.6623 88.9335 52.6623 89.0005 52.6623H89.0675V52.7293V52.8634C89.0675 53.0644 89.1345 53.1314 89.2015 53.2654C89.2685 53.3324 89.4025 53.3994 89.6035 53.3994C89.8046 53.3994 89.9386 53.3324 90.0726 53.1984C90.2066 53.0644 90.3406 52.9304 90.4076 52.6623C90.4076 52.5953 90.4076 52.5953 90.4746 52.5953C90.5416 52.6623 90.5416 52.6623 90.6086 52.6623ZM94.7631 59.4301H94.2271C94.1601 59.4301 94.1601 59.4301 94.1601 59.4301C94.1601 59.4301 94.1601 59.4301 94.1601 59.3631L95.1652 54.8066C95.1652 54.7396 95.1652 54.7396 95.1652 54.7396C95.1652 54.7396 95.2322 54.7396 95.2322 54.6726L95.7682 54.5385C95.7682 54.5385 95.7682 54.5385 95.8352 54.5385C95.8352 54.5385 95.8352 54.5385 95.8352 54.6056C95.8352 54.6056 95.8352 54.6056 95.8352 54.6726L95.4332 56.6828H96.0363C96.1703 56.6828 96.3043 56.6158 96.4383 56.5488C96.5723 56.4818 96.6393 56.3478 96.7063 56.1467L96.9074 55.6107C97.0414 55.2756 97.1754 55.0746 97.3094 54.9406C97.4434 54.8066 97.5774 54.7396 97.7785 54.6726C97.8455 54.6726 97.9795 54.6056 98.0465 54.6056C98.1135 54.6056 98.1805 54.6056 98.2475 54.6056H98.3145C98.3145 54.6056 98.3145 54.6056 98.3815 54.6726V55.1416C98.3815 55.2086 98.3815 55.2086 98.3815 55.2086C98.3815 55.2086 98.3145 55.2086 98.2475 55.2756H98.1135C97.9795 55.2756 97.8455 55.3426 97.8455 55.4096C97.7785 55.4767 97.7115 55.6107 97.5774 55.8117L97.3764 56.2137C97.2424 56.4818 97.1084 56.6158 97.0414 56.7498C96.9074 56.8838 96.7734 56.9508 96.5723 57.0178C96.7063 57.0848 96.8404 57.1518 96.9074 57.2859C96.9744 57.4199 97.0414 57.5539 97.0414 57.7549L97.1084 58.559C97.1084 58.693 97.1084 58.76 97.1754 58.827C97.2424 58.894 97.3094 58.894 97.4434 58.9611H97.5774C97.6445 58.9611 97.6444 58.9611 97.6444 58.9611V59.0281C97.6444 59.0281 97.6444 59.0281 97.6444 59.0951L97.4434 59.5641L97.3764 59.6311C97.3764 59.6311 97.3094 59.6311 97.2424 59.6311C97.1754 59.6311 97.0414 59.6311 96.9744 59.6311C96.9074 59.6311 96.8404 59.5641 96.7734 59.5641C96.6393 59.4971 96.5723 59.4301 96.5053 59.2961C96.4383 59.1621 96.3713 58.9611 96.3713 58.559L96.3043 57.8889C96.3043 57.6879 96.2373 57.5539 96.1703 57.4869C96.1033 57.4199 95.9693 57.3529 95.7682 57.3529H95.0982L94.6291 59.4301C94.6291 59.4301 94.6291 59.4971 94.5621 59.4971C94.8301 59.4301 94.7631 59.4301 94.7631 59.4301ZM101.397 54.6056C101.866 54.6056 102.268 54.7396 102.536 55.0746C102.804 55.3426 102.938 55.7447 102.938 56.2807C102.938 56.6828 102.871 57.0178 102.804 57.4199C102.67 57.8219 102.536 58.157 102.335 58.492C102.067 58.827 101.799 59.1621 101.464 59.3631C101.129 59.5641 100.727 59.6311 100.325 59.6311C99.8557 59.6311 99.4537 59.4971 99.1856 59.2291C98.9176 58.9611 98.7836 58.559 98.7836 57.9559C98.7836 57.5539 98.8506 57.0848 98.9846 56.7498C99.1186 56.3478 99.2526 56.0127 99.4537 55.6777C99.7217 55.3426 99.9897 55.0076 100.325 54.8736C100.66 54.6726 100.995 54.6056 101.397 54.6056ZM102.134 56.2807C102.134 55.9457 102.067 55.6777 101.866 55.4767C101.732 55.2756 101.464 55.2086 101.196 55.2086C100.928 55.2086 100.66 55.2756 100.459 55.4096C100.258 55.5437 100.057 55.7447 99.9227 56.0127C99.7887 56.2807 99.6547 56.5488 99.5877 56.8838C99.5207 57.2189 99.4537 57.5539 99.4537 57.8889C99.4537 58.224 99.5207 58.492 99.6547 58.693C99.7887 58.894 99.9897 58.9611 100.325 58.9611C100.593 58.9611 100.794 58.894 100.995 58.76C101.196 58.626 101.397 58.425 101.531 58.157C101.665 57.8889 101.799 57.6209 101.866 57.2189C102.134 56.8838 102.134 56.5488 102.134 56.2807ZM105.618 54.8066L105.953 56.9508C105.953 57.0848 106.02 57.2189 106.02 57.2859C106.02 57.4199 106.02 57.4869 106.02 57.6209C106.02 57.5539 106.087 57.4199 106.154 57.2859C106.221 57.1518 106.288 57.0178 106.355 56.9508L107.629 54.8066L107.696 54.7396H107.763H108.5H108.567C108.567 54.7396 108.567 54.7396 108.567 54.8066L107.83 59.3631C107.83 59.3631 107.83 59.4301 107.763 59.4301H107.696H107.093C107.026 59.4301 107.026 59.4301 107.026 59.4301C107.026 59.4301 107.026 59.4301 107.026 59.3631L107.629 55.9457C107.629 55.8117 107.696 55.7447 107.696 55.6777C107.696 55.6777 107.696 55.6107 107.696 55.5437C107.696 55.6107 107.629 55.6107 107.629 55.6777C107.629 55.7447 107.562 55.8117 107.495 55.8787L106.087 58.291C106.087 58.358 106.02 58.358 106.02 58.358H105.953H105.551C105.484 58.358 105.484 58.358 105.484 58.358V58.291L105.082 55.8787C105.082 55.8117 105.082 55.8117 105.082 55.7447C105.082 55.6777 105.082 55.6107 105.082 55.5437C105.082 55.6107 105.082 55.6107 105.082 55.6777C105.082 55.6777 105.082 55.8117 105.015 55.9457L104.144 59.3631C104.144 59.3631 104.144 59.4301 104.077 59.4301H104.01H103.407C103.34 59.4301 103.34 59.4301 103.34 59.4301C103.34 59.4301 103.34 59.4301 103.34 59.3631L104.613 54.8066C104.613 54.8066 104.613 54.7396 104.68 54.7396H104.747H105.484C105.551 54.7396 105.551 54.7396 105.618 54.8066C105.618 54.8066 105.618 54.7396 105.618 54.8066ZM113.525 56.0797L112.788 59.3631C112.788 59.4301 112.788 59.4301 112.721 59.4301H112.654H112.118C112.051 59.4301 112.051 59.4301 112.051 59.4301C112.051 59.4301 112.051 59.3631 112.051 59.2961L112.788 56.0127C112.788 55.9457 112.788 55.8787 112.855 55.7447C112.855 55.6777 112.855 55.6107 112.855 55.5437C112.855 55.4096 112.788 55.3426 112.721 55.2756C112.654 55.2086 112.52 55.2086 112.386 55.1416C112.118 55.1416 111.917 55.2086 111.649 55.3426C111.381 55.4767 111.18 55.6777 111.046 55.9457C110.912 56.0797 110.845 56.2807 110.778 56.4818C110.711 56.6828 110.644 56.8838 110.577 57.0178L110.108 59.1621C110.108 59.2291 110.108 59.2291 110.041 59.2291H109.974H109.438C109.371 59.2291 109.371 59.2291 109.371 59.2291C109.371 59.2291 109.371 59.1621 109.371 59.0951L110.108 55.8117C110.108 55.6777 110.175 55.6107 110.175 55.4767C110.175 55.4096 110.175 55.2756 110.175 55.2086C110.175 55.1416 110.175 55.1416 110.175 55.0746C110.175 55.0076 110.175 54.9406 110.175 54.8736C110.108 54.7396 110.108 54.6726 110.108 54.6726V54.6056C110.108 54.6056 110.175 54.6056 110.175 54.5385L110.577 54.3375C110.644 54.3375 110.644 54.3375 110.711 54.3375C110.711 54.3375 110.778 54.4045 110.778 54.5385C110.778 54.6056 110.778 54.6726 110.845 54.7396C110.845 54.8066 110.845 54.8736 110.845 54.9406C110.845 54.9406 110.845 55.0076 110.845 55.0746C110.845 55.1416 110.845 55.2086 110.845 55.2756V55.4096C111.046 55.0746 111.314 54.8066 111.649 54.6726C111.984 54.4715 112.319 54.4045 112.654 54.4045C112.989 54.4045 113.19 54.4715 113.324 54.6056C113.458 54.7396 113.592 54.9406 113.592 55.2086C113.592 55.2756 113.592 55.3426 113.592 55.4096C113.592 55.6777 113.592 55.8117 113.525 56.0797ZM118.618 54.8736L117.613 59.3631C117.613 59.4301 117.613 59.4301 117.546 59.4301H117.479H116.943C116.876 59.4301 116.876 59.4301 116.876 59.4301C116.876 59.4301 116.876 59.3631 116.876 59.2961L117.747 55.2756H116.474V55.3426C116.34 55.8117 116.273 56.2137 116.139 56.6828C116.005 57.0848 115.938 57.4199 115.871 57.6879C115.737 58.0229 115.603 58.291 115.468 58.559C115.334 58.76 115.2 58.961 114.999 59.0951C114.865 59.2291 114.664 59.3631 114.463 59.4301C114.262 59.4971 114.128 59.4971 113.927 59.4971C113.86 59.4971 113.86 59.4971 113.86 59.4971L113.793 59.4301V59.0281C113.793 58.961 113.793 58.9611 113.86 58.894C113.86 58.894 113.927 58.827 113.994 58.827H114.061C114.329 58.827 114.463 58.693 114.664 58.559C114.798 58.425 114.932 58.157 115.066 57.8889C115.2 57.5539 115.334 57.1518 115.468 56.6158C115.603 56.0797 115.737 55.6107 115.871 55.0076L115.938 54.6726C115.938 54.6056 115.938 54.6056 116.005 54.5385C116.005 54.5385 116.072 54.5385 116.139 54.4715H118.551C118.618 54.4715 118.618 54.4715 118.618 54.5385C118.618 54.7396 118.618 54.8066 118.618 54.8736ZM122.571 58.492L122.839 58.827C122.839 58.827 122.839 58.827 122.839 58.894C122.839 58.894 122.839 58.9611 122.772 58.9611C122.705 59.0281 122.638 59.0281 122.571 59.0951C122.37 59.2291 122.102 59.3631 121.834 59.4301C121.566 59.4971 121.298 59.5641 121.03 59.5641C120.762 59.5641 120.494 59.4971 120.36 59.4301C120.159 59.3631 119.958 59.2291 119.824 59.0951C119.69 58.894 119.556 58.76 119.489 58.492C119.422 58.291 119.422 58.0229 119.422 57.7549C119.422 56.8168 119.69 56.0797 120.159 55.4767C120.695 54.8736 121.298 54.5385 121.968 54.5385C122.37 54.5385 122.705 54.6726 122.906 54.8736C123.174 55.0746 123.241 55.4096 123.308 55.8117C123.308 56.3478 123.04 56.7498 122.571 57.0848C122.102 57.4199 121.298 57.5539 120.226 57.5539H120.159C120.159 57.6209 120.159 57.6209 120.159 57.6879C120.159 57.7549 120.159 57.7549 120.159 57.8219C120.159 57.9559 120.159 58.0899 120.159 58.157C120.159 58.291 120.226 58.358 120.226 58.425C120.293 58.559 120.427 58.693 120.561 58.76C120.695 58.827 120.896 58.894 121.097 58.894C121.298 58.894 121.499 58.827 121.767 58.76C122.035 58.693 122.236 58.559 122.437 58.425C122.504 58.425 122.504 58.358 122.571 58.358H122.638C122.504 58.425 122.504 58.425 122.571 58.492C122.571 58.425 122.504 58.425 122.571 58.492ZM120.159 56.9508C120.561 56.9508 120.896 56.9508 121.231 56.8838C121.566 56.8168 121.834 56.7498 122.035 56.6158C122.169 56.5488 122.303 56.4148 122.37 56.2807C122.437 56.1467 122.504 56.0127 122.504 55.8787C122.504 55.6777 122.437 55.4767 122.303 55.4096C122.169 55.2756 122.035 55.2086 121.767 55.2086C121.365 55.2086 121.03 55.3426 120.695 55.6777C120.494 55.9457 120.293 56.4148 120.159 56.9508ZM124.381 59.4301H123.844C123.777 59.4301 123.777 59.4301 123.777 59.4301C123.777 59.4301 123.777 59.4301 123.777 59.3631L124.783 54.8066C124.783 54.7396 124.783 54.7396 124.783 54.7396C124.783 54.7396 124.85 54.7396 124.85 54.6726L125.386 54.5385C125.386 54.5385 125.386 54.5385 125.453 54.5385C125.453 54.5385 125.453 54.5385 125.453 54.6056C125.453 54.6056 125.453 54.6056 125.453 54.6726L125.051 56.6828H125.654C125.788 56.6828 125.922 56.6158 126.056 56.5488C126.19 56.4818 126.257 56.3478 126.324 56.1467L126.525 55.6107C126.659 55.2756 126.793 55.0746 126.927 54.9406C127.061 54.8066 127.195 54.7396 127.396 54.6726C127.463 54.6726 127.597 54.6056 127.664 54.6056C127.731 54.6056 127.798 54.6056 127.865 54.6056H127.932C127.932 54.6056 127.932 54.6056 127.999 54.6726V55.1416C127.999 55.2086 127.999 55.2086 127.999 55.2086C127.999 55.2086 127.932 55.2086 127.865 55.2756H127.731C127.597 55.2756 127.463 55.3426 127.463 55.4096C127.396 55.4767 127.329 55.6107 127.195 55.8117L126.994 56.2137C126.86 56.4818 126.726 56.6158 126.659 56.7498C126.525 56.8838 126.391 56.9508 126.19 57.0178C126.324 57.0848 126.458 57.1518 126.525 57.2859C126.592 57.4199 126.659 57.5539 126.659 57.7549L126.726 58.559C126.726 58.693 126.726 58.76 126.793 58.827C126.86 58.894 126.927 58.894 127.061 58.9611H127.195C127.262 58.9611 127.262 58.9611 127.262 58.9611V59.0281C127.262 59.0281 127.262 59.0281 127.262 59.0951L127.061 59.5641L126.994 59.6311C126.994 59.6311 126.927 59.6311 126.86 59.6311C126.793 59.6311 126.659 59.6311 126.592 59.6311C126.525 59.6311 126.458 59.5641 126.391 59.5641C126.257 59.4971 126.19 59.4301 126.123 59.2961C126.056 59.1621 125.989 58.9611 125.989 58.559L125.922 57.8889C125.922 57.6879 125.855 57.5539 125.788 57.4869C125.721 57.4199 125.587 57.3529 125.386 57.3529H124.716L124.246 59.4301C124.246 59.4301 124.246 59.4971 124.179 59.4971C124.448 59.4301 124.448 59.4301 124.381 59.4301ZM132.22 55.0746L132.019 55.4096L131.952 55.4767C131.952 55.4767 131.952 55.4767 131.885 55.4767H131.818C131.818 55.4767 131.751 55.4096 131.684 55.4096C131.55 55.3426 131.483 55.3426 131.349 55.2756C131.215 55.2756 131.148 55.2086 131.014 55.2086C130.746 55.2086 130.478 55.2756 130.21 55.4096C130.009 55.5437 129.808 55.7447 129.674 56.0127C129.54 56.2807 129.406 56.5488 129.339 56.9508C129.272 57.2859 129.205 57.6209 129.205 57.9559C129.205 58.291 129.272 58.492 129.406 58.693C129.54 58.894 129.808 58.9611 130.076 58.9611C130.21 58.9611 130.344 58.9611 130.478 58.894C130.612 58.894 130.813 58.76 131.081 58.626C131.148 58.559 131.215 58.559 131.215 58.559C131.215 58.559 131.215 58.559 131.282 58.559C131.282 58.559 131.282 58.559 131.349 58.559L131.483 58.894C131.483 58.894 131.483 58.894 131.483 58.9611C131.483 58.9611 131.483 58.961 131.483 59.0281C131.483 59.0281 131.483 59.0951 131.416 59.0951C131.416 59.0951 131.349 59.1621 131.215 59.2291C131.014 59.3631 130.746 59.4971 130.545 59.5641C130.344 59.6311 130.076 59.6311 129.808 59.6311C129.272 59.6311 128.937 59.4971 128.669 59.1621C128.468 58.894 128.334 58.492 128.334 57.9559C128.334 57.0178 128.602 56.2137 129.071 55.5437C129.54 54.8736 130.21 54.6056 130.947 54.6056C131.081 54.6056 131.215 54.6056 131.349 54.6726C131.483 54.6726 131.617 54.7396 131.751 54.7396C131.885 54.8066 132.019 54.8736 132.086 54.8736C132.153 54.9406 132.22 54.9406 132.22 55.0076C132.287 55.0076 132.287 55.0076 132.22 55.0746Z" fill="#444444"/>
</svg>
