<svg width="22" height="22" viewBox="0 0 22 22" fill="none" xmlns="http://www.w3.org/2000/svg">
<path d="M21.6329 -0.000488281H6.23288C6.13563 -0.000488281 6.04237 0.0381425 5.9736 0.106906C5.90484 0.175669 5.86621 0.268932 5.86621 0.366178V21.6328C5.86621 21.7301 5.90484 21.8234 5.9736 21.8921C6.04237 21.9609 6.13563 21.9995 6.23288 21.9995H21.6329C21.7301 21.9995 21.8234 21.9609 21.8922 21.8921C21.9609 21.8234 21.9995 21.7301 21.9995 21.6328V0.366178C21.9995 0.268932 21.9609 0.175669 21.8922 0.106906C21.8234 0.0381425 21.7301 -0.000488281 21.6329 -0.000488281ZM13.5662 21.2662H7.69954V3.66618H13.5662V21.2662ZM20.1662 21.2662H14.2995V3.66618H20.1662V21.2662ZM21.2662 21.2662H20.8995V3.29951C20.8995 3.20227 20.8609 3.109 20.7922 3.04024C20.7234 2.97148 20.6301 2.93285 20.5329 2.93285H7.33288C7.23563 2.93285 7.14237 2.97148 7.0736 3.04024C7.00484 3.109 6.96621 3.20227 6.96621 3.29951V21.2662H6.59954V0.732845H21.2662V21.2662Z" fill="#282828"/>
<path d="M4.76667 6.96619H0.366667C0.269421 6.96619 0.176157 7.00482 0.107394 7.07358C0.0386308 7.14234 0 7.23561 0 7.33285V14.6662C0 14.7634 0.0386308 14.8567 0.107394 14.9255C0.176157 14.9942 0.269421 15.0329 0.366667 15.0329H4.76667C4.86391 15.0329 4.95718 14.9942 5.02594 14.9255C5.0947 14.8567 5.13333 14.7634 5.13333 14.6662V7.33285C5.13333 7.23561 5.0947 7.14234 5.02594 7.07358C4.95718 7.00482 4.86391 6.96619 4.76667 6.96619ZM4.4 14.2995H0.733333V7.69952H4.4V14.2995Z" fill="#282828"/>
<path d="M3.98155 10.0792L2.88155 8.24589C2.84674 8.19424 2.79979 8.15193 2.7448 8.12268C2.68982 8.09342 2.62849 8.07812 2.56621 8.07812C2.50393 8.07812 2.4426 8.09342 2.38762 8.12268C2.33264 8.15193 2.28568 8.19424 2.25088 8.24589L1.15088 10.0792C1.11787 10.1349 1.10019 10.1983 1.09962 10.263C1.09906 10.3277 1.11563 10.3915 1.14766 10.4477C1.17969 10.5039 1.22603 10.5507 1.28198 10.5832C1.33793 10.6157 1.40149 10.6329 1.46621 10.6329H3.66621C3.73093 10.6329 3.79449 10.6157 3.85044 10.5832C3.90639 10.5507 3.95273 10.5039 3.98476 10.4477C4.01679 10.3915 4.03337 10.3277 4.0328 10.263C4.03224 10.1983 4.01455 10.1349 3.98155 10.0792ZM2.11521 9.89956L2.56621 9.14422L3.01721 9.89956H2.11521Z" fill="#282828"/>
<path d="M2.25197 13.755C2.28457 13.8093 2.33064 13.8541 2.3857 13.8853C2.44077 13.9164 2.50295 13.9328 2.56621 13.9328C2.62946 13.9328 2.69165 13.9164 2.74671 13.8853C2.80177 13.8541 2.84784 13.8093 2.88044 13.755L3.98044 11.9217C4.01386 11.8661 4.03192 11.8026 4.03277 11.7377C4.03362 11.6728 4.01723 11.6088 3.98528 11.5523C3.95333 11.4959 3.90695 11.4489 3.8509 11.4162C3.79484 11.3835 3.7311 11.3662 3.66621 11.3662H1.46621C1.40131 11.3662 1.33757 11.3835 1.28152 11.4162C1.22546 11.4489 1.17909 11.4959 1.14713 11.5523C1.11518 11.6088 1.09879 11.6728 1.09964 11.7377C1.10049 11.8026 1.11855 11.8661 1.15197 11.9217L2.25197 13.755ZM3.01867 12.0995L2.56621 12.8534L2.11374 12.0995H3.01867Z" fill="#282828"/>
<path d="M8.43359 1.46619H9.16693V2.19952H8.43359V1.46619Z" fill="#282828"/>
<path d="M9.90039 1.46619H10.6337V2.19952H9.90039V1.46619Z" fill="#282828"/>
<path d="M11.3662 1.46619H12.0995V2.19952H11.3662V1.46619Z" fill="#282828"/>
<path d="M12.833 1.46619H13.5663V2.19952H12.833V1.46619Z" fill="#282828"/>
<path d="M14.2998 1.46619H15.0331V2.19952H14.2998V1.46619Z" fill="#282828"/>
<path d="M15.7666 1.46619H16.4999V2.19952H15.7666V1.46619Z" fill="#282828"/>
<path d="M17.2334 1.46619H17.9667V2.19952H17.2334V1.46619Z" fill="#282828"/>
<path d="M18.7002 1.46619H19.4335V2.19952H18.7002V1.46619Z" fill="#282828"/>
</svg>
