<svg width="22" height="18" viewBox="0 0 22 18" fill="none" xmlns="http://www.w3.org/2000/svg">
<path d="M21.5512 16.475H20.6874V9.59552H20.9717C21.5325 9.59552 21.9888 9.12407 21.9888 8.54451V4.91509C21.9888 4.33553 21.5325 3.86408 20.9717 3.86408H19.5058C18.9448 3.86408 18.4886 4.33553 18.4886 4.91509V8.54451C18.4886 9.12407 18.9448 9.59552 19.5058 9.59552H19.7899V16.475H17.7706V9.71024V9.56728V3.5898H18.9373C19.1851 3.5898 19.3861 3.3822 19.3861 3.12611C19.3861 1.79451 18.3493 0.711182 17.075 0.711182H2.31107C1.03675 0.711137 0 1.79451 0 3.12611C0 3.3822 0.200964 3.5898 0.448765 3.5898H1.61554V9.56728V9.71024V16.475H0.459894C0.212093 16.475 0.0111289 16.6826 0.0111289 16.9387C0.0111289 17.1947 0.212093 17.4023 0.459894 17.4023H21.5512C21.799 17.4023 22 17.1947 22 16.9387C22 16.6826 21.799 16.475 21.5512 16.475ZM0.967783 2.66243C1.15332 2.06853 1.68545 1.6385 2.31107 1.6385H17.075C17.7007 1.6385 18.2328 2.06844 18.4183 2.66243H0.967783ZM9.80536 5.52231C9.63009 5.34126 9.34603 5.34126 9.17067 5.52231L5.57321 9.23941C5.57097 9.24172 5.56913 9.24425 5.56693 9.24656H2.51302V3.5898H14.2845L8.80969 9.24656H6.83554L9.80532 6.17806C9.98059 5.99701 9.98059 5.70341 9.80536 5.52231ZM14.218 16.475H5.1672V15.594H14.218V16.475ZM3.86305 14.6667V14.2957H15.5231V14.6667H3.86305ZM16.8731 16.475H15.1155V15.594H15.9718C16.2196 15.594 16.4206 15.3864 16.4206 15.1303V13.8321C16.4206 13.576 16.2196 13.3684 15.9718 13.3684H3.41429C3.16649 13.3684 2.96553 13.576 2.96553 13.8321V15.1303C2.96553 15.3864 3.16649 15.594 3.41429 15.594H4.26975V16.475H2.51302V10.1739H16.8731V16.475ZM16.8731 9.24656H10.0791L15.5538 3.5898H16.8731V9.24656ZM19.5058 8.66824C19.4398 8.6682 19.3861 8.61275 19.3861 8.5446V4.91518C19.3861 4.84699 19.4398 4.79154 19.5058 4.79154H20.9717C21.0376 4.79154 21.0913 4.84699 21.0913 4.91518V8.5446C21.0913 8.61275 21.0376 8.66824 20.9717 8.66824H19.5058Z" fill="black"/>
<path d="M10.8366 4.45846C10.6618 4.27687 10.3776 4.27616 10.2019 4.45668L10.1977 4.46094C10.022 4.64151 10.0212 4.93505 10.196 5.1165C10.2837 5.20759 10.3989 5.25317 10.5142 5.25317C10.6287 5.25317 10.7431 5.20821 10.8307 5.11828L10.8349 5.11402C11.0106 4.93349 11.0114 4.63996 10.8366 4.45846Z" fill="black"/>
</svg>
