<svg width="22" height="20" viewBox="0 0 22 20" fill="none" xmlns="http://www.w3.org/2000/svg">
<path d="M0.354839 14.1931H19.871C20.0669 14.1931 20.2258 14.0342 20.2258 13.8382C20.2258 13.6423 20.0669 13.4834 19.871 13.4834H19.1613V11.3076C20.5806 10.968 21.6452 8.61925 21.6452 5.67693C21.6452 2.49326 20.3982 -0.000488281 18.8065 -0.000488281C17.2147 -0.000488281 15.9677 2.49326 15.9677 5.67693C15.9677 8.61925 17.0323 10.968 18.4516 11.3076V13.4834H11.3548V11.3363C13.4328 11.1466 14.9942 9.35613 14.8992 7.27163C14.8043 5.18712 13.0866 3.54599 11 3.54599C8.91342 3.54599 7.19571 5.18712 7.10076 7.27163C7.00581 9.35613 8.56724 11.1466 10.6452 11.3363V13.4834H3.54839V11.3076C4.96774 10.968 6.03226 8.61925 6.03226 5.67693C6.03226 2.49326 4.7853 -0.000488281 3.19355 -0.000488281C1.6018 -0.000488281 0.354839 2.49326 0.354839 5.67693C0.354839 8.61925 1.41935 10.968 2.83871 11.3076V13.4834H0.354839C0.15888 13.4834 0 13.6423 0 13.8382C0 14.0342 0.15888 14.1931 0.354839 14.1931ZM16.6774 5.67693C16.6774 2.74951 17.7995 0.709189 18.8065 0.709189C19.8134 0.709189 20.9355 2.74951 20.9355 5.67693C20.9355 8.26337 20.0598 10.1543 19.1613 10.5606V8.66257L19.9444 7.87943C20.0789 7.74012 20.077 7.51887 19.9401 7.38199C19.8032 7.24512 19.582 7.24321 19.4427 7.37766L19.1613 7.65904V7.09629C19.1613 6.90033 19.0024 6.74145 18.8065 6.74145C18.6105 6.74145 18.4516 6.90033 18.4516 7.09629V10.5606C17.5531 10.1543 16.6774 8.26337 16.6774 5.67693ZM7.80645 7.45112C7.80576 5.73341 9.16413 4.32272 10.8808 4.25862C12.5973 4.19451 14.0572 5.49968 14.1847 7.21272C14.3124 8.92575 13.062 10.4329 11.3548 10.6237V9.37224L12.138 8.5891C12.2724 8.4498 12.2705 8.22855 12.1336 8.09167C11.9968 7.95479 11.7755 7.95289 11.6362 8.08734L11.3548 8.36872V7.80596C11.3548 7.61 11.196 7.45112 11 7.45112C10.804 7.45112 10.6452 7.61 10.6452 7.80596V10.6237C9.03002 10.4416 7.8087 9.07649 7.80645 7.45112ZM1.06452 5.67693C1.06452 2.74951 2.18655 0.709189 3.19355 0.709189C4.20054 0.709189 5.32258 2.74951 5.32258 5.67693C5.32258 8.26337 4.44692 10.1543 3.54839 10.5606V8.66257L4.33153 7.87943C4.46598 7.74012 4.46407 7.51887 4.3272 7.38199C4.19032 7.24512 3.96906 7.24321 3.82976 7.37766L3.54839 7.65904V7.09629C3.54839 6.90033 3.38951 6.74145 3.19355 6.74145C2.99759 6.74145 2.83871 6.90033 2.83871 7.09629V10.5606C1.94018 10.1543 1.06452 8.26337 1.06452 5.67693Z" fill="#282828"/>
<path d="M20.9359 13.4834C20.7399 13.4834 20.5811 13.6423 20.5811 13.8382C20.5811 14.0342 20.7399 14.1931 20.9359 14.1931H21.6456C21.8415 14.1931 22.0004 14.0342 22.0004 13.8382C22.0004 13.6423 21.8415 13.4834 21.6456 13.4834H20.9359Z" fill="#282828"/>
<path d="M21.6454 18.8059H2.12925C1.93329 18.8059 1.77441 18.9648 1.77441 19.1607C1.77441 19.3567 1.93329 19.5156 2.12925 19.5156H21.6454C21.8413 19.5156 22.0002 19.3567 22.0002 19.1607C22.0002 18.9648 21.8413 18.8059 21.6454 18.8059Z" fill="#282828"/>
<path d="M1.06452 18.8059H0.354839C0.15888 18.8059 0 18.9648 0 19.1607C0 19.3567 0.15888 19.5156 0.354839 19.5156H1.06452C1.26047 19.5156 1.41935 19.3567 1.41935 19.1607C1.41935 18.9648 1.26047 18.8059 1.06452 18.8059Z" fill="#282828"/>
<path d="M20.9358 14.9027C20.4331 14.892 19.9388 15.032 19.5164 15.3043C18.8646 15.7151 18.0349 15.7151 17.383 15.3043C16.5135 14.7688 15.4162 14.7688 14.5466 15.3043C13.8951 15.7151 13.0657 15.7151 12.4143 15.3043C11.5448 14.7688 10.4479 14.7688 9.5785 15.3043C9.26369 15.514 8.89204 15.6216 8.51399 15.6124C8.13593 15.6214 7.76429 15.514 7.44947 15.3043C7.02706 15.0316 6.53275 14.8916 6.03012 14.9027C5.52835 14.8921 5.03473 15.0321 4.61319 15.3043C4.29837 15.514 3.92673 15.6216 3.54867 15.6124C3.17061 15.6216 2.79897 15.514 2.48415 15.3043C2.06174 15.032 1.56743 14.892 1.0648 14.9027C0.868841 14.9027 0.709961 15.0616 0.709961 15.2575C0.709961 15.4535 0.868841 15.6124 1.0648 15.6124C1.44286 15.6034 1.8145 15.7108 2.12932 15.9204C2.55173 16.1932 3.04604 16.333 3.54867 16.3221C4.0513 16.3328 4.54561 16.1928 4.96803 15.9204C5.28284 15.7108 5.65449 15.6032 6.03254 15.6124C6.4106 15.6032 6.78224 15.7108 7.09706 15.9204C7.51947 16.1932 8.01378 16.333 8.51641 16.3221C9.01852 16.3326 9.51214 16.1928 9.93403 15.9204C10.5853 15.5096 11.4146 15.5096 12.0658 15.9204C12.9354 16.456 14.0325 16.456 14.9021 15.9204C15.5536 15.5098 16.3832 15.5098 17.0346 15.9204C17.9049 16.4565 19.003 16.4565 19.8733 15.9204C20.1876 15.7115 20.5584 15.6041 20.9358 15.6124C21.1317 15.6124 21.2906 15.4535 21.2906 15.2575C21.2906 15.0616 21.1317 14.9027 20.9358 14.9027Z" fill="#282828"/>
<path d="M20.9358 16.6769C20.4331 16.6661 19.9388 16.8061 19.5164 17.0785C18.8646 17.4893 18.0349 17.4893 17.383 17.0785C16.5135 16.5429 15.4162 16.5429 14.5466 17.0785C13.8951 17.4893 13.0657 17.4893 12.4143 17.0785C11.5448 16.5429 10.4479 16.5429 9.5785 17.0785C9.26369 17.2881 8.89204 17.3957 8.51399 17.3866C8.13593 17.3956 7.76429 17.2881 7.44947 17.0785C7.02706 16.8058 6.53275 16.6658 6.03012 16.6769C5.52835 16.6663 5.03473 16.8063 4.61319 17.0785C4.29837 17.2881 3.92673 17.3957 3.54867 17.3866C3.17061 17.3957 2.79897 17.2881 2.48415 17.0785C2.06174 16.8061 1.56743 16.6661 1.0648 16.6769C0.868841 16.6769 0.709961 16.8358 0.709961 17.0317C0.709961 17.2277 0.868841 17.3866 1.0648 17.3866C1.44286 17.3775 1.8145 17.485 2.12932 17.6946C2.55173 17.9673 3.04604 18.1072 3.54867 18.0962C4.0513 18.107 4.54561 17.967 4.96803 17.6946C5.28284 17.485 5.65449 17.3774 6.03254 17.3866C6.4106 17.3774 6.78224 17.485 7.09706 17.6946C7.51947 17.9673 8.01378 18.1072 8.51641 18.0962C9.01852 18.1068 9.51214 17.967 9.93403 17.6946C10.5853 17.2838 11.4146 17.2838 12.0658 17.6946C12.9354 18.2302 14.0325 18.2302 14.9021 17.6946C15.5536 17.284 16.3832 17.284 17.0346 17.6946C17.9049 18.2307 19.003 18.2307 19.8733 17.6946C20.1876 17.4857 20.5584 17.3782 20.9358 17.3866C21.1317 17.3866 21.2906 17.2277 21.2906 17.0317C21.2906 16.8358 21.1317 16.6769 20.9358 16.6769Z" fill="#282828"/>
</svg>
