<svg width="148" height="72" viewBox="0 0 148 72" fill="none" xmlns="http://www.w3.org/2000/svg">
<path d="M67.7069 41.1086C65.4746 44.1329 63.9625 46.7251 63.0264 48.8133C62.5223 50.1095 62.3063 50.9016 62.5224 51.2616C62.5944 51.4056 62.7384 51.5496 62.8824 51.5496C63.5305 51.7656 64.5386 51.1176 65.9067 49.5334C66.4827 48.8853 67.3468 47.8773 68.3549 46.4371C68.4989 46.2211 68.643 46.2211 68.859 46.3651C69.003 46.5091 69.003 46.6531 68.931 46.8691C68.0669 47.9493 67.2748 48.9574 66.5548 49.8934C65.2586 51.4056 64.1065 52.1977 63.2424 52.1977C62.2343 52.1977 61.5143 51.7656 61.0822 50.9736C60.7942 50.3975 60.7222 49.7494 60.9382 49.0294C59.21 51.1896 57.6979 52.2697 56.5458 52.2697C55.6097 52.2697 54.8896 51.8376 54.4576 51.0456C53.6655 49.5334 53.8815 47.7332 55.0336 45.717C55.8257 44.4209 56.9058 43.2688 58.3459 42.2607C59.7861 41.2526 61.1542 40.7485 62.3063 40.7485C63.1704 40.7485 63.8185 41.0366 64.0345 41.6126C64.3225 42.1167 64.1785 42.7647 63.6745 43.5568C64.7546 42.2607 65.5467 41.4686 66.0507 41.3246C66.5548 41.1086 67.0588 41.0366 67.7069 41.1086ZM62.8824 41.3246C61.5143 41.3246 59.7141 43.0528 57.4098 46.5811C55.9697 48.8133 55.4657 50.3975 55.8977 51.3336C55.9697 51.4776 56.1137 51.6216 56.3297 51.6936C56.7618 51.8376 57.5539 51.4056 58.634 50.3255C59.7141 49.2454 60.7222 47.9493 61.6583 46.3651C63.1704 43.7728 63.7465 42.1887 63.5305 41.7566C63.4584 41.4686 63.1704 41.3246 62.8824 41.3246Z" fill="white"/>
<path fill-rule="evenodd" clip-rule="evenodd" d="M77.2798 38.0124C77.2798 38.0124 77.1358 38.0844 76.7038 38.1564C75.9117 38.2284 75.1916 38.6605 74.5435 39.3085C73.1754 40.8927 71.9513 42.9809 70.8712 45.5732C71.5912 44.5651 72.4553 43.629 73.6074 42.6209C75.0476 41.3247 76.1997 40.7487 77.0638 40.7487C77.7119 40.7487 78.2879 41.1087 78.6479 41.9008C79.008 42.6209 79.152 43.485 79.08 44.4931C79.008 45.5012 78.72 46.4373 78.2159 47.2293C76.0557 50.6137 73.6795 52.2699 71.0872 52.2699C70.6552 52.2699 70.1511 52.1258 69.7191 51.9098C69.431 51.7658 69.215 51.5498 69.071 51.3338C68.927 51.1177 68.927 50.9737 69.071 50.9737C69.215 50.9737 69.359 51.0457 69.575 51.2618C69.8631 51.5498 70.2231 51.6938 70.5831 51.6938C71.3752 51.7658 72.0953 51.4778 72.8154 50.7577C73.4634 50.0376 74.4715 48.5255 75.8397 46.2212C77.2798 43.773 77.7839 42.3328 77.5678 41.7568C77.4958 41.6128 77.2798 41.4688 77.0638 41.4688C76.2717 41.4688 75.0476 42.2608 73.3914 43.917C72.1673 45.2131 71.0872 46.5093 70.2231 47.8774C70.2951 47.8774 70.2951 47.9494 70.2231 47.9494L70.1511 48.0214C70.0071 48.2374 69.9351 48.3815 69.7911 48.5975C66.6227 53.926 63.0224 63.935 61.2942 69.5516C61.1502 70.1277 60.9342 70.7757 60.7902 71.2798C60.6462 71.7839 60.4301 71.9999 60.1421 71.9999C59.7101 71.9999 59.422 71.7839 59.206 71.3518C58.63 70.1997 59.206 67.3194 61.0782 62.8549C63.6705 56.6623 66.3347 50.1096 69.575 44.277C70.9432 41.7568 72.4553 39.9566 73.9675 38.7325C74.7596 38.0844 75.6236 37.7964 76.6317 37.7964C76.9918 37.7964 77.2798 37.8684 77.2798 38.0124Z" fill="white"/>
<path d="M81.8865 44.2766C82.6065 42.9805 83.2546 42.1164 83.9747 41.5403C84.6948 41.1083 85.6308 40.9643 86.927 40.9643C85.7749 42.0444 84.4787 44.1326 83.0386 47.2289C83.6146 46.5088 84.6947 45.3567 86.3509 43.7005C88.7272 41.5403 90.6714 40.6042 92.2555 40.7482C93.2636 40.8203 93.9117 41.3243 94.1277 42.0444C94.1997 42.4044 94.1277 42.6204 93.8397 42.7644C93.7677 42.7644 93.4076 42.6204 92.7596 42.2604C92.3995 42.0444 91.9675 41.9724 91.5354 41.9004C90.0233 41.8284 88.7992 42.4044 87.7191 43.5565C87.359 44.4206 87.215 45.8608 87.503 47.7329C87.647 48.9571 87.9351 49.8932 88.2231 50.4692C88.5111 50.9733 88.7992 51.2613 89.3032 51.2613C89.7353 51.2613 90.4553 50.7573 91.5354 49.6771C92.1835 48.8131 92.9756 47.805 93.9837 46.5808C94.0557 46.4368 94.1997 46.4368 94.4157 46.5088C94.6318 46.6528 94.6317 46.7969 94.5597 47.0129C93.6957 48.237 92.8316 49.2451 92.0395 50.1092C90.5273 51.7654 89.2312 52.4854 88.2951 52.3414C87.575 52.2694 86.999 51.7654 86.5669 50.9733C86.2789 50.4692 86.0629 49.7492 85.9189 48.8131C85.6308 47.3729 85.6308 46.1488 85.8469 45.0687C85.5588 45.3567 85.0548 45.7888 84.4787 46.4368C83.4706 47.5169 82.7506 48.453 82.3905 49.1011C81.8145 50.5412 81.3824 51.6934 81.2384 52.5574C80.8784 52.5574 80.5183 52.1974 80.1583 51.5493C80.0863 51.4053 80.0143 51.1893 80.0143 51.0453C79.7983 49.3891 80.4463 47.1569 81.8865 44.2766Z" fill="white"/>
<path d="M102.624 41.8286C103.272 43.1248 102.912 44.997 101.616 47.3012C99.6721 50.6135 97.7279 52.2697 95.8557 52.2697C94.6316 52.2697 93.7675 51.6936 93.1915 50.5415C92.3994 48.9574 92.5434 47.1572 93.7675 45.141C94.4876 43.8448 95.5677 42.7647 96.9359 41.9727C98.232 41.1806 99.3841 40.7485 100.536 40.7485C101.544 40.7485 102.264 41.1086 102.624 41.8286ZM101.184 41.2526C99.7441 41.2526 98.016 43.0528 96.0718 46.5811C94.7756 48.8133 94.3436 50.3975 94.7756 51.1896C94.9917 51.6216 95.2797 51.7656 95.7837 51.7656C96.9358 51.7656 98.592 49.9655 100.752 46.2931C102.048 44.0609 102.48 42.4767 102.048 41.6126C101.76 41.3966 101.544 41.2526 101.184 41.2526Z" fill="white"/>
<path d="M115.373 39.5965C114.653 39.7405 113.861 39.8126 112.924 39.8126C112.636 39.6685 112.564 39.4525 112.708 39.3805C113.717 39.4525 114.509 39.3085 115.013 39.0205C116.093 38.6604 117.533 37.2203 119.333 34.628C120.053 33.6919 120.341 32.7558 120.197 31.7477C119.981 31.0997 119.333 30.7396 118.397 30.7396C117.749 30.7396 116.885 31.2437 115.805 32.2518C112.348 35.9242 109.468 40.1726 107.02 44.8531C109.612 42.1888 111.7 40.8207 113.285 40.8207C114.077 40.8207 114.653 41.1807 115.013 41.9008C115.661 43.1969 115.301 44.9251 113.861 47.1573C111.7 50.5416 109.18 52.2698 106.156 52.2698C104.788 52.2698 103.78 51.7658 103.347 50.7577C102.627 49.3175 103.203 47.0133 105.004 43.773C107.308 39.5965 110.188 35.8522 113.573 32.7558C115.517 31.0277 117.173 30.1636 118.397 30.1636C119.837 30.1636 120.773 30.7396 121.277 31.7477C121.781 32.6838 121.493 33.98 120.413 35.6361C118.757 38.0124 117.029 39.3085 115.373 39.5965ZM113.285 41.3967C111.916 41.3967 109.828 42.9089 106.948 45.8612C106.012 46.8693 105.364 47.8774 105.004 48.9575C104.644 50.0376 104.644 50.8297 105.076 51.2617C105.364 51.5497 105.652 51.6937 106.084 51.6937C106.876 51.6937 107.74 51.2617 108.604 50.3976C109.18 49.7496 110.116 48.5254 111.412 46.6532C111.988 45.7892 112.564 44.9971 113.14 44.133C113.933 42.9089 114.221 42.1168 114.005 41.6847C113.861 41.5407 113.645 41.3967 113.285 41.3967Z" fill="white"/>
<path d="M119.043 46.4372C120.051 45.6451 121.059 45.2131 122.139 45.2131C123.579 45.2851 124.227 46.2212 124.155 48.1654C123.723 49.6055 122.931 50.7576 121.779 51.6217C121.131 52.0538 120.051 52.3418 118.395 52.3418C117.315 52.3418 116.595 51.9818 116.235 51.1897C115.659 49.9655 115.875 48.3814 116.955 46.4372C118.323 43.8449 119.691 42.1888 120.915 41.3967C121.419 41.1087 122.139 40.9646 123.003 41.0366C120.699 44.133 119.403 45.9331 119.043 46.4372ZM118.971 47.2293C117.819 49.2455 117.459 50.6136 117.819 51.4057C117.963 51.6937 118.179 51.7657 118.467 51.7657C119.691 51.6217 120.627 51.1897 121.347 50.5416C122.211 49.6055 122.715 48.8134 122.859 48.0214C123.003 46.7252 122.643 46.0772 121.707 46.0772C121.203 45.9331 120.267 46.3652 118.971 47.2293ZM132.076 40.9646C129.772 44.133 128.188 46.7252 127.324 48.8134C126.82 50.0376 126.676 50.9016 126.892 51.3337C127.036 51.6217 127.252 51.6937 127.54 51.6937C128.26 51.6937 129.268 51.1177 130.42 49.8935C131.428 48.8854 132.364 47.7333 133.156 46.6532C133.372 46.5092 133.516 46.4372 133.66 46.5092C133.876 46.6532 133.876 46.7972 133.732 46.9412C133.156 47.9493 132.22 49.1015 130.996 50.3256C129.7 51.6217 128.548 52.2698 127.468 52.2698C126.388 52.2698 125.668 51.9097 125.308 51.1177C124.732 49.8935 124.948 48.3094 126.028 46.3652C127.396 43.7729 128.764 42.1168 129.988 41.3247C130.42 41.0366 131.14 40.8926 132.076 40.9646Z" fill="white"/>
<path d="M145.542 40.8924C143.453 43.9167 141.941 46.5809 141.005 48.8132C140.429 50.1813 140.285 51.0454 140.429 51.3334C140.501 51.4774 140.573 51.5494 140.789 51.6214C141.437 51.8375 142.445 51.2614 143.741 49.7493C143.741 49.6772 144.606 48.6691 146.262 46.5809C146.406 46.4369 146.622 46.4369 146.766 46.5089C146.982 46.6529 146.982 46.797 146.838 46.941C146.262 47.8051 145.47 48.8132 144.389 50.0373C143.021 51.5494 141.941 52.2695 141.149 52.2695C140.141 52.1975 139.421 51.7655 138.989 51.0454C138.701 50.4693 138.629 49.7493 138.773 48.9572C138.557 49.3172 138.269 49.6772 137.909 50.1093C136.541 51.5494 135.389 52.3415 134.452 52.3415C133.516 52.3415 132.868 51.9815 132.508 51.2614C131.86 49.9653 132.076 48.3811 133.228 46.3649C134.308 44.3487 135.677 42.8366 137.261 41.6844C137.765 41.3244 138.557 41.1804 139.637 41.2524C137.117 44.2047 135.461 46.797 134.597 48.9572C134.092 50.3253 133.876 51.1174 134.02 51.4774C134.092 51.6214 134.236 51.7655 134.38 51.7655C135.101 52.0535 136.109 51.4054 137.477 49.8933C138.125 49.1732 138.845 48.0211 139.781 46.4369C141.149 43.9167 142.445 42.2605 143.669 41.3964C143.885 40.9644 144.606 40.8204 145.542 40.8924ZM139.421 36.2119C139.349 35.9959 139.349 35.9239 139.493 35.9239C139.637 35.9239 139.781 35.9959 139.997 36.1399C140.501 36.5719 141.149 37.292 141.941 38.3001C143.741 37.148 145.182 36.3559 146.262 35.9959C146.55 35.8519 146.766 35.8519 146.838 36.0679C147.126 36.2119 147.126 36.3559 146.91 36.4279C145.254 37.58 143.741 38.7321 142.445 39.8843C142.229 40.1003 142.085 40.1723 141.941 40.1723C141.725 40.1723 141.581 40.0283 141.365 39.6682C140.933 38.5161 140.213 37.364 139.421 36.2119Z" fill="white"/>
<path d="M63.2367 21.163C60.8605 24.1153 58.2682 28.5077 55.4599 34.4123C53.2277 39.0208 51.4995 43.9173 50.2034 49.1018C49.9874 49.9659 49.7714 50.8299 49.5553 51.694C49.3393 52.4141 49.0513 52.7741 48.6913 52.7741C48.1872 52.8462 47.7552 52.4861 47.4671 51.766C46.7471 50.0379 47.5391 45.8614 49.8434 39.1648C51.0675 36.1405 52.2916 33.4762 53.5877 31.316C57.6202 24.4033 61.2205 20.0108 64.3168 18.2107C66.189 17.2746 67.8452 16.9865 69.2853 17.4186C69.6454 17.4906 69.9334 17.6346 70.2214 17.9226C70.5095 18.1386 70.6535 18.3547 70.5815 18.5707C70.5815 18.7147 70.3654 18.7867 69.8614 18.7867C68.9973 18.6427 68.4933 18.5707 68.3492 18.5707C66.6931 18.2107 64.9649 19.0747 63.2367 21.163Z" fill="white"/>
<path d="M58.4856 11.9457C49.2687 10.0015 39.5477 9.06539 29.3947 9.06539C24.2102 9.06539 19.8898 9.92948 16.4334 11.5856C12.401 13.5298 10.6008 16.2661 11.0329 19.7945C11.1769 20.9466 11.5369 21.8107 12.185 22.6027C11.969 22.6748 11.8249 22.8188 11.6089 22.8908C10.8168 21.8827 10.3848 20.7306 10.2408 19.5064C9.73674 15.186 11.7529 11.8737 16.4334 9.49744C20.1058 7.69726 24.4982 6.76116 29.6107 6.76116C38.4676 6.76116 48.4766 8.05729 59.4217 10.6496C61.0059 8.99339 62.518 7.91328 64.0302 7.40923C64.8222 7.1212 65.2543 7.1212 65.3263 7.40923C65.3983 7.62525 65.1823 7.84127 64.6062 8.05729C63.3821 8.48934 62.23 9.42543 61.1499 10.9376C66.6224 11.5856 81.3119 12.3057 85.9204 8.77736C88.5126 6.83317 89.3047 4.0969 88.4406 2.36872C87.7925 1.07259 85.9204 0.208508 85.0563 1.72066C84.4082 2.72876 85.9204 3.88087 86.3524 2.65675C85.9924 2.58475 86.3524 2.80077 85.9204 2.80077C85.2003 2.87277 85.1283 2.22471 85.4163 1.79267C85.7043 1.43263 86.2804 1.28862 86.7844 1.93668C87.2165 2.44073 87.0005 3.23281 86.5684 3.59285C85.2003 4.74496 83.4721 2.65675 84.1922 1.28862C85.1283 -0.439557 87.5045 -0.295543 88.7286 0.92858C91.2489 3.52084 90.5288 7.40923 87.1445 9.85747C81.2399 14.1779 66.5504 12.7378 60.0698 12.0897C57.0455 16.2661 53.5171 21.8107 49.4847 28.7234C48.9087 29.8755 48.2606 31.0276 47.6125 32.2517C43.0761 41.3246 37.6035 47.8773 31.1229 51.9817C26.5144 54.934 21.6899 56.4461 16.6494 56.5901C13.3371 56.7342 10.2408 56.0141 7.50452 54.5739C4.12018 52.7738 1.88795 50.0375 0.807845 46.2211C-1.35237 38.6604 0.807845 32.0357 7.43251 26.3471C8.58462 25.339 10.0968 24.3309 11.969 23.2508C12.257 23.1788 12.473 23.0348 12.689 22.8908C17.7295 20.5145 22.9861 19.4344 28.5306 19.5784C30.5468 19.6505 32.419 20.0105 34.2192 20.8746C36.1634 21.8107 37.6035 23.0348 38.5396 24.5469C41.7079 24.691 44.5882 25.483 47.2525 27.0672L46.8925 27.5712C44.7322 26.2751 42.068 25.483 38.8276 25.195C38.6116 25.195 38.3956 25.123 38.1076 25.123C38.0356 25.123 38.0356 25.123 37.9636 25.123C31.4109 25.123 25.1463 26.9952 19.3137 30.8116C16.9375 32.3237 14.9213 34.2679 13.2651 36.5721C11.1769 39.3804 10.3128 41.9007 10.7448 44.2769C11.0329 45.6451 11.6809 46.7972 12.833 47.7333C13.9852 48.5973 15.2093 49.1014 16.5054 49.1014C20.2498 49.1014 24.5702 47.0852 29.3227 43.1248C32.203 40.7486 34.5072 38.0123 36.3794 34.916C38.3236 31.6036 39.0437 28.7954 38.5396 26.5631C38.4676 26.2751 38.3956 26.0591 38.2516 25.7711C38.4676 25.6991 38.7556 25.6991 38.9717 25.6991C39.1157 26.1311 39.2597 26.4191 39.2597 26.7072C39.8358 29.2274 39.1157 32.1797 37.2435 35.492C35.5153 38.5163 33.1391 41.2526 30.1148 43.8449C25.2183 47.8053 20.7538 49.7495 16.7214 49.7495C15.1373 49.7495 13.6971 49.3174 12.401 48.3813C10.9609 47.3012 10.0968 45.8611 9.73674 44.0609C9.3047 41.6126 10.0968 38.8764 12.257 35.9241C14.1292 33.2598 16.3614 31.1716 18.9537 29.6595C22.626 27.4272 26.1544 25.9871 29.3947 25.195C31.5549 24.763 34.2192 24.4749 37.3875 24.4749C35.6593 21.8107 32.707 20.4425 28.6026 20.4425C21.978 20.4425 15.6413 22.9628 9.59272 28.0033C6.49641 30.5955 4.26419 33.6199 2.75204 37.0762C1.23989 40.5325 0.951859 43.6288 1.81595 46.4371C2.82405 49.8935 4.84025 52.3417 7.86455 53.9259C10.2408 55.222 12.9051 55.7981 15.8574 55.7261C28.7466 55.438 39.9078 39.2364 46.4604 28.5073C46.8204 28.0033 47.0365 27.7153 47.2525 27.2112L47.3245 27.2832C49.6287 23.2508 53.3731 18.1383 58.4856 11.9457Z" fill="white"/>
<path fill-rule="evenodd" clip-rule="evenodd" d="M82.0293 24.9791C82.2453 23.395 82.8934 21.8828 83.1814 20.3707C83.9015 16.7703 84.1895 17.2023 82.6774 16.7703L80.9492 24.5471L82.0293 24.9791ZM85.9177 11.8018C86.5658 11.8018 86.9978 12.3779 86.9978 13.0259C86.9978 13.458 86.7098 13.818 86.2777 14.034C86.8538 14.6821 88.3659 16.5543 88.87 16.8423L89.158 23.827C89.374 25.6272 89.8781 24.187 89.8781 25.6272C89.5901 26.3473 87.9339 25.9152 86.6378 27.2113C85.9177 27.9314 85.6297 28.1474 84.7656 28.5075C86.2777 31.1717 82.3893 30.8117 84.1895 28.4355C82.6054 27.5714 83.1094 27.4274 82.2453 26.4193C81.5253 25.6992 80.0851 25.6272 79.5811 24.8351C79.7971 23.467 80.2291 24.7631 80.6612 23.1789L81.8853 16.1942C82.7494 15.6182 84.4055 14.4661 85.3416 13.89C84.9816 13.674 84.6936 13.314 84.6936 12.8099C84.7656 12.2338 85.3416 11.7298 85.9177 11.8018ZM87.5739 25.4112C88.1499 25.4112 88.4379 25.2671 88.798 24.9071L88.1499 17.0583L86.9978 17.4184C87.2138 20.0826 87.4298 22.7469 87.5739 25.4112ZM82.6054 25.1951C84.4055 25.6992 85.1256 25.7712 86.9978 25.4832L86.6378 17.3464L84.1895 17.1303C83.6855 19.8666 83.1094 22.5309 82.6054 25.1951Z" fill="white"/>
<path d="M73.8228 56.5903C73.8948 56.5903 73.8948 56.5903 73.8948 56.5903V56.6623L73.2468 59.6866H73.8228C74.0388 59.6866 74.2549 59.6146 74.3989 59.4706C74.5429 59.3266 74.6869 59.1106 74.8309 58.7505L75.191 57.9584C75.335 57.5984 75.479 57.3104 75.623 57.1664C75.695 57.0223 75.839 56.8783 75.983 56.8063C76.1271 56.7343 76.1991 56.6623 76.3431 56.5903C76.4871 56.5183 76.6311 56.5183 76.8471 56.4463H76.9911C77.0632 56.4463 77.0632 56.4463 77.1352 56.4463L77.2072 56.5183L77.2792 57.0223C77.2792 57.0944 77.2792 57.0944 77.2792 57.1664C77.2792 57.1664 77.2072 57.2384 77.1352 57.2384H76.9911C76.8471 57.2384 76.7751 57.3104 76.7031 57.3104C76.6311 57.3104 76.5591 57.3824 76.5591 57.3824C76.4871 57.4544 76.4151 57.5264 76.3431 57.6704C76.2711 57.8144 76.1991 57.9584 76.0551 58.1745L75.767 58.7505C75.623 59.1106 75.407 59.3986 75.263 59.5426C75.119 59.7586 74.9029 59.9026 74.6869 59.9746C74.8309 60.0466 74.9749 60.1907 75.119 60.3347C75.191 60.4787 75.263 60.6947 75.335 60.9107L75.479 62.3509C75.479 62.5669 75.551 62.7109 75.551 62.7829C75.551 62.8549 75.551 62.8549 75.623 62.9269C75.623 62.9989 75.695 62.9989 75.767 63.0709C75.839 63.0709 75.911 63.143 75.983 63.143H76.1991C76.2711 63.143 76.2711 63.143 76.3431 63.215V63.287L76.1271 63.791C76.0551 63.863 76.055 63.863 75.983 63.863C75.911 63.863 75.839 63.863 75.695 63.863H75.551C75.335 63.791 75.191 63.791 75.119 63.719C74.9749 63.647 74.9029 63.575 74.8309 63.431C74.7589 63.359 74.7589 63.287 74.6869 63.215C74.6869 63.143 74.6149 62.8549 74.6149 62.3509L74.5429 61.2708C74.4709 60.9107 74.4709 60.6947 74.3269 60.5507C74.2549 60.4067 74.0388 60.3347 73.7508 60.3347H73.1748L72.4547 63.647C72.4547 63.719 72.4547 63.719 72.3827 63.719H72.3107H71.7346C71.6626 63.719 71.6626 63.719 71.6626 63.719C71.6626 63.719 71.6626 63.647 71.6626 63.575L72.3827 60.2627H71.8066C71.5906 60.2627 71.3746 60.3347 71.2306 60.4067C71.0865 60.4787 70.8705 60.7667 70.7265 61.1268L70.2225 62.2069C70.0064 62.7109 69.8624 62.9269 69.7904 63.0709C69.7184 63.143 69.6464 63.215 69.5744 63.287C69.4304 63.431 69.2864 63.503 69.1423 63.575C68.9983 63.647 68.7823 63.719 68.5663 63.719H68.4223C68.2783 63.719 68.2063 63.719 68.1343 63.719L68.0622 63.647L67.9902 63.431C67.9902 63.359 67.9902 63.359 68.0622 63.287C68.0622 63.287 68.1343 63.215 68.2063 63.215H68.4223C68.4943 63.215 68.5663 63.215 68.6383 63.143C68.7103 63.143 68.7823 63.0709 68.8543 62.9989C68.9263 62.9269 68.9263 62.9269 68.9983 62.8549C69.0703 62.7829 69.1424 62.6389 69.2144 62.4949L69.9344 61.0547C70.0784 60.8387 70.2225 60.6227 70.3665 60.4787C70.5105 60.3347 70.7265 60.1907 71.0145 60.1187C70.8705 60.0466 70.7265 59.9026 70.6545 59.7586C70.5825 59.6146 70.5105 59.3266 70.5105 58.8945L70.4385 58.3185C70.3665 57.8864 70.3665 57.6704 70.3665 57.6704C70.3665 57.5984 70.3665 57.5984 70.2945 57.5264C70.2225 57.4544 70.2225 57.4544 70.1505 57.3824C70.0784 57.3824 70.0064 57.3104 69.9344 57.3104H69.7904C69.7184 57.3104 69.7184 57.3104 69.6464 57.2384C69.6464 57.2384 69.6464 57.1664 69.6464 57.0943L69.8624 56.5903C69.8624 56.5183 69.9344 56.5183 69.9344 56.5183C69.9344 56.5183 70.0064 56.5183 70.0784 56.5183H70.1505C70.3665 56.5903 70.5105 56.5903 70.6545 56.6623C70.7265 56.7343 70.8705 56.8063 70.9425 56.8783C71.0145 56.9503 71.0145 57.0944 71.0865 57.2384C71.0865 57.3824 71.1586 57.6704 71.1586 58.0304L71.2306 58.8225C71.2306 59.2546 71.3026 59.4706 71.4466 59.6146C71.5906 59.7586 71.8066 59.7586 72.0226 59.7586H72.4547L73.1028 56.7343C73.1028 56.6623 73.1028 56.6623 73.1748 56.6623C73.1748 56.6623 73.2468 56.6623 73.3188 56.6623H73.8228V56.5903ZM82.1037 58.7505L81.3116 62.4949C81.2396 62.6389 81.2396 62.7109 81.2396 62.7829C81.2396 62.8549 81.2396 62.9269 81.2396 62.9269C81.2396 62.9989 81.2396 63.0709 81.2396 63.0709C81.2396 63.143 81.2396 63.215 81.3116 63.287C81.3116 63.359 81.3116 63.431 81.3836 63.503C81.3836 63.575 81.4556 63.575 81.4556 63.647V63.719C81.4556 63.719 81.3836 63.719 81.3836 63.791L80.9515 64.007C80.8795 64.007 80.8075 64.007 80.7355 63.935C80.6635 63.863 80.6635 63.719 80.6635 63.503C80.6635 63.431 80.6635 63.431 80.6635 63.359C80.6635 63.287 80.6635 63.215 80.6635 63.143V63.0709C80.4475 63.431 80.1595 63.647 79.7994 63.791C79.4394 63.935 79.1514 64.0791 78.7913 64.0791C78.4313 64.0791 78.1433 64.007 77.9272 63.791C77.7112 63.575 77.6392 63.287 77.6392 62.9989C77.6392 62.9269 77.6392 62.8549 77.6392 62.8549C77.6392 62.8549 77.7112 62.7109 77.7832 62.4229L78.5033 59.1106C78.5033 59.0385 78.5033 58.9665 78.5753 58.9665C78.5753 58.9665 78.6473 58.9665 78.6473 58.8945L79.2234 58.7505C79.2954 58.7505 79.2954 58.7505 79.3674 58.7505C79.3674 58.7505 79.3674 58.7505 79.3674 58.8225L78.6473 62.2069C78.5753 62.5669 78.5033 62.7829 78.5033 62.7829V62.8549C78.5033 63.0709 78.5753 63.215 78.6473 63.287C78.7193 63.359 78.8633 63.431 79.0794 63.431C79.2234 63.431 79.4394 63.359 79.6554 63.287C79.8714 63.215 80.0155 63.0709 80.1595 62.9989C80.3755 62.8549 80.5195 62.6389 80.5915 62.4229C80.7355 62.2069 80.8075 61.8468 80.8795 61.4148L81.3836 59.0385C81.3836 58.9665 81.3836 58.8945 81.4556 58.8945C81.4556 58.8945 81.5276 58.8945 81.5276 58.8225L82.1037 58.6785C81.9596 58.6065 82.0317 58.6785 82.1037 58.7505C82.1037 58.6785 82.1037 58.6785 82.1037 58.7505ZM87.2882 58.9665L86.2081 63.791C86.2081 63.863 86.2081 63.863 86.1361 63.863H86.0641H85.56C85.488 63.863 85.488 63.863 85.488 63.863C85.488 63.863 85.488 63.791 85.488 63.719L86.4241 59.3986H85.056V59.4706C84.9119 59.9746 84.8399 60.4067 84.6959 60.9107C84.5519 61.3428 84.4799 61.7028 84.4079 61.9908C84.2639 62.3509 84.1199 62.6389 83.9759 62.9269C83.8318 63.143 83.6878 63.359 83.4718 63.503C83.3278 63.647 83.1118 63.791 82.8957 63.863C82.6797 63.935 82.5357 63.935 82.3197 63.935C82.2477 63.935 82.2477 63.935 82.2477 63.935L82.1757 63.863V63.431C82.1757 63.359 82.1757 63.359 82.2477 63.287C82.2477 63.287 82.3197 63.215 82.3917 63.215H82.4637C82.7517 63.215 82.8957 63.071 83.1118 62.9269C83.2558 62.7829 83.3998 62.4949 83.5438 62.2069C83.6878 61.8468 83.8318 61.4148 83.9759 60.8387C84.1199 60.2627 84.2639 59.7586 84.4079 59.1106L84.4799 58.7505C84.4799 58.6785 84.4799 58.6785 84.5519 58.6065C84.5519 58.6065 84.6239 58.6065 84.6959 58.5345H87.2882C87.3602 58.5345 87.3602 58.5345 87.3602 58.6065C87.2882 58.8225 87.2882 58.8945 87.2882 58.9665ZM90.8165 58.6785C91.3206 58.6785 91.7526 58.8225 92.0407 59.1826C92.3287 59.4706 92.4727 59.9026 92.4727 60.4787C92.4727 60.9107 92.4007 61.2708 92.3287 61.7028C92.1847 62.1349 92.0407 62.4949 91.8246 62.8549C91.5366 63.215 91.2486 63.575 90.8886 63.791C90.5285 64.007 90.0965 64.0791 89.6644 64.0791C89.1604 64.0791 88.7283 63.935 88.4403 63.647C88.1523 63.359 88.0083 62.9269 88.0083 62.2789C88.0083 61.8468 88.0803 61.3428 88.2243 60.9827C88.3683 60.5507 88.5123 60.1907 88.7283 59.8306C89.0164 59.4706 89.3044 59.1106 89.6644 58.9665C90.0245 58.7505 90.3845 58.6785 90.8165 58.6785ZM91.6086 60.4787C91.6086 60.1187 91.5366 59.8306 91.3206 59.6146C91.1766 59.3986 90.8885 59.3266 90.6005 59.3266C90.3125 59.3266 90.0245 59.3986 89.8084 59.5426C89.5924 59.6866 89.3764 59.9026 89.2324 60.1907C89.0884 60.4787 88.9444 60.7667 88.8723 61.1268C88.8003 61.4868 88.7283 61.8468 88.7283 62.2069C88.7283 62.5669 88.8003 62.8549 88.9444 63.0709C89.0884 63.287 89.3044 63.359 89.6644 63.359C89.9525 63.359 90.1685 63.287 90.3845 63.143C90.6005 62.9989 90.8165 62.7829 90.9606 62.4949C91.1046 62.2069 91.2486 61.9188 91.3206 61.4868C91.6086 61.1268 91.6086 60.7667 91.6086 60.4787ZM97.9453 58.7505L97.1532 62.4949C97.0812 62.6389 97.0812 62.7109 97.0812 62.7829C97.0812 62.8549 97.0812 62.9269 97.0812 62.9269C97.0812 62.9989 97.0812 63.0709 97.0812 63.0709C97.0812 63.143 97.0812 63.215 97.1532 63.287C97.1532 63.359 97.1532 63.431 97.2252 63.503C97.2252 63.575 97.2972 63.575 97.2972 63.647V63.719C97.2972 63.719 97.2252 63.719 97.2252 63.791L96.7932 64.007C96.7211 64.007 96.6491 64.007 96.5771 63.935C96.5051 63.863 96.5051 63.719 96.5051 63.503C96.5051 63.431 96.5051 63.431 96.5051 63.359C96.5051 63.287 96.5051 63.215 96.5051 63.143V63.0709C96.2891 63.431 96.0011 63.647 95.641 63.791C95.281 63.935 94.993 64.0791 94.6329 64.0791C94.2729 64.0791 93.9849 64.007 93.7688 63.791C93.5528 63.575 93.4808 63.287 93.4808 62.9989C93.4808 62.9269 93.4808 62.8549 93.4808 62.8549C93.4808 62.8549 93.5528 62.7109 93.6248 62.4229L94.3449 59.1106C94.3449 59.0385 94.3449 58.9665 94.4169 58.9665C94.4169 58.9665 94.4889 58.9665 94.4889 58.8945L95.065 58.7505C95.137 58.7505 95.137 58.7505 95.209 58.7505C95.209 58.7505 95.209 58.7505 95.209 58.8225L94.4889 62.2069C94.4169 62.5669 94.3449 62.7829 94.3449 62.7829V62.8549C94.3449 63.0709 94.4169 63.215 94.4889 63.287C94.5609 63.359 94.7049 63.431 94.921 63.431C95.065 63.431 95.281 63.359 95.497 63.287C95.713 63.215 95.8571 63.0709 96.0011 62.9989C96.2171 62.8549 96.3611 62.6389 96.4331 62.4229C96.5771 62.2069 96.6491 61.8468 96.7211 61.4148L97.2252 59.0385C97.2252 58.9665 97.2252 58.8945 97.2972 58.8945C97.2972 58.8945 97.3692 58.8945 97.3692 58.8225L97.9453 58.6785C97.8733 58.6065 97.8733 58.6785 97.9453 58.7505C97.9453 58.6785 97.9453 58.6785 97.9453 58.7505ZM97.3692 56.5903L97.8013 56.6623C97.8733 56.6623 97.8733 56.6623 97.8733 56.6623C97.8733 56.6623 97.8733 56.6623 97.8733 56.7343C97.8733 56.7343 97.8733 56.8063 97.8013 56.9503C97.7292 57.0223 97.7292 57.0944 97.6572 57.1664C97.5132 57.4544 97.2972 57.5984 97.0092 57.7424C96.7211 57.8864 96.4331 57.9584 96.1451 57.9584C95.785 57.9584 95.497 57.8864 95.281 57.6704C95.065 57.4544 94.993 57.2384 94.993 56.8783C94.993 56.8063 94.993 56.7343 94.993 56.7343C94.993 56.6623 95.065 56.6623 95.137 56.6623L95.497 56.5903H95.569C95.569 56.5903 95.569 56.5903 95.641 56.5903H95.713V56.6623V56.8063C95.713 57.0223 95.785 57.0944 95.8571 57.2384C95.9291 57.3104 96.0731 57.3824 96.2891 57.3824C96.5051 57.3824 96.6491 57.3104 96.7932 57.1664C96.9372 57.0223 97.0812 56.8783 97.1532 56.5903C97.1532 56.5183 97.1532 56.5183 97.2252 56.5183C97.2972 56.5903 97.2972 56.5903 97.3692 56.5903ZM101.834 63.863H101.258C101.186 63.863 101.186 63.863 101.186 63.863C101.186 63.863 101.186 63.863 101.186 63.791L102.266 58.8945C102.266 58.8225 102.266 58.8225 102.266 58.8225C102.266 58.8225 102.338 58.8225 102.338 58.7505L102.914 58.6065C102.914 58.6065 102.914 58.6065 102.986 58.6065C102.986 58.6065 102.986 58.6065 102.986 58.6785C102.986 58.6785 102.986 58.6785 102.986 58.7505L102.554 60.9107H103.202C103.346 60.9107 103.49 60.8387 103.634 60.7667C103.778 60.6947 103.85 60.5507 103.922 60.3347L104.138 59.7586C104.282 59.3986 104.426 59.1826 104.57 59.0385C104.714 58.8945 104.858 58.8225 105.074 58.7505C105.146 58.7505 105.29 58.6785 105.362 58.6785C105.434 58.6785 105.506 58.6785 105.578 58.6785H105.65C105.65 58.6785 105.65 58.6785 105.722 58.7505V59.2546C105.722 59.3266 105.722 59.3266 105.722 59.3266C105.722 59.3266 105.65 59.3266 105.578 59.3986H105.434C105.29 59.3986 105.146 59.4706 105.146 59.5426C105.074 59.6146 105.002 59.7586 104.858 59.9746L104.642 60.4067C104.498 60.6947 104.354 60.8387 104.282 60.9827C104.138 61.1268 103.994 61.1988 103.778 61.2708C103.922 61.3428 104.066 61.4148 104.138 61.5588C104.21 61.7028 104.282 61.8468 104.282 62.0628L104.354 62.9269C104.354 63.071 104.354 63.143 104.426 63.215C104.498 63.287 104.57 63.287 104.714 63.359H104.858C104.93 63.359 104.93 63.359 104.93 63.359V63.431C104.93 63.431 104.93 63.431 104.93 63.503L104.714 64.007L104.642 64.0791C104.642 64.0791 104.57 64.0791 104.498 64.0791C104.426 64.0791 104.282 64.0791 104.21 64.0791C104.138 64.0791 104.066 64.007 103.994 64.007C103.85 63.935 103.778 63.863 103.706 63.719C103.634 63.575 103.562 63.359 103.562 62.9269L103.49 62.2069C103.49 61.9908 103.418 61.8468 103.346 61.7748C103.274 61.7028 103.13 61.6308 102.914 61.6308H102.194L101.69 63.863C101.69 63.863 101.69 63.935 101.618 63.935C101.906 63.863 101.834 63.863 101.834 63.863ZM108.962 58.6785C109.466 58.6785 109.898 58.8225 110.187 59.1826C110.475 59.4706 110.619 59.9026 110.619 60.4787C110.619 60.9107 110.547 61.2708 110.475 61.7028C110.331 62.1349 110.186 62.4949 109.97 62.8549C109.682 63.215 109.394 63.575 109.034 63.791C108.674 64.007 108.242 64.0791 107.81 64.0791C107.306 64.0791 106.874 63.935 106.586 63.647C106.298 63.359 106.154 62.9269 106.154 62.2789C106.154 61.8468 106.226 61.3428 106.37 60.9827C106.514 60.5507 106.658 60.1907 106.874 59.8306C107.162 59.4706 107.45 59.1106 107.81 58.9665C108.17 58.7505 108.53 58.6785 108.962 58.6785ZM109.754 60.4787C109.754 60.1187 109.682 59.8306 109.466 59.6146C109.322 59.3986 109.034 59.3266 108.746 59.3266C108.458 59.3266 108.17 59.3986 107.954 59.5426C107.738 59.6866 107.522 59.9026 107.378 60.1907C107.234 60.4787 107.09 60.7667 107.018 61.1268C106.946 61.4868 106.874 61.8468 106.874 62.2069C106.874 62.5669 106.946 62.8549 107.09 63.0709C107.234 63.287 107.45 63.359 107.81 63.359C108.098 63.359 108.314 63.287 108.53 63.143C108.746 62.9989 108.962 62.7829 109.106 62.4949C109.25 62.2069 109.394 61.9188 109.466 61.4868C109.754 61.1268 109.754 60.7667 109.754 60.4787ZM113.499 58.8945L113.859 61.1988C113.859 61.3428 113.931 61.4868 113.931 61.5588C113.931 61.7028 113.931 61.7748 113.931 61.9188C113.931 61.8468 114.003 61.7028 114.075 61.5588C114.147 61.4148 114.219 61.2708 114.291 61.1988L115.659 58.8945L115.731 58.8225H115.803H116.595H116.667C116.667 58.8225 116.667 58.8225 116.667 58.8945L115.875 63.791C115.875 63.791 115.875 63.863 115.803 63.863H115.731H115.083C115.011 63.863 115.011 63.863 115.011 63.863C115.011 63.863 115.011 63.863 115.011 63.791L115.659 60.1187C115.659 59.9746 115.731 59.9026 115.731 59.8306C115.731 59.8306 115.731 59.7586 115.731 59.6866C115.731 59.7586 115.659 59.7586 115.659 59.8306C115.659 59.9026 115.587 59.9746 115.515 60.0466L114.003 62.6389C114.003 62.7109 113.931 62.7109 113.931 62.7109H113.859H113.427C113.355 62.7109 113.355 62.7109 113.355 62.7109V62.6389L112.923 60.0466C112.923 59.9746 112.923 59.9746 112.923 59.9026C112.923 59.8306 112.923 59.7586 112.923 59.6866C112.923 59.7586 112.923 59.7586 112.923 59.8306C112.923 59.8306 112.923 59.9746 112.851 60.1187L111.915 63.791C111.915 63.791 111.915 63.863 111.843 63.863H111.771H111.123C111.051 63.863 111.051 63.863 111.051 63.863C111.051 63.863 111.051 63.863 111.051 63.791L112.419 58.8945C112.419 58.8945 112.419 58.8225 112.491 58.8225H112.563H113.355C113.427 58.8225 113.427 58.8225 113.499 58.8945C113.499 58.8225 113.499 58.8945 113.499 58.8945ZM121.996 60.2627L121.204 63.791C121.204 63.863 121.204 63.863 121.132 63.863H121.06H120.484C120.412 63.863 120.412 63.863 120.412 63.863C120.412 63.863 120.412 63.791 120.412 63.719L121.204 60.1907C121.204 60.1187 121.204 60.0466 121.276 59.9026C121.276 59.8306 121.276 59.7586 121.276 59.6866C121.276 59.5426 121.204 59.4706 121.132 59.3986C121.06 59.3266 120.916 59.3266 120.772 59.2546C120.484 59.2546 120.268 59.3266 119.979 59.4706C119.691 59.6146 119.475 59.8306 119.331 60.1187C119.187 60.2627 119.115 60.4787 119.043 60.6947C118.971 60.9107 118.899 61.1268 118.827 61.2708L118.323 63.575C118.323 63.647 118.323 63.647 118.251 63.647H118.179H117.603C117.531 63.647 117.531 63.647 117.531 63.647C117.531 63.647 117.531 63.575 117.531 63.503L118.323 59.9746C118.323 59.8306 118.395 59.7586 118.395 59.6146C118.395 59.5426 118.395 59.3986 118.395 59.3266C118.395 59.2546 118.395 59.2546 118.395 59.1826C118.395 59.1106 118.395 59.0385 118.395 58.9665C118.323 58.8225 118.323 58.7505 118.323 58.7505V58.6785C118.323 58.6785 118.395 58.6785 118.395 58.6065L118.827 58.3905C118.899 58.3905 118.899 58.3905 118.971 58.3905C118.971 58.3905 119.043 58.4625 119.043 58.6065C119.043 58.6785 119.043 58.7505 119.115 58.8225C119.115 58.8945 119.115 58.9665 119.115 59.0385C119.115 59.0385 119.115 59.1106 119.115 59.1826C119.115 59.2546 119.115 59.3266 119.115 59.3986V59.5426C119.331 59.1826 119.619 58.8945 119.979 58.7505C120.34 58.5345 120.7 58.4625 121.06 58.4625C121.42 58.4625 121.636 58.5345 121.78 58.6785C121.924 58.8225 122.068 59.0385 122.068 59.3266C122.068 59.3986 122.068 59.4706 122.068 59.5426C122.068 59.8306 122.068 59.9746 121.996 60.2627ZM127.468 58.9665L126.388 63.791C126.388 63.863 126.388 63.863 126.316 63.863H126.244H125.668C125.596 63.863 125.596 63.863 125.596 63.863C125.596 63.863 125.596 63.791 125.596 63.719L126.532 59.3986H125.164V59.4706C125.02 59.9746 124.948 60.4067 124.804 60.9107C124.66 61.3428 124.588 61.7028 124.516 61.9908C124.372 62.3509 124.228 62.6389 124.084 62.9269C123.94 63.143 123.796 63.359 123.58 63.503C123.436 63.647 123.22 63.791 123.004 63.863C122.788 63.935 122.644 63.935 122.428 63.935C122.356 63.935 122.356 63.935 122.356 63.935L122.284 63.863V63.431C122.284 63.359 122.284 63.359 122.356 63.287C122.356 63.287 122.428 63.215 122.5 63.215H122.572C122.86 63.215 123.004 63.071 123.22 62.9269C123.364 62.7829 123.508 62.4949 123.652 62.2069C123.796 61.8468 123.94 61.4148 124.084 60.8387C124.228 60.2627 124.372 59.7586 124.516 59.1106L124.588 58.7505C124.588 58.6785 124.588 58.6785 124.66 58.6065C124.66 58.6065 124.732 58.6065 124.804 58.5345H127.396C127.468 58.5345 127.468 58.5345 127.468 58.6065C127.468 58.8225 127.468 58.8945 127.468 58.9665ZM131.717 62.8549L132.005 63.215C132.005 63.215 132.005 63.215 132.005 63.287C132.005 63.287 132.005 63.359 131.933 63.359C131.861 63.431 131.789 63.431 131.717 63.503C131.501 63.647 131.213 63.791 130.925 63.863C130.637 63.935 130.349 64.007 130.061 64.007C129.772 64.007 129.484 63.935 129.34 63.863C129.124 63.791 128.908 63.647 128.764 63.503C128.62 63.287 128.476 63.143 128.404 62.8549C128.332 62.6389 128.332 62.3509 128.332 62.0628C128.332 61.0547 128.62 60.2627 129.124 59.6146C129.7 58.9665 130.349 58.6065 131.069 58.6065C131.501 58.6065 131.861 58.7505 132.077 58.9665C132.365 59.1826 132.437 59.5426 132.509 59.9746C132.509 60.5507 132.221 60.9827 131.717 61.3428C131.213 61.7028 130.349 61.8468 129.196 61.8468H129.124C129.124 61.9188 129.124 61.9188 129.124 61.9908C129.124 62.0628 129.124 62.0628 129.124 62.1349C129.124 62.2789 129.124 62.4229 129.124 62.4949C129.124 62.6389 129.196 62.7109 129.196 62.7829C129.268 62.9269 129.412 63.0709 129.556 63.143C129.7 63.215 129.916 63.287 130.133 63.287C130.349 63.287 130.565 63.215 130.853 63.143C131.141 63.0709 131.357 62.9269 131.573 62.7829C131.645 62.7829 131.645 62.7109 131.717 62.7109H131.789C131.645 62.7829 131.645 62.7829 131.717 62.8549C131.645 62.7829 131.717 62.7829 131.717 62.8549ZM129.124 61.1988C129.556 61.1988 129.917 61.1988 130.277 61.1268C130.637 61.0547 130.925 60.9827 131.141 60.8387C131.285 60.7667 131.429 60.6227 131.501 60.4787C131.573 60.3347 131.645 60.1907 131.645 60.0466C131.645 59.8306 131.573 59.6146 131.429 59.5426C131.285 59.3986 131.141 59.3266 130.853 59.3266C130.421 59.3266 130.061 59.4706 129.7 59.8306C129.484 60.1187 129.268 60.6227 129.124 61.1988ZM133.661 63.863H133.085C133.013 63.863 133.013 63.863 133.013 63.863C133.013 63.863 133.013 63.863 133.013 63.791L134.093 58.8945C134.093 58.8225 134.093 58.8225 134.093 58.8225C134.093 58.8225 134.165 58.8225 134.165 58.7505L134.741 58.6065C134.741 58.6065 134.741 58.6065 134.813 58.6065C134.813 58.6065 134.813 58.6065 134.813 58.6785C134.813 58.6785 134.813 58.6785 134.813 58.7505L134.381 60.9107H135.029C135.173 60.9107 135.317 60.8387 135.461 60.7667C135.605 60.6947 135.677 60.5507 135.749 60.3347L135.965 59.7586C136.109 59.3986 136.253 59.1826 136.397 59.0385C136.541 58.8945 136.685 58.8225 136.901 58.7505C136.973 58.7505 137.117 58.6785 137.189 58.6785C137.261 58.6785 137.333 58.6785 137.405 58.6785H137.477C137.477 58.6785 137.477 58.6785 137.549 58.7505V59.2546C137.549 59.3266 137.549 59.3266 137.549 59.3266C137.549 59.3266 137.477 59.3266 137.405 59.3986H137.261C137.117 59.3986 136.973 59.4706 136.973 59.5426C136.901 59.6146 136.829 59.7586 136.685 59.9746L136.469 60.4067C136.325 60.6947 136.181 60.8387 136.109 60.9827C135.965 61.1268 135.821 61.1988 135.605 61.2708C135.749 61.3428 135.893 61.4148 135.965 61.5588C136.037 61.7028 136.109 61.8468 136.109 62.0628L136.181 62.9269C136.181 63.071 136.181 63.143 136.253 63.215C136.325 63.287 136.397 63.287 136.541 63.359H136.685C136.757 63.359 136.757 63.359 136.757 63.359V63.431C136.757 63.431 136.757 63.431 136.757 63.503L136.541 64.007L136.469 64.0791C136.469 64.0791 136.397 64.0791 136.325 64.0791C136.253 64.0791 136.109 64.0791 136.037 64.0791C135.965 64.0791 135.893 64.007 135.821 64.007C135.677 63.935 135.605 63.863 135.533 63.719C135.461 63.575 135.389 63.359 135.389 62.9269L135.317 62.2069C135.317 61.9908 135.245 61.8468 135.173 61.7748C135.101 61.7028 134.957 61.6308 134.741 61.6308H134.021L133.517 63.863C133.517 63.863 133.517 63.935 133.445 63.935C133.733 63.863 133.733 63.863 133.661 63.863ZM142.086 59.1826L141.87 59.5426L141.798 59.6146C141.798 59.6146 141.798 59.6146 141.726 59.6146H141.654C141.654 59.6146 141.582 59.5426 141.51 59.5426C141.366 59.4706 141.294 59.4706 141.15 59.3986C141.006 59.3986 140.934 59.3266 140.79 59.3266C140.502 59.3266 140.214 59.3986 139.926 59.5426C139.709 59.6866 139.493 59.9026 139.349 60.1907C139.205 60.4787 139.061 60.7667 138.989 61.1988C138.917 61.5588 138.845 61.9188 138.845 62.2789C138.845 62.6389 138.917 62.8549 139.061 63.0709C139.205 63.287 139.493 63.359 139.781 63.359C139.926 63.359 140.07 63.359 140.214 63.287C140.358 63.287 140.574 63.143 140.862 62.9989C140.934 62.9269 141.006 62.9269 141.006 62.9269C141.006 62.9269 141.006 62.9269 141.078 62.9269C141.078 62.9269 141.078 62.9269 141.15 62.9269L141.294 63.287C141.294 63.287 141.294 63.287 141.294 63.359C141.294 63.359 141.294 63.359 141.294 63.431C141.294 63.431 141.294 63.503 141.222 63.503C141.222 63.503 141.15 63.575 141.006 63.647C140.79 63.791 140.502 63.935 140.286 64.007C140.07 64.0791 139.781 64.0791 139.493 64.0791C138.917 64.0791 138.557 63.935 138.269 63.575C138.053 63.287 137.909 62.8549 137.909 62.2789C137.909 61.2708 138.197 60.4067 138.701 59.6866C139.205 58.9665 139.926 58.6785 140.718 58.6785C140.862 58.6785 141.006 58.6785 141.15 58.7505C141.294 58.7505 141.438 58.8225 141.582 58.8225C141.726 58.8945 141.87 58.9665 141.942 58.9665C142.014 59.0385 142.086 59.0385 142.086 59.1106C142.158 59.1106 142.158 59.1106 142.086 59.1826Z" fill="white"/>
</svg>
