<svg width="104" height="14" viewBox="0 0 104 14" fill="none" xmlns="http://www.w3.org/2000/svg">
<path d="M46.2184 12.3025C46.0873 12.427 45.9501 12.5436 45.8074 12.652C45.2728 12.2799 44.8044 11.8452 44.4021 11.348L46.6248 9.21793C46.6293 9.22633 46.6339 9.23472 46.6385 9.24309C46.9697 9.82559 47.4072 10.2968 47.9509 10.6566L46.2184 12.3025Z" fill="#4C4C4C"/>
<path d="M42.9258 7C42.9258 8.1453 43.1607 9.19468 43.6307 10.1482L46.1468 7.73693C46.1136 7.49958 46.097 7.25393 46.097 7C46.097 6.16206 46.2775 5.41436 46.6385 4.75691C47.0123 4.09945 47.5215 3.59024 48.1661 3.22928C48.8107 2.85543 49.5326 2.66851 50.3318 2.66851C50.3534 2.66851 50.3748 2.66864 50.3963 2.66892C50.5378 2.50531 50.7004 2.33198 50.9001 2.13234C51.6315 1.40086 52.6583 0.956073 53.6741 0.686437C52.6671 0.228812 51.553 0 50.3318 0C48.9267 0 47.6569 0.302947 46.5224 0.90884C45.4009 1.51473 44.5178 2.35267 43.8733 3.42265C43.2416 4.47974 42.9258 5.67219 42.9258 7Z" fill="#4C4C4C"/>
<path d="M56.7849 3.44552C56.5248 4.54921 56.0676 5.69987 55.2677 6.49983C54.9993 6.76823 54.7784 6.96969 54.5648 7.14314C54.5446 7.92332 54.3583 8.6233 54.0059 9.24309C53.6449 9.90055 53.1422 10.4162 52.4976 10.7901C51.853 11.151 51.1311 11.3315 50.3318 11.3315C49.9985 11.3315 49.6787 11.3001 49.3723 11.2373L47.1827 13.3175C47.1617 13.3374 47.1406 13.3572 47.1194 13.3767C48.0974 13.7922 49.1682 14 50.3318 14C51.737 14 53.0003 13.6971 54.1219 13.0912C55.2434 12.4853 56.1265 11.6538 56.7711 10.5967C57.4156 9.5267 57.7379 8.32781 57.7379 7C57.7379 5.68176 57.4203 4.49693 56.7849 3.44552Z" fill="#4C4C4C"/>
<path fill-rule="evenodd" clip-rule="evenodd" d="M38.5101 9.41713L40.8678 12.7959L39.8535 13.768H38.1814L35.5709 9.99724H32.6897V13.768H29.5571V0.232044H35.4162C36.6151 0.232044 37.6528 0.431859 38.5295 0.831491C39.419 1.23112 40.1022 1.79834 40.5792 2.53315C41.0562 3.26796 41.2947 4.13812 41.2947 5.14365C41.2947 6.14917 41.0497 7.01934 40.5598 7.75414C40.0829 8.47606 39.3996 9.03039 38.5101 9.41713ZM38.1234 5.14365C38.1234 4.38306 37.8784 3.80295 37.3886 3.40331C36.8987 2.99079 36.1832 2.78453 35.2422 2.78453H32.6897V7.50276H35.2422C36.1832 7.50276 36.8987 7.2965 37.3886 6.88398C37.8784 6.47146 38.1234 5.89134 38.1234 5.14365Z" fill="#4C4C4C"/>
<path fill-rule="evenodd" clip-rule="evenodd" d="M4.40884 10.8674H10.6934L11.8923 13.768H15.1796L9.12707 0.232044H6.03315L0 13.768H3.20994L4.40884 10.8674ZM7.56077 3.30663L9.70718 8.48895H5.41437L7.56077 3.30663Z" fill="#4C4C4C"/>
<path d="M27.0646 13.768V11.2541H19.6972V8.12155H25.9817V5.68508H19.6972V2.74586H26.8132V0.232044H16.5839V13.768H27.0646Z" fill="#4C4C4C"/>
<path d="M65.0231 8.45028L63.2055 10.3453V13.768H60.0922V0.232044H63.2055V6.55525L69.1999 0.232044H72.6806L67.0729 6.26519L73.0093 13.768H69.3546L65.0231 8.45028Z" fill="#4C4C4C"/>
<path fill-rule="evenodd" clip-rule="evenodd" d="M76.661 13.0912C77.7954 13.6971 79.0652 14 80.4704 14C81.8755 14 83.1389 13.6971 84.2604 13.0912C85.382 12.4853 86.265 11.6538 86.9096 10.5967C87.5542 9.5267 87.8765 8.32781 87.8765 7C87.8765 5.67219 87.5542 4.47974 86.9096 3.42265C86.265 2.35267 85.382 1.51473 84.2604 0.90884C83.1389 0.302947 81.8755 0 80.4704 0C79.0652 0 77.7954 0.302947 76.661 0.90884C75.5395 1.51473 74.6564 2.35267 74.0118 3.42265C73.3802 4.47974 73.0643 5.67219 73.0643 7C73.0643 8.32781 73.3802 9.5267 74.0118 10.5967C74.6564 11.6538 75.5395 12.4853 76.661 13.0912ZM82.6361 10.7901C81.9916 11.151 81.2697 11.3315 80.4704 11.3315C79.6711 11.3315 78.9492 11.151 78.3046 10.7901C77.6601 10.4162 77.1509 9.90055 76.777 9.24309C76.4161 8.58564 76.2356 7.83794 76.2356 7C76.2356 6.16206 76.4161 5.41436 76.777 4.75691C77.1509 4.09945 77.6601 3.59024 78.3046 3.22928C78.9492 2.85543 79.6711 2.66851 80.4704 2.66851C81.2697 2.66851 81.9916 2.85543 82.6361 3.22928C83.2807 3.59024 83.7835 4.09945 84.1444 4.75691C84.5183 5.41436 84.7052 6.16206 84.7052 7C84.7052 7.83794 84.5183 8.58564 84.1444 9.24309C83.7835 9.90055 83.2807 10.4162 82.6361 10.7901Z" fill="#4C4C4C"/>
<path fill-rule="evenodd" clip-rule="evenodd" d="M90.2307 0.232044H96.3799C97.8495 0.232044 99.1451 0.515653 100.267 1.08287C101.401 1.6372 102.278 2.42357 102.896 3.44199C103.528 4.4604 103.844 5.64641 103.844 7C103.844 8.35359 103.528 9.5396 102.896 10.558C102.278 11.5764 101.401 12.3692 100.267 12.9365C99.1451 13.4908 97.8495 13.768 96.3799 13.768H90.2307V0.232044ZM96.2252 11.1961C97.5788 11.1961 98.6552 10.8223 99.4545 10.0746C100.267 9.314 100.673 8.28913 100.673 7C100.673 5.71087 100.267 4.69245 99.4545 3.94475C98.6552 3.18416 97.5788 2.80387 96.2252 2.80387H93.3633V11.1961H96.2252Z" fill="#4C4C4C"/>
<path d="M49.3723 5.05316C49.9113 4.27732 50.2284 3.77748 50.4595 3.4081C49.5712 3.48667 48.7197 4.59202 48.7197 4.59202L49.3061 5.17833C49.3231 5.13498 49.3448 5.09287 49.3723 5.05316Z" fill="#4C4C4C"/>
<path d="M52.2217 8.09397L52.8076 8.6799C52.8076 8.6799 53.9129 7.8285 53.9915 6.9402C53.6223 7.17126 53.1226 7.48818 52.3465 8.0273C52.3072 8.05455 52.2654 8.0768 52.2217 8.09397Z" fill="#4C4C4C"/>
<path d="M55.9287 1.47112C55.8831 1.42552 55.8212 1.3999 55.7568 1.3999C55.7552 1.3999 55.7536 1.39993 55.752 1.39995C54.9693 1.4153 53.0382 1.5617 52.0126 2.5873C51.5471 3.05285 51.3957 3.2952 51.0641 3.82628C50.8253 4.20866 50.4983 4.7324 49.9007 5.59254C49.8335 5.68921 49.8452 5.82007 49.9284 5.90326L51.4963 7.47116C51.5434 7.51822 51.6057 7.54242 51.6684 7.54242C51.7166 7.54242 51.765 7.52814 51.807 7.49895C52.6675 6.90122 53.191 6.5743 53.5733 6.33556C54.1043 6.00393 54.3467 5.85258 54.8124 5.38698C55.8397 4.35956 55.9851 2.42971 55.9998 1.64766C56.0011 1.58163 55.9754 1.51789 55.9287 1.47112ZM54.1132 4.42948C53.7975 4.74511 53.2858 4.74511 52.9701 4.42948C52.6544 4.11382 52.6545 3.60214 52.9702 3.28651C53.2858 2.97085 53.7975 2.97081 54.1132 3.28644C54.4287 3.60207 54.4288 4.11387 54.1132 4.42948Z" fill="#4C4C4C"/>
<path d="M49.1726 6.77637C49.2009 6.82462 49.2339 6.86642 49.2669 6.89944L50.3828 8.01532C50.4336 8.06608 50.5051 8.11685 50.5889 8.15059L45.7726 12.7261C45.1482 13.3193 44.3198 13.6501 43.4584 13.6501H42L49.1726 6.77637Z" fill="#3FBC7B"/>
</svg>
