<svg width="22" height="24" viewBox="0 0 22 24" fill="none" xmlns="http://www.w3.org/2000/svg">
<path d="M19.4792 23.4968H2.52083C1.13025 23.4968 0 22.329 0 20.8922V3.37003C0 1.93321 1.13025 0.765381 2.52083 0.765381H19.4792C20.8698 0.765381 22 1.93321 22 3.37003V20.8922C22 22.329 20.8698 23.4968 19.4792 23.4968ZM2.52083 2.1861C1.88925 2.1861 1.375 2.71744 1.375 3.37003V20.8922C1.375 21.5448 1.88925 22.0761 2.52083 22.0761H19.4792C20.1108 22.0761 20.625 21.5448 20.625 20.8922V3.37003C20.625 2.71744 20.1108 2.1861 19.4792 2.1861H2.52083Z" fill="#282828"/>
<path d="M11 23.4968C10.6205 23.4968 10.3125 23.1786 10.3125 22.7865V1.47574C10.3125 1.08362 10.6205 0.765381 11 0.765381C11.3795 0.765381 11.6875 1.08362 11.6875 1.47574V22.7865C11.6875 23.1786 11.3795 23.4968 11 23.4968Z" fill="#282828"/>
<path d="M21.3125 12.8423H0.6875C0.308 12.8423 0 12.5238 0 12.1315C0 11.7391 0.308 11.4207 0.6875 11.4207H21.3125C21.692 11.4207 22 11.7391 22 12.1315C22 12.5238 21.692 12.8423 21.3125 12.8423Z" fill="#282828"/>
<path d="M5.5 9.28967C5.1205 9.28967 4.8125 8.97143 4.8125 8.57932V5.26431C4.8125 4.8722 5.1205 4.55396 5.5 4.55396C5.8795 4.55396 6.1875 4.8722 6.1875 5.26431V8.57932C6.1875 8.97143 5.8795 9.28967 5.5 9.28967Z" fill="#282828"/>
<path d="M7.10377 7.63306H3.8955C3.516 7.63306 3.20801 7.31461 3.20801 6.92224C3.20801 6.52987 3.516 6.21143 3.8955 6.21143H7.10377C7.48327 6.21143 7.79126 6.52987 7.79126 6.92224C7.79126 7.31461 7.48327 7.63306 7.10377 7.63306Z" fill="#282828"/>
<path d="M4.35426 19.7083C4.17826 19.7083 4.00226 19.6391 3.86843 19.4999C3.59985 19.2224 3.59985 18.7725 3.86843 18.495L6.16009 16.1271C6.42867 15.8496 6.86409 15.8496 7.13267 16.1271C7.40125 16.4046 7.40125 16.8545 7.13267 17.132L4.84101 19.4999C4.70626 19.6391 4.53026 19.7083 4.35426 19.7083Z" fill="#282828"/>
<path d="M6.64592 19.7083C6.46992 19.7083 6.29392 19.6391 6.16009 19.4999L3.86843 17.132C3.59985 16.8545 3.59985 16.4046 3.86843 16.1271C4.13701 15.8496 4.57243 15.8496 4.84101 16.1271L7.13267 18.495C7.40125 18.7725 7.40125 19.2224 7.13267 19.4999C6.99792 19.6391 6.82192 19.7083 6.64592 19.7083Z" fill="#282828"/>
<path d="M18.5625 7.39612H14.4375C14.058 7.39612 13.75 7.0777 13.75 6.68536C13.75 6.29303 14.058 5.97461 14.4375 5.97461H18.5625C18.942 5.97461 19.25 6.29303 19.25 6.68536C19.25 7.0777 18.942 7.39612 18.5625 7.39612Z" fill="#282828"/>
<path d="M18.5625 19.709H14.4375C14.058 19.709 13.75 19.3906 13.75 18.9983C13.75 18.606 14.058 18.2876 14.4375 18.2876H18.5625C18.942 18.2876 19.25 18.606 19.25 18.9983C19.25 19.3906 18.942 19.709 18.5625 19.709Z" fill="#282828"/>
<path d="M18.5625 16.8674H14.4375C14.058 16.8674 13.75 16.549 13.75 16.1567C13.75 15.7644 14.058 15.446 14.4375 15.446H18.5625C18.942 15.446 19.25 15.7644 19.25 16.1567C19.25 16.549 18.942 16.8674 18.5625 16.8674Z" fill="#282828"/>
</svg>
