<svg width="70" height="49" viewBox="0 0 70 49" fill="none" xmlns="http://www.w3.org/2000/svg">
<path d="M41.9908 18.669C44.5715 18.669 46.6564 16.5841 46.6564 14.0034C46.6564 11.4227 44.5715 9.33777 41.9908 9.33777C39.4101 9.33777 37.3252 11.4227 37.3252 14.0034C37.3252 16.5841 39.4101 18.669 41.9908 18.669ZM41.9908 11.6706C43.2739 11.6706 44.3236 12.7203 44.3236 14.0034C44.3236 15.2864 43.2739 16.3362 41.9908 16.3362C40.7078 16.3362 39.658 15.2864 39.658 14.0034C39.658 12.7203 40.7078 11.6706 41.9908 11.6706Z" fill="white"/>
<path d="M68.5408 0.0335228L50.0096 4.66998H19.9747L1.44343 0.0335228C1.0935 -0.0393775 0.729003 0.0335228 0.451982 0.252224C0.160381 0.470925 0 0.806266 0 1.17077V47.827C0 48.1915 0.160381 48.5268 0.451982 48.7455C0.729003 48.9642 1.10808 49.0517 1.45801 48.9642L19.9747 44.3277H50.0096L68.5263 48.9642C68.8762 49.0517 69.2407 48.9788 69.5323 48.7455C69.8093 48.5268 69.9843 48.1915 69.9843 47.827V1.17077C69.9843 0.806266 69.8239 0.470925 69.5323 0.252224C69.2553 0.0335228 68.8908 -0.0539576 68.5408 0.0335228ZM20.9953 7.00279H48.989V22.7201L47.7934 20.4602C47.5747 20.0957 47.1811 19.8916 46.7582 19.8916C46.3354 19.8916 45.9418 20.1103 45.7231 20.4602L41.2032 29.0333L35.9398 17.0339C35.7503 16.6111 35.3421 16.334 34.8755 16.334C34.4089 16.334 33.9861 16.6111 33.8111 17.0339L28.7519 28.5667L24.4799 20.4602C24.2758 20.0811 23.8821 19.8332 23.4447 19.8332C23.0073 19.8332 22.6137 20.0665 22.4095 20.4602L20.9953 23.1429V7.00279ZM42.3113 37.3293H27.4397L34.8755 20.4019L42.3113 37.3293ZM18.6625 42.2574L2.33281 46.3398V2.67251L18.6625 6.75493V27.5607L13.1804 37.9563C12.9908 38.3208 13.0054 38.7582 13.2095 39.1081C13.4137 39.458 13.7927 39.6767 14.201 39.6767H18.6625V42.2574ZM16.1547 37.3293L23.4447 23.5074L27.5563 31.3078L24.9027 37.3293H16.1547ZM48.989 41.9949H20.9953V39.6621H48.989V41.9949ZM44.8628 37.3293L42.4134 31.7597L46.7728 23.5074L54.0483 37.3293H44.8628ZM67.6515 46.3398L51.3218 42.2574V39.6621H55.9874C56.3957 39.6621 56.7747 39.4434 56.9934 39.0935C57.2121 38.7436 57.2121 38.3062 57.0226 37.9417L51.3218 27.1379V6.75493L67.6515 2.67251V46.3398Z" fill="white"/>
</svg>
