<svg width="21" height="23" viewBox="0 0 21 23" fill="none" xmlns="http://www.w3.org/2000/svg">
<path d="M9.49359 13.8815H11.9165C12.4712 13.8815 12.472 12.9887 11.9165 12.9887H9.49359C8.32537 12.9887 7.37469 12.0067 7.37469 10.7993C7.37469 9.59216 8.32524 8.61001 9.49359 8.61001H13.0552C13.1991 8.61001 13.3264 8.53703 13.405 8.42507C13.4072 8.42299 13.4097 8.42104 13.4119 8.4191C14.0241 7.89882 14.6392 7.37563 15.1615 6.75962C15.6837 6.14361 16.1133 5.42493 16.2942 4.62759C16.4809 3.80555 16.3764 2.91428 16.0604 2.14024C15.8001 1.50245 15.397 0.915298 14.8313 0.531541C14.2022 0.104912 13.4193 -0.0739247 12.6744 0.0279111C11.7572 0.153333 10.9062 0.699556 10.3712 1.47956C9.8364 2.25942 9.61914 3.25919 9.75597 4.20457C9.88474 5.09515 10.3113 5.9183 10.8617 6.61658C11.176 7.01532 11.53 7.37674 11.9032 7.71721H9.49372C7.84882 7.71721 6.51074 9.10004 6.51074 10.7993C6.51074 12.4989 7.84882 13.8815 9.49359 13.8815ZM10.6861 4.52298C10.373 3.45495 10.7498 2.12998 11.5627 1.44099C11.9965 1.07332 12.5284 0.889492 13.0601 0.889492C13.5904 0.889492 14.1207 1.07235 14.5538 1.43766L14.5616 1.44432C15.3919 2.15148 15.7568 3.57052 15.3924 4.67754C15.0072 5.8474 14.0006 6.76073 13.0607 7.56487C12.0662 6.70634 11.0317 5.70117 10.6861 4.52298Z" fill="white"/>
<path d="M16.9467 12.9888H15.3584C14.8037 12.9888 14.8029 13.8816 15.3584 13.8816H16.9467C18.2375 13.8816 19.2876 14.9668 19.2876 16.3004C19.2876 17.6338 18.2375 18.7191 16.9467 18.7191H12.905C12.7064 17.777 11.8933 17.0691 10.9231 17.0691H10.1522L9.75887 16.6303C8.77878 15.5366 7.38942 14.9094 5.94688 14.9094H3.37493C2.92322 14.9094 2.55557 15.2891 2.55557 15.7558V17.0691H2.0288C0.909998 17.0691 0 18.0095 0 19.1654C0 20.1055 0.610425 20.9217 1.46161 21.178C1.62623 22.0616 2.37993 22.7314 3.28241 22.7314C4.15629 22.7314 4.89038 22.1036 5.08575 21.2616H7.94197C8.13734 22.1036 8.87144 22.7314 9.74531 22.7314C10.6565 22.7314 11.4157 22.0486 11.5704 21.1523C12.249 20.9174 12.7547 20.3284 12.9054 19.6119H16.9467C18.7138 19.6119 20.1517 18.1262 20.1517 16.3004C20.1517 14.4744 18.7138 12.9888 16.9467 12.9888ZM3.41964 15.8022H5.94688C7.07373 15.8022 8.16165 16.2614 8.9665 17.0691H3.41964V15.8022ZM3.28254 21.8386C2.73644 21.8386 2.29198 21.3796 2.29198 20.8152C2.29198 20.2508 2.73644 19.7917 3.28254 19.7917C3.82852 19.7917 4.27297 20.2508 4.27297 20.8152C4.27297 21.3796 3.82852 21.8386 3.28254 21.8386ZM9.74531 21.8386C9.19907 21.8386 8.75488 21.3796 8.75488 20.8152C8.75488 20.2508 9.19907 19.7917 9.74531 19.7917C10.2914 19.7917 10.7357 20.2508 10.7357 20.8152C10.7357 21.3796 10.2914 21.8386 9.74531 21.8386ZM11.5042 20.2086C11.2579 19.4484 10.5629 18.8989 9.74531 18.8989C8.87144 18.8989 8.13734 19.5268 7.9421 20.3688H5.08575C4.89052 19.5268 4.15629 18.8989 3.28254 18.8989C2.45244 18.8989 1.74789 19.4655 1.5121 20.244C1.12592 20.0454 0.864209 19.632 0.864209 19.1652C0.864209 18.5016 1.38655 17.9618 2.02893 17.9618H2.98781L9.96418 17.9626C9.96768 17.9626 9.97103 17.9619 9.97452 17.9618H10.9232C11.5654 17.9618 12.0879 18.5016 12.0879 19.1652C12.0878 19.6064 11.8567 19.9991 11.5042 20.2086Z" fill="white"/>
<path d="M14.7053 3.45067C14.7053 2.51322 13.9674 1.75049 13.0601 1.75049C12.153 1.75049 11.415 2.51322 11.415 3.45067C11.415 4.3884 12.153 5.15112 13.0601 5.15112C13.9674 5.15112 14.7053 4.3884 14.7053 3.45067ZM12.2791 3.45067C12.2791 3.0056 12.6295 2.64353 13.0601 2.64353C13.4908 2.64353 13.8412 3.0056 13.8412 3.45067C13.8412 3.89587 13.4908 4.25808 13.0601 4.25808C12.6295 4.25808 12.2791 3.89587 12.2791 3.45067Z" fill="white"/>
<path d="M13.357 13.1194C13.1908 13.291 13.1909 13.579 13.357 13.7508C13.523 13.9225 13.8019 13.9225 13.968 13.7508C14.1293 13.5839 14.1345 13.3076 13.9807 13.1337C13.8173 12.9491 13.5285 12.9421 13.357 13.1194C13.4373 13.0362 13.2766 13.2024 13.357 13.1194Z" fill="white"/>
<path d="M9.74559 20.3687C9.51087 20.3687 9.31348 20.5728 9.31348 20.8155C9.31348 21.0584 9.51087 21.2625 9.74559 21.2625C9.97374 21.2625 10.1667 21.0702 10.1768 20.8351C10.1875 20.5851 9.98797 20.3687 9.74559 20.3687Z" fill="white"/>
<path d="M3.2827 20.3687C3.04798 20.3687 2.85059 20.5728 2.85059 20.8155C2.85059 21.0584 3.04798 21.2625 3.2827 21.2625C3.51085 21.2625 3.70381 21.0702 3.71388 20.8351C3.72462 20.5851 3.52508 20.3687 3.2827 20.3687Z" fill="white"/>
</svg>
