<svg width="22" height="22" viewBox="0 0 22 22" fill="none" xmlns="http://www.w3.org/2000/svg">
<path d="M11 0C8.82441 0 6.69767 0.645139 4.88873 1.85383C3.07979 3.06253 1.66989 4.7805 0.83733 6.79048C0.00476615 8.80047 -0.213071 11.0122 0.211367 13.146C0.635804 15.2798 1.68345 17.2398 3.22183 18.7782C4.76021 20.3166 6.72022 21.3642 8.85401 21.7886C10.9878 22.2131 13.1995 21.9952 15.2095 21.1627C17.2195 20.3301 18.9375 18.9202 20.1462 17.1113C21.3549 15.3023 22 13.1756 22 11C21.9967 8.08362 20.8368 5.28763 18.7746 3.22544C16.7124 1.16325 13.9164 0.0032754 11 0V0ZM11 20.1667C9.18701 20.1667 7.41473 19.6291 5.90728 18.6218C4.39983 17.6146 3.22491 16.1829 2.53111 14.5079C1.83731 12.8329 1.65578 10.9898 2.00947 9.21167C2.36317 7.43351 3.23621 5.80017 4.51819 4.51819C5.80017 3.23621 7.43352 2.36317 9.21168 2.00947C10.9898 1.65577 12.8329 1.8373 14.5079 2.5311C16.1829 3.22491 17.6146 4.39982 18.6218 5.90727C19.6291 7.41472 20.1667 9.18701 20.1667 11C20.1639 13.4303 19.1973 15.7603 17.4788 17.4788C15.7603 19.1973 13.4303 20.1639 11 20.1667Z" fill="#282828"/>
<path d="M12.375 6.41699H9.16667C8.92355 6.41699 8.69039 6.51357 8.51849 6.68548C8.34658 6.85739 8.25 7.09054 8.25 7.33366V16.5003H10.0833V12.8337H12.375C13.2259 12.8337 14.042 12.4956 14.6436 11.894C15.2453 11.2923 15.5833 10.4762 15.5833 9.62533C15.5833 8.77442 15.2453 7.95837 14.6436 7.35669C14.042 6.75501 13.2259 6.41699 12.375 6.41699ZM12.375 11.0003H10.0833V8.25033H12.375C12.7397 8.25033 13.0894 8.39519 13.3473 8.65305C13.6051 8.91092 13.75 9.26065 13.75 9.62533C13.75 9.99 13.6051 10.3397 13.3473 10.5976C13.0894 10.8555 12.7397 11.0003 12.375 11.0003Z" fill="#282828"/>
</svg>
