<svg width="22" height="17" viewBox="0 0 22 17" fill="none" xmlns="http://www.w3.org/2000/svg">
<path d="M19.6087 3.82617H2.39136C2.12736 3.82617 1.91309 4.04045 1.91309 4.30445V7.17401C1.91309 12.1843 5.98979 16.261 11.0001 16.261C16.0103 16.261 20.087 12.1843 20.087 7.17401V4.30445C20.087 4.04045 19.8727 3.82617 19.6087 3.82617ZM19.1305 7.17401C19.1305 11.6572 15.4833 15.3044 11.0001 15.3044C6.5169 15.3044 2.86964 11.6572 2.86964 7.17401V4.78272H19.1305V7.17401Z" fill="black"/>
<path d="M10.9997 5.73926C8.62653 5.73926 6.69531 7.67047 6.69531 10.0436C6.69531 12.4167 8.62653 14.3479 10.9997 14.3479C13.3728 14.3479 15.304 12.4167 15.304 10.0436C15.304 7.67047 13.3728 5.73926 10.9997 5.73926ZM10.9997 13.3914C9.15359 13.3914 7.65182 11.8897 7.65182 10.0436C7.65182 8.19749 9.15354 6.69576 10.9997 6.69576C12.8458 6.69576 14.3475 8.19753 14.3475 10.0436C14.3475 11.8897 12.8458 13.3914 10.9997 13.3914Z" fill="black"/>
<path d="M10.9997 7.65234C9.68067 7.65234 8.6084 8.72556 8.6084 10.0436C8.6084 11.3617 9.68067 12.4349 10.9997 12.4349C12.3187 12.4349 13.391 11.3617 13.391 10.0436C13.391 8.72556 12.3187 7.65234 10.9997 7.65234ZM10.9997 11.4784C10.2086 11.4784 9.5649 10.8347 9.5649 10.0436C9.5649 9.25257 10.2086 8.60885 10.9997 8.60885C11.7907 8.60885 12.4345 9.25257 12.4345 10.0436C12.4345 10.8347 11.7907 11.4784 10.9997 11.4784Z" fill="black"/>
<path d="M21.5217 0H0.478276C0.214276 0 0 0.214276 0 0.478276V3.34784C0 4.1389 0.643724 4.78262 1.43478 4.78262H20.5652C21.3563 4.78262 22 4.1389 22 3.34784V0.478276C22 0.214276 21.7857 0 21.5217 0ZM21.0434 3.34784C21.0434 3.61184 20.8282 3.82611 20.5652 3.82611H1.43478C1.17172 3.82611 0.956506 3.61184 0.956506 3.34784V0.956506H21.0434V3.34784Z" fill="black"/>
<path d="M16.739 7.65186C17.0032 7.65186 17.2173 7.43773 17.2173 7.17359C17.2173 6.90944 17.0032 6.69531 16.739 6.69531C16.4749 6.69531 16.2607 6.90944 16.2607 7.17359C16.2607 7.43773 16.4749 7.65186 16.739 7.65186Z" fill="black"/>
</svg>
