<svg width="22" height="22" viewBox="0 0 22 22" fill="none" xmlns="http://www.w3.org/2000/svg">
<path d="M13.5781 8.42188V5.11328H5.11328V13.5781H8.42188V16.8867H16.8867V8.42188H13.5781ZM8.42188 11.8594H6.83203V6.83203H11.8594V8.42188H8.42188V11.8594ZM11.8594 10.1406V11.8594H10.1406V10.1406H11.8594ZM15.168 15.168H10.1406V13.5781H13.5781V10.1406H15.168V15.168Z" fill="#282828"/>
<path d="M3.4375 0H0V3.4375H3.4375V0Z" fill="#282828"/>
<path d="M22 0H18.5625V3.4375H22V0Z" fill="#282828"/>
<path d="M13.5781 1.71875H11.8594V3.4375H13.5781V1.71875Z" fill="#282828"/>
<path d="M16.9297 1.71875H15.2109V3.4375H16.9297V1.71875Z" fill="#282828"/>
<path d="M10.2266 1.71875H8.50781V3.4375H10.2266V1.71875Z" fill="#282828"/>
<path d="M6.875 1.71875H5.15625V3.4375H6.875V1.71875Z" fill="#282828"/>
<path d="M22 18.5625H18.5625V22H22V18.5625Z" fill="#282828"/>
<path d="M20.2812 11.8594H18.5625V13.5781H20.2812V11.8594Z" fill="#282828"/>
<path d="M20.2812 15.2109H18.5625V16.9297H20.2812V15.2109Z" fill="#282828"/>
<path d="M20.2812 8.50781H18.5625V10.2266H20.2812V8.50781Z" fill="#282828"/>
<path d="M20.2812 5.15625H18.5625V6.875H20.2812V5.15625Z" fill="#282828"/>
<path d="M3.4375 18.5625H0V22H3.4375V18.5625Z" fill="#282828"/>
<path d="M3.4375 11.8594H1.71875V13.5781H3.4375V11.8594Z" fill="#282828"/>
<path d="M3.4375 15.2109H1.71875V16.9297H3.4375V15.2109Z" fill="#282828"/>
<path d="M3.4375 8.50781H1.71875V10.2266H3.4375V8.50781Z" fill="#282828"/>
<path d="M3.4375 5.15625H1.71875V6.875H3.4375V5.15625Z" fill="#282828"/>
<path d="M13.5781 18.5625H11.8594V20.2812H13.5781V18.5625Z" fill="#282828"/>
<path d="M16.9297 18.5625H15.2109V20.2812H16.9297V18.5625Z" fill="#282828"/>
<path d="M10.2266 18.5625H8.50781V20.2812H10.2266V18.5625Z" fill="#282828"/>
<path d="M6.875 18.5625H5.15625V20.2812H6.875V18.5625Z" fill="#282828"/>
</svg>
