<svg width="22" height="22" viewBox="0 0 22 22" fill="none" xmlns="http://www.w3.org/2000/svg">
<path d="M18.0569 16.7177C20.2312 16.7177 22 14.9489 22 12.7746C22 11.3035 21.1675 9.95465 19.8855 9.28091C20.1206 8.76797 20.2433 8.20837 20.2433 7.6382C20.2433 5.46408 18.4745 3.69531 16.3004 3.69531C15.3472 3.69531 14.4514 4.03201 13.75 4.62888V2.56956C13.946 2.52962 14.0938 2.35623 14.0938 2.14844V0.429688C14.0938 0.192352 13.9014 0 13.6641 0H0.429688C0.192352 0 0 0.192352 0 0.429688V2.14844C0 2.35623 0.147705 2.52962 0.34375 2.56956V21.5703C0.34375 21.8076 0.536102 22 0.773438 22H17.6157C17.7429 22 17.8634 21.9438 17.9452 21.8463C18.2095 21.5305 18.3552 21.1299 18.3552 20.718C18.3552 19.7935 17.6375 19.0338 16.7301 18.9657V16.4881C17.1538 16.6391 17.6031 16.7177 18.0569 16.7177ZM16.3004 4.55469C18.0007 4.55469 19.3839 5.93791 19.3839 7.63837C19.3839 8.21223 19.2252 8.77234 18.9247 9.25809C18.8571 9.36736 18.8418 9.5013 18.8834 9.62299C18.9249 9.74467 19.0187 9.84135 19.1392 9.88651C20.3363 10.3352 21.1406 11.496 21.1406 12.7746C21.1406 14.4749 19.7574 15.8583 18.0569 15.8583C17.5964 15.8583 17.1423 15.7549 16.7301 15.5585V14.1L18.6805 12.1494C18.8483 11.9816 18.8483 11.7095 18.6805 11.5416C18.5128 11.374 18.2407 11.374 18.0729 11.5416L16.7301 12.8846V11.8597C16.7301 11.8595 16.7301 11.8594 16.7301 11.8592V8.78006C16.7301 8.54272 16.5376 8.35037 16.3004 8.35037C16.0631 8.35037 15.8707 8.54272 15.8707 8.78006V10.8221L15.5152 10.4666C15.3474 10.2989 15.0755 10.2989 14.9075 10.4666C14.7398 10.6344 14.7398 10.9065 14.9075 11.0744L15.8707 12.0375V13.9217V13.9222V15.5585C15.4583 15.7549 15.0043 15.8583 14.5437 15.8583C14.2733 15.8583 14.0075 15.8234 13.75 15.7549V5.90468C14.3262 5.05722 15.2707 4.55469 16.3004 4.55469ZM15.8707 18.5862C15.4345 18.1026 14.8063 17.8105 14.1241 17.8105C13.9974 17.8105 13.8725 17.821 13.75 17.8406V16.6368C14.0098 16.69 14.275 16.7177 14.5437 16.7177C14.9978 16.7177 15.4469 16.6391 15.8707 16.4881V18.5862ZM1.20312 2.57812H5.09901C5.33618 2.57812 5.5287 2.38577 5.5287 2.14844C5.5287 1.9111 5.33618 1.71875 5.09901 1.71875H0.859375V0.859375H13.2344V1.71875H8.96603C8.72887 1.71875 8.53635 1.9111 8.53635 2.14844C8.53635 2.38577 8.72887 2.57812 8.96603 2.57812H12.8906V18.1602C12.568 18.3589 12.2936 18.6352 12.0965 18.97C12.0747 18.9724 12.0529 18.9754 12.0312 18.9786V16.8438C12.0312 16.6064 11.8389 16.4141 11.6016 16.4141H9.71094C9.4736 16.4141 9.28125 16.6064 9.28125 16.8438V19.25C9.28125 19.4873 9.4736 19.6797 9.71094 19.6797H10.8669C10.6531 19.9709 10.5263 20.3298 10.5263 20.718C10.5263 20.8613 10.5443 21.0032 10.5784 21.1406H1.20312V2.57812ZM11.1719 18.8203H10.1406V17.2734H11.1719V18.8203ZM17.4958 20.718C17.4958 20.866 17.4591 21.0114 17.3901 21.1406H11.4915C11.4226 21.0114 11.3857 20.866 11.3857 20.718C11.3857 20.2227 11.7887 19.8197 12.284 19.8197C12.302 19.8197 12.3199 19.8203 12.3376 19.8214C12.5175 19.8316 12.684 19.7295 12.7562 19.5647C12.9942 19.0212 13.5311 18.6699 14.1241 18.6699C14.7693 18.6699 15.3388 19.0813 15.5414 19.6938C15.5819 19.8155 15.6744 19.913 15.7939 19.9593C15.9134 20.0058 16.0475 19.9964 16.1594 19.9336C16.2927 19.8591 16.4441 19.8197 16.5975 19.8197C17.0928 19.8197 17.4958 20.2227 17.4958 20.718Z" fill="#282828"/>
<path d="M4.38281 16.4141H2.49219C2.25485 16.4141 2.0625 16.6064 2.0625 16.8438V19.25C2.0625 19.4873 2.25485 19.6797 2.49219 19.6797H4.38281C4.62015 19.6797 4.8125 19.4873 4.8125 19.25V16.8438C4.8125 16.6064 4.62015 16.4141 4.38281 16.4141ZM3.95312 18.8203H2.92188V17.2734H3.95312V18.8203Z" fill="#282828"/>
<path d="M7.99219 16.4141H6.10156C5.86423 16.4141 5.67188 16.6064 5.67188 16.8438V19.25C5.67188 19.4873 5.86423 19.6797 6.10156 19.6797H7.99219C8.22952 19.6797 8.42188 19.4873 8.42188 19.25V16.8438C8.42188 16.6064 8.22952 16.4141 7.99219 16.4141ZM7.5625 18.8203H6.53125V17.2734H7.5625V18.8203Z" fill="#282828"/>
<path d="M4.38281 12.2891H2.49219C2.25485 12.2891 2.0625 12.4814 2.0625 12.7188V15.125C2.0625 15.3623 2.25485 15.5547 2.49219 15.5547H4.38281C4.62015 15.5547 4.8125 15.3623 4.8125 15.125V12.7188C4.8125 12.4814 4.62015 12.2891 4.38281 12.2891ZM3.95312 14.6953H2.92188V13.1484H3.95312V14.6953Z" fill="#282828"/>
<path d="M7.99219 12.2891H6.10156C5.86423 12.2891 5.67188 12.4814 5.67188 12.7188V15.125C5.67188 15.3623 5.86423 15.5547 6.10156 15.5547H7.99219C8.22952 15.5547 8.42188 15.3623 8.42188 15.125V12.7188C8.42188 12.4814 8.22952 12.2891 7.99219 12.2891ZM7.5625 14.6953H6.53125V13.1484H7.5625V14.6953Z" fill="#282828"/>
<path d="M9.71094 15.5547H11.6016C11.8389 15.5547 12.0312 15.3623 12.0312 15.125V12.7188C12.0312 12.4814 11.8389 12.2891 11.6016 12.2891H9.71094C9.4736 12.2891 9.28125 12.4814 9.28125 12.7188V15.125C9.28125 15.3623 9.4736 15.5547 9.71094 15.5547ZM10.1406 13.1484H11.1719V14.6953H10.1406V13.1484Z" fill="#282828"/>
<path d="M4.38281 8.16406H2.49219C2.25485 8.16406 2.0625 8.35641 2.0625 8.59375V11C2.0625 11.2373 2.25485 11.4297 2.49219 11.4297H4.38281C4.62015 11.4297 4.8125 11.2373 4.8125 11V8.59375C4.8125 8.35641 4.62015 8.16406 4.38281 8.16406ZM3.95312 10.5703H2.92188V9.02344H3.95312V10.5703Z" fill="#282828"/>
<path d="M7.99219 8.16406H6.10156C5.86423 8.16406 5.67188 8.35641 5.67188 8.59375V11C5.67188 11.2373 5.86423 11.4297 6.10156 11.4297H7.99219C8.22952 11.4297 8.42188 11.2373 8.42188 11V8.59375C8.42188 8.35641 8.22952 8.16406 7.99219 8.16406ZM7.5625 10.5703H6.53125V9.02344H7.5625V10.5703Z" fill="#282828"/>
<path d="M9.71094 11.4297H11.6016C11.8389 11.4297 12.0312 11.2373 12.0312 11V8.59375C12.0312 8.35641 11.8389 8.16406 11.6016 8.16406H9.71094C9.4736 8.16406 9.28125 8.35641 9.28125 8.59375V11C9.28125 11.2373 9.4736 11.4297 9.71094 11.4297ZM10.1406 9.02344H11.1719V10.5703H10.1406V9.02344Z" fill="#282828"/>
<path d="M4.38281 4.03906H2.49219C2.25485 4.03906 2.0625 4.23141 2.0625 4.46875V6.875C2.0625 7.11234 2.25485 7.30469 2.49219 7.30469H4.38281C4.62015 7.30469 4.8125 7.11234 4.8125 6.875V4.46875C4.8125 4.23141 4.62015 4.03906 4.38281 4.03906ZM3.95312 6.44531H2.92188V4.89844H3.95312V6.44531Z" fill="#282828"/>
<path d="M7.99219 4.03906H6.10156C5.86423 4.03906 5.67188 4.23141 5.67188 4.46875V6.875C5.67188 7.11234 5.86423 7.30469 6.10156 7.30469H7.99219C8.22952 7.30469 8.42188 7.11234 8.42188 6.875V4.46875C8.42188 4.23141 8.22952 4.03906 7.99219 4.03906ZM7.5625 6.44531H6.53125V4.89844H7.5625V6.44531Z" fill="#282828"/>
<path d="M9.71094 7.30469H11.6016C11.8389 7.30469 12.0312 7.11234 12.0312 6.875V4.46875C12.0312 4.23141 11.8389 4.03906 11.6016 4.03906H9.71094C9.4736 4.03906 9.28125 4.23141 9.28125 4.46875V6.875C9.28125 7.11234 9.4736 7.30469 9.71094 7.30469ZM10.1406 4.89844H11.1719V6.44531H10.1406V4.89844Z" fill="#282828"/>
<path d="M7.0332 2.57812C7.14616 2.57812 7.25694 2.53214 7.33684 2.45224C7.41673 2.37235 7.46289 2.2614 7.46289 2.14844C7.46289 2.03548 7.4169 1.92453 7.33684 1.84464C7.25694 1.76474 7.14616 1.71875 7.0332 1.71875C6.91957 1.71875 6.8093 1.76474 6.7294 1.84464C6.649 1.92453 6.60352 2.03548 6.60352 2.14844C6.60352 2.2614 6.649 2.37235 6.7294 2.45224C6.8093 2.53214 6.91957 2.57812 7.0332 2.57812Z" fill="#282828"/>
</svg>
