<svg width="22" height="13" viewBox="0 0 22 13" fill="none" xmlns="http://www.w3.org/2000/svg">
<path d="M18.3687 7.9553C19.077 8.64964 19.8275 9.29487 20.4587 10.0593C20.7392 10.396 21.0057 10.7467 21.2091 11.1394C21.4967 11.7005 21.2372 12.3107 20.7392 12.3457H17.6323C16.8327 12.4088 16.1875 12.0862 15.6545 11.5392C15.2266 11.0973 14.8269 10.6344 14.4131 10.1786C14.2448 9.99622 14.0624 9.82088 13.852 9.68062C13.4242 9.40709 13.0595 9.49125 12.814 9.9331C12.5685 10.382 12.5124 10.8799 12.4844 11.3849C12.4493 12.1143 12.2319 12.3107 11.4955 12.3457C9.92447 12.4229 8.43061 12.1844 7.04895 11.3919C5.82861 10.6906 4.8818 9.70867 4.05421 8.58651C2.44111 6.40533 1.21376 4.01374 0.105633 1.55903C-0.139838 1.00497 0.0425119 0.710402 0.652683 0.696376C1.66963 0.675335 2.67957 0.675335 3.69652 0.696376C4.11032 0.703389 4.38384 0.941847 4.53814 1.32759C5.08519 2.67417 5.75848 3.96465 6.60009 5.14992C6.82452 5.46553 7.05597 5.78113 7.37859 6.00556C7.73627 6.25103 8.01681 6.17389 8.18513 5.76711C8.29034 5.51462 8.33943 5.2411 8.36749 4.96757C8.44463 4.02777 8.45866 3.09498 8.31839 2.15517C8.23423 1.57306 7.9046 1.19433 7.32248 1.08212C7.02792 1.02601 7.07 0.913793 7.21026 0.74547C7.46275 0.450905 7.69419 0.268555 8.16409 0.268555H11.6778C12.2319 0.38077 12.3511 0.626241 12.4283 1.1803V5.0868C12.4213 5.30422 12.5335 5.94244 12.9262 6.08271C13.2348 6.1809 13.4452 5.93543 13.6276 5.73905C14.4692 4.84834 15.0723 3.78931 15.6054 2.69521C15.8438 2.21128 16.0472 1.71333 16.2436 1.21537C16.3909 0.843658 16.6223 0.661308 17.0361 0.668322H20.4166C20.5148 0.668322 20.62 0.668322 20.7182 0.689362C21.2863 0.787551 21.4476 1.03302 21.2652 1.58708C20.9847 2.46377 20.4517 3.18615 19.9186 3.92257C19.3576 4.70106 18.7544 5.45851 18.1933 6.24402C17.6954 6.97342 17.7304 7.33111 18.3687 7.9553Z" fill="#4C4C4C"/>
</svg>
